<svg width="168" height="53" xmlns="http://www.w3.org/2000/svg">
    <defs>
        <linearGradient x1="1.632%" y1="45.024%" x2="100%" y2="54.976%" id="a">
            <stop stop-color="#4B6BB7" offset="0%"/>
            <stop stop-color="#182848" offset="100%"/>
        </linearGradient>
    </defs>
    <g fill-rule="nonzero" fill="none">
        <path d="M6.825 0h154.35C164.94 0 168 2.851 168 6.36v40.28c0 3.509-3.06 6.36-6.825 6.36H6.825C3.06 53 0 50.149 0 46.64V6.36C0 2.851 3.06 0 6.825 0z" fill="url(#a)" opacity=".691"/>
        <g fill="#FFF">
            <path d="M37.38 27.347c-.036-4.5 3.562-6.686 3.72-6.786-2.042-3.067-5.203-3.494-6.309-3.532-2.65-.289-5.227 1.647-6.577 1.647-1.374 0-3.465-1.609-5.701-1.571-2.882.05-5.593 1.772-7.064 4.461-3.05 5.467-.778 13.51 2.152 17.933 1.471 2.161 3.173 4.587 5.422 4.499 2.188-.088 3.015-1.446 5.653-1.446 2.626 0 3.392 1.446 5.677 1.395 2.359-.037 3.83-2.174 5.252-4.36 1.69-2.476 2.37-4.926 2.395-5.052-.06-.025-4.571-1.81-4.62-7.188"/>
            <path d="M33.19 14.553c1.186-1.48 1.994-3.498 1.774-5.553-1.713.073-3.867 1.186-5.103 2.642-1.089 1.284-2.068 3.376-1.823 5.345 1.933.147 3.916-.978 5.151-2.434"/>
        </g>
        <g fill="#FFF">
            <path d="M69.672 39.3h-2.698l-1.477-4.723h-5.139L58.956 39.3h-2.623l5.085-16.07h3.147l5.107 16.07zm-4.614-6.703-1.338-4.19c-.14-.434-.407-1.435-.793-3.024h-.053c-.16.685-.407 1.697-.75 3.025l-1.316 4.189h4.25zM82.742 33.37c0 1.969-.524 3.525-1.584 4.667-.942 1.023-2.12 1.524-3.511 1.524-1.51 0-2.59-.544-3.255-1.643V44h-2.537V31.52c0-1.24-.032-2.503-.096-3.809h2.227l.139 1.84h.043c.845-1.383 2.13-2.079 3.843-2.079 1.349 0 2.462.544 3.361 1.621.92 1.088 1.37 2.503 1.37 4.276zm-2.58.086c0-1.131-.246-2.056-.749-2.785-.546-.762-1.285-1.143-2.205-1.143-.621 0-1.188.218-1.702.632a2.922 2.922 0 0 0-.996 1.653 3.577 3.577 0 0 0-.118.784v1.937c0 .838.257 1.556.76 2.132.504.577 1.167.87 1.98.87.954 0 1.692-.38 2.228-1.12.535-.75.802-1.73.802-2.96zM95.845 33.37c0 1.969-.524 3.525-1.584 4.667-.942 1.023-2.12 1.524-3.511 1.524-1.51 0-2.591-.544-3.255-1.643V44h-2.537V31.52c0-1.24-.032-2.503-.096-3.809h2.227l.139 1.84h.043c.845-1.383 2.13-2.079 3.843-2.079 1.348 0 2.462.544 3.361 1.621.92 1.088 1.37 2.503 1.37 4.276zm-2.58.086c0-1.131-.246-2.056-.749-2.785-.546-.762-1.285-1.143-2.205-1.143-.621 0-1.189.218-1.702.632-.503.424-.835.968-.996 1.653a3.577 3.577 0 0 0-.118.784v1.937c0 .838.257 1.556.76 2.132.504.577 1.167.87 1.98.87.954 0 1.703-.38 2.227-1.12.546-.75.803-1.73.803-2.96zM110.511 34.795c0 1.37-.471 2.48-1.402 3.34-1.028.936-2.462 1.404-4.304 1.404-1.702 0-3.061-.337-4.089-1.001l.589-2.144a7.023 7.023 0 0 0 3.66 1.001c.954 0 1.703-.217 2.228-.653.535-.435.802-1.022.802-1.751 0-.653-.224-1.197-.653-1.643-.439-.446-1.166-.86-2.183-1.24-2.794-1.056-4.175-2.59-4.175-4.603 0-1.317.492-2.394 1.466-3.243.974-.838 2.27-1.262 3.886-1.262 1.435 0 2.634.25 3.586.762l-.642 2.089c-.9-.49-1.906-.74-3.04-.74-.889 0-1.595.228-2.098.664-.418.402-.632.881-.632 1.458 0 .63.246 1.164.728 1.566.417.381 1.188.795 2.301 1.24 1.36.556 2.356 1.209 2.998 1.96.653.75.974 1.686.974 2.796M118.904 29.648h-2.794v5.626c0 1.425.492 2.143 1.477 2.143.45 0 .824-.043 1.124-.12l.075 1.959c-.503.185-1.156.283-1.97.283-1.006 0-1.777-.316-2.344-.936-.567-.62-.846-1.665-.846-3.123v-5.843h-1.66v-1.926h1.66V25.59l2.484-.762v2.883h2.794v1.937M131.471 33.413c0 1.784-.503 3.242-1.498 4.385-1.05 1.175-2.441 1.763-4.175 1.763-1.67 0-3.008-.566-4.004-1.687-.995-1.12-1.488-2.546-1.488-4.265 0-1.796.514-3.264 1.53-4.407 1.029-1.142 2.41-1.72 4.144-1.72 1.67 0 3.019.567 4.036 1.698.974 1.088 1.455 2.503 1.455 4.233zm-2.622.054c0-1.066-.225-1.97-.675-2.73-.535-.926-1.295-1.383-2.28-1.383-1.017 0-1.798.457-2.323 1.382-.46.762-.674 1.687-.674 2.786 0 1.066.225 1.98.674 2.73.546.926 1.317 1.383 2.302 1.383.963 0 1.723-.468 2.28-1.404.46-.783.696-1.697.696-2.764zM139.714 29.975a4.62 4.62 0 0 0-.803-.066c-.888 0-1.584.338-2.066 1.023-.417.599-.631 1.371-.631 2.285V39.3h-2.537v-7.943c0-1.338-.022-2.557-.075-3.645h2.205l.096 2.22h.075c.268-.762.685-1.382 1.263-1.839.568-.413 1.178-.62 1.83-.62.236 0 .45.022.633.044l.01 2.459M151.04 32.956c0 .457-.032.849-.096 1.164h-7.6c.031 1.143.395 2.024 1.102 2.622.642.534 1.466.806 2.483.806 1.124 0 2.152-.185 3.073-.544l.396 1.784c-1.081.479-2.355.718-3.822.718-1.766 0-3.158-.533-4.164-1.588-1.006-1.056-1.51-2.481-1.51-4.255 0-1.74.472-3.199 1.414-4.363.984-1.24 2.312-1.86 3.982-1.86 1.638 0 2.89.62 3.725 1.86.675 1.001 1.017 2.209 1.017 3.656zm-2.42-.664c.022-.761-.15-1.425-.492-1.98-.439-.718-1.113-1.077-2.012-1.077-.824 0-1.499.348-2.013 1.044-.417.555-.674 1.23-.75 2.002l5.268.011z"/>
        </g>
        <g fill="#FFF">
            <path d="M60.862 17.876H59.54l-.724-2.196H56.3l-.692 2.196H54.33l2.483-7.484h1.534l2.515 7.484zm-2.27-3.123-.65-1.96c-.064-.195-.192-.67-.394-1.412h-.021c-.086.32-.192.784-.373 1.413l-.64 1.959h2.078zM67.084 12.474l-2.11 5.402H63.77l-2.045-5.402h1.331l.949 2.856c.16.474.298.928.405 1.36h.032c.096-.391.234-.845.405-1.36l.937-2.856h1.3M71.58 17.876l-.095-.618h-.032c-.384.495-.927.742-1.63.742-1.002 0-1.705-.68-1.705-1.588 0-1.33 1.193-2.02 3.26-2.02v-.103c0-.712-.394-1.062-1.161-1.062-.554 0-1.034.134-1.46.402l-.256-.784c.512-.309 1.162-.464 1.918-.464 1.46 0 2.195.743 2.195 2.238v1.99c0 .546.021.968.085 1.288l-1.119-.02zm-.17-2.69c-1.374 0-2.067.32-2.067 1.092 0 .567.352.846.852.846.629 0 1.215-.464 1.215-1.103v-.835zM75.374 11.588a.714.714 0 0 1-.736-.722c0-.412.33-.711.757-.711.426 0 .767.299.756.711 0 .433-.32.722-.777.722zm-.597.886h1.236v5.392h-1.236v-5.392zM78.219 10h1.236v7.866h-1.236zM84.718 17.876l-.096-.618h-.032c-.383.495-.927.742-1.63.742-1.002 0-1.705-.68-1.705-1.588 0-1.33 1.194-2.02 3.26-2.02v-.103c0-.712-.394-1.062-1.16-1.062-.555 0-1.034.134-1.46.402l-.256-.794c.511-.31 1.161-.464 1.918-.464 1.46 0 2.195.742 2.195 2.237v1.99c0 .546.02.969.074 1.289h-1.108v-.01zm-.17-2.69c-1.375 0-2.067.32-2.067 1.092 0 .567.351.846.852.846.629 0 1.215-.464 1.215-1.103v-.835zM90.78 18c-.788 0-1.374-.32-1.757-.959H89l-.074.835h-1.055c.032-.433.043-.917.043-1.453V10h1.246v3.268h.022c.372-.598.958-.897 1.779-.897 1.342 0 2.28 1.114 2.28 2.732 0 1.67-1.044 2.897-2.461 2.897zm-.255-4.69c-.714 0-1.364.597-1.364 1.432v.949c0 .742.586 1.35 1.343 1.35.927 0 1.48-.732 1.48-1.897 0-1.092-.575-1.835-1.459-1.835zM95.075 10h1.236v7.866h-1.236zM103.055 15.464h-3.718c.021 1.02.724 1.598 1.758 1.598.554 0 1.055-.093 1.502-.258l.192.835c-.522.227-1.14.33-1.865.33-1.747 0-2.78-1.062-2.78-2.722 0-1.65 1.054-2.896 2.642-2.896 1.417 0 2.323 1.02 2.323 2.567 0 .216-.011.402-.054.546zm-1.13-.856c0-.835-.436-1.422-1.224-1.422-.714 0-1.268.598-1.354 1.422h2.579zM110.567 18c-1.63 0-2.685-1.175-2.685-2.773 0-1.67 1.076-2.856 2.781-2.856 1.609 0 2.685 1.124 2.685 2.763 0 1.68-1.108 2.866-2.78 2.866zm.053-4.753c-.895 0-1.47.815-1.47 1.939 0 1.113.586 1.917 1.46 1.917.873 0 1.46-.866 1.46-1.948-.011-1.093-.576-1.908-1.45-1.908zM120.007 17.876h-1.236v-3.103c0-.959-.383-1.433-1.129-1.433-.735 0-1.236.608-1.236 1.32v3.206h-1.236v-3.845c0-.475-.01-.99-.043-1.547h1.087l.054.835h.031c.33-.577 1.013-.948 1.77-.948 1.171 0 1.938.866 1.938 2.278v3.237M128.116 13.381h-1.364V16c0 .67.245 1 .725 1a2.8 2.8 0 0 0 .554-.052l.032.908c-.245.092-.565.134-.96.134-.98 0-1.555-.526-1.555-1.887v-2.722h-.81v-.896h.81v-.99l1.215-.361v1.34h1.364v.907M134.68 17.876h-1.237v-3.082c0-.97-.383-1.454-1.13-1.454-.638 0-1.235.423-1.235 1.279v3.247h-1.236V10h1.236v3.237h.021c.395-.588.949-.876 1.673-.876 1.183 0 1.907.886 1.907 2.299v3.216M141.008 15.464h-3.718c.021 1.02.724 1.598 1.758 1.598.554 0 1.055-.093 1.502-.258l.192.835c-.522.227-1.14.33-1.865.33-1.747 0-2.78-1.062-2.78-2.722 0-1.65 1.054-2.896 2.642-2.896 1.417 0 2.323 1.02 2.323 2.567 0 .216-.011.402-.054.546zm-1.129-.856c0-.835-.437-1.422-1.225-1.422-.714 0-1.279.598-1.354 1.422h2.579z"/>
        </g>
    </g>
</svg>
