<svg width="482" height="432" xmlns="http://www.w3.org/2000/svg">
    <g fill-rule="nonzero" fill="none">
        <ellipse cx="241" cy="135.755" rx="241" ry="135.755" transform="translate(0 160.49)" fill="#F5F5F5"/>
        <path fill="#455A64" d="m382.401 171.737 5.112.15 4.253-56.995-5.122-.14zM426.13 195.802l5.122.15 4.243-56.995-5.111-.15zM424.403 200.685h8.476l12.31 88.176a1 1 0 0 1-.608.93c-.944.47-2.052.47-2.996 0a1.2 1.2 0 0 1-.599-.73l-16.583-88.376zM373.575 171.277h8.477l12.31 88.175a1 1 0 0 1-.61.93c-.94.48-2.053.48-2.994 0a1.12 1.12 0 0 1-.6-.73l-16.583-88.375zM308.121 287.29l14.627-86.605h8.476l-18.85 86.805a1.12 1.12 0 0 1-.599.73 3.338 3.338 0 0 1-2.995 0 1 1 0 0 1-.619-.93h-.04zM363.182 319.15l12.32-88.176h8.467l-16.524 88.386a1.15 1.15 0 0 1-.609.72 3.278 3.278 0 0 1-2.995 0 1 1 0 0 1-.619-.93h-.04z"/>
        <path d="M322.748 200.685h8.476l-3.444 15.87a143.073 143.073 0 0 1-5.631-4.923 5.503 5.503 0 0 1-.999-1.35l1.598-9.597zM432.88 200.685l1.467 10.537a6.658 6.658 0 0 1-1.637 2.862 131.167 131.167 0 0 1-4.992 4.363l-3.325-17.762h8.486zM373.785 243.132l1.697-12.158h8.467l-2.766 14.8a205.695 205.695 0 0 1-7.398-2.642zM381.203 173.549a7.571 7.571 0 0 1 1.148-.13l9.625 68.943c-1.548.83-3.095 1.65-4.643 2.441l-13.059-69.784c2.287-.53 4.593-1.03 6.93-1.47z" fill="#37474F"/>
        <path d="M381.293 239.1c-23.961-7.955-43.35-19.623-59.154-34.172a6.852 6.852 0 0 1-1.897-4.403v-4.572a5.768 5.768 0 0 1 2.086-4.173c16.763-12.278 36.322-20.683 58.905-24.946a12.702 12.702 0 0 1 5.062.28c20.227 6.191 35.755 15.1 46.584 26.727a7.685 7.685 0 0 1 1.748 4.563v4.573a6.852 6.852 0 0 1-1.897 4.403c-12.14 11.197-29.483 22.694-46.605 31.36a7.233 7.233 0 0 1-4.832.36z" fill="#407BFF"/>
        <path d="M320.242 195.953v4.572a6.812 6.812 0 0 0 1.907 4.403c15.794 14.56 35.183 26.217 59.144 34.171a6.625 6.625 0 0 0 2.676.21v-72.525a11.197 11.197 0 0 0-2.766.11c-22.553 4.253-42.112 12.668-58.905 24.936a5.778 5.778 0 0 0-2.056 4.123z" fill="#000" opacity=".4"/>
        <path d="M383.969 166.784v72.576a6.09 6.09 0 0 0 2.136-.57c17.112-8.666 34.464-20.163 46.605-31.36a6.832 6.832 0 0 0 1.897-4.393v-4.593a7.605 7.605 0 0 0-1.747-4.543c-10.823-11.64-26.351-20.553-46.585-26.736a10.561 10.561 0 0 0-2.306-.38z" fill="#000" opacity=".5"/>
        <path d="M432.69 197.544c-12.14 11.197-29.482 22.664-46.605 31.33-1.515.669-3.213.8-4.812.37-23.961-7.916-43.35-19.573-59.154-34.132a2.093 2.093 0 0 1 .19-3.342c16.762-12.268 36.32-20.673 58.904-24.936a12.702 12.702 0 0 1 5.062.28c20.227 6.184 35.755 15.08 46.585 26.687a2.656 2.656 0 0 1-.17 3.743z" fill="#407BFF"/>
        <path d="M432.69 197.544c-12.14 11.197-29.482 22.664-46.605 31.33-1.515.669-3.213.8-4.812.37-23.961-7.916-43.35-19.573-59.154-34.132a2.093 2.093 0 0 1 .19-3.342c16.762-12.268 36.32-20.673 58.904-24.936a12.702 12.702 0 0 1 5.062.28c20.227 6.184 35.755 15.08 46.585 26.687a2.656 2.656 0 0 1-.17 3.743z" fill="#000" opacity=".3"/>
        <path d="M445.519 129.541c-16.22-20.913-37.423-33.18-63.607-36.803a8.62 8.62 0 0 0-4.702.9 4.856 4.856 0 0 0-2.117 3.833v19.282a3.06 3.06 0 0 0 2.586 2.942c26.177 3.629 47.38 15.896 63.607 36.803a2.99 2.99 0 0 0 3.694.86 4.876 4.876 0 0 0 2.116-3.842v-19.282a8.889 8.889 0 0 0-1.577-4.693z" fill="#407BFF"/>
        <path d="m428.267 142.52 18.4-10.658a7.96 7.96 0 0 1 .43 2.372v19.282a4.876 4.876 0 0 1-2.117 3.842 2.99 2.99 0 0 1-3.694-.86 103.683 103.683 0 0 0-13.019-13.979z" fill="#000" opacity=".5"/>
        <path d="M428.267 142.52c-14.057-12.509-30.92-20.117-50.588-22.825a3.06 3.06 0 0 1-2.586-2.942V97.461a4.856 4.856 0 0 1 2.117-3.832 8.62 8.62 0 0 1 4.702-.901c26.178 3.629 47.38 15.9 63.607 36.813.51.704.898 1.489 1.148 2.321l-18.4 10.657z" fill="#000" opacity=".3"/>
        <path d="M441.286 156.498c-16.22-20.9-37.423-33.168-63.607-36.803a3.06 3.06 0 0 1-2.586-2.942V97.461a2.234 2.234 0 0 1 .754-1.754 2.223 2.223 0 0 1 1.832-.527c26.177 3.628 47.38 15.9 63.607 36.813a8.859 8.859 0 0 1 1.577 4.692v19.283c0 1.44-.689 1.67-1.577.53z" fill="#407BFF"/>
        <path d="M441.286 156.498c-16.22-20.9-37.423-33.168-63.607-36.803a3.06 3.06 0 0 1-2.586-2.942V97.461a2.234 2.234 0 0 1 .754-1.754 2.223 2.223 0 0 1 1.832-.527c26.177 3.628 47.38 15.9 63.607 36.813a8.859 8.859 0 0 1 1.577 4.692v19.283c0 1.44-.689 1.67-1.577.53z" fill="#000" opacity=".4"/>
        <g transform="translate(272.705)">
            <path d="M95.739 67.602c-9.665-1.68-18.47 5.073-30.74 17.861-6.67 7.005-17.412 18.012-17.412 18.012s-12.91-25.536-13.349-29.158c-.509-4.343 1.148-6.004 1.438-10.717.29-4.713-.22-7.785.729-9.816.948-2.032-2.995-2.152-4.293.4s-1.198 6.004-2.336 5.433c-1.139-.57-2.546-7.714-2.117-13.008.43-5.293-2.616-6.424-3.544-4.663a15.28 15.28 0 0 0-1.218 3.002s-4.283-1-6.71 2.202c-2.426 3.202-4.442 7.925-3.733 15.71.708 7.784 5.171 13.278 6.539 16.56 1.997 4.903 8.047 32.65 16.703 46.579 3.994 6.364 9.355 4.463 14.756 1.31 9.495-5.543 31.08-25.225 31.08-25.225 9.435-6.864 20.936-27.898 14.207-34.482z" fill="#B16668"/>
            <path d="M47.587 103.475a32.185 32.185 0 0 1 3.165 11.277 21.056 21.056 0 0 0-1.398-13.098l-1.767 1.82z" fill="#9A4A4D"/>
            <path d="M97.756 67.102c-5.591-.2-11.262-.35-18.26 4.613-7 4.963-24.122 23.445-24.122 23.445a38.972 38.972 0 0 0 5.421 11.297 22.677 22.677 0 0 0 8.686 7.444L93.782 93.5l3.974-26.397z" fill="#407BFF"/>
            <path d="M69.232 282.657s-1.458 16.9-3.994 22.424a83.356 83.356 0 0 1-10.273 17.61c-.999 1.292-3.315 3.723-4.143 4.774a1.944 1.944 0 0 0 .359 3.002c2.296 2 11.571 2 16.553-2.182 4.982-4.182 8.986-10.797 11.89-14.089a776.521 776.521 0 0 0 3.845-4.382 4.24 4.24 0 0 0 .838-4.063c-.13-.4-.28-.86-.439-1.41-1.458-4.954.998-19.293.998-19.293-4.812-5.974-10.073-3.692-15.634-2.391z" fill="#B16668"/>
            <path d="M85.106 310.594c.19.904.145 1.84-.13 2.722-.469 1.26-3.844 3.672-5.58 4.643-1.738.97-3.056 2.411-4.503 5.183-1.997 3.812-5.042 7.945-8.986 10.006a29.374 29.374 0 0 1-17.342 2.742c-7.338-.94-8.137-5.203-8.137-5.203s-.589-4.003 1.188-4.743c1.778-.74 43.49-15.35 43.49-15.35z" fill="#263238"/>
            <path d="M85.825 305.571a11.902 11.902 0 0 1-.739 5.003c-1.997 3.082-6.989 4.313-9.724 8.525-2.736 4.213-5.87 10.637-15.295 13.009-9.425 2.371-16.793-.29-18.69-2.922-1.897-2.632-.42-5.264 5.51-8.876 6.3-3.822 13.519-13.568 13.529-13.578 2.366-3.332 3.265-7.635 4.503-11.487.12-.37.32-.81.709-.841.389-.03.708.54.998.93.47.573 1.135.951 1.867 1.061.836.26 1.686.47 2.546.63a23.32 23.32 0 0 0 5.211.37 2.163 2.163 0 0 1 1.648.371c.312.41.449.93.38 1.441-.02.644-.08 1.285-.18 1.921a2.006 2.006 0 0 0 0 .95c.196.432.636.698 1.108.671.469-.027.92-.19 1.297-.47a5.793 5.793 0 0 0 2.936-4.003s0-1 .08-1.87a2.43 2.43 0 0 1 1.238 1.34c.21.72.18 1.511.32 2.252.378 1.838.629 3.7.748 5.573z" fill="#37474F"/>
            <path d="M85.106 310.594c.19.904.145 1.84-.13 2.722-.469 1.26-3.844 3.672-5.58 4.643-1.738.97-3.056 2.411-4.503 5.183-1.997 3.812-5.042 7.945-8.986 10.006a29.374 29.374 0 0 1-17.342 2.742c-7.338-.94-8.137-5.203-8.137-5.203s-.589-4.003 1.188-4.743c1.778-.74 43.49-15.35 43.49-15.35z" fill="#263238"/>
            <path d="M85.825 305.571a11.902 11.902 0 0 1-.739 5.003c-1.997 3.082-6.989 4.313-9.724 8.525-2.736 4.213-5.87 10.637-15.295 13.009-9.425 2.371-16.793-.29-18.69-2.922-1.897-2.632-.42-5.264 5.51-8.876 6.3-3.822 13.519-13.568 13.529-13.578 2.366-3.332 3.265-7.635 4.503-11.487.12-.37.32-.81.709-.841.389-.03.708.54.998.93.47.573 1.135.951 1.867 1.061.836.26 1.686.47 2.546.63a23.32 23.32 0 0 0 5.211.37 2.163 2.163 0 0 1 1.648.371c.312.41.449.93.38 1.441-.02.644-.08 1.285-.18 1.921a2.006 2.006 0 0 0 0 .95c.196.432.636.698 1.108.671.469-.027.92-.19 1.297-.47a5.793 5.793 0 0 0 2.936-4.003s0-1 .08-1.87a2.43 2.43 0 0 1 1.238 1.34c.21.72.18 1.511.32 2.252.378 1.838.629 3.7.748 5.573z" fill="#37474F"/>
            <path d="M81.941 301.158a8.829 8.829 0 0 1-1.447 1.151c-.378.28-.83.443-1.298.47a1.148 1.148 0 0 1-1.109-.67 2.006 2.006 0 0 1 0-.95c-.938 4.232-5.111 10.266-4.682 10.626.43.36 7.178-8.345 8.536-10.627z" fill="#263238"/>
            <path d="M28.777 260.543s-1.837 17.47-4.113 23.094a83.958 83.958 0 0 1-9.485 18.062c-.948 1.33-3.145 3.862-3.923 4.943a1.944 1.944 0 0 0 .489 3.002c2.376 1.88 11.65 1.47 16.443-2.912 4.792-4.383 8.466-11.187 11.242-14.61 1.388-1.71 2.696-3.351 3.654-4.552a4.21 4.21 0 0 0 .649-4.093c-.15-.39-.31-.85-.5-1.39-1.667-4.884 2.696-18.412 2.696-18.412-5.041-5.774-11.66-4.693-17.152-3.132z" fill="#B16668"/>
            <path d="M44.741 289.42c.19.908.146 1.848-.13 2.733-.469 1.25-3.843 3.662-5.58 4.633-1.738.97-3.055 2.411-4.503 5.183-1.997 3.812-4.992 7.945-8.986 10.006a29.354 29.354 0 0 1-17.312 2.702c-7.338-.94-8.136-5.214-8.136-5.214s-.59-4.002 1.188-4.743c1.777-.74 43.46-15.3 43.46-15.3z" fill="#263238"/>
            <path d="M45.48 284.398a11.902 11.902 0 0 1-.739 5.003c-1.996 3.082-6.988 4.313-9.724 8.525-2.735 4.213-5.87 10.647-15.295 13.008-9.425 2.362-16.793-.29-18.69-2.911-1.897-2.622-.42-5.274 5.511-8.876 6.3-3.832 13.518-13.578 13.528-13.588 2.366-3.333 3.265-7.635 4.503-11.478.12-.38.32-.82.709-.85.39-.03.709.54.998.93.47.573 1.136.95 1.867 1.061.836.26 1.686.47 2.546.63 1.717.324 3.466.448 5.212.37a2.163 2.163 0 0 1 1.647.37c.313.411.45.93.38 1.442a15.764 15.764 0 0 1-.17 1.931c-.08.308-.08.632 0 .94.2.43.636.697 1.108.681a2.592 2.592 0 0 0 1.298-.47 5.673 5.673 0 0 0 2.805-4.053c.036-.62.106-1.238.21-1.851a2.41 2.41 0 0 1 1.238 1.33c.21.721.18 1.512.32 2.252a40.21 40.21 0 0 1 .738 5.604z" fill="#37474F"/>
            <path d="M37.922 286.129a27.79 27.79 0 0 0 3.635-6.134c-.417.44-.887.826-1.398 1.15-.383.272-.831.435-1.298.471a1.178 1.178 0 0 1-1.108-.68 1.875 1.875 0 0 1 0-.941 34.463 34.463 0 0 1-4.992 10.166c-1.568 1.992 2.426-.3 5.161-4.032z" fill="#263238"/>
            <path d="m151.22 159.42-22.415-1.641-41.463-5.314S39.92 178.121 33.96 191.35c-3.455 7.644-5.352 65.45-5.99 74.046 3.144 2.511 13.298 2.812 17.132 2.151 2.396-6.864 3.834-9.926 7.148-20.012 2.706-8.255 3.994-11.397 5.521-17.231 2.486-9.776 1.787-21.493 1.787-21.493s18.27-9.006 29.353-13.209c-6.11 6.704-14.866 18.792-16.044 21.464-3.395 7.675-4.633 62.689-4.633 70.324 2.506 3.262 14.127 4.002 17.153 1.92 3.544-12.477 6.17-18.5 8.985-28.767 4.553-16.35 3.075-23.015 2.406-29.018 0 0 11.811-7.525 27.116-19.012 6.46-4.843 14.417-11.527 18.84-16.63 8.137-9.256 9.345-25.807 8.486-36.463z" fill="#37474F"/>
            <path d="m88.95 195.632 12.62-14.108s-12.84-5.644-15.226-17.852c0 0-2.077 10.277 7.738 18.642l-8.557 12.008-25.958 14.539c11.681-3.723 19.03-9.416 29.383-13.229z" fill="#263238"/>
            <path d="M119.89 67.462a83.46 83.46 0 0 1 15.764 2.262c6.56 2.251 10.503 4.002 13.688 13.008 4.752 13.578 3.285 32.3 3.285 45.128 0 17.01-.4 36.763-.4 36.763-14.366 12.168-61.13 6.564-69.008-10.487 0 0 4.782-21.333-.25-60.037-2.066-15.87 3.744-26.687 18.81-27.557 0 .05 12.05.66 18.11.92z" fill="#455A64"/>
            <ellipse fill="#263238" cx="92.903" cy="23.525" rx="14.357" ry="14.389"/>
            <path d="M129.684 36.463s-2.945 14.419-4.123 16.79a6.313 6.313 0 0 1-3.625 3.002l.21-10.156 7.538-9.636z" fill="#263238"/>
            <path d="M126.04 15.79s2.106-.53 4.343 3.002c1.927 3.002 2.366 9.766-.65 17.69l-5.54.661 1.847-21.353z" fill="#263238"/>
            <path d="m128.037 18.692 6.799.12a3.217 3.217 0 0 0-.76-2.484 3.202 3.202 0 0 0-2.345-1.108 3.757 3.757 0 0 0-3.694 3.472z" fill="#263238"/>
            <path d="m128.855 17.09 5.042-4.852a3.252 3.252 0 0 0-4.772-.18 3.718 3.718 0 0 0-.27 5.033z" fill="#263238"/>
            <path d="M122.476 37.123c1.108.7 2.695-1.53 4.063-3.002 1.368-1.47 5.68-2.911 7.907 2.002 2.227 4.913-1.607 9.686-4.762 11.347-2.806 1.48-5.99-1.791-5.99-1.791l-.1 24.365c-7.778 11.947-30.431 11.397-21.605-1.611v-7.005s-5.491.871-8.177.43c-4.463-.72-6.77-4.212-7.837-8.004a84.408 84.408 0 0 1-2.776-18.372 75.274 75.274 0 0 1 .44-11.247c2.346-15.89 21.874-20.012 32.377-13.108 10.503 6.904 6.46 25.996 6.46 25.996z" fill="#B16668"/>
            <path d="M98.484 22.064a36.11 36.11 0 0 0 11.492-3.372 1.535 1.535 0 0 1 1.128-.22c.372.214.634.578.719 1a37.385 37.385 0 0 0 2.056 5.424 8.105 8.105 0 0 0 4.074 3.942c.676.139 1.292.49 1.757 1 .368.56.55 1.222.52 1.892-.063.86-.2 1.714-.41 2.552-.22 1.16-.61 3.171.05 4.222a1.867 1.867 0 0 0 2.775.48 10.882 10.882 0 0 0 2.167-2.631 16.61 16.61 0 0 1 2.306-2.662c.809-.71.49-2.301.669-3.332.35-2.071.54-4.173.699-6.264.14-1.771.32-3.582.31-5.363a24.479 24.479 0 0 0-.47-6.004 10.433 10.433 0 0 0-2.486-4.483l-.35-.39c-3.344-3.612-7.687-5.003-12.51-5.513-3.743-.42-7.527-.32-11.29-.51A70.736 70.736 0 0 1 89.578.15a3.188 3.188 0 0 0-1.677-.07 2.112 2.112 0 0 0-1.209 2.292 6.38 6.38 0 0 0 1.159 2.541 13.397 13.397 0 0 0-3.804-1.26 4.585 4.585 0 0 0-3.754 1.03 5.522 5.522 0 0 0-1.178 4.563 14.803 14.803 0 0 0 9.414 11.777 21.32 21.32 0 0 0 9.954 1.04z" fill="#263238"/>
            <path d="M101.949 61.448s9.984-2.1 13.448-4.002a11.746 11.746 0 0 0 4.822-5.003 16.878 16.878 0 0 1-2.735 5.864c-2.556 3.402-15.535 5.903-15.535 5.903v-2.762z" fill="#9A4A4D"/>
            <path d="M102.408 35.192a1.998 1.998 0 0 0 2.1 1.828 2 2 0 0 0 1.886-2.05 1.999 1.999 0 0 0-1.99-1.95 2.11 2.11 0 0 0-1.996 2.172zM103.606 28.628l4.273 2.452a2.725 2.725 0 0 0-.998-3.543 2.342 2.342 0 0 0-3.275 1.091z" fill="#263238"/>
            <path d="m104.265 48.35-5.99 2.362a3.14 3.14 0 0 0 1.594 1.934 3.129 3.129 0 0 0 2.5.147 3.565 3.565 0 0 0 1.896-4.443z" fill="#9A4A4D"/>
            <path d="m84.926 31.64 3.894-3.132a2.296 2.296 0 0 0-3.384-.54 2.766 2.766 0 0 0-.51 3.672zM86.174 35.782a1.998 1.998 0 0 0 2.1 1.828 2 2 0 0 0 1.886-2.05 1.999 1.999 0 0 0-1.989-1.949 2.11 2.11 0 0 0-1.997 2.171z" fill="#263238"/>
            <path fill="#9A4A4D" d="m96.028 33.27.41 12.909-7.199-1.491z"/>
            <path d="M37.383 167.024a7.731 7.731 0 0 1-3.115-.35c-1.387-.47-2.625-1.921-3.784-4.443-.998-2.12-2.575-6.794-1.607-9.245 1.238-3.122 4.992-3.332 7.438-3.462l.849-.06.22 2.941c-.3 0-.76.13-1.079.15-1.388.07-4.443.64-4.762 1.441-1.099 1.942 1.996 9.206 3.344 10.007 1.587.29 3.217.24 4.783-.15l.998 2.441a11.13 11.13 0 0 1-3.285.73z" fill="#407BFF"/>
            <path d="M37.383 167.024a7.731 7.731 0 0 1-3.115-.35c-1.387-.47-2.625-1.921-3.784-4.443-.998-2.12-2.575-6.794-1.607-9.245 1.238-3.122 4.992-3.332 7.438-3.462l.849-.06.22 2.941c-.3 0-.76.13-1.079.15-1.388.07-4.443.64-4.762 1.441-1.099 1.942 1.996 9.206 3.344 10.007 1.587.29 3.217.24 4.783-.15l.998 2.441a11.13 11.13 0 0 1-3.285.73z" opacity=".5" fill="#000"/>
            <path d="M62.792 145.25c-.32-1.25-1.587-2.45-3.814-3.371-5.131-2.142-13.398-2.002-18.46.3-2.186 1-3.414 2.231-3.694 3.492h-.07c-.739 8.275.889 17.831 3.904 23.075l.06.11v.08a6.495 6.495 0 0 0 2.446 2.241 15.464 15.464 0 0 0 13.977-.23 6.256 6.256 0 0 0 2.366-2.312v-.08a.751.751 0 0 0 .07-.12c2.846-5.343 4.164-14.939 3.165-23.184h.05z" fill="#407BFF"/>
            <path d="M62.792 145.25c-.32-1.25-1.587-2.45-3.814-3.371-5.131-2.142-13.398-2.002-18.46.3-2.186 1-3.414 2.231-3.694 3.492h-.07c-.739 8.275.889 17.831 3.904 23.075l.06.11v.08a6.495 6.495 0 0 0 2.446 2.241 15.464 15.464 0 0 0 13.977-.23 6.256 6.256 0 0 0 2.366-2.312v-.08a.751.751 0 0 0 .07-.12c2.846-5.343 4.164-14.939 3.165-23.184h.05z" fill="#000" opacity=".4"/>
            <path d="M58.978 141.879c5.142 2.141 5.192 5.733.13 8.005-5.062 2.271-13.328 2.431-18.46.3-5.132-2.131-5.192-5.744-.13-8.005 5.062-2.261 13.329-2.412 18.46-.3z" opacity=".3" fill="#407BFF"/>
            <path d="M57.221 143.3c4.133 1.38 4.173 3.732.08 5.253a26.092 26.092 0 0 1-14.886.24c-4.133-1.39-4.173-3.742-.09-5.253a26.032 26.032 0 0 1 14.896-.24z" opacity=".4" fill="#000"/>
            <path d="M57.271 146.472a7.73 7.73 0 0 1 2.077 1 7.871 7.871 0 0 1-2.047 1.07 26.092 26.092 0 0 1-14.886.241 7.81 7.81 0 0 1-2.086-1 7.891 7.891 0 0 1 2.046-1.071 26.032 26.032 0 0 1 14.896-.24z" fill="#263238"/>
            <path d="M137.441 70.154c-8.646 1-12.25 16.01-13.059 23.925-.888 8.675-7.368 46.579-7.368 46.579s-41.163 14.6-46.235 14.119c-3.993-.36-4.752-3.442-7.587-4.143-.01 2.22-.14 4.438-.39 6.644-.679 5.324-13.837 4.613-20.656 2.652-6.82-1.961-5.651.69-5.232 5.433.42 4.743 5.99 11.097 13.488 12.308 11.98 2.001 22.294-3.722 28.424-6.214 6.13-2.491 32.567-5.943 45.926-9.005 8.696-2.002 11.98-3.623 15.814-14.93 3.834-11.307 7.089-27.507 8.816-41.105 1.727-13.599 5.73-33.471-11.94-36.263z" fill="#B16668"/>
            <path d="M134.836 69.544c5.99.14 11.83 2.17 14.476 7.364 2.646 5.193 2.686 11.577.879 26.707s-3.584 24.945-3.584 24.945-11.921 4.093-27.276-5.893l4.642-34.222s2.336-15.72 10.863-18.901z" fill="#407BFF"/>
        </g>
        <g>
            <path fill="#455A64" d="m103.872 171.737-5.112.15-4.253-56.995 5.122-.14zM60.143 195.802l-5.122.15-4.243-56.995 5.112-.15zM61.87 200.685h-8.476l-12.31 88.176a1 1 0 0 0 .609.93c.943.47 2.051.47 2.995 0a1.16 1.16 0 0 0 .599-.73l16.583-88.376zM112.698 171.277h-8.477l-12.31 88.175a1 1 0 0 0 .61.93c.94.48 2.053.48 2.994 0a1.12 1.12 0 0 0 .6-.73l16.583-88.375zM178.152 287.29l-14.627-86.605h-8.476l18.85 86.805c.082.32.301.587.599.73.943.47 2.051.47 2.995 0a1 1 0 0 0 .609-.93h.05zM123.09 319.15l-12.32-88.176h-8.466l16.534 88.386c.09.316.312.578.609.72.94.483 2.055.483 2.995 0a1 1 0 0 0 .619-.93h.03z"/>
            <path d="M163.525 200.685h-8.476l3.454 15.87a147.727 147.727 0 0 0 5.621-4.923c.4-.396.737-.852.999-1.35l-1.598-9.597zM53.394 200.685l-1.468 10.537a6.658 6.658 0 0 0 1.637 2.862 131.168 131.168 0 0 0 4.992 4.363l3.325-17.762h-8.486zM112.468 243.132l-1.697-12.158h-8.467l2.766 14.8c2.526-.84 4.982-1.721 7.398-2.642zM105.07 173.549a7.571 7.571 0 0 0-1.148-.13l-9.625 68.943c1.548.83 3.095 1.65 4.643 2.441l13.059-69.784c-2.287-.53-4.583-1.03-6.929-1.47z" fill="#37474F"/>
            <path d="M104.98 239.1c23.961-7.955 43.35-19.623 59.154-34.172a6.862 6.862 0 0 0 1.907-4.403v-4.572a5.778 5.778 0 0 0-2.096-4.173c-16.763-12.278-36.322-20.683-58.905-24.946a12.742 12.742 0 0 0-5.072.28c-20.207 6.198-35.725 15.093-46.554 26.687a7.755 7.755 0 0 0-1.748 4.563v4.573a6.812 6.812 0 0 0 1.907 4.403c12.13 11.197 29.473 22.694 46.595 31.36 1.511.68 3.21.82 4.812.4z" fill="#407BFF"/>
            <path d="M166.041 195.953v4.572a6.822 6.822 0 0 1-1.917 4.403c-15.794 14.56-35.183 26.217-59.144 34.171a6.625 6.625 0 0 1-2.676.21v-72.525c.923-.078 1.852-.04 2.766.11 22.553 4.253 42.112 12.668 58.905 24.936a5.788 5.788 0 0 1 2.066 4.123z" fill="#000" opacity=".4"/>
            <path d="M102.304 166.784v72.576a6.09 6.09 0 0 1-2.136-.57c-17.112-8.666-34.464-20.163-46.605-31.36a6.882 6.882 0 0 1-1.897-4.393v-4.593a7.605 7.605 0 0 1 1.748-4.543c10.829-11.64 26.357-20.553 46.584-26.736.753-.212 1.526-.34 2.306-.38z" fill="#000" opacity=".5"/>
            <path d="M53.573 197.544c12.13 11.197 29.473 22.664 46.595 31.33 1.515.669 3.213.8 4.812.37 23.961-7.916 43.35-19.573 59.154-34.132a2.093 2.093 0 0 0-.19-3.342c-16.762-12.268-36.32-20.673-58.904-24.936a12.742 12.742 0 0 0-5.072.28c-20.207 6.184-35.725 15.08-46.554 26.687a2.656 2.656 0 0 0 .16 3.743z" fill="#407BFF"/>
            <path d="M53.573 197.544c12.13 11.197 29.473 22.664 46.595 31.33 1.515.669 3.213.8 4.812.37 23.961-7.916 43.35-19.573 59.154-34.132a2.093 2.093 0 0 0-.19-3.342c-16.762-12.268-36.32-20.673-58.904-24.936a12.742 12.742 0 0 0-5.072.28c-20.207 6.184-35.725 15.08-46.554 26.687a2.656 2.656 0 0 0 .16 3.743z" fill="#000" opacity=".3"/>
            <path d="M40.754 129.541c16.227-20.913 37.43-33.18 63.607-36.803a8.62 8.62 0 0 1 4.703.9 4.856 4.856 0 0 1 2.116 3.833v19.282a3.06 3.06 0 0 1-2.586 2.942c-26.177 3.629-47.38 15.896-63.607 36.803a2.99 2.99 0 0 1-3.694.86 4.876 4.876 0 0 1-2.116-3.842v-19.282a8.889 8.889 0 0 1 1.577-4.693z" fill="#407BFF"/>
            <path d="m58.006 142.52-18.4-10.658a7.96 7.96 0 0 0-.43 2.372v19.282a4.876 4.876 0 0 0 2.147 3.842 2.99 2.99 0 0 0 3.694-.86c3.892-5.05 8.24-9.73 12.99-13.979z" fill="#000" opacity=".5"/>
            <path d="M58.006 142.52c14.057-12.509 30.92-20.117 50.588-22.825a3.06 3.06 0 0 0 2.616-2.942V97.461a4.856 4.856 0 0 0-2.117-3.832 8.62 8.62 0 0 0-4.702-.901c-26.178 3.629-47.38 15.9-63.607 36.813a7.752 7.752 0 0 0-1.148 2.321l18.37 10.657z" fill="#000" opacity=".3"/>
            <path d="M44.987 156.498c16.234-20.9 37.436-33.168 63.607-36.803a3.06 3.06 0 0 0 2.616-2.942V97.461a2.234 2.234 0 0 0-.754-1.754 2.223 2.223 0 0 0-1.832-.527c-26.177 3.628-47.38 15.9-63.607 36.813a8.859 8.859 0 0 0-1.577 4.692v19.283c-.03 1.44.669 1.67 1.547.53z" fill="#407BFF"/>
            <path d="M44.987 156.498c16.234-20.9 37.436-33.168 63.607-36.803a3.06 3.06 0 0 0 2.616-2.942V97.461a2.234 2.234 0 0 0-.754-1.754 2.223 2.223 0 0 0-1.832-.527c-26.177 3.628-47.38 15.9-63.607 36.813a8.859 8.859 0 0 0-1.577 4.692v19.283c-.03 1.44.669 1.67 1.547.53z" fill="#000" opacity=".4"/>
            <g>
                <path d="m104.221 11.687-.15.11c-6.838 5.004-14.825 6.895-20.906 13.169a26.052 26.052 0 0 0-7.298 21.563c1.658 16.72 15.625 24.586 20.467 29.248.22.22 1.757 0 2.057 0h4.642c1.118 0 2.566.51 3.614.11 1.378-.53 2.337-2.451 3.105-3.612 6.28-9.426 17.252-14.329 24.071-23.354 2.347-3.112 4.623-6.444 5.392-10.267.768-3.822-.33-8.275-3.575-10.426a8.43 8.43 0 0 0-.277-9.624 8.386 8.386 0 0 0-9.107-3.064c1.208-3.172-.68-6.955-3.654-8.586-2.976-1.63-6.67-1.42-9.844-.25a36.552 36.552 0 0 0-8.537 4.983zM132.955 243.032c-5.401-.73-10.034 3.602-10.473 5.003-.6 1.881-.4 5.674 1.797 10.347a32.445 32.445 0 0 1 2.386 14.739c-.4 4.272-2.436 14.96 1.867 20.332 4.303 5.374 13.888 10.007 17.292 2.702 1.108-2.411-1.128-10.747-2.117-16.83-1.996-12.108-3.524-24.145-3.524-24.145l-7.228-12.148z" fill="#263238"/>
                <path d="M131.258 252.698a118.133 118.133 0 0 1 1.367 17.781c-.11 6.494 1.258 10.767 3.495 13.669 2.476 3.202 8.646 5.003 7.917-1.701-.51-4.663-3.854-27.287-3.854-27.287l-8.925-2.462z" fill="#FFA8A7"/>
                <path d="M124.279 245.884c-.26 4.002 1.897 14.629 7.298 23.534 5.292 8.726 13.049 19.012 14.527 25.226.15-2.862-.999-8.095-1.937-12.768l-.06-.3-.15-.81c0-.12 0-.25-.07-.37-.06-.34-.12-.681-.17-1.001v-.07a540.67 540.67 0 0 1-1.697-11.007c-.4-2.722-.749-5.214-.998-7.275-.14-1-.26-2.001-.37-2.742-.05-.4-.1-.77-.15-1.09-.17-1.321-.269-2.071-.269-2.071l-7.228-12.128c-.36-.05-.71-.06-1.049-.08a11.846 11.846 0 0 0-7.677 2.952z" fill="#000" opacity=".15"/>
                <path d="M155.369 177.17c-15.975-13.007-34.075-24.965-34.075-24.965l-18.57 18.662 18.47 16.41 19.189 20.533s4.473-.36 1.757 6.644c-.869 2.221-2.167 6.664-3.544 11.707l10.982 30.02s6.36-10.587 15.605-29.21c7.348-14.778 10.483-24.224 9.684-28.117-1.078-5.153-6.809-11.317-19.498-21.683z" fill="#37474F"/>
                <path d="M119.876 177.911s20.487 19.012 24.96 24.145c4.472 5.134 7.188 6.564 7.747 18.252.47 9.866 1.877 27.107 1.877 27.107l-31.37-38.795-9.314-26.506 6.1-4.203zM147.372 302.98c-1.318-.09-1.398 2.16-2.187 5.003a14.58 14.58 0 0 0-.4 8.555c1.079 3.612 6.77 4.333 9.585 9.126 2.816 4.793 6.83 13.388 16.903 16.24 10.074 2.851 18.08 0 20.197-2.922 2.117-2.922.59-5.924-5.69-10.106-6.68-4.443-8.567-5.744-8.567-5.744l-29.841-20.153z" fill="#263238"/>
                <path d="M160.98 285.949s2.555 11.327 5.131 17.8c2.576 6.475 6.929 12.759 11.821 18.663 1.058 1.28 3.494 3.682 4.373 4.712a2.004 2.004 0 0 1-.27 3.002c-2.276 2.092-11.72 2.412-16.972-1.67-5.252-4.083-9.864-12.649-12.98-15.91a53.602 53.602 0 0 1-3.284-3.803 6.653 6.653 0 0 1-1.537-4.263c.237-2.039.146-4.103-.27-6.113-.659-3.343-1.358-4.643-2.336-7.905l16.323-4.513z" fill="#FFA8A7"/>
                <path d="M71.614 147.552c-7.198 12.168-9.425 27.778-6.59 35.352 3.875 10.317 9.705 14.52 23.962 23.215 11.761 7.204 29.103 17.61 32.627 19.262 3.524 1.65 3.854 3.812 3.205 10.617-.649 6.804 1.478 18.01 8.736 32.02 7.667 14.879 11.85 25.015 11.85 25.015a18.84 18.84 0 0 0 16.664-4.573s-11.98-67.042-14.806-75.957c-2.826-8.916-35.623-38.394-35.623-38.394s4.882-14.63 7.728-24.826l-47.753-1.73z" fill="#37474F"/>
                <path d="M124.189 166.694s-2.596 7.785-8.716 11.007l2.406 2.222a19.029 19.029 0 0 0 6.31-13.229z" fill="#263238"/>
                <path d="M188.645 108.558c2.286-2.722 3.814-5.003 6.639-7.004 5.84-4.003 8.227-7.135 8.746-9.136l-9.744-12.278-1.887-.26s1.567-3.322 1.188-5.363c-.44-2.392-1.438-3.663-3.195-1.001s-4.533 5.143-5.481 7.705a77.774 77.774 0 0 0-2.916 10.396c-.658 3.232-5.37 7.545-5.37 7.545l12.02 9.396z" fill="#FFA8A7"/>
                <path d="M111.21 76.808c7.348-.93 13.189-.07 17.881 5.163 4.693 5.234 27.336 35.673 27.336 35.673l27.665-25.316 8.137 11.867s-22.783 27.758-27.386 31.78c-4.602 4.023-8.386 6.614-16.433 0s-32.677-32.02-32.677-32.02l-4.523-27.147z" fill="#FFA8A7"/>
                <path d="M201.065 93.068a7.97 7.97 0 0 1-3.125-.35c-1.388-.47-2.626-1.921-3.784-4.443-.999-2.121-2.576-6.794-1.608-9.246 1.238-3.121 4.992-3.332 7.438-3.472h.849l.22 2.942c-.3 0-.76.13-1.079.15-1.387.07-4.442.63-4.762 1.431-1.098 1.951 1.997 9.216 3.345 10.006 1.587.286 3.216.235 4.782-.15l.998 2.442a11.12 11.12 0 0 1-3.274.69z" fill="#407BFF"/>
                <path d="M201.065 93.068a7.97 7.97 0 0 1-3.125-.35c-1.388-.47-2.626-1.921-3.784-4.443-.999-2.121-2.576-6.794-1.608-9.246 1.238-3.121 4.992-3.332 7.438-3.472h.849l.22 2.942c-.3 0-.76.13-1.079.15-1.387.07-4.442.63-4.762 1.431-1.098 1.951 1.997 9.216 3.345 10.006 1.587.286 3.216.235 4.782-.15l.998 2.442a11.12 11.12 0 0 1-3.274.69z" opacity=".2" fill="#000"/>
                <path d="M199.707 71.505c.2-1.231 1.308-2.492 3.364-3.562 4.743-2.492 12.68-3.072 17.732-1.301 2.186.77 3.464 1.85 3.843 3.002h.07c1.408 7.875.67 17.17-1.787 22.464v.11a.592.592 0 0 0 0 .08 6.149 6.149 0 0 1-2.156 2.361 14.857 14.857 0 0 1-13.449 1 6.053 6.053 0 0 1-2.475-2l-.05-.07a.75.75 0 0 0-.07-.12c-3.185-4.874-5.262-14.01-4.992-21.964h-.03z" fill="#407BFF"/>
                <path d="M203.061 67.943c-4.742 2.481-4.492 5.943.56 7.714 5.051 1.771 12.978 1.191 17.73-1.29 4.753-2.482 4.494-6.004-.558-7.725s-12.98-1.191-17.732 1.3z" opacity=".5" fill="#FFF"/>
                <path d="M204.878 69.153c-3.843 1.681-3.684 3.943.37 5.003a25.116 25.116 0 0 0 14.307-1c3.843-1.681 3.684-3.933-.37-5.003a25.116 25.116 0 0 0-14.307 1z" opacity=".15" fill="#000"/>
                <path d="M205.108 72.195a7.395 7.395 0 0 0-1.917 1.15c.642.382 1.334.668 2.057.851a25.116 25.116 0 0 0 14.307-1 7.494 7.494 0 0 0 1.907-1.14 7.449 7.449 0 0 0-2.057-.851 25.076 25.076 0 0 0-14.297.99z" fill="#37474F"/>
                <path d="M195.014 80.73c-.15.701.11 1.812-.998 2.932-.649.65-1.278 1.391-1.997 2.002-.719.61-1.178.87-1.358 1.73a2.446 2.446 0 0 0 .53 2.092 3 3 0 0 1 .619.77c.075.33.075.672 0 1.001a4.007 4.007 0 0 0 1.497 3.752 4.326 4.326 0 0 0 1.997.61 9.078 9.078 0 0 0 5.421-1.15 4.2 4.2 0 0 0 1.448-1.731c.405-.86.616-1.8.619-2.752a34.491 34.491 0 0 1-2.476-8.765s-.17-1.631-2.556-2.322a6.091 6.091 0 0 0-2.296.79c-.28.276-.44.65-.45 1.042z" fill="#F28F8F"/>
                <path d="M70.047 145.35c1.537-4.472 2.995-8.064 3.584-11.166.629-3.262 0-5.213-2.566-11.958a53.897 53.897 0 0 1-2.536-25.485c.799-5.374 2.666-8.005 5.78-10.167 3.116-2.161 16.714-6.354 16.714-6.354s11.222-3.002 17.032-3.402c5.81-.4 8.456.65 12.28 4.853 3.824 4.203 11.372 14.72 13.838 22.524 1.448 4.573 3.115 14.69-6.59 20.183-1.048 5.253-3.065 13.298-3.544 17.53-.479 4.233.41 9.457 1.158 12.719-3.314 7.264-13.058 15.81-30.37 16.48-20.288.78-30.62-5.904-30.62-5.904a197.299 197.299 0 0 1 5.84-19.852z" fill="#407BFF"/>
                <path d="M119.367 124.018s-4.922 5.773-14.367 4.472c-9.744-1.35-11.441-9.516-11.441-9.516s-.69 10.627 10.982 12.238a14.077 14.077 0 0 0 14.826-7.194z" fill="#000" opacity=".1"/>
                <path d="M121.793 25.116c3.364 1.74 7.847 9.736 8.406 27.017.46 14.619-4.063 18.491-6.37 19.662-2.306 1.17-9.284.51-13.777 0l-.998 10.436s5.201 4.323 4.991 8.366c-.21 4.042-9.594 5.373-16.523-.18-7.178-5.764-6.55-9.777-6.55-9.777l.93-19.382s-1.997 2.392-5.212.2c-4.293-2.941-5.122-8.185-2.666-11.437 1.737-2.311 6.5-2.731 8.985.57 0 0 5.94-.86 15.096-6.573a30.535 30.535 0 0 0 13.688-18.902z" fill="#FFA8A7"/>
                <path d="m93.319 55.785-.43-7.675 4.893-.27.15 2.772a4.91 4.91 0 0 1-4.613 5.173zM112.099 49.431a1.84 1.84 0 0 1-1.697 1.959 1.838 1.838 0 0 1-1.967-1.686 1.84 1.84 0 0 1 1.667-1.984 1.854 1.854 0 0 1 1.997 1.711z" fill="#263238"/>
                <path d="m113.926 61.448 5.69 1.481a2.882 2.882 0 0 1-1.29 1.861 2.87 2.87 0 0 1-2.234.35 3.103 3.103 0 0 1-2.166-3.692z" fill="#F28F8F"/>
                <path d="m128.023 42.887-3.834-2.362a2.177 2.177 0 0 1 2.995-.81 2.385 2.385 0 0 1 .839 3.172zM127.414 47.25a1.84 1.84 0 0 1-1.697 1.958 1.838 1.838 0 0 1-1.967-1.685 1.84 1.84 0 0 1 1.667-1.984 1.854 1.854 0 0 1 1.997 1.71z" fill="#263238"/>
                <path fill="#F28F8F" d="m117.18 46.76.909 11.036 5.7-2.121zM110.052 71.775c-5.511-.87-11.88-3.652-13.588-7.385a9.501 9.501 0 0 0 3.384 6.004c2.996 2.312 9.984 4.193 9.984 4.193l.22-2.812z"/>
                <path d="M77.265 85.093c-8.766 3.432-11.621 6.644-13.438 14.65-1.817 8.004 8.486 42.586 12.68 54.273 2.665 7.455 3.154 8.646 9.813 11.007 5.521 2.001 45.197 11.517 49.09 12.108 3.895.59 10.095-2.062 10.095-2.062.718-1.1 1.377-2.13 2.076-3.001 0 0 9.605 1.86 15.106 1.75 5.5-.11 15.914-6.383 6.879-11.006-12.72-6.484-15.975-8.536-23.083-6.114-6.15 2.101-10.403 5.003-14.027 4.523-7.588-1.601-37.939-13.349-37.939-13.349l-8.326-35.422s-.5-22.714-8.926-27.357z" fill="#FFA8A7"/>
            </g>
        </g>
        <g>
            <g transform="translate(135.45 129.266)">
                <path d="M126.385 178.987c-13.657-7.905-35.812-7.905-49.47 0-6.828 3.952-10.233 9.136-10.233 14.309v4.453c.11 5.103 3.514 10.176 10.234 14.068 13.657 7.905 35.812 7.905 49.47 0 6.759-3.912 10.163-9.005 10.233-14.138v-4.463c-.03-5.154-3.435-10.297-10.234-14.23z" fill="#37474F"/>
                <path d="M76.916 207.625c-13.658-7.905-13.658-20.723 0-28.628 13.657-7.905 35.812-7.905 49.47 0 13.657 7.905 13.657 20.723 0 28.628-13.658 7.905-35.813 7.895-49.47 0z" fill="#455A64"/>
                <path d="M107.286 189.093V77.543H95.995v111.55a2.642 2.642 0 0 0 1.607 2.602 8.848 8.848 0 0 0 7.987 0 2.672 2.672 0 0 0 1.697-2.602z" fill="#37474F"/>
                <path d="M173.37 24.84c-39.666-22.954-103.962-22.954-143.628 0C9.914 36.319.01 51.358.02 66.397v2.922c0 15.01 9.894 30.08 29.722 41.556 39.666 22.945 103.962 22.945 143.627 0 19.828-11.477 29.732-26.516 29.722-41.556v-2.922c.01-15.039-9.894-30.078-29.722-41.555z" fill="#455A64"/>
                <path d="M173.44 17.216C133.773-5.74 69.477-5.74 29.811 17.216 9.984 28.693.08 43.732.09 58.772v5.003c0 15.01 9.894 30.089 29.722 41.556 39.666 22.954 103.962 22.954 143.627 0 19.828-11.467 29.732-28.598 29.722-43.637v-2.922c.03-15.04-9.874-30.08-29.722-41.556z" fill="#407BFF"/>
                <path d="M173.44 17.216C133.773-5.74 69.477-5.74 29.811 17.216 9.984 28.693.08 43.732.09 58.772v5.003c0 15.01 9.894 30.089 29.722 41.556 39.666 22.954 103.962 22.954 143.627 0 19.828-11.467 29.732-28.598 29.722-43.637v-2.922c.03-15.04-9.874-30.08-29.722-41.556z" fill="#FFF" opacity=".4"/>
                <path d="M173.44 17.216C133.773-5.74 69.477-5.74 29.811 17.216 9.984 28.693.08 43.732.09 58.772v5.003c0 15.01 9.894 30.089 29.722 41.556 39.666 22.954 103.962 22.954 143.627 0 19.828-11.467 29.732-28.598 29.722-43.637v-2.922c.03-15.04-9.874-30.08-29.722-41.556z" fill="#000" opacity=".1"/>
                <ellipse fill="#407BFF" cx="101.646" cy="58.772" rx="101.556" ry="58.767"/>
                <ellipse fill="#FFF" opacity=".6" cx="101.556" cy="58.772" rx="101.556" ry="58.767"/>
            </g>
            <path d="M218.906 153.896c9.984 5.784 9.984 15.16 0 20.933-9.984 5.774-26.188 5.784-36.172 0-9.984-5.783-9.984-15.15 0-20.933 9.984-5.783 26.178-5.773 36.172 0z" fill="#000" opacity=".15"/>
            <path d="M218.337 152.435c-9.675-5.593-25.36-5.593-35.034 0v-1c-5.061 2.922-7.468 6.804-7.238 10.636-.23 3.833 2.177 7.715 7.238 10.637 9.675 5.603 25.36 5.603 35.034 0 9.674-5.604 9.684-14.67 0-20.273z" fill="#E0E0E0"/>
            <path d="M218.337 151.435c9.674 5.593 9.674 14.669 0 20.272-9.675 5.604-25.36 5.594-35.034 0-9.674-5.593-9.674-14.679 0-20.272 9.675-5.594 25.36-5.604 35.034 0z" fill="#407BFF"/>
            <path d="M218.337 151.435c9.674 5.593 9.674 14.669 0 20.272-9.675 5.604-25.36 5.594-35.034 0-9.674-5.593-9.674-14.679 0-20.272 9.675-5.594 25.36-5.604 35.034 0z" fill="#FAFAFA"/>
            <path d="M188.944 155.607c-6.649 3.853-6.649 10.087 0 13.939 6.65 3.852 17.422 3.842 24.071 0 6.65-3.842 6.65-10.086 0-13.939-6.649-3.852-17.422-3.832-24.07 0z" fill="#E0E0E0"/>
            <path d="M189.763 156.088c-6.2 3.582-6.2 9.395 0 13.008 6.2 3.612 16.234 3.582 22.434 0 6.2-3.582 6.2-9.396 0-13.008-6.2-3.613-16.244-3.593-22.434 0z" fill="#EBEBEB"/>
            <g>
                <path d="M185.09 167.215c0 .66.06 1.37.69 1.37l32.467-.11c1.348 0 1.547-.85.918-2.911-.629-2.062-4.143-8.366-9.544-9.546l-24.53 11.197z" fill="#000" opacity=".15"/>
                <path d="M185.09 154.977v12.478a.721.721 0 0 0 .8.71l28.713-3.902a1.49 1.49 0 0 0 1.288-1.481v-12.108a.721.721 0 0 0-.28-.57l-14.716-11.007a1.405 1.405 0 0 0-1.887.18l-13.598 14.89c-.202.221-.316.51-.32.81z" fill="#263238"/>
                <path d="M207.484 141.559a35.902 35.902 0 0 0-6.51-2.902 1.735 1.735 0 0 0-1.826.48l-13.778 15.09a.13.13 0 0 0 .12.22l29.951-4.063c.51-.06.51.29.51.29a1.598 1.598 0 0 0-.14-.68c-1.388-3.092-4.154-6.014-8.327-8.435z" fill="#455A64"/>
                <g opacity=".7" fill="#407BFF">
                    <path d="m185.88 168.155 28.024-3.802v-3.492a1.172 1.172 0 0 0-1.358-1.191l-27.456 3.712v4.103a.681.681 0 0 0 .79.67zM212.546 157.779a1.61 1.61 0 0 0 1.358-1.551v-2.152a1.172 1.172 0 0 0-1.358-1.19l-27.456 3.712v4.883l27.456-3.702z"/>
                </g>
                <path d="M198.369 143.93a9.496 9.496 0 0 1 8.656 0c2.396 1.38 2.396 3.622 0 5.003a9.565 9.565 0 0 1-8.656 0c-2.396-1.38-2.396-3.622 0-5.003z" fill="#000" opacity=".2"/>
                <path d="M204.19 140.298a9.7 9.7 0 0 1 3.254 1.9 3.488 3.488 0 0 1 .789 4.003 3.583 3.583 0 0 1-3.145 1.952 9.276 9.276 0 0 0-.07-3.863c-.489-1.911-.828-3.992-.828-3.992z" fill="#407BFF"/>
                <path d="M204.19 140.298a9.7 9.7 0 0 1 3.254 1.9 3.488 3.488 0 0 1 .789 4.003 3.583 3.583 0 0 1-3.145 1.952 9.276 9.276 0 0 0-.07-3.863c-.489-1.911-.828-3.992-.828-3.992z" fill="#000" opacity=".2"/>
                <path d="M201.704 140.188c-.46.66-2.077 1-3.155 1.72a3.74 3.74 0 0 0-1.907 2.102 2.374 2.374 0 0 0 1.128 2.872c1.208.57 3.664-1.401 3.934-2.111a26.656 26.656 0 0 0 0-4.583z" fill="#9A4A4D"/>
                <path d="M201.704 140.188c-.46.66-2.077 1-3.155 1.72a3.74 3.74 0 0 0-1.907 2.102 2.374 2.374 0 0 0 1.128 2.872c1.208.57 3.664-1.401 3.934-2.111a26.656 26.656 0 0 0 0-4.583z" fill="#407BFF"/>
                <path d="M201.704 140.188c-.46.66-2.077 1-3.155 1.72a3.74 3.74 0 0 0-1.907 2.102 2.374 2.374 0 0 0 1.128 2.872c1.208.57 3.664-1.401 3.934-2.111a26.656 26.656 0 0 0 0-4.583z" fill="#000" opacity=".3"/>
                <path d="M202.452 138.987a2.264 2.264 0 0 0-.808 2.061 3.683 3.683 0 0 1-2.157 3.693c-1.947 1-2.176 2.07-1.138 3.001a3.25 3.25 0 0 0 2.366.68s2.896-.66 3.475-2.83c.579-2.172-.53-5.644-1.738-6.605z" fill="#407BFF"/>
                <path d="M202.452 138.987a2.264 2.264 0 0 0-.808 2.061 3.683 3.683 0 0 1-2.157 3.693c-1.947 1-2.176 2.07-1.138 3.001a3.25 3.25 0 0 0 2.366.68s2.896-.66 3.475-2.83c.579-2.172-.53-5.644-1.738-6.605z" fill="#000" opacity=".2"/>
                <path d="M202.702 149.033c-1.877 0-2.636-.81-1.767-1.891.43-.53 1.218-.75 1.707-1.29.558-.55.91-1.274.998-2.052.17-1.921-2.156-3.923-.798-5.604.15.921.529 1.441 1.877 2.542a5.34 5.34 0 0 1 1.657 5.944c-.46 1.35-2.466 2.351-3.674 2.351z" fill="#407BFF"/>
                <path d="M202.702 149.033c-1.877 0-2.636-.81-1.767-1.891.43-.53 1.218-.75 1.707-1.29.558-.55.91-1.274.998-2.052.17-1.921-2.156-3.923-.798-5.604.15.921.529 1.441 1.877 2.542a5.34 5.34 0 0 1 1.657 5.944c-.46 1.35-2.466 2.351-3.674 2.351z" fill="#000" opacity=".1"/>
                <path d="M206.596 147.102c.21-.694.244-1.43.1-2.141a3.578 3.578 0 0 1-2.856 2.781 5.29 5.29 0 0 1-1.907.21c-.739-.07-1.158-.35-1.128-.63a.64.64 0 0 1 .1-.13l.12-.15.07-.06a.12.12 0 0 1 .05-.05l.17-.13.07-.06.339-.22c.23-.14.429-.26.559-.36l.08-.07.14-.12.12-.13a1.68 1.68 0 0 0 .179-.21l.09-.111.14-.19c.046-.068.09-.138.13-.21.104-.181.191-.372.259-.57v-.12a3.926 3.926 0 0 1-2.167 1.9 4.414 4.414 0 0 1-2.556.28c-.798-.12-.828-.56-.828-.61.396-.48.894-.867 1.457-1.13.316-.17.614-.371.889-.6a4.498 4.498 0 0 1-1.068.5c-.61.186-1.252.25-1.887.19-.71-.15-.819-.49-.71-1.001l-.059.17a2.374 2.374 0 0 0 1.128 2.872c.102.333.304.627.58.84a3.25 3.25 0 0 0 2.365.68c.538.5 1.271.732 1.997.631a4.686 4.686 0 0 0 2.386-.84 3.583 3.583 0 0 0 3.145-1.951c.266-.526.38-1.115.33-1.702a2.74 2.74 0 0 1-1.827 2.442z" fill="#000" opacity=".2"/>
            </g>
            <g>
                <path d="M307.962 178.051c9.983 5.784 9.983 15.15 0 20.933-9.984 5.784-26.188 5.784-36.172 0-9.984-5.783-9.984-15.149 0-20.933 9.984-5.783 26.188-5.773 36.172 0z" fill="#000" opacity=".15"/>
                <path d="M307.393 176.49c-9.675-5.593-25.36-5.593-35.034 0v-1c-5.062 2.922-7.468 6.804-7.238 10.636-.23 3.833 2.176 7.715 7.238 10.637 9.675 5.604 25.36 5.604 35.034 0 9.674-5.603 9.674-14.67 0-20.273z" fill="#407BFF"/>
                <path d="M307.393 176.49c-9.675-5.593-25.36-5.593-35.034 0v-1c-5.062 2.922-7.468 6.804-7.238 10.636-.23 3.833 2.176 7.715 7.238 10.637 9.675 5.604 25.36 5.604 35.034 0 9.674-5.603 9.674-14.67 0-20.273z" fill="#000" opacity=".4"/>
                <path d="M307.393 175.49c9.674 5.593 9.674 14.669 0 20.272-9.675 5.604-25.36 5.594-35.034 0-9.674-5.593-9.674-14.679 0-20.272 9.675-5.594 25.36-5.604 35.034 0z" fill="#407BFF"/>
                <path d="M307.393 175.49c9.674 5.593 9.674 14.669 0 20.272-9.675 5.604-25.36 5.594-35.034 0-9.674-5.593-9.674-14.679 0-20.272 9.675-5.594 25.36-5.604 35.034 0z" fill="#407BFF"/>
                <path d="M307.393 175.49c9.674 5.593 9.674 14.669 0 20.272-9.675 5.604-25.36 5.594-35.034 0-9.674-5.593-9.674-14.679 0-20.272 9.675-5.594 25.36-5.604 35.034 0z" fill="#000" opacity=".2"/>
                <path d="M278 179.662c-6.65 3.853-6.65 10.087 0 13.929 6.65 3.842 17.432 3.852 24.081 0 6.65-3.852 6.65-10.076 0-13.929-6.65-3.852-17.442-3.872-24.08 0z" fill="#000" opacity=".3"/>
                <path d="M278.819 180.143c-6.2 3.582-6.2 9.396 0 13.008 6.2 3.612 16.234 3.582 22.433 0 6.2-3.582 6.2-9.396 0-13.008-6.2-3.613-16.243-3.593-22.433 0z" fill="#407BFF"/>
                <path d="M278.819 180.143c-6.2 3.582-6.2 9.396 0 13.008 6.2 3.612 16.234 3.582 22.433 0 6.2-3.582 6.2-9.396 0-13.008-6.2-3.613-16.243-3.593-22.433 0z" fill="#000" opacity=".2"/>
            </g>
            <g>
                <path d="m192.08 186.557-24.311-8.516-.55-.42.14.52c.104.38.388.683.759.81l24.091 8.426-.13-.82z" fill="#263238"/>
                <path d="M192.08 186.357c0 1.12 0 3.342 3.513 4.903 3.515 1.56 7.458-.2 7.448-2.532l-10.962-2.371z" fill="#37474F"/>
                <path d="M194.485 189.298c2.506 1.431 5.91 1.791 7.598.8 1.687-.99 1.068-3.191-1.408-4.692-2.476-1.501-5.99-1.751-7.677-.76a2.002 2.002 0 0 0-.939 1.7c.02.951.849 2.052 2.426 2.952z" fill="#455A64"/>
                <path d="M167.22 176.91a1.227 1.227 0 0 1 1.457-.55l24.96 8.756c.758.27.998.8.549 1.2a2.511 2.511 0 0 1-2.197.23l-24.41-8.545a.76.76 0 0 1-.36-1.09z" fill="#455A64"/>
                <path d="M202.392 186.897a6.114 6.114 0 0 0-1.717-1.491c-2.416-1.461-5.99-1.751-7.677-.76l-.22.16-24.101-8.446a1.227 1.227 0 0 0-1.458.55.802.802 0 0 0-.1.45c.29-1 1.069-.63 2.247-.25 1.178.381 23.622 8.236 23.622 8.236a6.098 6.098 0 0 1 4.403-.61c1.818.3 3.535 1.042 5.001 2.16z" fill="#FFF" opacity=".1"/>
                <path d="M202.173 188.018a2.201 2.201 0 0 0-.769-1.081c.1 1.35-1.547 1.931-3.704 1.701-2.486-.26-4.842-1.811-4.712-3.092a1.653 1.653 0 0 0-.24.5c-.44 1.771 3.165 4.093 5.99 4.213 2.826.12 3.774-1.01 3.435-2.241z" fill="#000" opacity=".1"/>
            </g>
            <g>
                <path d="m268.955 169.666 24.3-8.505.56-.42-.14.51a1.22 1.22 0 0 1-.759.82l-24.091 8.416.13-.82z" fill="#263238"/>
                <path d="M268.955 169.476c0 1.11 0 3.332-3.525 4.893-3.524 1.561-7.457-.19-7.438-2.532l10.963-2.361z" fill="#37474F"/>
                <path d="M266.489 172.408c-2.516 1.44-5.92 1.8-7.608.81-1.687-.99-1.068-3.202 1.418-4.703 2.486-1.5 5.99-1.75 7.667-.76.58.372.937 1.01.949 1.701.04.95-.859 2.061-2.426 2.952z" fill="#455A64"/>
                <path d="M293.755 160.02a1.217 1.217 0 0 0-1.468-.54l-24.96 8.755c-.758.26-.998.8-.549 1.19.66.418 1.476.503 2.207.231l24.4-8.545a.76.76 0 0 0 .37-1.09z" fill="#455A64"/>
                <path d="M258.582 170.006a6.134 6.134 0 0 1 1.717-1.49c2.416-1.462 5.99-1.752 7.667-.761.08.047.158.101.23.16l24.091-8.435c.555-.2 1.174.028 1.468.54.078.14.11.301.09.46-.28-1-1.069-.64-2.247-.25s-23.642 8.235-23.642 8.235a5.979 5.979 0 0 0-4.393-.61 11.229 11.229 0 0 0-4.981 2.151z" fill="#FFF" opacity=".1"/>
                <path d="M258.791 171.137c.143-.432.415-.809.779-1.08-.11 1.34 1.537 1.92 3.704 1.7 2.486-.26 4.832-1.82 4.702-3.092.11.148.19.314.24.49.44 1.772-3.155 4.103-5.99 4.223-2.836.12-3.774-1.01-3.435-2.241z" fill="#000" opacity=".1"/>
            </g>
            <g>
                <path d="M221.791 219.667c-5.331 3.082-5.331 8.085 0 11.177 5.331 3.092 13.977 3.082 19.309 0 5.331-3.082 5.331-8.095 0-11.177-5.332-3.082-13.978-3.092-19.309 0z" opacity=".15" fill="#000"/>
                <path d="M240.251 226.051c4.713-4.823 7.478-16.85 2.886-20.663h-23.373c-4.592 3.813-1.827 15.84 2.876 20.653l.13.13c0 .06.11.11.16.16.135.135.279.262.429.38l.11.09.359.271c.194.143.398.273.609.39a15.474 15.474 0 0 0 14.027 0c.2-.12.41-.25.61-.39.199-.14.219-.17.329-.25l.14-.11c.145-.113.282-.237.409-.37l.19-.18.11-.11z" fill="#EBEBEB"/>
                <path d="M221.791 203.807c-5.331 3.082-5.331 8.085 0 11.177 5.331 3.092 13.977 3.082 19.309 0 5.331-3.082 5.331-8.095 0-11.177-5.332-3.081-13.978-3.001-19.309 0z" fill="#FAFAFA"/>
                <path d="M225.575 206.039c-3.245 1.871-3.245 4.913 0 6.794a12.953 12.953 0 0 0 11.75 0c3.246-1.881 3.246-4.923 0-6.794a12.953 12.953 0 0 0-11.75 0z" fill="#EBEBEB"/>
                <path d="M237.326 209.26a12.953 12.953 0 0 0-11.751 0 5.265 5.265 0 0 0-1.997 1.792 5.325 5.325 0 0 0 1.997 1.781 12.953 12.953 0 0 0 11.75 0 5.366 5.366 0 0 0 1.938-1.781 5.306 5.306 0 0 0-1.937-1.791z" fill="#E0E0E0"/>
                <path d="M225.725 210.942a29.012 29.012 0 0 1-4.663-6.204c-2.156-3.822-2.546-8.926-1.437-9.556 1.108-.63 5.64 4.463 5.64 4.463a27.598 27.598 0 0 1-.479-6.504c.19-3.402.999-6.484 1.997-7.105.998-.62 3.145 3.663 4.073 6.765a86.845 86.845 0 0 1 1.488 5.653c.376-2.42.933-4.808 1.667-7.144 1.128-3.222 2.157-3.953 2.995-3.633.84.32 1.318 1.821 1.548 6.114.083 2.05.02 4.103-.19 6.144 0 0 1.598-1.751 3.365-3.462 1.947-1.871 2.785-2.131 3.334-1.771.55.36.71 3.272-2.306 8.735a30.422 30.422 0 0 1-5.68 7.505s-4.224 2.702-11.352 0z" fill="#407BFF"/>
                <path d="M225.725 210.942a29.012 29.012 0 0 1-4.663-6.204c-2.156-3.822-2.546-8.926-1.437-9.556 1.108-.63 5.64 4.463 5.64 4.463a27.598 27.598 0 0 1-.479-6.504c.19-3.402.999-6.484 1.997-7.105.998-.62 3.145 3.663 4.073 6.765a86.845 86.845 0 0 1 1.488 5.653c.376-2.42.933-4.808 1.667-7.144 1.128-3.222 2.157-3.953 2.995-3.633.84.32 1.318 1.821 1.548 6.114.083 2.05.02 4.103-.19 6.144 0 0 1.598-1.751 3.365-3.462 1.947-1.871 2.785-2.131 3.334-1.771.55.36.71 3.272-2.306 8.735a30.422 30.422 0 0 1-5.68 7.505s-4.224 2.702-11.352 0z" opacity=".25" fill="#000"/>
                <path d="M228.47 203.317s-2.995-8.005-3.205-13.849a23.234 23.234 0 0 0-.479 3.673c-.098 2.18.063 4.362.48 6.504 0 0 1.667 2.822 3.204 3.672zM233.233 212.063a15.586 15.586 0 0 1-6.38-2.632c-2.995-2.231-7.378-9.306-7.827-12.138a16.349 16.349 0 0 0 1.996 7.445 29.012 29.012 0 0 0 4.663 6.204 16.25 16.25 0 0 0 7.548 1.12z" fill="#000" opacity=".1"/>
            </g>
        </g>
    </g>
</svg>
