<svg width="472" height="456" xmlns="http://www.w3.org/2000/svg">
    <g fill-rule="nonzero" fill="none">
        <ellipse cx="236" cy="135.75" rx="236" ry="135.75" transform="translate(0 184.5)" fill="#F0F0F0"/>
        <g transform="translate(14.346 203.203)" fill="#E0E0E0">
            <path d="M42.428 165.387 1.72 142.025c-2.293-1.327-2.293-3.463 0-4.78L238.512.995a9.175 9.175 0 0 1 8.313 0l40.708 23.412c2.293 1.318 2.293 3.463 0 4.78L50.74 165.388a9.236 9.236 0 0 1-8.313 0z"/>
            <path d="m217.407 175.077-97.772-56.234 122.182-70.146 97.651 56.165z"/>
            <ellipse cx="352.39" cy="173.57" rx="46.216" ry="26.585"/>
            <path d="M414.402 141.556c5.009 2.884 5.009 7.554 0 10.439-5.008 2.884-13.131 2.874-18.14 0-5.008-2.875-5.008-7.555 0-10.439 5.009-2.884 13.132-2.884 18.14 0z"/>
        </g>
        <path d="m203.096 326.856 34.997-20.158c3.606-2.076 5.41-4.79 5.41-7.515v-4.85l-36.31-20.398a7.659 7.659 0 0 1-3.486-5.988v-43.001l-61.101 35.188v42.981a7.679 7.679 0 0 0 3.485 5.988l30.891 17.723c7.202 4.182 18.902 4.182 26.114.03z" fill="#407BFF"/>
        <path d="m203.096 326.856 34.997-20.158c3.606-2.076 5.41-4.79 5.41-7.515v-4.85l-36.31-20.398a7.659 7.659 0 0 1-3.486-5.988v-43.001l-61.101 35.188v42.981a7.679 7.679 0 0 0 3.485 5.988l30.891 17.723c7.202 4.182 18.902 4.182 26.114.03z" opacity=".6" fill="#000"/>
        <path d="M157.28 310.73v4.83l-11.209-6.437a7.649 7.649 0 0 1-3.475-5.988v-43.001l11.639-6.717c.24 2.994.51 5.988.751 8.982l-8.173 4.71v33.581a7.609 7.609 0 0 0 3.485 5.988l6.982 4.051z" fill="#000" opacity=".3"/>
        <path d="M146.813 300.7a7.659 7.659 0 0 0 3.485 5.988l26.664 15.308c7.212 4.142 18.912 4.152 26.134 0l35.058-20.158c7.221-4.152 7.221-10.878 0-15.03L211.479 271.5a7.649 7.649 0 0 1-3.485-5.988v-33.59l-61.101 35.187-.08 33.591z" fill="#407BFF"/>
        <path d="M146.813 300.7a7.659 7.659 0 0 0 3.485 5.988l26.664 15.308c7.212 4.142 18.912 4.152 26.134 0l35.058-20.158c7.221-4.152 7.221-10.878 0-15.03L211.479 271.5a7.649 7.649 0 0 1-3.485-5.988v-33.59l-61.101 35.187-.08 33.591z" fill="#000" opacity=".3"/>
        <path d="m218.521 275.602-7.092-4.082a7.649 7.649 0 0 1-3.485-5.988v-33.61l-61.101 35.187V300.7a7.659 7.659 0 0 0 3.485 5.988l7.012 3.991 61.181-35.077z" fill="#000" opacity=".5"/>
        <path d="M243.512 294.333v4.85c0 2.724-1.813 5.429-5.409 7.515l-35.057 20.148a26.354 26.354 0 0 1-12.471 3.084v-4.83a26.352 26.352 0 0 0 12.47-3.084l35.058-20.168c3.596-2.056 5.41-4.78 5.41-7.515z" fill="#407BFF"/>
        <path d="M243.512 294.333v4.85c0 2.724-1.813 5.429-5.409 7.515l-35.057 20.148a26.354 26.354 0 0 1-12.471 3.084v-4.83a26.352 26.352 0 0 0 12.47-3.084l35.058-20.168c3.596-2.056 5.41-4.78 5.41-7.515z" fill="#000" opacity=".5"/>
        <path d="M48.67 342.444a9.397 9.397 0 0 0 8.444-.15l236.391-135.97a9.593 9.593 0 0 0 4.357-7.514V8.282a9.293 9.293 0 0 0-4.097-7.344 9.346 9.346 0 0 0-8.433.16L48.94 137.057a9.553 9.553 0 0 0-4.347 7.504v190.527a9.293 9.293 0 0 0 4.076 7.355z" fill="#407BFF"/>
        <path d="m57.114 342.284 236.391-135.97a9.583 9.583 0 0 0 4.357-7.514V8.282c0-2.764-1.953-3.892-4.357-2.504l-236.39 135.97a9.583 9.583 0 0 0-4.358 7.514v190.517c0 2.765 1.953 3.892 4.357 2.505z" fill="#407BFF"/>
        <path d="m57.114 342.284 236.391-135.97a9.583 9.583 0 0 0 4.357-7.514V8.282c0-2.764-1.953-3.892-4.357-2.504l-236.39 135.97a9.583 9.583 0 0 0-4.358 7.514v190.517c0 2.765 1.953 3.892 4.357 2.505z" fill="#000" opacity=".5"/>
        <path d="M56.473 347.224a9.387 9.387 0 0 1-7.803-.16 9.303 9.303 0 0 1-4.086-7.374v-17.335l8.163 4.71v17.345c0 2.525 1.613 3.672 3.726 2.814z" fill="#407BFF"/>
        <path d="M56.473 347.224a9.387 9.387 0 0 1-7.803-.16 9.303 9.303 0 0 1-4.086-7.374v-17.335l8.163 4.71v17.345c0 2.525 1.613 3.672 3.726 2.814z" fill="#000" opacity=".5"/>
        <path d="M52.747 327.066v17.344c0 2.764 2.003 3.882 4.357 2.505l236.391-135.97a9.593 9.593 0 0 0 4.357-7.515v-17.384L52.747 327.066z" fill="#407BFF"/>
        <path d="M52.757 327.026v17.384c0 2.764 2.003 3.882 4.357 2.505l236.391-135.97a9.593 9.593 0 0 0 4.357-7.515v-17.384L52.757 327.026z" fill="#000" opacity=".3"/>
        <path d="M60.92 305.31V151.956a5.734 5.734 0 0 1 2.605-4.5L287.065 18.9c1.442-.829 2.614-.16 2.614 1.496v153.325a5.744 5.744 0 0 1-2.615 4.51L63.545 306.807c-1.452.829-2.624.15-2.624-1.497z" fill="#407BFF"/>
        <path d="M60.92 305.31V151.956a5.734 5.734 0 0 1 2.605-4.5L287.065 18.9c1.442-.829 2.614-.16 2.614 1.496v153.325a5.744 5.744 0 0 1-2.615 4.51L63.545 306.807c-1.452.829-2.624.15-2.624-1.497z" fill="#263238"/>
        <path d="M54.04 144.97a9.206 9.206 0 0 0-1.293 4.282v177.814l-8.163-4.71V144.561a8.848 8.848 0 0 1 1.282-4.282l8.173 4.69z" fill="#000" opacity=".7"/>
        <path d="M297.812 7.564c-.31-2.236-2.123-3.044-4.317-1.796l-236.38 135.98a8.936 8.936 0 0 0-3.076 3.223l-8.173-4.7a8.996 8.996 0 0 1 3.085-3.224L285.34 1.087a9.366 9.366 0 0 1 8.444-.16 9.345 9.345 0 0 1 4.027 6.637z" fill="#000" opacity=".3"/>
        <g transform="translate(77.137 28.39)">
            <path d="M2.043 152.925a4.636 4.636 0 0 1-2.003-3.662v-16.876a4.797 4.797 0 0 1 2.174-3.742L224.67.66a4.08 4.08 0 0 1 4.2-.08 4.048 4.048 0 0 1 2.03 3.662v16.866a4.727 4.727 0 0 1-2.163 3.742L6.24 152.845a4.643 4.643 0 0 1-4.197.08z" fill="#407BFF"/>
            <path d="M230.882 3.892c-.15-1.118-1.062-1.527-2.144-.898L6.24 130.99a4.598 4.598 0 0 0-1.532 1.617L.64 130.222a4.508 4.508 0 0 1 1.533-1.617L224.67.66a4.02 4.02 0 0 1 4.06-.205 3.99 3.99 0 0 1 2.15 3.438z" fill="#FFF" opacity=".4"/>
            <path d="M6.24 290.132c-.515.311-1.1.49-1.703.52a4.28 4.28 0 0 1-2.494-.44A4.606 4.606 0 0 1 .04 286.55V157.985l4.077 2.345v128.565c0 .998.49 1.547 1.202 1.547.327-.03.643-.135.921-.31z" fill="#F0F0F0"/>
            <path d="M4.708 132.607a4.38 4.38 0 0 0-.631 2.126v25.597L0 157.985v-25.857c.019-.178.049-.355.09-.529a4.81 4.81 0 0 1 .541-1.337l4.077 2.345z" fill="#000" opacity=".1"/>
            <path d="M230.902 4.241v11.547l-159.564 91.81c-1.192.69-2.164.13-2.164-1.247v-4.37c0-1.378-1.001-1.937-2.173-1.248L14.384 131a4.767 4.767 0 0 0-2.174 3.743v4.37a4.787 4.787 0 0 1-2.163 3.743l-6.01 3.433v-11.556A4.787 4.787 0 0 1 6.2 130.99L228.738 2.994c1.192-.689 2.164-.13 2.164 1.247z" fill="#407BFF"/>
            <path d="M230.902 158.394a4.777 4.777 0 0 1-2.164 3.752L6.24 290.132c-1.192.689-2.163.13-2.163-1.247V146.279l6.01-3.433c1.192-.689 3.135-11.167 4.337-11.856l51.735-29.768c1.202-.689 4.007 7.055 5.219 6.367l159.564-91.811v142.606l-.04.01z" fill="#FAFAFA"/>
            <path d="M229.9 17.514v140.88a3.78 3.78 0 0 1-1.663 2.884L5.74 289.274c-.138.09-.296.145-.46.16-.2 0-.2-.52-.2-.549V146.848l5.468-3.144c.872-.499 1.413-2.175 2.625-6.497a31.851 31.851 0 0 1 1.793-5.398l51.274-29.53c.601.829 1.147 1.696 1.633 2.595 1.392 2.445 2.174 3.722 3.306 3.722.232.001.46-.06.66-.18L229.9 17.485m1.002-1.696-159.564 91.81a.292.292 0 0 1-.16 0c-1.212 0-3.676-6.446-4.898-6.446a.322.322 0 0 0-.16 0L14.383 130.92c-1.202.689-3.145 11.167-4.337 11.856l-6.01 3.433v142.686c0 .998.49 1.547 1.202 1.547.355-.007.701-.11 1.001-.3l222.498-127.986a4.777 4.777 0 0 0 2.164-3.752V15.788z" fill="#E0E0E0"/>
            <path d="m42.14 208.63 29.649-17.055c.801-.459 1.442-.09 1.442.829v49.747a3.171 3.171 0 0 1-1.442 2.495l-29.65 17.055c-.8.46-1.442.08-1.442-.838v-49.738a3.171 3.171 0 0 1 1.443-2.495z" fill="#F0F0F0"/>
            <path d="m47.559 211.744 18.81-10.818c.792-.459 1.443-.13 1.443.729a3.102 3.102 0 0 1-1.442 2.395l-18.811 10.817c-.792.46-1.443.13-1.443-.728a3.112 3.112 0 0 1 1.443-2.395z" fill="#E0E0E0"/>
            <path d="M46.116 219.817v1.128c0 .549.39.768.872.499l1.001-.569c.517-.329.842-.887.872-1.497v-1.118c0-.558-.39-.778-.872-.498l-1.001.558a1.915 1.915 0 0 0-.872 1.497z" fill="#407BFF"/>
            <path d="M51.515 217.263c0 .858.651 1.187 1.453.728l13.382-7.704a3.092 3.092 0 0 0 1.442-2.385c0-.868-.651-1.188-1.442-.729l-13.382 7.694a3.082 3.082 0 0 0-1.453 2.396z" fill="#E0E0E0"/>
            <path d="M46.116 226.025v1.127c0 .549.39.769.872.5l1.001-.57c.514-.331.838-.887.872-1.497v-1.117c0-.56-.39-.779-.872-.5l-1.001.56a1.915 1.915 0 0 0-.872 1.497z" fill="#407BFF"/>
            <path d="M51.515 223.51c0 .858.651 1.187 1.453.728l13.382-7.704a3.092 3.092 0 0 0 1.442-2.385c0-.868-.651-1.188-1.442-.729l-13.382 7.695a3.082 3.082 0 0 0-1.453 2.395z" fill="#E0E0E0"/>
            <path d="M46.116 232.302v1.117c0 .56.39.779.872.5l1.001-.56c.513-.332.837-.888.872-1.497v-1.127c0-.55-.39-.769-.872-.5l-1.001.57a1.905 1.905 0 0 0-.872 1.497z" fill="#407BFF"/>
            <path d="M51.515 229.737c0 .868.651 1.187 1.453.728l13.382-7.694a3.092 3.092 0 0 0 1.442-2.385c0-.868-.651-1.187-1.442-.728l-13.382 7.694a3.082 3.082 0 0 0-1.453 2.385z" fill="#E0E0E0"/>
            <path d="M46.116 238.529v1.127c0 .55.39.779.872.5l1.001-.56c.513-.332.837-.888.872-1.496v-1.098c0-.549-.39-.779-.872-.5l-1.001.56c-.505.326-.828.869-.872 1.467z" fill="#407BFF"/>
            <path d="M51.515 236.004c0 .858.651 1.187 1.453.728l13.402-7.714a3.112 3.112 0 0 0 1.442-2.395c0-.858-.651-1.187-1.442-.728l-13.382 7.694a3.102 3.102 0 0 0-1.473 2.415zM47.448 246.133l18.801-10.818c.802-.459 1.453-.14 1.453.729a3.082 3.082 0 0 1-1.453 2.385l-18.8 10.818c-.802.459-1.453.14-1.443-.729a3.072 3.072 0 0 1 1.442-2.385z" fill="#E0E0E0"/>
            <path d="M45.996 254.196v1.128c0 .549.39.779.871.5l1.002-.56c.51-.333.83-.89.862-1.497v-1.127c0-.55-.391-.779-.862-.5l-1.002.56a1.915 1.915 0 0 0-.871 1.496z" fill="#407BFF"/>
            <path d="M51.425 251.642c0 .858.651 1.187 1.442.728l13.382-7.694a3.102 3.102 0 0 0 1.453-2.395c0-.858-.651-1.188-1.453-.728l-13.382 7.694a3.112 3.112 0 0 0-1.442 2.395z" fill="#E0E0E0"/>
            <path d="M220.735 11.467c1.512-.869 2.734-.16 2.734 1.576a5.983 5.983 0 0 1-2.734 4.71c-1.503.859-2.725.16-2.725-1.576a5.983 5.983 0 0 1 2.725-4.71zM210.909 17.125c1.512-.868 2.734-.17 2.734 1.567a5.983 5.983 0 0 1-2.734 4.75c-1.503.868-2.725.16-2.725-1.567a5.983 5.983 0 0 1 2.725-4.75z" fill="#FFF"/>
            <ellipse fill="#FFF" transform="rotate(-60 201.091 25.915)" cx="201.091" cy="25.915" rx="3.846" ry="2.222"/>
            <path d="M230.902 15.788v14.05L4.077 160.33v-14.051l4.457-2.575c1.192-.688 1.593-1.736 2.164-3.742l1.512-5.23c.481-1.816 1.002-3.053 2.174-3.742l51.735-29.768c1.202-.689 2.144-.759 3.005.748l1.853 3.353c.681 1.168 1.002 1.856 2.214 1.168l157.71-90.703z" fill="#E6E6E6"/>
            <path fill="#E0E0E0" d="M4.077 146.279v14.05L0 157.986v-14.041z"/>
            <path d="m14.023 147.287-3.405 1.996 1.302-2.485a.637.637 0 0 0 0-.609c-.1-.12-.28 0-.39.19l-1.844 3.532s0 .08-.05.13c-.01.06-.01.12 0 .18a.378.378 0 0 0 0 .16.559.559 0 0 0 .05.08l1.843 1.406a.15.15 0 0 0 .18 0 .52.52 0 0 0 .21-.26.547.547 0 0 0 0-.578l-1.301-.998 3.405-1.996a.708.708 0 0 0 .28-.579c0-.14-.13-.27-.28-.17zM16.868 145.65l3.406-1.996-1.303-.998c-.11-.08-.12-.339 0-.579.12-.24.27-.339.381-.259l1.853 1.417a.13.13 0 0 1 0 .07c.006.05.006.1 0 .15.005.063.005.126 0 .19a.686.686 0 0 1 0 .129l-1.853 3.543a.48.48 0 0 1-.18.21.14.14 0 0 1-.2 0 .627.627 0 0 1 0-.61l1.302-2.484-3.406 1.995c-.15.09-.27 0-.27-.259a.728.728 0 0 1 .27-.519zM28.036 135.88c0-.2-.2-.17-.29.05l-.46 1.138c-.802-.09-1.764.688-2.415 2.056-.841 1.776-.841 3.882 0 4.69a1.205 1.205 0 0 0 1.533.09 4.165 4.165 0 0 0 1.522-1.847.577.577 0 0 0 0-.598c-.1-.1-.28 0-.38.23-.632 1.327-1.653 1.915-2.284 1.307-.631-.61-.631-2.176 0-3.503.44-.938 1.092-1.497 1.652-1.537l-.35.858c-.09.22 0 .43.13.34l1.392-.909a.418.418 0 0 0 .15-.379l-.2-1.986zM64.627 107.638l1.242-2.614a.786.786 0 0 0 0-.819c-.15-.14-.38 0-.531.31l-1.242 2.614-1.242-1.187c-.14-.14-.38 0-.531.3a.836.836 0 0 0 0 .818l1.212 1.207-1.242 2.625a.816.816 0 0 0 0 .808c.08.062.19.062.27 0a.789.789 0 0 0 .26-.32l1.243-2.624 1.242 1.198a.21.21 0 0 0 .27 0 .729.729 0 0 0 .26-.32.786.786 0 0 0 0-.818l-1.211-1.178z" fill="#455A64" opacity=".5"/>
            <path d="M32.554 139.104v-4.371a4.767 4.767 0 0 1 2.173-3.743l181.81-104.554c1.193-.689 2.164-.13 2.164 1.247v4.371a4.787 4.787 0 0 1-2.163 3.742L34.728 140.351c-1.243.689-2.174.13-2.174-1.247z" fill="#FAFAFA"/>
            <path d="M213.583 36.146a.533.533 0 0 1-.19 0 .588.588 0 0 1-.33-.649l.21-1.776-.832-.6a.578.578 0 0 1-.23-.488.997.997 0 0 1 .36-.749l1.272-.997a.22.22 0 0 0 .05-.1l.571-1.866a.8.8 0 0 1 .641-.6.501.501 0 0 1 .501.3l.481.998 1.072-.409a.522.522 0 0 1 .58.13.806.806 0 0 1 0 .878l-.92 1.716v.11l.21 1.557a.995.995 0 0 1-.24.818.612.612 0 0 1-.502.2l-1.001-.13-1.122 1.427a.642.642 0 0 1-.581.23zm-.611-3.613.831.599c.176.146.26.374.22.599l-.14 1.177.752-.948a.652.652 0 0 1 .57-.28l1.002.13a.338.338 0 0 0 0-.12l-.22-1.556a.995.995 0 0 1 .11-.559l.811-1.507-.83.32a.512.512 0 0 1-.662-.27l-.37-.788-.511 1.656a.998.998 0 0 1-.311.47l-1.282.997a.229.229 0 0 0 .03.08z" fill="#E0E0E0"/>
            <g opacity=".5" fill="#455A64">
                <path d="M221.256 25.917a.747.747 0 0 1-.37-1.397l6.1-3.513a.753.753 0 0 1 1.026.274.747.747 0 0 1-.276 1.023l-6.1 3.513a.754.754 0 0 1-.38.1zM221.256 29.43a.747.747 0 0 1-.37-1.397l6.1-3.513a.753.753 0 0 1 1.026.274.747.747 0 0 1-.276 1.023l-6.1 3.513a.864.864 0 0 1-.38.1zM221.256 32.942a.747.747 0 0 1-.37-1.397l6.1-3.513a.743.743 0 0 1 1 .27.747.747 0 0 1-.27.998l-6.1 3.503a.763.763 0 0 1-.36.14z"/>
            </g>
            <path fill="#455A64" d="m4.077 160.33-.01 14.03L230.882 43.9l.02-14.061z"/>
            <path d="M29.479 151.378v2.715c0 .559.39.778.871.499l34.056-19.61v-4.76l-34.056 19.61c-.524.344-.849.92-.871 1.546z" fill="#FAFAFA"/>
            <path d="M69.044 127.597c.49-.28.882-.05.882.51v2.714a1.905 1.905 0 0 1-.882 1.507l-4.608 2.654v-4.76l4.608-2.625z" fill="#407BFF"/>
            <path d="m68.704 131.32-.511-.16c.05-.216.078-.437.08-.659a1.196 1.196 0 0 0-.471-1.087.713.713 0 0 0-.741 0 2.6 2.6 0 0 0-1.002 2.125c-.05.423.13.842.47 1.098.1.06.215.09.331.09a.794.794 0 0 0 .421-.13c.389-.271.68-.66.832-1.108l.51.16h.06a.19.19 0 0 0 .18-.13.2.2 0 0 0-.16-.2zm-1.643.998a.342.342 0 0 1-.37 0 .896.896 0 0 1-.281-.769 2.262 2.262 0 0 1 .841-1.796.432.432 0 0 1 .23-.07.281.281 0 0 1 .13 0c.215.195.32.482.281.768a2.272 2.272 0 0 1-.831 1.847v.02zM23.539 153.803l-2.324 1.367a1.915 1.915 0 0 0-.871 1.497v2.685c0 .559.39.778.871.499l2.324-1.337c.514-.332.838-.888.871-1.497v-2.685c0-.579-.39-.808-.871-.529z" fill="#FAFAFA"/>
            <path d="M104.302 106.201a6.85 6.85 0 0 0-3.105 5.37c0 1.995 1.393 2.774 3.105 1.786a6.85 6.85 0 0 0 3.105-5.37c0-1.965-1.392-2.774-3.105-1.786z" fill="#407BFF"/>
            <path d="M103.942 109.355a.553.553 0 0 1-.28-.07.678.678 0 0 1-.301-.619c.03-.576.335-1.103.821-1.417a.693.693 0 0 1 .691 0c.206.137.32.374.3.619a1.795 1.795 0 0 1-.82 1.417.834.834 0 0 1-.411.07zM105.534 109.564a1.085 1.085 0 0 0-1.101.08l-.451.26a2.992 2.992 0 0 0-1.392 2.415v.32a1.758 1.758 0 0 0 1.712-.18 4.998 4.998 0 0 0 1.713-1.797v-.08a1.106 1.106 0 0 0-.48-1.018z" fill="#FFF"/>
            <path d="M111.414 103.806 132.7 91.552c.862-.49 1.563-.12 1.563.848a3.361 3.361 0 0 1-1.563 2.634l-21.285 12.235c-.861.5-1.562.12-1.562-.838a3.371 3.371 0 0 1 1.562-2.625zM143.908 85.135l13.212-7.664c.861-.5 1.552-.12 1.562.838a3.39 3.39 0 0 1-1.562 2.634l-13.212 7.675c-.862.489-1.563.12-1.563-.849a3.39 3.39 0 0 1 1.563-2.634zM168.348 71.144l9.115-5.27c.862-.499 1.563-.12 1.563.839a3.37 3.37 0 0 1-1.563 2.634l-9.115 5.28c-.861.488-1.562.12-1.562-.839a3.39 3.39 0 0 1 1.562-2.644z" fill="#E0E0E0"/>
            <path d="M138.339 92.829a.38.38 0 0 1-.381-.38v-4.68a.38.38 0 0 1 .751 0v4.68a.38.38 0 0 1-.37.38zM162.749 78.788a.38.38 0 0 1-.38-.38v-4.68a.38.38 0 0 1 .75 0v4.68a.38.38 0 0 1-.37.38zM183.093 67.082a.38.38 0 0 1-.381-.37v-4.68a.382.382 0 1 1 .751 0v4.68a.38.38 0 0 1-.37.37z" fill="#263238"/>
            <path d="M190.915 59.867v-.858c0-.998-.6-1.437-1.342-.998a3.2 3.2 0 0 0-1.332 2.544v.809a3.055 3.055 0 0 1-.45 1.507.786.786 0 0 0-.11.389c0 .25.15.36.33.26l3.135-1.797a.827.827 0 0 0 .33-.649.329.329 0 0 0-.1-.26.917.917 0 0 1-.46-.947zM190.224 62.461c-.01.49-.251.944-.65 1.228-.351.2-.642 0-.642-.489l1.292-.739zM196.635 56.095a.653.653 0 0 1-.31-.08.767.767 0 0 1-.341-.699c.027-.65.371-1.246.921-1.597a.794.794 0 0 1 .782-.06.767.767 0 0 1 .34.7 1.994 1.994 0 0 1-.921 1.596 1.004 1.004 0 0 1-.471.14zM198.428 56.374a1.216 1.216 0 0 0-1.232.1l-.511.29a3.43 3.43 0 0 0-1.573 2.724v.359a2.01 2.01 0 0 0 1.934-.2 5.718 5.718 0 0 0 1.933-1.996v-.09a1.276 1.276 0 0 0-.551-1.187zM199.12 53.78a.552.552 0 0 1-.311-.08.748.748 0 0 1-.341-.699c.028-.65.371-1.246.922-1.597a.693.693 0 0 1 .778-.054.688.688 0 0 1 .333.703 1.994 1.994 0 0 1-.921 1.587.874.874 0 0 1-.46.14z" fill="#407BFF"/>
            <path d="M200.912 54.019a1.226 1.226 0 0 0-1.242.09l-.5.3a3.227 3.227 0 0 0-1.293 1.516c.34-.185.751-.185 1.092 0 .38.258.59.7.55 1.158v.22a5.548 5.548 0 0 0 1.944-1.997v-.09a1.266 1.266 0 0 0-.551-1.197zM207.102 47.632a5.614 5.614 0 0 0-2.554 4.41c-.04.562.169 1.113.571 1.508l-.32 1.507c0 .19.09.27.21.13l1.152-1.338a2.67 2.67 0 0 0 .941-.33 5.624 5.624 0 0 0 2.544-4.41c0-1.627-1.141-2.285-2.544-1.477zM219.352 40.527c.19-.123.407-.198.632-.22a.854.854 0 0 1 .51.09.84.84 0 0 1 .34.4c.096.216.14.451.131.688.003.208-.02.416-.07.618-.05.19-.11.377-.18.56-.08.169-.16.339-.25.498-.09.16-.171.31-.251.46-.08.149-.16.309-.22.458a1.93 1.93 0 0 0-.14.45c-.013.07-.03.14-.05.209a.28.28 0 0 1-.11.13l-.722.419a.09.09 0 0 1-.12 0 .21.21 0 0 1-.05-.15c0-.195.028-.39.08-.579.056-.19.123-.376.2-.558.08-.17.17-.35.26-.51.09-.16.18-.319.26-.468.078-.135.145-.275.201-.42a.995.995 0 0 0 .08-.389c0-.18 0-.29-.13-.34-.13-.049-.22 0-.4.08a1.13 1.13 0 0 0-.391.35c-.071.116-.129.24-.17.37 0 .119-.07.229-.09.319a.4.4 0 0 1-.15.22l-.732.418a.08.08 0 0 1-.1 0 .17.17 0 0 1 0-.12c.007-.252.044-.504.11-.748a4.85 4.85 0 0 1 .33-.838c.146-.28.32-.545.521-.789a2.47 2.47 0 0 1 .671-.608zm.521 5.987a.488.488 0 0 1-.05.2.33.33 0 0 1-.11.14l-.761.429a.08.08 0 0 1-.11 0 .21.21 0 0 1-.05-.15v-.928a.488.488 0 0 1 .05-.2.27.27 0 0 1 .11-.14l.761-.438a.09.09 0 0 1 .11 0 .21.21 0 0 1 .05.15v.937zM40.687 160.48v41.813c0 1.378 1.002 1.936 2.174 1.248l149.246-85.883a4.787 4.787 0 0 0 2.164-3.743V72.112c0-1.378-1.002-1.936-2.164-1.248L42.861 156.737a4.767 4.767 0 0 0-2.174 3.743z" fill="#407BFF"/>
            <path d="M40.687 160.48v41.813c0 1.378 1.002 1.936 2.174 1.248l149.246-85.883a4.787 4.787 0 0 0 2.164-3.743V72.112c0-1.378-1.002-1.936-2.164-1.248L42.861 156.737a4.767 4.767 0 0 0-2.174 3.743z" fill="#FFF" opacity=".7"/>
            <path d="M52.897 166.567c-4.497 2.595-8.143 8.882-8.143 14.051 0 5.17 3.646 7.265 8.143 4.68 4.498-2.584 8.144-8.871 8.134-14.05-.01-5.18-3.646-7.266-8.134-4.681z" fill="#407BFF"/>
            <path d="M51.946 174.82a1.396 1.396 0 0 1-.721-.19 1.754 1.754 0 0 1-.782-1.626 4.637 4.637 0 0 1 2.134-3.693 1.607 1.607 0 0 1 1.81-.145c.576.33.887.979.784 1.632a4.647 4.647 0 0 1-2.143 3.693 2.18 2.18 0 0 1-1.082.329zM56.113 175.359a2.813 2.813 0 0 0-2.865.22l-1.182.678a7.978 7.978 0 0 0-3.666 6.317v.838c1.162.639 2.745.53 4.497-.479a12.994 12.994 0 0 0 4.488-4.69v-.2a2.99 2.99 0 0 0-1.272-2.684z" fill="#FFF"/>
            <path d="m66.66 164.86 17.239-9.91c.861-.498 1.562-.179 1.562.7a3.272 3.272 0 0 1-1.562 2.494l-17.239 9.91c-.861.499-1.562.19-1.562-.699a3.272 3.272 0 0 1 1.562-2.494zM66.02 171.507l10.136-5.828c.5-.3.911-.11.911.409a1.935 1.935 0 0 1-.911 1.467l-10.137 5.828c-.51.29-.921.11-.921-.41a1.905 1.905 0 0 1 .921-1.466z" fill="#455A64"/>
            <path d="m42.86 203.59 149.247-85.822a4.787 4.787 0 0 0 2.164-3.743v-6.856L40.687 195.477v6.866c0 1.377.972 1.936 2.174 1.248z" fill="#F5F5F5"/>
            <path d="M81.374 179.41a.361.361 0 0 1-.37-.369v-4.68a.368.368 0 0 1 .37-.38c.21 0 .381.17.381.38v4.68a.369.369 0 0 1-.38.37z" fill="#EBEBEB"/>
            <path d="m63.174 185.578 13.202-7.674c.862-.49 1.563-.12 1.563.848a3.39 3.39 0 0 1-1.563 2.634l-13.202 7.715c-.861.499-1.562.12-1.562-.839a3.39 3.39 0 0 1 1.562-2.684z" fill="#E0E0E0"/>
            <path d="M105.224 165.609a.371.371 0 0 1-.37-.38v-4.68a.37.37 0 0 1 .37-.369.38.38 0 0 1 .38.37v4.68c0 .21-.17.379-.38.379z" fill="#EBEBEB"/>
            <path d="m87.024 171.766 13.202-7.614c.861-.499 1.562-.12 1.562.838a3.37 3.37 0 0 1-1.562 2.635l-13.202 7.674c-.862.499-1.563.12-1.563-.838a3.39 3.39 0 0 1 1.563-2.695z" fill="#E0E0E0"/>
            <path d="M129.073 151.797a.38.38 0 0 1-.38-.369v-4.68a.38.38 0 0 1 .646-.268c.07.072.108.168.105.268v4.68a.37.37 0 0 1-.37.37z" fill="#EBEBEB"/>
            <path d="m110.873 157.965 13.202-7.674c.861-.49 1.563-.12 1.563.848a3.39 3.39 0 0 1-1.563 2.634l-13.202 7.665c-.861.499-1.562.12-1.562-.839a3.39 3.39 0 0 1 1.562-2.634z" fill="#E0E0E0"/>
            <path d="M152.923 137.996a.38.38 0 0 1-.38-.38v-4.68a.369.369 0 0 1 .38-.369.361.361 0 0 1 .37.37v4.68a.369.369 0 0 1-.37.379z" fill="#EBEBEB"/>
            <path d="m134.723 144.193 13.201-7.664c.862-.5 1.563-.12 1.563.838a3.37 3.37 0 0 1-1.563 2.635l-13.201 7.674c-.872.499-1.563.12-1.563-.838a3.36 3.36 0 0 1 1.563-2.645zM158.562 130.352l13.212-7.675c.861-.489 1.562-.12 1.562.849a3.39 3.39 0 0 1-1.562 2.634l-13.212 7.664c-.861.5-1.553.12-1.553-.838a3.38 3.38 0 0 1 1.553-2.634z" fill="#E0E0E0"/>
        </g>
        <g>
            <path d="m112.626 372.063 13.312-7.644s8.264-24.23 6.17-46.544c-2.634-27.723-15.776-37.513-23.489-34.38-7.712 3.134-6.12 14.141 2.064 28.94 6.46 11.767 6.48 38.83 1.943 59.628z" fill="#407BFF"/>
            <path d="m112.626 372.063 13.312-7.644s8.264-24.23 6.17-46.544c-2.634-27.723-15.776-37.513-23.489-34.38-7.712 3.134-6.12 14.141 2.064 28.94 6.46 11.767 6.48 38.83 1.943 59.628z" fill="#000" opacity=".1"/>
            <path d="M118.987 369.02a.601.601 0 0 0 .57-.41c8.575-26.156 8.935-62.87-7.291-79.446a.604.604 0 0 0-1.01.257.598.598 0 0 0 .148.581c15.315 15.628 15.586 52.053 7.012 78.229a.597.597 0 0 0 .39.758.57.57 0 0 0 .18.03z" fill="#FFF"/>
            <path d="M88.667 385.825c-1.383.788-4.227-.938-5.31-1.667a13.188 13.188 0 0 1-4.376-4.99 12.264 12.264 0 0 1-1.102-7.384c.225-1.327.54-2.638.941-3.922.37-1.268.731-2.535 1.102-3.813a9.687 9.687 0 0 0 .561-3.832c-.34-2.604-2.654-4.43-4.768-5.987-2.334-1.737-4.758-4.042-4.748-7.176a10.957 10.957 0 0 1 2.775-6.566c1.502-1.896 3.285-3.573 4.648-5.579a7.635 7.635 0 0 0 1.582-4.87 8.123 8.123 0 0 0-1.062-3.043c-1.111-2.046-2.584-3.912-3.345-6.108-.761-2.195-.661-4.92 1.062-6.486 1.412-1.288 3.505-1.467 5.419-1.347a12.44 12.44 0 0 1 5.008 1.766c5.008 2.774 7.853 8.662 13.152 10.798 2.003.818 4.287.998 6.42 1.556 2.134.56 4.307 1.647 5.289 3.613 1.953 3.872-1.663 8.652-.3 12.764 1.211 3.632 4.767 4.99 6.76 8.303a7.76 7.76 0 0 1 .932 4.76 22.824 22.824 0 0 1-2.003 8.053 57.103 57.103 0 0 1-4.427 7.245c-.09.06-24 13.792-24.21 13.912z" fill="#407BFF"/>
            <path d="M102.95 378.16a.55.55 0 0 0 .531-.479c2.574-20.318-7.162-47.731-21.706-61.094a.542.542 0 0 0-.727.062.537.537 0 0 0-.004.727c14.314 13.162 23.9 40.157 21.365 60.176a.54.54 0 0 0 .471.598l.07.01z" fill="#FFF"/>
            <path d="M100.456 352.134c.17 0 .33-.082.43-.22a.538.538 0 0 0-.1-.748c-8.013-5.988-20.293-4.99-20.804-4.91a.542.542 0 0 0-.49.589.55.55 0 0 0 .58.489c.13 0 12.37-1.058 20.033 4.69a.562.562 0 0 0 .351.11zM99.254 347.144a.53.53 0 0 0 .53-.509c.372-9.31 7.423-14.969 7.493-14.969a.538.538 0 0 0 .1-.758.552.552 0 0 0-.76-.09 22.355 22.355 0 0 0-7.904 15.787.54.54 0 0 0 .511.56l.03-.02z" fill="#FFF"/>
        </g>
        <g>
            <path d="M231.753 368.92c-17.995-10.355-30.278-28.308-33.375-48.78l-7.102-46.973c-2.733-18.093-12.67-34.325-27.565-45.028l-9.266-6.656v5.27l5.009 3.612c14.856 10.682 24.781 26.863 27.545 44.907l7.242 47.303c3.128 20.423 15.4 38.325 33.355 48.66l4.137 2.375v-4.68l.02-.01z" fill="#EBEBEB"/>
            <path d="m312.296 254.605-7.102-46.973c-2.731-18.091-12.664-34.323-27.555-45.028l-9.266-6.666-113.928 65.545 9.266 6.666c14.895 10.703 24.832 26.935 27.565 45.028l7.102 46.973c3.097 20.472 15.38 38.425 33.375 48.78l113.928-65.536c-18.004-10.35-30.293-28.31-33.385-48.79z" fill="#FAFAFA"/>
            <path d="m268.313 157.126 8.735 6.287c14.64 10.58 24.422 26.558 27.165 44.368l7.091 46.974c3.004 20.2 14.876 38.018 32.394 48.62l-111.945 64.387c-17.504-10.213-29.417-27.781-32.394-47.772l-7.091-46.973c-2.822-18.342-12.893-34.797-27.966-45.696l-8.014-5.758 112.025-64.437m.06-1.188-113.928 65.545 9.266 6.666c14.895 10.703 24.832 26.935 27.565 45.028l7.102 46.973c3.097 20.472 15.38 38.425 33.375 48.78l113.928-65.536c-18.001-10.348-30.29-28.304-33.385-48.78l-7.102-46.972c-2.729-18.095-12.662-34.33-27.555-45.038l-9.266-6.666z" fill="#E0E0E0"/>
            <path fill="#F5F5F5" d="m231.753 368.92 113.928-65.536v4.68L231.753 373.6z"/>
            <path d="M175.73 217.95c-4.006 1.687-4.397 5.14-.951 7.735a15.012 15.012 0 0 0 13.442 1.626c4.007-1.676 4.407-5.14 1.002-7.724a14.982 14.982 0 0 0-13.493-1.637z" fill="#407BFF"/>
            <path d="M180.038 222.152a4.594 4.594 0 0 1-1.002 0 4.327 4.327 0 0 1-2.074-.739c-.921-.688-.82-1.586.25-1.996a4.413 4.413 0 0 1 2.204-.23c.744.074 1.456.331 2.074.75.921.688.811 1.586-.25 1.995-.386.141-.792.215-1.202.22zM185.677 222.062a7.036 7.036 0 0 0-3.486.36l-1.002.438c-1.813.779-2.003 2.306-.42 3.483l.56.42c1.897.277 3.832.123 5.66-.45 1.723-.658 2.775-1.417 2.925-2.505l-.771-.509a7.35 7.35 0 0 0-3.466-1.237z" fill="#FFF"/>
            <path d="m194.231 210.586 33.455-19.25a4.11 4.11 0 0 1 4.197.219l.3.24a1.615 1.615 0 0 1-.23 2.843l-33.425 19.29a3.908 3.908 0 0 1-4.087-.359c-.12-.09-.24-.18-.35-.279a1.496 1.496 0 0 1 .14-2.704zM201.583 218.35l16.748-9.63a.888.888 0 0 0 .17-1.487l-.3-.29a1.748 1.748 0 0 0-2.004-.23l-16.657 9.7a.898.898 0 0 0-.17 1.498l.21.2c.551.49 1.351.585 2.003.239z" fill="#455A64"/>
            <path d="m190.635 236.642 90.27-51.943a2.791 2.791 0 0 1 3.615.788l.19.27a2.318 2.318 0 0 1-.8 3.333l-90.32 51.983a2.68 2.68 0 0 1-3.526-.848l-.19-.29a2.259 2.259 0 0 1 .761-3.293zM196.114 245.504l90.37-51.963a2.331 2.331 0 0 1 3.295.998l.14.29a2.809 2.809 0 0 1-1.142 3.522l-90.39 52.033a2.22 2.22 0 0 1-3.174-.998l-.16-.32a2.719 2.719 0 0 1 1.061-3.562zM200.18 255.134l90.45-52.023a1.94 1.94 0 0 1 1.759-.188c.582.224 1.02.714 1.176 1.316l.12.449a3.358 3.358 0 0 1-1.502 3.652l-90.41 52.063c-.51.338-1.155.4-1.72.166a1.828 1.828 0 0 1-1.094-1.334c0-.16-.09-.319-.14-.479a3.277 3.277 0 0 1 1.362-3.622zM202.775 265.632l52.577-30.247a1.598 1.598 0 0 1 1.646-.157c.535.258.882.792.898 1.384l.11.699a3.917 3.917 0 0 1-1.793 3.712L203.637 271.3a1.598 1.598 0 0 1-1.643.158 1.586 1.586 0 0 1-.902-1.376c0-.25-.07-.489-.11-.738a3.987 3.987 0 0 1 1.793-3.713z" fill="#000" opacity=".2"/>
            <path d="m311.495 294.094-86.032 49.498a5.552 5.552 0 0 1-7.262-1.557c-5.443-8.303-9.075-18.645-10.898-31.026l-3.436-22.743a7.884 7.884 0 0 1 3.586-7.435l86.142-49.578c2.394-1.377 4.678-.28 5.089 2.445l3.435 22.753a71.399 71.399 0 0 0 10.838 31.066 4.527 4.527 0 0 1 .734 3.612 4.542 4.542 0 0 1-2.196 2.965z" fill="#407BFF"/>
            <path d="m311.495 294.094-86.032 49.498a5.552 5.552 0 0 1-7.262-1.557c-5.443-8.303-9.075-18.645-10.898-31.026l-3.436-22.743a7.884 7.884 0 0 1 3.586-7.435l86.142-49.578c2.394-1.377 4.678-.28 5.089 2.445l3.435 22.753a71.399 71.399 0 0 0 10.838 31.066 4.527 4.527 0 0 1 .734 3.612 4.542 4.542 0 0 1-2.196 2.965z" fill="#FFF" opacity=".7"/>
            <path d="m225.463 343.592 86.032-49.498a4.542 4.542 0 0 0 2.196-2.965 4.527 4.527 0 0 0-.734-3.612 66.052 66.052 0 0 1-6.831-13.881l-26.694-7.505-11.85 26.206 12.871 10.309-44.914-23.552-22.968 52.023a62.724 62.724 0 0 0 5.63 10.928 5.552 5.552 0 0 0 7.262 1.547z" fill="#407BFF"/>
            <path d="M261.542 260.573c3.165-1.817 6.18-.31 6.741 3.373a10.524 10.524 0 0 1-4.727 9.98c-3.166 1.825-6.18.308-6.732-3.374a10.514 10.514 0 0 1 4.718-9.98zM287.665 323.423a5.027 5.027 0 0 1-.861 0 3.715 3.715 0 0 1-1.743-.629c-.761-.568-.671-1.317.21-1.696a3.679 3.679 0 0 1 1.833-.19c.624.061 1.222.273 1.743.619.762.579.671 1.327-.21 1.707-.31.118-.64.182-.972.19zM292.383 323.353a5.8 5.8 0 0 0-2.915.3l-.871.359c-1.513.649-1.673 1.926-.35 2.914l.46.35c1.588.228 3.207.098 4.738-.38 1.432-.549 2.314-1.188 2.444-2.096l-.651-.419a6.024 6.024 0 0 0-2.855-1.028zM294.036 319.591l-3.225.16-.872.748a.309.309 0 0 0 0 .48l.872.688 3.275-.13-.05-1.946zm-3.446 1.357a.23.23 0 0 1-.23-.24.23.23 0 0 1 .23-.229.23.23 0 0 1 .24.23.24.24 0 0 1-.24.24zM310.733 313.903c0 .489-.63.898-1.001 1.097-.7.39-1.469.637-2.264.729-.761-.888.701-2.435 3.265-1.826z" fill="#407BFF"/>
            <path d="M310.854 310.76c-2.364-1.947-6.07-2.665-8.675-1.178-2.604 1.487-3.115 4.63-.72 6.576 2.393 1.946 6.67 1.996 9.254.49 2.585-1.508 2.515-3.953.14-5.889zm-3.907-.46a1.195 1.195 0 0 1 1.342.21.598.598 0 0 1-.12.998 1.226 1.226 0 0 1-1.392-.15.647.647 0 0 1 .17-1.058zm-4.748 3.633a.647.647 0 0 1 .17-1.068 1.175 1.175 0 0 1 1.333.21.598.598 0 0 1-.11.997 1.226 1.226 0 0 1-1.443-.1l.05-.04zm7.853 1.457a7.434 7.434 0 0 1-3.606.868 7.315 7.315 0 0 1-3.165-.669l6.731-3.782a2.783 2.783 0 0 1 1.262 2.096 2.148 2.148 0 0 1-1.272 1.527l.05-.04zM324.977 301.987a3.997 3.997 0 0 0-.891-.998 5.666 5.666 0 0 0-6.07-.828 2.69 2.69 0 0 0-.5 4.6c.209.166.434.313.67.44 3.005 1.706 8.464 1.916 8.464 1.916a9.536 9.536 0 0 0-1.673-5.13zm-2.614 1.886a3.014 3.014 0 0 1-3.095-.16 1.295 1.295 0 0 1 .24-2.205c.963-.447 2.1-.29 2.905.4.801.648.831 1.466-.04 1.965h-.01z" fill="#407BFF"/>
        </g>
        <g transform="translate(326.183 103.077)">
            <path d="m107.624 209.448-12.882 37.453a1.212 1.212 0 0 1-2.293 0L79.738 209.15l27.886.3z" fill="#FFA8A7"/>
            <path d="M92.449 246.891a1.212 1.212 0 0 0 2.293 0l2.515-7.315a6.722 6.722 0 0 1-6.962-.389l-.56-.379 2.714 8.083z" fill="#263238"/>
            <path d="M80.218 42.143v8.083l-.46 158.913a17.857 17.857 0 0 0 11.75 5.509c6.74.698 13.662-1.507 16.126-5.2l.45-158.822v-8.453c-.33 5.469-28.106 5.459-27.866-.03z" fill="#407BFF"/>
            <path d="M80.138 56.084v8.184c-.08 2.375 5.009 3.912 10.848 4.44 7.773.739 16.928-1.357 17.028-4.5v-8.193c-.12 3.143-9.275 5.249-17.028 4.51-5.61-.519-10.517-1.996-10.798-4.181a.477.477 0 0 1-.05-.26z" fill="#EBEBEB"/>
            <path d="M80.158 58.13c-.2 5.509 27.666 5.439 27.866-.07v-8.193c-.2 5.509-28.046 5.579-27.866.07v8.193z" fill="#407BFF"/>
            <path d="M80.218 42.143v8.084c-.24 5.408 26.654 5.568 27.866.399.028-.101.045-.205.05-.31v-8.143c-.38 5.469-28.156 5.459-27.916-.03z" fill="#EBEBEB"/>
            <path d="M108.205 7.495v-.35c0-3.942-6.23-7.145-13.923-7.145S80.349 3.203 80.349 7.145v3.723l-.13 31.275c-.1 2.345 4.908 3.892 10.717 4.451 7.773.758 16.968-1.287 17.138-4.42l.12-34.43c.02-.11.01-.23.01-.25z" fill="#F28F8F"/>
            <ellipse fill="#FFF" opacity=".2" cx="94.282" cy="7.145" rx="13.933" ry="7.145"/>
            <path d="m108.054 50.626.15-43.131c-.18 3.373-6.01 6.566-12.27 6.796l-.45 200.487-.742 32.123 12.882-37.453.43-158.822z" fill="#000" opacity=".1"/>
            <path d="M62.99 84.037c5.299-.769 11.83 3.203 16.377 9.57 4.548 6.367 20.394 21.865 22.137 26.795 1.262 3.593.52 10.349-6.942 7.175-7.222-3.064-30.25-25.567-30.25-25.567L62.99 84.037z" fill="#B16668"/>
            <path d="M60.456 84.037a26.357 26.357 0 0 1 5.188-.579c1.833.12 5.95 1.208 10.187 5.32 4.237 4.11 15.235 17.393 15.235 17.393s.491 3.733-3.195 7.894-7.132 4.161-7.132 4.161l-16.337-13.482-3.946-20.707z" fill="#37474F"/>
            <path d="m96.355 113.087 11.62-16.805V83.937s2.564.858 3.585 4.84c1.022 3.982 2.294 8.612 1.783 11.975-.51 3.363-8.554 23.901-12.891 26.795-4.337 2.894-4.097-14.46-4.097-14.46zM44.059 78.458l2.263 14.211 14.134-.758-2.024-16.506z" fill="#B16668"/>
            <path d="M34.553 61.034s-3.366 5.09-3.005 5.589c.36.499 2.865.998 2.865.998l.14-6.587z" fill="#9A4A4D"/>
            <path d="M43.868 46.943c-6.81 1.437-8.784 4.421-9.425 15.209-.671 11.277.48 14.82 2.003 16.336 1.002.998 6.581 1.208 9.396.44 3.515-.999 11.479-3.783 15.205-9.451 4.377-6.666 5.529-15.718.841-19.42-6.6-5.23-15.205-3.693-18.02-3.114z" fill="#B16668"/>
            <path d="M44.189 79.237a27.79 27.79 0 0 0 3.586-.898 6.285 6.285 0 0 1-3.416 1.995l-.17-1.097z" fill="#9A4A4D"/>
            <path d="M34.052 50.366a13.05 13.05 0 0 0 3.005 1.208c1.663.479 1.412 1.097 1.643 2.614a6.16 6.16 0 0 0 1.873 3.583c.651.589 1.132.639 1.352 1.537.105.938.105 1.886 0 2.824 0 1.876 1.222 3.293 1.803.788 0 0 1.082-4.171 4.608-3.642 3.526.529 3.836 4.48 2.153 7.584-1.001 1.896-3.766 1.397-3.766 1.397a12.22 12.22 0 0 0 3.686 9.45s3.506 2.596 9.015-.099a70.89 70.89 0 0 0 6.27-9.49c2.444-4.232 4.558-9.44 3.727-14.42a9.296 9.296 0 0 0-2.374-4.99 3.388 3.388 0 0 1-1.142-2.495 4.837 4.837 0 0 0-1.703-2.864 4.963 4.963 0 0 0-5.008-.669 4.136 4.136 0 0 0-3.166-3.692 7.638 7.638 0 0 0-5.078.698 5.611 5.611 0 0 0-4.546-2.853 5.617 5.617 0 0 0-4.87 2.264 3.007 3.007 0 0 0-2.363-1.357 7.347 7.347 0 0 0-2.775.44c-.754.222-1.48.53-2.164.917a6.875 6.875 0 0 0-3.085 7.455 5.99 5.99 0 0 0 2.905 3.812z" fill="#263238"/>
            <path d="m65.975 49.239 4.077-2.396a2.368 2.368 0 0 0-2.06-1.16 2.368 2.368 0 0 0-2.039 1.198 2.35 2.35 0 0 0 .022 2.358zM69.781 260.194l.09.908c.165 1.2.196 2.416.09 3.623a3.208 3.208 0 0 1-1.121 2.425 10.12 10.12 0 0 1-2.655.998 9.357 9.357 0 0 1-6.18-.61c-1.603-.768-2.855-1.995-4.588-2.464a34.866 34.866 0 0 0-5.449-.898 12.382 12.382 0 0 1-2.414-.44c-.598-.21-1.178-.47-1.732-.778a16.925 16.925 0 0 1-5.139-3.742 7.972 7.972 0 0 1-1.843-3.653c-.16-.808-.48-3.113.851-3.053 6.561.29 13.022 1.696 19.613 1.616.427-.03.855-.03 1.282 0 .8.168 1.551.509 2.204.998a2.27 2.27 0 0 0 2.003.49 10.204 10.204 0 0 1 3.396.05c.494.07.927.364 1.171.798.064.155.098.32.1.489.11 1.167.221 2.165.321 3.243z" fill="#263238"/>
            <path d="m69.11 252.37-.34 4.92c-.321 1.876-6.732 2.994-8.014-.29l-.63-5.588 8.984.958z" fill="#B16668"/>
            <path d="M44.7 271.85s.781 2.555 1.192 4.79c.32 1.776.771 4.75.12 6.068-.651 1.317-3.095 2.115-6.861 1.995-2.434-.08-6.26 1.487-8.895 2.875-2.634 1.387-8.304 1.896-11.139 1.506-3.335-.469-6.75-2.484-7.262-3.872-.51-1.387.24-2.814 8.194-5.987.07 0 11.018-3.313 14.945-7.415l9.706.04z" fill="#263238"/>
            <path d="M44.77 268.686s-.06 2.166-.07 3.413c-.01 1.248-1.533 3.054-5.34 2.835-2.674-.16-4.517-.919-4.366-3.104l.07-3.164 9.706.02z" fill="#B16668"/>
            <path d="M71.694 214.538c-1.132-9.58-2.003-15.079-2.003-15.079s.2-13.352 1.002-25.797c.851-13.452.66-30.387 1.001-33.74 0 0-43.361-9.221-43.722 6.357-.4 18.102.801 55.555 1.062 60.435.36 6.846.38 13.971 1.542 25.078 1.152 10.978 4.488 36.874 4.488 36.874a10.33 10.33 0 0 0 9.706 0s3.776-31.046 3.626-38.92c-.09-5.722-.64-11.429-1.643-17.064l3.416-35.148s1.342 10.868 1.703 17.714c.36 6.846 1.302 11.027 3.005 23.77 1.472 11.048 5.208 34.38 5.208 34.38a8.812 8.812 0 0 0 9.225-.37s3.516-28.9 2.384-38.49z" fill="#407BFF"/>
            <path d="M71.694 214.538c-1.132-9.58-2.003-15.079-2.003-15.079s.2-13.352 1.002-25.797c.851-13.452.66-30.387 1.001-33.74 0 0-43.361-9.221-43.722 6.357-.4 18.102.801 55.555 1.062 60.435.36 6.846.38 13.971 1.542 25.078 1.152 10.978 4.488 36.874 4.488 36.874a10.33 10.33 0 0 0 9.706 0s3.776-31.046 3.626-38.92c-.09-5.722-.64-11.429-1.643-17.064l3.416-35.148s1.342 10.868 1.703 17.714c.36 6.846 1.302 11.027 3.005 23.77 1.472 11.048 5.208 34.38 5.208 34.38a8.812 8.812 0 0 0 9.225-.37s3.516-28.9 2.384-38.49z" fill="#000" opacity=".3"/>
            <path d="M66.666 161.198s-3.005 4.94-12.12 8.552l-2.544 8.483-.27 14.91c-.351-4.801-.882-10.05-1.563-15.609l1.001-8.742s10.097-3.034 15.496-7.594z" fill="#000" opacity=".15"/>
            <path d="M73.367 93.228c-1.743-6.177-5.84-8.902-10.377-9.191-1.152-.07-3.496 0-3.496 0 .32 2.624-7.773 4.47-14.023 2.994-1.903.489-5.008 1.197-6.62 1.726-4.518 1.497-9.947 7.125-10.649 21.825 0 0-.72 31.585-.5 40.766 11.168 4.69 21.956 5.28 28.457 3.992 13.552-2.625 15.776-8.413 15.776-8.413s-.12-7.983-.631-20.827c2.263-18.162 2.814-30.198 2.063-32.872z" fill="#455A64"/>
            <path d="M20.53 145.58a8.366 8.366 0 0 1 3.956 6.986c.19 2.874.19 5.987 1.543 8.592.22.43 1.402 1.397 1.863 1.257v-3.672c.751-.948 2.805-2.714 3.335-3.802.882-1.816-.15-3.992.381-5.988.34-.769.57-1.582.681-2.415a6.744 6.744 0 0 0-2.254-5.529c-2.003-1.606-3.766-3.602-5.559-5.398-2.324-2.326-5.549-5.749-7.873-8.084L32.2 112.628c1.8-1.708 3.302-3.7 4.447-5.898 2.555-4.89 6.01-13.462 2.154-17.963-5.56 0-8.714.848-14.394 7.445-4.898 5.688-20.534 24.35-22.547 27.513-2.013 3.164-3.165 5.33.691 8.842a115.736 115.736 0 0 0 9.836 7.494c2.635 1.887 5.51 3.653 8.144 5.52z" fill="#B16668"/>
            <path d="M16.613 127.577a17.561 17.561 0 0 1-4.778 3.273c2.09-.287 4.091-1.03 5.86-2.175l-1.082-1.098z" fill="#9A4A4D"/>
            <path d="M40.553 88.268a27.655 27.655 0 0 0-6.731.51c-3.376.728-5.65 2.434-11.5 9.03-5.849 6.597-9.956 11.976-9.956 11.976s-1.682 3.712 3.005 7.923c4.688 4.212 8.915 3.483 8.915 3.483l13.142-12.733s9.375-9.77 3.125-20.189z" fill="#37474F"/>
        </g>
    </g>
</svg>
