<svg width="460" height="394" xmlns="http://www.w3.org/2000/svg">
    <g fill="none" fill-rule="evenodd">
        <ellipse cx="222.747" cy="128.522" rx="222.747" ry="128.522" transform="translate(2.984 136.957)" fill="#F5F5F5" fill-rule="nonzero"/>
        <g fill="#E0E0E0" fill-rule="nonzero">
            <path d="m40.102 312.258 14.839 8.505a5.5 5.5 0 0 0 5.006 0l117.011-67.543c1.372-.79 1.372-2.07 0-2.851l-15.019-8.436a5.55 5.55 0 0 0-5.006 0L40.102 309.396c-1.372.79-1.372 2.072 0 2.862zM410.06 312.258l-14.84 8.505a5.52 5.52 0 0 1-5.006 0L273.203 253.22c-1.372-.79-1.362-2.07 0-2.851l15.019-8.436a5.55 5.55 0 0 1 5.006 0l116.831 67.443c1.372.81 1.372 2.092 0 2.882z"/>
        </g>
        <g fill-rule="nonzero">
            <path d="M398.324 270.191s.721-15.16 7.45-27.337c6.728-12.178 16.531-20.133 26.083-21.524 9.553-1.39 17.893 6.925 8.01 13.669-9.882 6.744-27.725 14.119-34.624 37.354l-6.919-2.162z" fill="#407BFF"/>
            <path d="M398.324 270.191s.721-15.16 7.45-27.337c6.728-12.178 16.531-20.133 26.083-21.524 9.553-1.39 17.893 6.925 8.01 13.669-9.882 6.744-27.725 14.119-34.624 37.354l-6.919-2.162z" opacity=".2" fill="#000"/>
            <path d="M400.887 266.099h-.11a.51.51 0 0 1-.32-.65c8.49-25.607 27.095-37.284 35.746-39.886a.523.523 0 0 1 .3 1c-8.48 2.552-26.714 14.01-35.045 39.235a.53.53 0 0 1-.57.3z" fill="#FFF"/>
            <path d="M453.475 265.598c-.78 2.142-3.004 3.383-5.006 4.373-2.003.99-4.296 2.051-5.317 4.093-2.003 4.132 2.113 9.476-.1 13.508a7.17 7.17 0 0 1-4.686 3.142 47.46 47.46 0 0 1-4.756.74c-.76.046-1.523.046-2.283 0-2.213-.18-4.606-.12-6.539 1.132-3.004 2-3.755 6.003-5.477 9.245a15.019 15.019 0 0 1-10.213 7.375c-1.412.28-4.005.71-5.537 0a1.803 1.803 0 0 1-.31-.17c-.21-.21-.481-.48-.601-.63-.12-.15 0-.06-.06-.09-.701-2.002.08-4.233 0-6.365v-.39c-.26-2.471-.491-4.923-.711-7.394a386.646 386.646 0 0 1-1.002-13.64c-.16-2.951-.73-6.163.33-9.005 1.192-3.152 4.627-3.442 5.738-6.534.44-1.23.631-2.532 1.052-3.772a10.602 10.602 0 0 1 8.61-6.885c6.008-.7 11.706 3.803 17.684 3.002 1.552-.23 3.003-.8 4.545-1.18 4.817-1.231 10.534-.22 13.548 3.722a6.31 6.31 0 0 1 1.091 5.723z" fill="#407BFF"/>
            <path d="M401.408 298.84h-.05a.51.51 0 0 1-.4-.6c6.258-31.701 38.81-38.365 46.53-38.316a.53.53 0 0 1 .51.521.51.51 0 0 1-.52.51c-7.55-.05-39.391 6.465-45.51 37.484a.51.51 0 0 1-.56.4z" fill="#FFF"/>
            <path d="M436.854 280.658a.55.55 0 0 1-.28-.13 27.35 27.35 0 0 0-22.76-4.823.513.513 0 0 1-.22-1 28.451 28.451 0 0 1 23.67 5.052.52.52 0 0 1-.41.9z" fill="#FFF"/>
            <g>
                <path d="M50.415 266.81a65.756 65.756 0 0 0-4.466-19.013c-4.005-9.786-11.595-19.652-20.376-21.514-8.781-1.86-12.516 4.053-10.664 9.857 1.602 5.003 8.13 9.145 13.087 13.508 4.957 4.363 14.218 14.9 16.792 25.086l4.956.54.671-8.465z" fill="#407BFF"/>
                <path d="M50.415 266.81a65.756 65.756 0 0 0-4.466-19.013c-4.005-9.786-11.595-19.652-20.376-21.514-8.781-1.86-12.516 4.053-10.664 9.857 1.602 5.003 8.13 9.145 13.087 13.508 4.957 4.363 14.218 14.9 16.792 25.086l4.956.54.671-8.465z" opacity=".15" fill="#000"/>
                <path d="M47.03 271.402a.56.56 0 0 1-.55-.53c-.921-25.607-25.974-39.916-26.234-40.026a.568.568 0 1 1 .54-1c.261.15 25.854 14.769 26.806 41.026a.56.56 0 0 1-.541.57l-.02-.04z" fill="#FFF"/>
                <path d="M47.321 306.394s-5.127 3.232-13.127 1.861a12.33 12.33 0 0 1-6.889-3.282c-2.062-2.131-2.393-4.272-3.004-7.124a8.472 8.472 0 0 0-1.201-3.352c-1.722-2.362-5.147-2.322-8.01-2.932-4.006-.87-7.77-3.783-8.942-7.745-1.172-3.963.73-8.806 4.566-10.367l-4.706-3.002a20.495 20.495 0 0 1-4.005-3.072A6.892 6.892 0 0 1 0 262.847a6.645 6.645 0 0 1 4.135-5.754c2.347-.9 4.89-1.159 7.37-.75 2.507.298 4.972.879 7.35 1.73a5.15 5.15 0 0 0 2.062.46 5.288 5.288 0 0 0 2.553-1.19c5.387-3.552 14.159-3.282 17.022 3.412.43 1 .681 2.002 1.132 3.002 1.682 3.602 6.388 2.522 9.422 4.203a7.694 7.694 0 0 1 3.544 5.513c.601 3.573-.39 7.635-1 11.167-.612 3.533-1.493 6.805-2.454 10.147a165.652 165.652 0 0 1-2.563 8.205c-.26.61-.691 3.042-1.252 3.402z" fill="#407BFF"/>
                <path d="M50.505 298.139a49.43 49.43 0 0 0-12.866-19.352.57.57 0 0 0-.29-.28 66.235 66.235 0 0 0-5.218-4.413 26.64 26.64 0 0 1 1.773-14.01.553.553 0 1 0-1.002-.47 27.361 27.361 0 0 0-2.002 13.56 84.981 84.981 0 0 0-24.231-12.129.541.541 0 0 0-.671.39.54.54 0 0 0 .38.671c.23.07 15.86 4.493 28.757 15.86-7.91-1.39-17.362 2.432-17.793 2.612a.55.55 0 0 0 .21 1.06c.07.015.142.015.21 0 .111-.05 11.205-4.532 19.025-2.1a48.439 48.439 0 0 1 12.677 19.011.56.56 0 0 0 .52.37h.18a.56.56 0 0 0 .341-.78z" fill="#FFF"/>
            </g>
        </g>
        <path d="M32.762 106.997a11.345 11.345 0 0 1-5.146 3.333l-.21.05h-.16l-.351.06h-.661a.24.24 0 0 1-.12 0 4.005 4.005 0 0 1-3.725-2.492 6.85 6.85 0 0 1-.54-2.071c.31-.14.62-.31.94-.49a17.519 17.519 0 0 0 7.93-13.74v-1.07a6.201 6.201 0 0 1 2.804-.6H33.833c.05-.01.101-.01.15 0a4.005 4.005 0 0 1 3.115 2.451c1.632 3.833-.29 10.307-4.336 14.57z" fill="#407BFF" fill-rule="nonzero"/>
        <path d="M47.431 94.97a.611.611 0 0 0-.25-.06l-3.384-.19a.55.55 0 0 1-.571-.55c.05-.541.07-1.071.08-1.582a15.26 15.26 0 0 0-.08-1.68c.01-.368.144-.72.38-1.001l3.775-4.583a1 1 0 0 0 .23-.94L45.82 80.38a.26.26 0 0 0-.11-.12.52.52 0 0 0-.58.18l-4.006 3.682a.711.711 0 0 1-.881.15 6.49 6.49 0 0 0-1.722-1 .64.64 0 0 1-.41-.701l1.24-5.654a.36.36 0 0 0-.17-.4.691.691 0 0 0-.37-.06l-4.005.39c-.369.046-.691.27-.861.6L31.8 83.193c-.186.366-.49.658-.861.83-.86.404-1.684.88-2.463 1.422-.34.22-.711.24-.851 0l-2.003-3.092c-.14-.22-.47-.17-.73.1l-4.336 4.583a1.16 1.16 0 0 0-.34.95l1.21 4.083c.051.35-.027.705-.22 1a34.176 34.176 0 0 0-2.002 3.453 1.602 1.602 0 0 1-.941.71l-3.715.89a1.211 1.211 0 0 0-.841.701l-1.873 6.284a.44.44 0 0 0 .46.56l3.395.2a.54.54 0 0 1 .571.551 18.7 18.7 0 0 0 0 3.262 1.6 1.6 0 0 1-.36 1l-3.785 4.584a1 1 0 0 0-.23.94l1.792 4.003a.36.36 0 0 0 .11.13.23.23 0 0 0 .14 0 .671.671 0 0 0 .44-.21l4.006-3.693a.711.711 0 0 1 .88-.14 6.35 6.35 0 0 0 1.723 1.001.64.64 0 0 1 .41.71l-1.251 5.654a.36.36 0 0 0 .17.38.601.601 0 0 0 .37.07l4.006-.39c.369-.045.691-.27.861-.6l2.143-5.744c.188-.366.49-.661.86-.84a12.72 12.72 0 0 0 1.262-.66c.391-.231.791-.481 1.192-.751.4-.27.7-.24.841 0l2.003 3.082a.28.28 0 0 0 .1.09c.16.11.42 0 .63-.19l4.336-4.573a1.12 1.12 0 0 0 .33-1.001l-1.2-4.093c-.06-.35.018-.708.22-1a31.545 31.545 0 0 0 2.002-3.462 1.572 1.572 0 0 1 1.001-.7l3.705-.891c.376-.087.688-.347.841-.7l1.873-6.285a.43.43 0 0 0-.25-.43zm-19.805 15.36-.22.05h-.16l-.351.06H26.114a4.005 4.005 0 0 1-3.725-2.502 6.78 6.78 0 0 1-.54-2.071c-.041-.382-.061-.767-.06-1.151a17.686 17.686 0 0 1 4.895-11.227 13.656 13.656 0 0 1 3.004-2.422c.324-.19.658-.36 1.002-.51a6.322 6.322 0 0 1 2.803-.59H33.963a4.005 4.005 0 0 1 3.105 2.451c1.672 3.703-.25 10.167-4.296 14.44a11.285 11.285 0 0 1-5.146 3.472z" fill="#F5F5F5" fill-rule="nonzero"/>
        <path d="m37.699 75.658 7.99 4.623"/>
        <path d="M31.761 83.222a2.002 2.002 0 0 1-.851.8c-.85.403-1.665.879-2.433 1.422-.34.22-.711.24-.851 0l-2.003-3.082a.22.22 0 0 0-.1-.09l-3.795-2.192c.408-.243.83-.464 1.262-.66l.14-.08c.15-.093.287-.204.41-.33l.15-.16a.42.42 0 0 0 .08-.12l.06-.11 7.931 4.602zM21.468 92.218a1.54 1.54 0 0 1-.24.86 35.097 35.097 0 0 0-2.003 3.453 1.11 1.11 0 0 1-.19.27l-8.01-4.613a.63.63 0 0 0 .11-.13.61.61 0 0 0 .1-.14 31.545 31.545 0 0 1 2.002-3.462 1 1 0 0 0 .1-.18v-.12a.19.19 0 0 0 0-.07 1.36 1.36 0 0 0 0-.17.78.78 0 0 0 0-.26l8.13 4.562z" fill="#EBEBEB" fill-rule="nonzero"/>
        <path d="m37.789 75.708-.09-.05"/>
        <path d="m21.668 80.07-4.145-2.401a.35.35 0 0 0-.18-.05.63.63 0 0 0-.451.24l-2.594 2.742-1.742 1.83a1.41 1.41 0 0 0-.31.541l6.098 3.502 1.892 1.081a1.42 1.42 0 0 1 .3-.5l.06-.06 4.276-4.523a.591.591 0 0 1 .6-.21l-3.804-2.192zM39.07 76.508a.531.531 0 0 0-.34-.05l-4.005.39a1.152 1.152 0 0 0-.651.3l-8.01-4.602c.176-.174.405-.283.65-.31l4.006-.39a.601.601 0 0 1 .39.07l1.062.62.53.3 3.385 2.001.83.48.611.35 1.542.841z" fill="#F5F5F5" fill-rule="nonzero"/>
        <path d="M18.985 96.841a1.763 1.763 0 0 1-.741.44l-3.715.89a1.282 1.282 0 0 0-.691.431l-8.01-4.593c.182-.225.43-.386.71-.46l3.715-.89c.278-.07.529-.22.721-.43l8.01 4.612zM16.16 110.14a1.92 1.92 0 0 1-.29.55l-3.784 4.583a1.35 1.35 0 0 0-.24.46l-8.011-4.613a1.11 1.11 0 0 1 .24-.47l3.785-4.583a1.8 1.8 0 0 0 .29-.53l8.01 4.602z" fill="#E6E6E6" fill-rule="nonzero"/>
        <path fill="#E0E0E0" fill-rule="nonzero" d="m5.918 102.084.11.07-.14-.09-.28-.16zM32.762 106.997a11.345 11.345 0 0 1-5.146 3.333l-.21.05h-.16l-.351.06h-.661a.24.24 0 0 1-.12 0 4.005 4.005 0 0 1-3.725-2.492 6.85 6.85 0 0 1-.54-2.071c.31-.14.62-.31.94-.49a17.519 17.519 0 0 0 7.93-13.74v-1.07a6.201 6.201 0 0 1 2.804-.6H33.833c.05-.01.101-.01.15 0a4.005 4.005 0 0 1 3.115 2.451c1.632 3.833-.29 10.307-4.336 14.57zM21.468 92.218l-8.01-4.603a.39.39 0 0 0 0-.15l-1.212-4.083a.74.74 0 0 1 0-.41l6.098 3.502 1.892 1.081a.81.81 0 0 0 0 .45l1.212 4.083a.51.51 0 0 1 .02.13zM34.124 77.149a.86.86 0 0 0-.21.3l-2.143 5.743-8.01-4.613 2.172-5.753a.66.66 0 0 1 .21-.29l7.981 4.613zM45.639 80.25a.56.56 0 0 0-.55.19l-4.006 3.693a.731.731 0 0 1-.891.15 6.49 6.49 0 0 0-1.722-1 .64.64 0 0 1-.41-.701l1.24-5.654a.35.35 0 0 0-.17-.4l-1.511-.88a.32.32 0 0 1 .14 0l.09.06 7.79 4.542zM47.411 94.96a.611.611 0 0 0-.25-.06l-3.384-.19a.55.55 0 0 1-.571-.55c.05-.541.08-1.071.08-1.592l4.125 2.392zM11.104 92.058a.71.71 0 0 0 0 0zM5.838 93.97a.94.94 0 0 0-.13.24l-.23.78-1.223 4.102-.41 1.401a.37.37 0 0 0 0 .23.5.5 0 0 0 .05.13.94.94 0 0 0 .1.1h.06l.631.37.17.09.5.281.261.16.31.18.11.07.331.18 1.803 1.001 3.804 2.202a.41.41 0 0 1-.17-.47l1.652-5.414.23-.78a.87.87 0 0 1 .15-.26l-8-4.594zM33.954 118.305l-4.156-2.452c.391-.23.791-.48 1.192-.75.4-.27.7-.24.841 0l2.003 3.092a.28.28 0 0 0 .12.11zM21.468 118.004l-1.252 5.664a.36.36 0 0 0 .17.38l-6.408-3.702a.731.731 0 0 0 .44-.21l4.006-3.682a.721.721 0 0 1 .88-.16 6.129 6.129 0 0 0 1.723 1 .63.63 0 0 1 .44.71z"/>
        <path d="M16.23 109.69a1 1 0 0 1-.07.45l-8.01-4.603a1.2 1.2 0 0 0 .07-.46c0-.551-.07-1.111-.07-1.692l3.805 2.202a.601.601 0 0 0 .27.07l3.395.19a.55.55 0 0 1 .57.56 18.7 18.7 0 0 0 .04 3.282zM13.748 120.296l-1.622-.94-.31-.17-2.614-1.522-.711-.4-2.684-1.561a.15.15 0 0 1-.06-.05.18.18 0 0 1-.05-.08l-1.802-4.003a.52.52 0 0 1 0-.33v-.14l8.01 4.613a.68.68 0 0 0 0 .47l1.793 4.003a.31.31 0 0 0 .05.11z" fill="#E0E0E0" fill-rule="nonzero"/>
        <path d="M80.384 30.379a.852.852 0 0 0-.34-.09l-4.657-.26a.751.751 0 0 1-.78-.76c.06-.731.1-1.462.11-2.172a21.8 21.8 0 0 0-.13-2.302c.014-.5.193-.982.51-1.37l5.197-6.285a1.43 1.43 0 0 0 .32-1.3l-2.473-5.454a.31.31 0 0 0-.15-.17.761.761 0 0 0-.791.25l-5.558 5.063c-.31.336-.809.418-1.211.2a8.532 8.532 0 0 0-2.373-1.37.9.9 0 0 1-.56-1.001l1.711-7.765a.47.47 0 0 0-.23-.55.862.862 0 0 0-.52-.09l-5.428.54c-.51.055-.957.369-1.181.83l-2.974 7.865c-.26.502-.679.904-1.192 1.141a23.794 23.794 0 0 0-3.354 1.951c-.46.3-1.001.32-1.171 0l-2.774-4.232c-.2-.3-.64-.24-1.001.13l-5.958 6.314a1.54 1.54 0 0 0-.46 1.3l1.652 5.624a1.89 1.89 0 0 1-.3 1.351 45.241 45.241 0 0 0-2.744 4.753c-.283.49-.747.849-1.292 1l-5.097 1.222a1.732 1.732 0 0 0-1.161 1l-2.543 8.566a.62.62 0 0 0 .63.78l4.666.26a.761.761 0 0 1 .781.76 24.84 24.84 0 0 0 0 4.484 2.17 2.17 0 0 1-.5 1.37l-5.197 6.294a1.38 1.38 0 0 0-.32 1.291l2.473 5.454a.28.28 0 0 0 .15.17.32.32 0 0 0 .19 0 .931.931 0 0 0 .601-.28l5.537-5.013c.311-.336.81-.418 1.212-.2a9.133 9.133 0 0 0 2.373 1.38.87.87 0 0 1 .56 1l-1.702 7.766a.47.47 0 0 0 .22.53.822.822 0 0 0 .511.09l5.427-.53c.51-.063.957-.374 1.192-.83l2.944-7.886a2.583 2.583 0 0 1 1.181-1.15c.571-.27 1.152-.57 1.732-.91.581-.341 1.082-.661 1.633-1.002.55-.34 1-.33 1.161 0l2.784 4.243a.3.3 0 0 0 .13.12c.23.14.57.05.86-.26l6.009-6.294a1.56 1.56 0 0 0 .46-1.3l-1.652-5.694a1.88 1.88 0 0 1 .31-1.351 45.28 45.28 0 0 0 2.694-4.793 2.133 2.133 0 0 1 1.302-1.001l5.096-1.23c.524-.127.954-.5 1.152-1.001l2.573-8.626a.56.56 0 0 0-.27-.57zM53.169 51.472l-.3.07c-.07.01-.141.01-.211 0l-.48.08-.561.06h-.511a5.458 5.458 0 0 1-5.117-3.432 9.561 9.561 0 0 1-.75-2.852 11.54 11.54 0 0 1-.08-1.57c0-4.924 2.563-11.008 6.728-15.42a18.932 18.932 0 0 1 4.115-3.333c.442-.263.9-.497 1.372-.7a8.636 8.636 0 0 1 3.845-.82h.65a5.436 5.436 0 0 1 4.266 3.372c2.303 5.083-.34 14.008-5.897 19.832a15.51 15.51 0 0 1-7.07 4.713z" fill="#F5F5F5" fill-rule="nonzero"/>
        <path d="m67.017 3.832 10.974 6.354"/>
        <path d="M58.856 14.229a2.563 2.563 0 0 1-1.172 1.1 24.706 24.706 0 0 0-3.354 1.941c-.46.31-1.001.34-1.171 0l-2.764-4.232a.31.31 0 0 0-.15-.13L47.5 11.307c.581-.33 1.152-.64 1.723-.9l.2-.111c.206-.125.394-.276.56-.45.078-.07.149-.147.21-.23a.72.72 0 0 0 .11-.15l.081-.15 8.471 4.913zM44.648 26.586a2.07 2.07 0 0 1-.33 1.171 47.022 47.022 0 0 0-2.744 4.753 1.471 1.471 0 0 1-.27.36l-8.522-4.913a.9.9 0 0 0 .16-.18c.048-.06.092-.124.13-.19a42.02 42.02 0 0 1 2.734-4.793.92.92 0 0 0 .13-.24.48.48 0 0 0 .07-.18.25.25 0 0 0 0-.09v-.23a.9.9 0 0 0 0-.36l8.642 4.892z" fill="#EBEBEB" fill-rule="nonzero"/>
        <path d="m67.147 3.902-.13-.07"/>
        <path d="m47.501 11.307-5.697-3.292a.48.48 0 0 0-.24-.07.911.911 0 0 0-.641.33l-3.565 3.762-2.393 2.522a1.93 1.93 0 0 0-.42.75l5.917 3.382 2.604 1.491a1.81 1.81 0 0 1 .41-.69l.08-.08 5.878-6.214a.801.801 0 0 1 .82-.29l-2.753-1.601zM68.909 5.003a.872.872 0 0 0-.47-.07L63 5.473a1.663 1.663 0 0 0-.89.41L53.588.97c.25-.23.565-.377.901-.42l5.437-.54a.811.811 0 0 1 .531.1l1.462.85.72.42 2.194 1.271 1.151.67c.29.15.57.32.831.47l2.093 1.212z" fill="#F5F5F5" fill-rule="nonzero"/>
        <path d="M41.303 32.88c-.273.288-.619.495-1.001.6l-5.107 1.232a1.742 1.742 0 0 0-.93.6l-8.542-4.903a1.833 1.833 0 0 1 1.001-.63l5.097-1.221c.38-.104.727-.308 1.001-.59l8.481 4.912zM37.428 51.212a2.281 2.281 0 0 1-.41.75l-5.187 6.294a1.74 1.74 0 0 0-.33.63l-8.511-4.912a1.61 1.61 0 0 1 .32-.64l5.207-6.295c.174-.22.307-.471.39-.74l8.521 4.913z" fill="#E6E6E6" fill-rule="nonzero"/>
        <path fill="#E0E0E0" fill-rule="nonzero" d="m25.803 41.556.16.1-.2-.12-.38-.22zM60.228 46.9a15.541 15.541 0 0 1-7.01 4.572l-.3.07c-.07.01-.14.01-.21 0l-.48.08c-.186.03-.373.05-.561.06h-.521a5.438 5.438 0 0 1-5.107-3.432 9.481 9.481 0 0 1-.75-2.852c.42-.19.85-.42 1.291-.66 6.008-3.482 10.904-11.928 10.904-18.882 0-.52 0-1-.06-1.481a8.616 8.616 0 0 1 3.845-.81h.43c.07-.01.141-.01.21 0a5.456 5.456 0 0 1 4.276 3.362c2.253 5.213-.39 14.109-5.957 19.972zM44.648 26.586l-8.521-4.903a.66.66 0 0 0 0-.2l-1.642-5.613a1 1 0 0 1 0-.56l5.917 3.381 2.604 1.491a1.15 1.15 0 0 0-.06.62l1.662 5.604a.52.52 0 0 1 .04.18zM62.11 5.883a1.14 1.14 0 0 0-.29.42l-2.944 7.885-8.521-4.913v-.06l2.944-7.885a1 1 0 0 1 .28-.4l8.531 4.953zM77.93 10.146a.781.781 0 0 0-.77.27l-5.538 5.063c-.312.34-.817.423-1.221.2a8.532 8.532 0 0 0-2.373-1.37.9.9 0 0 1-.56-1.001l1.711-7.755a.48.48 0 0 0-.24-.55l-2.123-1.221a.521.521 0 0 1 .21 0l.12.07 10.785 6.294zM80.364 30.359a.711.711 0 0 0-.34-.08l-4.657-.26a.761.761 0 0 1-.78-.77c.06-.731.1-1.462.1-2.172l5.677 3.282zM32.943 27.797a.9.9 0 0 1-.16.18l.16-.18zM25.703 30.409a1.05 1.05 0 0 0-.23.39l-.27 1-1.673 5.634-.57 1.931a.47.47 0 0 0 0 .31.36.36 0 0 0 .07.17.57.57 0 0 0 .13.14.31.31 0 0 0 .09.06l.851.501.24.13.681.39.37.22.421.24.16.1.451.251 2.483 1.431 2.774 1.601a.56.56 0 0 1-.23-.65l2.252-7.575.32-1.06a.83.83 0 0 1 .211-.361l-8.53-4.853zM61.87 62.42l-5.708-3.313c.531-.31 1.092-.66 1.633-1 .54-.34 1-.33 1.161 0l2.774 4.242a.5.5 0 0 0 .14.07zM44.648 62.019l-1.713 7.805a.47.47 0 0 0 .23.53c-.35-.19-5.717-3.302-8.81-5.093.226-.023.438-.121.6-.28l5.537-5.103a1.002 1.002 0 0 1 1.212-.21 8.632 8.632 0 0 0 2.373 1.39.87.87 0 0 1 .57.96z"/>
        <path d="M37.488 50.592a1.48 1.48 0 0 1-.1.62l-8.52-4.913c.079-.2.116-.415.11-.63a22 22 0 0 1-.1-2.312l2.773 1.601c.114.063.24.101.37.11l4.666.26a.761.761 0 0 1 .781.76 24.84 24.84 0 0 0 .02 4.504zM34.114 65.17l-2.233-1.29-.42-.25-3.595-2.071c-.34-.2-.66-.39-1.001-.56l-1.232-.731a.35.35 0 0 1-.16-.18L23 54.624a.74.74 0 0 1 0-.45 1.48 1.48 0 0 1 0-.19l8.51 4.913a1 1 0 0 0 0 .66l2.464 5.454a.47.47 0 0 0 .14.16z" fill="#E0E0E0" fill-rule="nonzero"/>
        <g>
            <path d="M386.7 35.162a11.185 11.185 0 0 0 5.136 3.332h.37l.35.06h.661c.04.01.081.01.12 0a4.005 4.005 0 0 0 3.725-2.492 6.78 6.78 0 0 0 .541-2.07c-.3-.141-.62-.311-.931-.491a17.499 17.499 0 0 1-7.94-13.739v-1.07a6.201 6.201 0 0 0-2.804-.601H385.468a4.005 4.005 0 0 0-3.115 2.452c-1.632 3.882.29 10.356 4.346 14.619z" fill="#407BFF" fill-rule="nonzero"/>
            <path d="m371.82 23.634 1.872 6.284c.153.354.465.615.841.7l3.715.891c.394.102.731.353.941.7a33.246 33.246 0 0 0 2.003 3.463c.2.293.278.651.22 1l-1.201 4.083c-.064.368.06.743.33 1.001l4.346 4.573c.21.23.46.3.62.2a.28.28 0 0 0 .1-.09l2.003-3.092c.14-.22.52-.2.851 0 .33.2.791.53 1.192.76.4.23.841.46 1.252.66.371.174.675.466.86.831l2.143 5.744c.172.333.499.558.872.6l3.945.39a.601.601 0 0 0 .37-.07.34.34 0 0 0 .16-.38l-1.251-5.653a.65.65 0 0 1 .41-.71 6.4 6.4 0 0 0 1.732-1.001.721.721 0 0 1 .882.15l4.005 3.682a.691.691 0 0 0 .44.21.32.32 0 0 0 .14 0 .24.24 0 0 0 .11-.13l1.793-4.002a1 1 0 0 0-.23-.94l-3.775-4.584a1.56 1.56 0 0 1-.37-1c.1-1.086.1-2.177 0-3.263a.55.55 0 0 1 .57-.55l3.394-.19a.45.45 0 0 0 .461-.57l-1.872-6.284a1.211 1.211 0 0 0-.841-.7l-3.705-.891a1.562 1.562 0 0 1-.941-.7 33.346 33.346 0 0 0-2.003-3.463 1.42 1.42 0 0 1-.22-1l1.211-4.093a1.13 1.13 0 0 0-.34-.95l-4.336-4.584c-.26-.27-.58-.31-.73-.09l-2.003 3.082c-.14.22-.511.2-.841 0a17.776 17.776 0 0 0-2.454-1.42 1.832 1.832 0 0 1-.86-.831l-2.143-5.744a1.101 1.101 0 0 0-.862-.6l-3.945-.39a.741.741 0 0 0-.38.06.36.36 0 0 0-.17.4l1.291 5.653a.65.65 0 0 1-.4.71 6.25 6.25 0 0 0-1.732 1.001.721.721 0 0 1-.882-.15l-4.005-3.682c-.21-.19-.43-.26-.58-.18a.29.29 0 0 0-.1.12l-1.803 4.002a1 1 0 0 0 .23.941l3.775 4.513c.23.284.36.636.37 1a15.38 15.38 0 0 0-.08 1.682c0 .51 0 1 .08 1.58a.55.55 0 0 1-.57.551l-3.384.19a.661.661 0 0 0-.25.06.43.43 0 0 0-.271.51zm14.87 11.528c-4.006-4.263-6.009-10.737-4.286-14.44a3.945 3.945 0 0 1 3.104-2.45H385.938c.964-.02 1.92.182 2.794.59.33.15.67.32 1.001.51a13.436 13.436 0 0 1 3.004 2.431 17.636 17.636 0 0 1 4.896 11.217 7.2 7.2 0 0 1-.06 1.151 6.78 6.78 0 0 1-.54 2.072 4.005 4.005 0 0 1-3.725 2.501H392.537l-.35-.06h-.151l-.22-.06a11.315 11.315 0 0 1-5.127-3.462z" fill="#F5F5F5" fill-rule="nonzero"/>
            <path d="m381.753 3.822-7.98 4.623"/>
            <path d="M387.7 11.387c.183.353.48.635.841.8.855.408 1.675.883 2.454 1.421.33.22.7.24.84 0l2.003-3.082a.24.24 0 0 1 .1-.1l3.795-2.191c-.42-.24-.84-.47-1.251-.66a.711.711 0 0 1-.15-.08 2.203 2.203 0 0 1-.411-.331l-.15-.16a.83.83 0 0 1-.08-.12l-.06-.11-7.93 4.613zM398.044 20.382c-.014.301.066.598.23.851a33.346 33.346 0 0 1 2.003 3.462.79.79 0 0 0 .2.26l8.01-4.613a.45.45 0 0 1-.11-.13.57.57 0 0 1-.1-.13 31.675 31.675 0 0 0-2.003-3.472.91.91 0 0 1-.09-.17.35.35 0 0 1-.05-.13v-.07c0-.07 0 0 0 0a1.22 1.22 0 0 1 0-.17.47.47 0 0 1 0-.26l-8.09 4.572z" fill="#EBEBEB" fill-rule="nonzero"/>
            <path d="m381.663 3.872.1-.05"/>
            <path d="m397.783 8.235 4.146-2.402a.35.35 0 0 1 .18 0c.18.013.347.1.46.24l2.594 2.712 1.742 1.831c.145.157.251.345.31.55l-6.097 3.493-1.893 1.08a1.24 1.24 0 0 0-.3-.5l-.05-.06-4.286-4.523a.581.581 0 0 0-.6-.21l3.794-2.211zM380.38 4.672a.721.721 0 0 1 .341 0l3.955.39c.244.027.473.132.651.3l8.01-4.602a1.102 1.102 0 0 0-.66-.31l-3.955-.39a.601.601 0 0 0-.39.07l-1.062.62-.52.3-3.385 2.001-.841.49-.591.24-1.552.891z" fill="#F5F5F5" fill-rule="nonzero"/>
            <path d="M400.477 24.965c.204.21.46.362.74.44l3.716.891c.265.071.503.221.68.43l8.01-4.592a1.382 1.382 0 0 0-.71-.46l-3.705-.891a1.532 1.532 0 0 1-.73-.43l-8.001 4.612zM403.29 38.304c.066.2.168.387.3.55l3.776 4.583a1.2 1.2 0 0 1 .24.46l8.01-4.613a1.17 1.17 0 0 0-.24-.47l-3.785-4.583a1.58 1.58 0 0 1-.28-.53l-8.02 4.603z" fill="#E6E6E6" fill-rule="nonzero"/>
            <path fill="#E0E0E0" fill-rule="nonzero" d="m413.534 30.249-.11.07.14-.08.28-.16zM386.7 35.162a11.185 11.185 0 0 0 5.136 3.332h.37l.35.06h.661c.04.01.081.01.12 0a4.005 4.005 0 0 0 3.725-2.492 6.78 6.78 0 0 0 .541-2.07c-.3-.141-.62-.311-.931-.491a17.499 17.499 0 0 1-7.94-13.739v-1.07a6.201 6.201 0 0 0-2.804-.601H385.468a4.005 4.005 0 0 0-3.115 2.452c-1.632 3.882.29 10.356 4.346 14.619zM398.044 20.382l8.01-4.603a.32.32 0 0 1 0-.14l1.212-4.092a.7.7 0 0 0 0-.4l-6.098 3.492-1.893 1.08a.81.81 0 0 1 0 .45l-1.201 4.083a.27.27 0 0 0-.03.13zM385.327 5.313a.82.82 0 0 1 .21.3l2.143 5.744 8.01-4.613L393.549 1a.72.72 0 0 0-.2-.29l-8.02 4.603zM373.812 8.415a.611.611 0 0 1 .561.19l4.005 3.692a.711.711 0 0 0 .881.15 6.25 6.25 0 0 1 1.733-1 .64.64 0 0 0 .4-.71l-1.241-5.654a.36.36 0 0 1 .17-.4l1.612-.901a.37.37 0 0 0-.15 0 .26.26 0 0 0-.09 0l-7.88 4.633zM372.04 23.124a.611.611 0 0 1 .25-.06l3.395-.19a.54.54 0 0 0 .56-.55c0-.54-.07-1.071-.07-1.581l-4.135 2.381zM408.347 20.222a.45.45 0 0 0 .11.13l-.11-.13zM413.614 22.134a.67.67 0 0 1 .13.25l.23.77 1.222 4.103.42 1.41a.45.45 0 0 1 0 .23.31.31 0 0 1-.05.12.43.43 0 0 1-.09.101h-.07l-.62.37-.18.09-.492.29-.27.16-.31.17-.11.07-.33.18-1.803 1.001-3.805 2.202a.41.41 0 0 0 .17-.48l-1.692-5.374-.23-.77a.73.73 0 0 0-.15-.27l8.03-4.623zM385.498 46.469l4.155-2.412c-.38-.23-.791-.48-1.182-.75-.39-.27-.7-.24-.84 0l-2.003 3.092a.28.28 0 0 1-.13.07zM398.044 46.169l1.241 5.663a.34.34 0 0 1-.17.38c.25-.14 4.166-2.39 6.418-3.702a.691.691 0 0 1-.44-.21l-4.005-3.682a.701.701 0 0 0-.881-.15 6.4 6.4 0 0 1-1.733 1 .63.63 0 0 0-.43.7z"/>
            <path d="M403.22 37.854a1.08 1.08 0 0 0 .07.45l8.01-4.603a1.17 1.17 0 0 1-.08-.46c.054-.56.078-1.12.07-1.681l-3.804 2.2a.601.601 0 0 1-.27.071l-3.395.2a.55.55 0 0 0-.57.55 18.7 18.7 0 0 1-.03 3.273zM405.704 48.46l1.622-.93.31-.18 2.624-1.511.7-.41 2.694-1.562a.1.1 0 0 0 .06 0l.06-.08 1.792-4.002a.58.58 0 0 0 0-.33v-.14l-8.01 4.612a.71.71 0 0 1 0 .48l-1.792 4.003a.24.24 0 0 1-.06.05z" fill="#E0E0E0" fill-rule="nonzero"/>
            <path d="m402.27 76.228 2.573 8.635c.2.5.628.872 1.151 1.001l5.097 1.23c.548.15 1.016.51 1.301 1.001a44.4 44.4 0 0 0 2.734 4.753c.266.397.377.878.31 1.351l-1.662 5.614a1.56 1.56 0 0 0 .46 1.3l5.958 6.295c.29.31.641.41.871.27a.4.4 0 0 0 .13-.13l2.784-4.243c.19-.3.711-.28 1.162 0 .45.28 1.091.72 1.632 1 .54.281 1.151.641 1.722.901.51.247.928.65 1.192 1.151l2.943 7.885c.227.465.678.779 1.192.83l5.427.541c.175.02.353-.01.51-.09a.47.47 0 0 0 .23-.53l-1.711-7.765a.87.87 0 0 1 .56-1.001 8.863 8.863 0 0 0 2.373-1.38c.403-.219.901-.136 1.212.2l5.547 5.072c.161.163.373.265.601.29a.41.41 0 0 0 .19-.05.31.31 0 0 0 .15-.17l2.474-5.453a1.43 1.43 0 0 0-.32-1.29l-5.198-6.295a2.2 2.2 0 0 1-.5-1.38 24.84 24.84 0 0 0 0-4.483.76.76 0 0 1 .78-.761l4.657-.26a.611.611 0 0 0 .64-.78L448.9 80.83a1.662 1.662 0 0 0-1.151-.95l-5.097-1.232a2.173 2.173 0 0 1-1.301-1 45.141 45.141 0 0 0-2.734-4.753 1.89 1.89 0 0 1-.31-1.351l1.662-5.614a1.55 1.55 0 0 0-.46-1.3l-5.958-6.294c-.36-.37-.811-.44-1.002-.14l-2.783 4.242c-.19.3-.701.28-1.162 0a25.527 25.527 0 0 0-3.364-1.951 2.523 2.523 0 0 1-1.182-1.14l-2.943-7.886a1.492 1.492 0 0 0-1.182-.83l-5.437-.54a1.002 1.002 0 0 0-.51.09.5.5 0 0 0-.241.55l1.712 7.765a.88.88 0 0 1-.55 1 8.422 8.422 0 0 0-2.374 1.381c-.406.22-.911.134-1.221-.21l-5.547-5.063a.731.731 0 0 0-.791-.24.5.5 0 0 0-.15.17l-2.464 5.463a1.4 1.4 0 0 0 .31 1.291l5.197 6.284c.326.387.507.875.511 1.38-.07.751-.1 1.522-.1 2.312 0 .79.05 1.431.11 2.172a.74.74 0 0 1-.78.75l-4.657.27a.711.711 0 0 0-.34.08.58.58 0 0 0-.34.69zm20.426 15.84c-5.558-5.864-8.201-14.75-5.898-19.843a5.456 5.456 0 0 1 4.265-3.372h.651a8.616 8.616 0 0 1 3.845.81c.47.208.928.442 1.372.701 1.52.91 2.902 2.033 4.105 3.332 4.176 4.403 6.709 10.497 6.739 15.42a11.67 11.67 0 0 1-.09 1.581 9.411 9.411 0 0 1-.741 2.842 5.437 5.437 0 0 1-5.117 3.432h-.51l-.561-.05-.48-.08-.22-.05-.301-.08a15.59 15.59 0 0 1-7.06-4.643z" fill="#F5F5F5" fill-rule="nonzero"/>
            <path d="m415.917 49-10.974 6.355"/>
            <path d="M424.077 59.397c.259.482.666.869 1.162 1.1a24.295 24.295 0 0 1 3.364 1.952c.45.31 1.001.33 1.162 0l2.773-4.243a.43.43 0 0 1 .14-.13h.05l2.754-1.6c-.58-.34-1.161-.641-1.722-.901l-.21-.12a3.004 3.004 0 0 1-.561-.45 2.092 2.092 0 0 1-.2-.22.66.66 0 0 1-.11-.16l-.08-.15-8.522 4.922zM438.286 71.755a2.12 2.12 0 0 0 .33 1.18 47.743 47.743 0 0 1 2.744 4.744c.068.135.16.256.27.36l8.521-4.913a.9.9 0 0 1-.16-.18 1 1 0 0 1-.13-.18 44.29 44.29 0 0 0-2.734-4.763.85.85 0 0 1-.13-.25.36.36 0 0 1-.07-.27s0-.16-.05-.23a.91.91 0 0 1 0-.361l-8.591 4.863z" fill="#EBEBEB" fill-rule="nonzero"/>
            <path d="m415.787 49.08.13-.07"/>
            <path d="m435.482 56.485 5.697-3.302a.48.48 0 0 1 .24-.07.911.911 0 0 1 .632.34l3.564 3.763 2.393 2.521c.195.212.339.465.42.74l-5.927 3.393-2.593 1.491a1.86 1.86 0 0 0-.41-.69l-.08-.08-5.878-6.214a.771.771 0 0 0-.822-.29l2.764-1.602zM414.024 50.171c.15-.06.31-.084.471-.07l5.427.55c.338.034.654.178.901.41l8.521-4.912a1.582 1.582 0 0 0-.901-.43l-5.437-.54a.862.862 0 0 0-.53.1l-1.473.85-.71.42-2.203 1.28-1.142.661c-.29.16-.57.33-.84.47l-2.084 1.211z" fill="#F5F5F5" fill-rule="nonzero"/>
            <path d="M441.63 78.05c.275.286.62.496 1.001.61l5.097 1.22c.367.1.696.31.941.6l8.541-4.902a1.863 1.863 0 0 0-1.001-.62l-5.097-1.232a2.193 2.193 0 0 1-1.001-.59l-8.481 4.913zM445.495 96.38c.094.275.233.532.41.761l5.197 6.294c.153.185.265.4.33.63l8.512-4.912a1.61 1.61 0 0 0-.33-.65l-5.197-6.295a2.291 2.291 0 0 1-.401-.74l-8.521 4.913z" fill="#E6E6E6" fill-rule="nonzero"/>
            <path fill="#E0E0E0" fill-rule="nonzero" d="m457.12 86.725-.15.1.2-.11.38-.22zM422.696 92.068a15.541 15.541 0 0 0 7.069 4.583l.29.07.21.05.491.08.56.05h.351a.43.43 0 0 0 .16 0 5.437 5.437 0 0 0 5.117-3.432c.396-.903.65-1.861.75-2.842-.42-.2-.85-.42-1.29-.67-6.009-3.483-10.905-11.918-10.905-18.872 0-.53 0-1.001.06-1.481a8.546 8.546 0 0 0-3.855-.82h-.64a5.456 5.456 0 0 0-4.266 3.371c-2.303 5.164.34 14.05 5.898 19.913zM438.286 71.755l8.51-4.903a.44.44 0 0 1 0-.2l1.663-5.614a.92.92 0 0 0 0-.56l-5.928 3.392-2.593 1.491a1 1 0 0 1 0 .61l-1.652 5.614a.43.43 0 0 0 0 .17zM420.823 51.062c.126.113.225.254.29.41l2.944 7.895 8.521-4.913-2.943-7.895a1 1 0 0 0-.28-.39l-8.532 4.893zM404.963 55.325a.761.761 0 0 1 .76.26l5.548 5.063c.312.34.817.423 1.221.2a8.883 8.883 0 0 1 2.363-1.37.87.87 0 0 0 .561-1.001l-1.702-7.765a.48.48 0 0 1 .23-.55l2.083-1.211a.45.45 0 0 0-.2 0l-.12.08-10.744 6.294zM402.57 75.527a.852.852 0 0 1 .34-.08l4.656-.26a.78.78 0 0 0 .781-.76c-.06-.74-.11-1.471-.11-2.182l-5.667 3.282zM450.02 72.956a.9.9 0 0 0 .161.18l-.16-.18z"/>
            <path d="M457.23 75.578a.94.94 0 0 1 .18.34l.32 1.07 1.673 5.634.57 1.931a.5.5 0 0 1 0 .32.46.46 0 0 1-.07.16.35.35 0 0 1-.13.14l-.09.06-.86.501-.231.14-.691.4-.36.22-.431.23-.15.1-.45.25-2.484 1.432-2.774 1.61a.56.56 0 0 0 .24-.65l-2.252-7.584-.32-1.061a.89.89 0 0 0-.21-.36l8.52-4.883zM421.053 107.598l5.718-3.312c-.54-.32-1.092-.67-1.632-1-.541-.331-1.002-.331-1.162 0l-2.783 4.242a.41.41 0 0 1-.14.07zM438.286 107.198l1.712 7.775a.47.47 0 0 1-.23.52c.34-.19 5.717-3.292 8.811-5.093-.23-.02-.446-.12-.61-.28l-5.538-5.064a1.002 1.002 0 0 0-1.212-.21 8.763 8.763 0 0 1-2.383 1.381.87.87 0 0 0-.55.97z" fill="#E0E0E0" fill-rule="nonzero"/>
            <path d="M445.405 95.76c-.017.211.014.423.09.62l8.521-4.912a1.5 1.5 0 0 1-.1-.63c.07-.77.1-1.54.09-2.312l-2.774 1.61a.761.761 0 0 1-.37.11l-4.666.261a.751.751 0 0 0-.781.76 24.84 24.84 0 0 1-.01 4.493zM448.81 110.34c.18-.1 1.06-.6 2.242-1.291l.42-.24 3.595-2.082 1.002-.56 1.241-.72a.22.22 0 0 0 .09-.07.61.61 0 0 0 .07-.1l2.464-5.434a.76.76 0 0 0 0-.46v-.18l-8.511 4.913a1 1 0 0 1 0 .66l-2.474 5.444a.3.3 0 0 1-.14.12z" fill="#E0E0E0" fill-rule="nonzero"/>
        </g>
        <g>
            <path d="M282.545 15.42v232.717a8.334 8.334 0 0 0 3.745 6.504l103.263 59.568c2.062 1.201 3.745.22 3.745-2.171V79.33a8.334 8.334 0 0 0-3.745-6.504L286.29 13.258c-2.063-1.2-3.745-.23-3.745 2.161zm5.397 27.777c0-2.001 1.441-2.882 3.224-1.851L385.047 95.5a7.144 7.144 0 0 1 3.224 5.584V283.37c0 2.061-1.452 2.881-3.224 1.86l-93.881-54.164c-1.783-1-3.224-2.331-3.224-4.372V43.197z" fill="#407BFF" fill-rule="nonzero"/>
            <path d="M282.545 15.42v232.717a8.334 8.334 0 0 0 3.745 6.504l103.263 59.568c2.062 1.201 3.745.22 3.745-2.171V79.33a8.334 8.334 0 0 0-3.745-6.504L286.29 13.258c-2.063-1.2-3.745-.23-3.745 2.161zm5.397 27.777c0-2.001 1.441-2.882 3.224-1.851L385.047 95.5a7.144 7.144 0 0 1 3.224 5.584V283.37c0 2.061-1.452 2.881-3.224 1.86l-93.881-54.164c-1.783-1-3.224-2.331-3.224-4.372V43.197z" fill="#000" fill-rule="nonzero" opacity=".5"/>
            <path d="M390.013 314.44a8.376 8.376 0 0 0 7.01-.23l4.295-2.482a8.264 8.264 0 0 0 3.765-6.504V72.526a7 7 0 0 0-.651-2.802 9.373 9.373 0 0 0-.44-.9l-11.816 6.814c.25.444.467.905.651 1.38a7 7 0 0 1 .45 2.322v232.708c.02 2.201-1.411 3.202-3.264 2.391z" fill="#407BFF" fill-rule="nonzero"/>
            <path d="M390.013 314.44a8.376 8.376 0 0 0 7.01-.23l4.295-2.482a8.264 8.264 0 0 0 3.765-6.504V72.526a7 7 0 0 0-.651-2.802 9.373 9.373 0 0 0-.44-.9l-11.816 6.814c.25.444.467.905.651 1.38a7 7 0 0 1 .45 2.322v232.708c.02 2.201-1.411 3.202-3.264 2.391z" fill="#000" fill-rule="nonzero" opacity=".7"/>
            <path d="M337.025 263.947c-3.274-1.88-5.928-.35-5.928 3.422a13.097 13.097 0 0 0 5.928 10.267c3.274 1.881 5.928.35 5.928-3.422a13.097 13.097 0 0 0-5.928-10.267z" stroke="#E6E6E6"/>
            <path d="M337.876 48.06c-1.382-.8-2.513-.15-2.513 1.45a5.603 5.603 0 0 0 2.513 4.364c1.392.8 2.523.15 2.523-1.461a5.553 5.553 0 0 0-2.523-4.353zM347.639 63.36l-19.435-11.217c-1.162-.66-2.103-.19-2.103 1.06a4.502 4.502 0 0 0 2.103 3.493l19.435 11.207c1.161.67 2.102.2 2.102-1.061a4.502 4.502 0 0 0-2.102-3.482z" fill="#000" fill-rule="nonzero"/>
            <path d="M287.942 226.694c0 2 1.441 3.352 3.224 4.372l93.881 54.165c1.772 1 3.224.2 3.224-1.861V101.084a7.144 7.144 0 0 0-3.224-5.584l-93.881-54.154c-1.783-1-3.224-.2-3.224 1.85v183.498z" fill="#407BFF" fill-rule="nonzero"/>
            <path d="M287.942 226.694c0 2 1.441 3.352 3.224 4.372l93.881 54.165c1.772 1 3.224.2 3.224-1.861V101.084a7.144 7.144 0 0 0-3.224-5.584l-93.881-54.154c-1.783-1-3.224-.2-3.224 1.85v183.498z" fill="#FFF" fill-rule="nonzero" opacity=".5"/>
            <path d="M294.22 56.986v-1.711c0-.37.15-.59.33-.49l.09.06c.232.22.353.531.33.85v1.711c0 .37-.15.59-.33.48h-.09a1.09 1.09 0 0 1-.33-.9zM295.712 57.816v-3.002c0-.37.14-.59.32-.48h.09c.231.225.352.54.33.86v2.952c0 .37-.15.58-.33.48l-.09-.05a1.11 1.11 0 0 1-.32-.76zM297.194 58.697v-4.203c0-.37.15-.58.33-.48l.09.05c.23.225.35.54.33.86v4.203c0 .37-.15.58-.33.48h-.09a1.11 1.11 0 0 1-.33-.91zM298.686 59.547v-7.244c0-.37.14-.59.32-.48h.09c.23.225.35.539.33.86v7.245c0 .37-.15.59-.33.48h-.09a1.09 1.09 0 0 1-.32-.86zM302.71 62.37a.68.68 0 0 1-.05-.271v-1.06l-1.662-1.001a.34.34 0 0 1-.17-.22v-.38a.78.78 0 0 1 0-.19 1.21 1.21 0 0 1 .05-.141l1.773-2.792s.06-.08.09-.09c.03-.01.06 0 .11 0l.23.14a.33.33 0 0 1 .16.17.75.75 0 0 1 0 .28v3.723l.37.21a.38.38 0 0 1 .151.16.81.81 0 0 1 0 .29v.25a.39.39 0 0 1 0 .22h-.15l-.37-.21v1.061a.39.39 0 0 1 0 .22h-.16l-.281-.16a.36.36 0 0 1-.09-.21zm.06-2.172v-2.652l-1.21 2.001 1.21.65zM304.683 62.87a7.06 7.06 0 0 1-.49-2.742 3.54 3.54 0 0 1 .49-2.172c.334-.38.795-.4 1.382-.06.494.28.902.688 1.182 1.181a.26.26 0 0 1 0 .15.44.44 0 0 1 0 .1l-.15.38s0 .06-.06.05a.25.25 0 0 1-.07-.09 2.522 2.522 0 0 0-.852-.84c-.4-.23-.72-.22-.941.05a2.72 2.72 0 0 0-.34 1.63 5.26 5.26 0 0 0 .33 2.002c.167.464.484.858.901 1.12.128.08.266.14.41.181a.651.651 0 0 0 .331 0v-1.691l-.69-.4a.35.35 0 0 1-.151-.17.72.72 0 0 1 0-.28V60.808c0-.03.08 0 .15 0l1.102.64a.37.37 0 0 1 .17.2 1 1 0 0 1 .05.33v2.461a.81.81 0 0 1 0 .2.15.15 0 0 1-.06.09c-.45.158-.948.075-1.322-.22a3.373 3.373 0 0 1-1.372-1.64zM380.671 99.843a1.871 1.871 0 0 0-.66-1l-5.007-2.883c-.43-.25-.761.24-.761 1.121v3.763c.006.519.1 1.033.28 1.52.072.196.163.383.27.56.099.167.232.31.391.421l5.007 2.882c.43.24.77-.25.77-1.13v-3.733a4.55 4.55 0 0 0-.29-1.521zm-5.947 2.251a1.86 1.86 0 0 1-.11-.66v-3.732c0-.65.27-1.051.58-.861l5.007 2.882a.6.6 0 0 1 .21.21 1 1 0 0 1 .08.18c.076.215.114.442.11.67v3.723c0 .65-.27 1.05-.58.86l-5.007-2.881a.68.68 0 0 1-.29-.42v.03z" fill="#455A64" fill-rule="nonzero"/>
            <path d="M377.868 99.022v4.413l-2.684-1.59-.09-.07a.66.66 0 0 0 0-.15v-3.353c0-.47.21-.77.44-.64l2.334 1.39zM381.202 101.504c.19.1.34.81.34 1.571v.69c0 .77-.15 1.321-.34 1.231l-.34-.16v-3.522l.34.19zM368.816 98.252c0 .82-.43 1.24-1.001.93a2.571 2.571 0 0 1-1.002-2.05c0-.821.431-1.232 1.002-.931a2.551 2.551 0 0 1 1.001 2.05z" fill="#455A64" fill-rule="nonzero"/>
            <path d="M367.845 93.77a1.453 1.453 0 0 0-2.243.78 1 1 0 0 0 .1.79c.18.32.45.4.56.14a1 1 0 0 1 1.583-.55 4.002 4.002 0 0 1 1.582 2.381c.11.38.38.62.57.5a.64.64 0 0 0 .1-.68 5.804 5.804 0 0 0-2.252-3.362z" fill="#455A64" fill-rule="nonzero"/>
            <path d="M367.845 91.388a2.294 2.294 0 0 0-3.455.93 1 1 0 0 0 .08.83c.17.32.431.4.551.17a1.862 1.862 0 0 1 2.814-.76 7.295 7.295 0 0 1 2.823 4.003c.12.36.38.59.551.47.16-.1.19-.42.08-.74a9.006 9.006 0 0 0-3.444-4.903z" fill="#455A64" fill-rule="nonzero"/>
            <path d="M282.575 14.789c.27-2.001 1.832-2.662 3.715-1.571l103.263 59.608a7.627 7.627 0 0 1 2.653 2.802l11.815-6.815a7.697 7.697 0 0 0-2.663-2.792L298.115 6.444a8.296 8.296 0 0 0-7.52 0l-4.305 2.471a8.405 8.405 0 0 0-3.715 5.874z" fill="#407BFF" fill-rule="nonzero"/>
            <path d="M282.575 14.789c.27-2.001 1.832-2.662 3.715-1.571l103.263 59.608a7.627 7.627 0 0 1 2.653 2.802l11.815-6.815a7.697 7.697 0 0 0-2.663-2.792L298.115 6.444a8.296 8.296 0 0 0-7.52 0l-4.305 2.471a8.405 8.405 0 0 0-3.715 5.874z" fill="#000" fill-rule="nonzero" opacity=".2"/>
            <g>
                <path d="M165.173 13.258 61.91 72.826a8.334 8.334 0 0 0-3.745 6.504v232.708c0 2.391 1.682 3.372 3.745 2.171l103.263-59.568a8.334 8.334 0 0 0 3.745-6.504V15.42c0-2.391-1.682-3.362-3.745-2.161zm-1.652 213.436c0 2-1.442 3.352-3.224 4.372l-93.881 54.165c-1.773 1-3.224.2-3.224-1.861V101.084a7.144 7.144 0 0 1 3.224-5.584l93.88-54.154c1.783-1 3.225-.2 3.225 1.85v183.498z" fill="#407BFF" fill-rule="nonzero"/>
                <path d="M165.173 13.258 61.91 72.826a8.334 8.334 0 0 0-3.745 6.504v232.708c0 2.391 1.682 3.372 3.745 2.171l103.263-59.568a8.334 8.334 0 0 0 3.745-6.504V15.42c0-2.391-1.682-3.362-3.745-2.161zm-1.652 213.436c0 2-1.442 3.352-3.224 4.372l-93.881 54.165c-1.773 1-3.224.2-3.224-1.861V101.084a7.144 7.144 0 0 1 3.224-5.584l93.88-54.154c1.783-1 3.225-.2 3.225 1.85v183.498z" fill="#000" fill-rule="nonzero" opacity=".5"/>
                <path d="M61.45 314.44a8.376 8.376 0 0 1-7.01-.23l-4.295-2.482a8.264 8.264 0 0 1-3.765-6.504V72.526a7 7 0 0 1 .65-2.802c.131-.308.278-.609.441-.9l11.816 6.814c-.25.444-.467.905-.651 1.38a7 7 0 0 0-.45 2.322v232.708c-.02 2.201 1.41 3.202 3.263 2.391z" fill="#407BFF" fill-rule="nonzero"/>
                <path d="M61.45 314.44a8.376 8.376 0 0 1-7.01-.23l-4.295-2.482a8.264 8.264 0 0 1-3.765-6.504V72.526a7 7 0 0 1 .65-2.802c.131-.308.278-.609.441-.9l11.816 6.814c-.25.444-.467.905-.651 1.38a7 7 0 0 0-.45 2.322v232.708c-.02 2.201 1.41 3.202 3.263 2.391z" fill="#000" fill-rule="nonzero" opacity=".7"/>
                <path d="M114.438 263.947c3.274-1.88 5.927-.35 5.927 3.422a13.097 13.097 0 0 1-5.927 10.267c-3.275 1.881-5.928.35-5.928-3.422a13.097 13.097 0 0 1 5.928-10.267z" stroke="#E6E6E6"/>
                <path d="M113.587 48.06c1.381-.8 2.513-.15 2.513 1.45a5.603 5.603 0 0 1-2.513 4.364c-1.392.8-2.524.15-2.524-1.461a5.553 5.553 0 0 1 2.524-4.353zM103.824 63.36l19.435-11.217c1.162-.66 2.103-.19 2.103 1.06a4.502 4.502 0 0 1-2.103 3.493l-19.435 11.207c-1.161.67-2.103.2-2.103-1.061a4.502 4.502 0 0 1 2.103-3.482z" fill="#000" fill-rule="nonzero"/>
                <path d="M163.521 226.694c0 2-1.442 3.352-3.224 4.372l-93.881 54.165c-1.773 1-3.224.2-3.224-1.861V101.084a7.144 7.144 0 0 1 3.224-5.584l93.88-54.154c1.783-1 3.225-.2 3.225 1.85v183.498z" fill="#407BFF" fill-rule="nonzero"/>
                <path d="M163.521 226.694c0 2-1.442 3.352-3.224 4.372l-93.881 54.165c-1.773 1-3.224.2-3.224-1.861V101.084a7.144 7.144 0 0 1 3.224-5.584l93.88-54.154c1.783-1 3.225-.2 3.225 1.85v183.498z" fill="#FFF" fill-rule="nonzero" opacity=".9"/>
                <path d="M139.09 65.391c0 .83.43 1.24 1 .93a2.531 2.531 0 0 0 1.002-2c0-.821-.43-1.241-1.001-.931a2.531 2.531 0 0 0-1.001 2.001z" fill="#455A64" fill-rule="nonzero"/>
                <path d="M137.808 64.29a.64.64 0 0 0 .1.68c.19.11.46-.13.57-.51a4.062 4.062 0 0 1 1.583-2.381 1.002 1.002 0 0 1 1.582.56c.11.25.38.18.56-.15a1 1 0 0 0 .1-.8 1.451 1.451 0 0 0-2.242-.77 5.803 5.803 0 0 0-2.253 3.371z" fill="#455A64" fill-rule="nonzero"/>
                <path d="M136.616 63.45c-.11.32-.08.64.08.74.17.11.431-.11.551-.47a7.365 7.365 0 0 1 2.824-4.003 1.863 1.863 0 0 1 2.813.77c.12.221.38.151.551-.17a1 1 0 0 0 .07-.83 2.283 2.283 0 0 0-3.444-.92 9.006 9.006 0 0 0-3.445 4.883zM69.13 106.647v-1.48a1 1 0 0 1 .37-.801l.11-.06c.2-.12.37 0 .37.36v1.481a1 1 0 0 1-.37.8l-.11.06c-.21.12-.37-.04-.37-.36zM70.841 105.657v-2.562a1 1 0 0 1 .37-.8l.111-.06c.21-.12.38 0 .38.36v2.561a1 1 0 0 1-.38.8l-.11.06c-.2.12-.37-.04-.37-.36zM72.534 104.666v-3.642a1 1 0 0 1 .38-.79l.1-.06c.21-.12.38 0 .38.36v3.632a1 1 0 0 1-.38.8l-.1.06c-.19.12-.38-.04-.38-.36zM74.276 103.675v-6.284a1 1 0 0 1 .37-.79l.11-.06c.21-.12.381 0 .381.36v6.274a1 1 0 0 1-.37.8l-.11.06c-.21.12-.381-.04-.381-.36zM78.922 101.424v-1.1l-1.933 1.11c-.1.06-.15 0-.15-.11v-.33a.92.92 0 0 1 0-.18l.07-.19 2.003-4.483a1.3 1.3 0 0 1 .1-.18.81.81 0 0 1 .13-.11l.27-.15c.08-.054.14-.054.18 0a.28.28 0 0 1 0 .2v3.211l.431-.24c.08-.05.13-.06.17 0 .04.06 0 .09 0 .19v.22a.55.55 0 0 1 0 .24.44.44 0 0 1-.17.16l-.43.251v.91a.41.41 0 0 1-.23.41l-.321.181c-.03 0-.09.01-.12-.01zm.07-2.001V97.12l-1.392 3.102 1.392-.8zM81.205 99.543c-.38-.28-.56-.88-.56-1.801a5.29 5.29 0 0 1 .56-2.452 4.104 4.104 0 0 1 1.592-1.661c.241-.143.5-.254.77-.33.196-.062.406-.062.602 0a.07.07 0 0 1 0 .07.28.28 0 0 1 0 .11l-.18.5c0 .07 0 .11-.07.12h-.08a1.543 1.543 0 0 0-1.002.25 2.883 2.883 0 0 0-1.091 1.151 3.87 3.87 0 0 0-.391 1.811c0 .71.13 1.171.38 1.361.25.19.611.17 1.052-.08.165-.097.323-.208.47-.33.142-.108.27-.232.38-.37V96.4l-.8.46c-.08.05-.14.06-.17 0a.27.27 0 0 1 0-.19v-.21a.55.55 0 0 1 0-.25.44.44 0 0 1 .17-.16l1.282-.73c.09-.061.15-.061.19 0 .04.06.06.11.06.23v2.13a1 1 0 0 1 0 .2.44.44 0 0 1-.08.15 4.665 4.665 0 0 1-1.522 1.352c-.651.38-1.222.46-1.562.16zM154.55 51.582a.591.591 0 0 0-.762-.08l-5.767 3.312a2.33 2.33 0 0 0-.881 1.882v3.222a1.34 1.34 0 0 0 .33 1 .6.6 0 0 0 .31.17.631.631 0 0 0 .451-.09L154 57.676a2.33 2.33 0 0 0 .88-1.881v-3.222a1.34 1.34 0 0 0-.33-.99zm-6.87 8.886a.67.67 0 0 1-.12-.46v-3.192a1.82 1.82 0 0 1 .671-1.431L154 52.063a.39.39 0 0 1 .24-.06h.1a.67.67 0 0 1 .12.46v3.222a1.82 1.82 0 0 1-.67 1.43l-5.768 3.323c-.14.1-.26.11-.34.03z" fill="#455A64" fill-rule="nonzero"/>
                <path d="M151.315 54.154v3.822l-3.104 1.791h-.1a.52.52 0 0 0 0-.13v-2.821c.001-.41.185-.8.5-1.061l2.704-1.601zM155.17 52.413c.21-.12.38.32.38 1v.6a2.13 2.13 0 0 1-.39 1.452l-.38.25v-3.002l.39-.3z" fill="#455A64" fill-rule="nonzero"/>
                <path d="M168.888 14.789c-.27-2.001-1.832-2.662-3.715-1.571L61.91 72.826a7.627 7.627 0 0 0-2.654 2.802l-11.815-6.805a7.697 7.697 0 0 1 2.664-2.792L153.348 6.444a8.276 8.276 0 0 1 7.51 0l4.315 2.471a8.405 8.405 0 0 1 3.715 5.874z" fill="#407BFF" fill-rule="nonzero"/>
                <path d="M168.888 14.789c-.27-2.001-1.832-2.662-3.715-1.571L61.91 72.826a7.627 7.627 0 0 0-2.654 2.802l-11.815-6.805a7.697 7.697 0 0 1 2.664-2.792L153.348 6.444a8.276 8.276 0 0 1 7.51 0l4.315 2.471a8.405 8.405 0 0 1 3.715 5.874z" fill="#000" fill-rule="nonzero" opacity=".2"/>
            </g>
        </g>
        <g fill-rule="nonzero">
            <path d="M359.013 238.511s-10.703 10.707-24.932 6.614c0 0 4.286 4.223 14.369 1.391 6.799-1.911 10.563-8.005 10.563-8.005zM380.26 172.89s5.468 14.108-4.004 25.456c0 0 5.597-2.202 7.079-12.568.971-7.025-3.074-12.889-3.074-12.889zM357.902 243.004c10.013-10.297 14.368-22.314 14.469-34.592 0 0 2.913 7.305-1.632 18.832-4.546 11.527-12.837 15.76-12.837 15.76zM81.675 228.115s-.13 15.13 12.767 22.404c0 0-6.008-.1-11.014-9.266-3.455-6.184-1.753-13.138-1.753-13.138zM78.411 234.178c-2.226-12.8.7-25.96 8.14-36.613 0 0-6.588 4.293-9.512 16.34-2.923 12.048 1.372 20.273 1.372 20.273z" fill="#407BFF"/>
            <g transform="translate(212.855 69.185)">
                <path d="m89.836 80.69 4.235-12.658C82.917 70.033 79.883 71.554 76.59 80.77l-2.183 7.345L61.049 129.2c-3.164.83-42.555 11.677-43.927 11.848 0 0-.06.1-.1.15-12.867.82-17.022 1.39-17.022 1.39 3.615 9.447 10.393 14.77 19.755 16.691v-.22.07c16.572-2.822 43.757-9.226 52.598-12.158 3.725-1.19 5.317-5.383 6.85-8.885 6.257-14.3 12.796-33.572 15.019-45.169 1.441-6.984-.671-10.477-4.386-12.228z" fill="#B16668"/>
                <path d="M94.071 67.982s-11.084-1.7-15.89 8.466c-3.224 6.864-13.087 36.263-13.087 36.263s7.01 9.005 22.359 9.556c0 0 14.499-33.271 13.688-34.332-.812-1.06-7.07-19.953-7.07-19.953z" fill="#37474F"/>
                <path d="M92.039 67.772c-2.694.26-9.522 9.386-9.663 24.916-.19 20.803 10.013 46.27 12.577 51.763 2.563 5.493 7.55 16.25 16.02 24.235 2.734 2.562 21.398 9.816 33.423-3.692 12.236-13.739 10.304-31.79 7.86-37.444-4.095-9.466-11.334-20.483-11.074-32.94-1.532-8.947-4.466-20.524-11.154-25.377-2.754-.7-11.425-1.811-13.117-1.581l-24.872.12z" fill="#FAFAFA"/>
                <path d="m127.284 84.283-3.414 4.282c1.001 6.795 6.158 16.61 12.156 24.446 4.676 6.114 14.188 12.418 18.023 23.215a27.612 27.612 0 0 0-1.732-8.676c-4.096-9.466-11.335-20.483-11.075-32.94-.25-1.482-.55-3.003-.89-4.614l-3.205-2.902-9.863-2.811z" fill="#EBEBEB"/>
                <path d="M130.028 69.233c5.857 1.44 9.011 4.533 14.138 10.387 5.888 6.604 17.903 20.493 17.903 20.493 8.401 14.549.851 29.348-5.447 26.917 0 0-14.198-13.86-22.91-24.366-5.837-7.004-8.81-11.007-9.141-18.722-.28-6.064.8-12.258 5.457-14.71z" fill="#B16668"/>
                <path d="M126.964 68.683s5.056-1.121 11.635 4.172c6.578 5.294 22.66 22.785 22.66 22.785s.48 18.522-11.325 26.877c0 0-17.423-17.471-21.719-23.515a29.002 29.002 0 0 1-1.251-30.32z" fill="#37474F"/>
                <path d="M123.87 33.66s-2.543 15.52-3.735 18.102a6.937 6.937 0 0 1-3.875 3.432l-.25-10.777 7.86-10.757z" fill="#263238"/>
                <path d="M115.61 11.136s4.195-2.111 7.068.56c2.874 2.672 3.064 11.858.902 23.755l-7.23-.38-.74-23.935z" fill="#263238"/>
                <ellipse fill="#263238" transform="rotate(-11.19 89.502 25.812)" cx="89.502" cy="25.812" rx="20.216" ry="20.203"/>
                <path d="m116.21 12.707 6.258-5.744a4.126 4.126 0 0 0-5.958-.4 4.45 4.45 0 0 0-.3 6.144z" fill="#263238"/>
                <path d="M78.772 13.998c-1.272 2.191-7.63 11.397-5.307 28.688 2.183 16.28 7.42 20.103 10.203 20.963 2.784.86 8.37.37 13.257-1l.881 6.914s-2.853 4.583 1.002 7.115c3.855 2.531 12.335.67 14.298-.89 4.616-3.693 3.915-6.805 3.915-6.805l-1.001-22.455s3.474 2.862 7.95-.51c4.225-3.172 4.416-11.557.851-14.439-3.564-2.882-9.282-1.16-10.063 3.472 0 0-.15-17.21-9.933-21.784-12.526-5.863-26.053.73-26.053.73z" fill="#B16668"/>
                <path d="M113.637 37.293c.55-.29 1.492-4.893 4.205-6.454 2.493-1.441-2.213-22.014-2.233-22.115-.28-1.51-1.832-3.282-2.843-4.382a13.128 13.128 0 0 0-5.568-3.503A19.287 19.287 0 0 0 98.187.3c-4.666.72-9.142 2.662-13.858 2.682-4.476 0-8.751-1.731-13.137-2.602a3.517 3.517 0 0 0-2.543.17 2.612 2.612 0 0 0-.922 1.131 5.9 5.9 0 0 0-.14 4.163 14.656 14.656 0 0 0 2.003 3.762c-1.562-.73-3.765-.79-4.666.67-.711 1.151-.27 2.652.38 3.833 2.744 4.923 7.62 7.084 12.747 8.255 2.154.365 4.333.566 6.518.6 5.527.31 10.834-1.9 15.93-4.062 1.403-.6 4.136-1.621 5.668-.38 1.902 1.54 1.812 6.524 2.383 10.616.871 6.415 3.004 9.276 5.087 8.156z" fill="#263238"/>
                <path d="m95.984 49.67-5.577 2.492a3.003 3.003 0 0 0 4.005 1.651 3.211 3.211 0 0 0 1.572-4.143z" fill="#9A4A4D"/>
                <path d="M75.958 36.372a2.072 2.072 0 1 0 1.933-2.271 2.112 2.112 0 0 0-1.933 2.271zM92.039 35.381a2.072 2.072 0 1 0 1.932-2.271 2.103 2.103 0 0 0-1.932 2.271z" fill="#263238"/>
                <path fill="#9A4A4D" d="m86.592 35.822-.37 12.418-6.54-2.042zM96.925 62.679c4.105-.94 12.136-4.393 13.658-7.395 0 0 .15 1.911-2.283 4.813-2.433 2.902-10.964 5.804-10.964 5.804l-.41-3.222z"/>
                <path d="m74.326 32.06 4.636-2.002a2.654 2.654 0 0 0-3.414-1.34 2.472 2.472 0 0 0-1.222 3.341zM93.29 29.067l4.426 2.402a2.62 2.62 0 0 0-1.051-3.502 2.445 2.445 0 0 0-3.375 1.1z" fill="#263238"/>
            </g>
            <path d="M172.873 135.085H138.37c-17.154-.005-31.07-13.877-31.12-31.02v-5.413c-.034-16.542 13.355-29.98 29.908-30.019h5.627a29.96 29.96 0 0 1 21.218 8.717 29.92 29.92 0 0 1 8.821 21.162l.05 36.573z" fill="#263238"/>
            <path d="M144.316 137.027c12.376-.931 20.176 4.803 20.437 16.3.14 5.794-4.887 28.858-4.887 28.858l-15.55-45.158z" fill="#FFA8A7"/>
            <path d="M144.316 137.027c6.298.63 13.247 11.377 19.295 25.196 2.373 5.443 6.709 12.768 1.242 22.954-3.385 6.294-10.354 8.836-10.354 8.836a86.781 86.781 0 0 1-10.814 22.254 55.27 55.27 0 0 1-15.32 24.115c-2.803 2.482-19.935 17.642-33.743 5.944-8.21-6.954-11.074-18.011-10.233-28.448.49-6.134 1.852-12.198 6.168-16.59a72.598 72.598 0 0 0 6.879-8.106c2.193-10.436-.32-17.52-.581-30.019 1.532-8.945 5.327-16.53 12.016-21.373a55.592 55.592 0 0 1 15.47-3.673l19.975-1.09z" fill="#407BFF"/>
            <path d="m144.106 215.647-.841-6.735s-29.038-45.489-30.27-46.77c-.72-.77-7.69-5.413-13.136-9.005a40.816 40.816 0 0 0-3.004 10.006c.26 12.458 2.774 19.543.58 30.02 0 0-1.491 2.11-3.904 4.882 4.305 1.121 11.324-4.292 11.324-4.292s14.018 19.802 20.186 26.837c5.758 6.594 9.202 7.575 13.458 7.284a53.016 53.016 0 0 0 5.186-11.627c.15-.19.28-.4.421-.6z" fill="#000" opacity=".1"/>
            <path d="M164.853 185.177c.29-.55.56-1.09.8-1.63-5.636 4.322-9.562 1.28-14.288.37-4.886-.941-8.51 6.003-17.652 5.143-12.016-1.161-16.372-8.716-16.372-8.716s-.32 13.078 14.57 15.95c9.952 1.922 13.607-3.452 16.36-3.452 1.202 0 2.273.93 6.228 1.17 0 0 6.97-2.54 10.354-8.835z" fill="#000" opacity=".05"/>
            <path d="M161.478 84.833c1.242 2.142 7.41 11.077 5.157 27.858-2.123 15.8-7.21 18.372-9.913 19.212-2.703.84-8.12.35-12.866-1l-1.072 9.506s4.606 6.544 3.695 10.847c-.911 4.302-10.113 3.752-15.88-1.201a18.738 18.738 0 0 1-6.249-11.848l1.002-21.814s-3.375 2.782-7.72-.49c-4.095-3.082-4.286-11.217-.821-14.009 3.464-2.792 9.011-1.13 9.762 3.362 0 0 10.734 2.482 20.236-2 12.126-5.684 13.898-13.92 14.67-18.423z" fill="#FFA8A7"/>
            <path d="m126.774 111.25-.29-9.926a5.215 5.215 0 0 1 5.226 5.003 4.841 4.841 0 0 1-4.936 4.923z" fill="#263238"/>
            <path d="m148.482 120.236 5.407 2.421a2.923 2.923 0 0 1-3.875 1.601 3.101 3.101 0 0 1-1.532-4.022z" fill="#F28F8F"/>
            <path d="M164.202 106.697a2 2 0 0 1-2.123 2.002 2.052 2.052 0 0 1-1.872-2.212 2.005 2.005 0 0 1 3.116-1.538c.597.398.935 1.083.889 1.798l-.01-.05zM149.693 107.848a2.002 2.002 0 1 1-3.981-.43 2.002 2.002 0 0 1 3.981.43z" fill="#263238"/>
            <path fill="#F28F8F" d="m155.5 106.567.361 12.058 6.348-1.981zM143.856 130.863c-4.005-.91-11.776-4.263-13.257-7.175 0 0-.14 1.861 2.222 4.673 2.363 2.812 10.684 5.584 10.684 5.584l.35-3.082z"/>
            <path d="m164.843 101.324-4.496-1.941a2.584 2.584 0 0 1 3.314-1.301 2.392 2.392 0 0 1 1.182 3.242z" fill="#263238"/>
            <path d="m137.918 224.352 9.773-18.682c3.244.47 6.488.92 9.732 1.371 6.459.89 30.86 3.883 32.242 3.903a20.307 20.307 0 0 0 7.82-1.701c3.865-1.451 6.729-3.773 9.853-4.413a14.819 14.819 0 0 1 4.395-.2c1.853.13 1.372 1.12 3.204 1.44a2.735 2.735 0 0 1 1.442.57c.701.661.19 1.062-.18 1.602a5.891 5.891 0 0 0-.74 2.221c-.141.67-.692 2.952.26 3.322 4.615 1.792 5.136 4.433 11.124 9.566 2.863 2.452 4.405 4.223 6.338 5.474 1.212 1.831 1.302 3.002-3.004 5.523-2.864 1.702-8.01 5.004-16.431 2.362-9.172-2.872-13.868-8.005-16.231-8.115-16.762-.94-50.475-2.332-59.597-4.243zM147.69 205.67 123 165.215s-4.055-22.605-14.118-23.385c0 0-9.212 2.371-11.315 7.895-2.533 6.684-2.413 13.228 5.147 28.017 5.707 11.208 21.177 32.331 27.365 39.486 2.503 2.891 5.237 6.284 7.84 7.084" fill="#FFA8A7"/>
            <path d="M197.815 228.625a6.63 6.63 0 0 1 2.584 1.3 8.654 8.654 0 0 0 4.165-2c4.626-3.373 20.527 3.402 16.611 7.754-2.843 3.162-5.617 4.003-10.153 2.592-6.688-2.041-13.817-5.093-13.207-9.646zM213.235 205.19c-5.267.91-10.734 4.753-13.587 5.914-2.854 1.16-5.798 1.85-3.174 4.362 2.623 2.512 9.011 0 13.427-1.56 3.004-1.081 6.799 0 8.49.7 1.242.51.582-2.842.582-2.842-1.002-1.46 11.424 0 11.014-1.44-6.569.28-12.506-6.105-16.752-5.134z" fill="#B16668"/>
        </g>
    </g>
</svg>
