<svg width="170" height="53" xmlns="http://www.w3.org/2000/svg">
    <defs>
        <linearGradient x1="1.632%" y1="45.22%" x2="100%" y2="54.78%" id="a">
            <stop stop-color="#4B6BB7" offset="0%"/>
            <stop stop-color="#182848" offset="100%"/>
        </linearGradient>
        <linearGradient x1="30.186%" y1="31.568%" x2="54.128%" y2="82.878%" id="b">
            <stop stop-color="#FF177B" offset="0%"/>
            <stop stop-color="#FFEC73" offset="100%"/>
        </linearGradient>
        <linearGradient x1="54.245%" y1="-36.666%" x2="44.393%" y2="108.434%" id="c">
            <stop stop-color="#064AA2" offset="0%"/>
            <stop stop-color="#63FFD4" offset="100%"/>
        </linearGradient>
        <linearGradient x1="56.679%" y1="20.015%" x2="-.14%" y2="70.013%" id="d">
            <stop stop-color="#FF4521" offset="0%"/>
            <stop stop-color="#8A33DB" offset="100%"/>
        </linearGradient>
        <linearGradient x1="14.811%" y1="-.315%" x2="79.016%" y2="76.068%" id="e">
            <stop stop-color="#00A3B5" offset="0%"/>
            <stop stop-color="#D6FFA1" offset="100%"/>
        </linearGradient>
        <linearGradient x1="0%" y1="50.02%" x2="100.018%" y2="50.02%" id="f">
            <stop stop-color="#63BE6B" offset="0%"/>
            <stop stop-color="#5BBC6A" offset="50.6%"/>
            <stop stop-color="#4AB96A" offset="100%"/>
        </linearGradient>
        <linearGradient x1="-.027%" y1="50.012%" x2="99.942%" y2="50.012%" id="g">
            <stop stop-color="#3EC6F2" offset="0%"/>
            <stop stop-color="#45AFE3" offset="100%"/>
        </linearGradient>
        <linearGradient x1=".042%" y1="50.037%" x2="99.989%" y2="50.037%" id="h">
            <stop stop-color="#FAA51A" offset="0%"/>
            <stop stop-color="#FAB716" offset="38.7%"/>
            <stop stop-color="#FAC412" offset="74.1%"/>
            <stop stop-color="#FAC80F" offset="100%"/>
        </linearGradient>
        <linearGradient x1=".016%" y1="49.998%" x2="99.999%" y2="49.998%" id="i">
            <stop stop-color="#EC3B50" offset="0%"/>
            <stop stop-color="#E7515B" offset="100%"/>
        </linearGradient>
    </defs>
    <g fill="none" fill-rule="evenodd">
        <path d="M6.906 0h156.188C166.904 0 170 2.828 170 6.308v39.948c0 3.48-3.096 6.308-6.906 6.308H6.906C3.096 52.564 0 49.736 0 46.256V6.308C0 2.828 3.096 0 6.906 0z" fill="url(#a)" fill-rule="nonzero" opacity=".691"/>
        <path d="M12.167 6.71S1.854.683 1.247.331C.64-.02.032.194.032.93v25.965c0 .555.436.79.962.49.526-.309 11.173-6.525 11.173-6.525s1.447-.843 2.165-1.27c1.164-.682 3.492-2.036 3.492-2.036l5.445-3.178c.637-.373.576-.885.04-1.173-.536-.288-5.475-3.199-5.475-3.199L12.167 6.71z" fill="url(#b)" fill-rule="nonzero" transform="translate(6.921 12.852)"/>
        <path d="M14.067 13.543.506 0C.192.075 0 .33 0 .746V26.66c0 .352.132.565.304.64l13.763-13.756z" fill="url(#c)" fill-rule="nonzero" transform="translate(6.923 13.056)"/>
        <path d="m24.735 22.867-5.668-3.306c-.02.053-10.332-5.982-10.93-6.291-.607-.406-1.214-.182-1.214.533v26.019c0 .576.435.81.91.533.578-.341 11.214-6.558 11.234-6.611l5.668-3.306c-.03.042 4.766-2.762 5.364-3.093.688-.415.617-.927.1-1.173-.556-.34-5.495-3.252-5.464-3.305"/>
        <path d="M12.144 6.492C12.124 6.545 1.812.51 1.214.201.607-.205 0 .019 0 .734v26.019c0 .576.435.81.91.533.578-.341 11.214-6.558 11.234-6.611l5.668-3.306c-.03.043 4.766-2.762 5.363-3.093.689-.415.618-.927.102-1.172-.557-.342-5.496-3.253-5.465-3.306l-5.668-3.306z" transform="translate(6.921 13.07)" fill="url(#d)" fill-rule="nonzero"/>
        <g fill-rule="nonzero">
            <path d="M.729.15C.466.012.213-.03 0 .022l13.571 13.564 3.755-3.743-5.657-3.305s-5.334-3.114-8.552-4.99L.73.15z" transform="translate(7.417 13.023)" fill="url(#e)"/>
            <path d="M14.759 8.464.846.077a.535.535 0 0 0-.564.006A.594.594 0 0 0 0 .595s.006.773.011 2.046l10.135 10.688 4.613-4.865z" fill="url(#f)" transform="translate(7.176 12.852)"/>
            <path d="M0 2.222c.018 4.552.07 15.603.094 21.104l10.448-10.508L0 2.222z" fill="url(#g)" transform="translate(7.176 12.852)"/>
            <path d="m22.91 13.518-7.828-4.632-4.54 4.695 5.122 5.302 7.251-4.373a.578.578 0 0 0 .277-.493.585.585 0 0 0-.282-.5z" fill="url(#h)" transform="translate(7.176 12.852)"/>
            <path d="m0 23.928.016 3.25c0 .214.104.41.273.511.17.107.376.107.545 0l13.925-8.86-5.04-5.5L0 23.93z" fill="url(#i)" transform="translate(7.176 12.852)"/>
        </g>
        <g fill="#FFF" fill-rule="nonzero">
            <path d="m113.591 36.8-1.17 1.063c-.273.142-.537.314-.8.425-.811.355-1.633.446-2.37.446-.78 0-2.001-.05-3.244-.922-1.728-1.175-2.486-3.21-2.486-4.973 0-3.656 3.075-5.45 5.593-5.45.874 0 1.78.213 2.507.66 1.222.78 1.538 1.792 1.707 2.339l-5.73 2.238-1.876.142c.611 2.998 2.707 4.74 5.025 4.74 1.159 0 2.012-.364 2.802-.739 0 0 .158-.081.042.03zm-3.497-6.017c.463-.162.695-.304.695-.638 0-.952-1.085-2.046-2.391-2.046-.959 0-2.77.74-2.77 3.302 0 .405.052.83.073 1.256l4.393-1.874z"/>
            <path d="M101.624 36.668c0 .911.169 1.053.97 1.124.42.05.832.07 1.243.111l-.896.517h-4.287c.558-.709.663-.78.663-1.246v-.527l-.01-13.977H97.41l1.822-.851h3.476c-.758.425-.98.679-1.074 1.499l-.01 13.35"/>
            <path d="M94.977 28.544c.559.446 1.718 1.388 1.718 3.17 0 1.743-1.012 2.563-2.034 3.343-.316.304-.684.638-.684 1.155 0 .516.368.8.632 1.013l.874.658c1.064.871 2.033 1.671 2.033 3.292 0 2.208-2.212 4.447-6.383 4.447-3.519 0-5.215-1.621-5.215-3.363 0-.851.432-2.046 1.875-2.867 1.507-.891 3.54-1.013 4.635-1.083-.337-.426-.727-.872-.727-1.6 0-.396.127-.639.243-.922-.264.02-.538.05-.78.05-2.57 0-4.024-1.864-4.024-3.697 0-1.084.506-2.279 1.56-3.15 1.38-1.104 3.033-1.296 4.34-1.296h5.003l-1.56.85h-1.506zm-1.706 10.423c-.2-.03-.316-.03-.558-.03-.222 0-1.549.05-2.57.384-.538.193-2.107.77-2.107 2.472 0 1.701 1.685 2.927 4.308 2.927 2.35 0 3.592-1.104 3.592-2.583 0-1.235-.811-1.884-2.665-3.17zm.685-4.538c.558-.537.61-1.286.61-1.712 0-1.691-1.032-4.314-3.044-4.314-.621 0-1.306.304-1.696.78-.41.486-.526 1.124-.526 1.732 0 1.57.948 4.173 3.023 4.173.6 0 1.253-.284 1.633-.659zM79.85 38.734c-3.865 0-5.93-2.937-5.93-5.591 0-3.1 2.602-5.753 6.3-5.753 3.57 0 5.814 2.724 5.814 5.59 0 2.796-2.212 5.754-6.183 5.754zm3.024-1.914c.59-.76.737-1.712.737-2.634 0-2.096-1.021-6.087-4.055-6.087-.8 0-1.612.304-2.202.81-.948.83-1.127 1.874-1.127 2.897 0 2.35 1.19 6.219 4.15 6.219.97 0 1.939-.446 2.497-1.205zM66.894 38.734c-3.866 0-5.93-2.937-5.93-5.591 0-3.1 2.601-5.753 6.299-5.753 3.57 0 5.814 2.724 5.814 5.59 0 2.796-2.212 5.754-6.183 5.754zm3.023-1.914c.59-.76.738-1.712.738-2.634 0-2.096-1.033-6.087-4.056-6.087-.811 0-1.612.304-2.202.81-.958.83-1.127 1.874-1.127 2.897 0 2.35 1.201 6.219 4.15 6.219.97 0 1.939-.446 2.497-1.205zM59.362 38.035l-3.276.73c-1.327.202-2.517.384-3.782.384-6.32-.01-8.722-4.507-8.722-8.032 0-4.294 3.413-8.285 9.25-8.285 1.232 0 2.422.172 3.507.466 1.717.466 2.518 1.043 3.023 1.377l-1.906 1.753-.801.172.569-.881c-.78-.73-2.202-2.087-4.898-2.087-3.614 0-6.342 2.654-6.342 6.533 0 4.163 3.108 8.083 8.1 8.083 1.465 0 2.223-.284 2.908-.547v-3.576l-3.455.183 1.833-.952h4.856l-.59.557c-.158.131-.179.172-.232.354-.02.203-.042.84-.042 1.074v2.694M120.66 36.9v5.987h-1.233V27.663h1.232v1.732c.8-1.124 2.276-2.005 3.972-2.005 3.054 0 5.12 2.238 5.12 5.773 0 3.515-2.055 5.794-5.12 5.794-1.602 0-3.045-.8-3.972-2.056zm7.826-3.646c0-2.694-1.443-4.75-4.013-4.75-1.591 0-3.118 1.215-3.782 2.279v4.922c.664 1.064 2.19 2.32 3.782 2.32 2.57 0 4.013-2.076 4.013-4.77zM131.435 23.44h1.265v15.294h-1.265zM146.446 41.833c.264.112.717.183 1.001.183.759 0 1.275-.294 1.749-1.347l.895-1.965-4.856-11.112h1.38l4.16 9.633 4.13-9.633h1.39l-5.92 13.441c-.61 1.388-1.58 2.056-2.907 2.056-.4 0-.927-.07-1.232-.162l.21-1.094M142.96 38.724a15.28 15.28 0 0 1-.19-1.003 5.817 5.817 0 0 1-.063-.86c-.422.597-1.022 1.103-1.801 1.498-.77.395-1.507.588-2.508.588-1.211 0-2.148-.284-2.812-.871-.664-.578-1-1.368-1-2.36 0-.993.484-1.803 1.453-2.421.969-.618 2.222-.932 3.771-.932h2.886v-1.378c0-.79-.284-1.418-.842-1.863-.559-.456-1.349-.679-2.37-.679-.938 0-1.697.213-2.276.618-.569.415-.864.932-.864 1.55h-1.264l-.02-.061c-.043-.84.347-1.57 1.2-2.208.843-.638 1.938-.952 3.297-.952 1.349 0 2.444.314 3.266.942.821.618 1.232 1.52 1.232 2.684v5.47c0 .394.021.77.074 1.144.053.375.137.74.242 1.094h-1.411zm-4.404-.8c1.054 0 1.812-.233 2.581-.679.77-.446 1.285-1.033 1.56-1.742v-2.137h-2.908c-1.106 0-2.023.233-2.75.719-.726.476-1.084 1.053-1.084 1.732 0 .638.231 1.144.695 1.53.474.384 1.106.577 1.906.577z"/>
        </g>
        <g fill="#FFF" fill-rule="nonzero">
            <path d="M43.582 11.896c0-2.406 1.82-3.962 4.084-3.962 1.513 0 2.507.716 3.132 1.59l-1.111.626a2.534 2.534 0 0 0-2.021-1.018c-1.534 0-2.687 1.152-2.687 2.764.01 1.6 1.153 2.764 2.687 2.764.793 0 1.492-.358 1.84-.694V12.79H47.18v-1.186h3.682v2.853c-.762.84-1.851 1.4-3.195 1.4-2.264.01-4.084-1.556-4.084-3.962M52.628 15.756V8.057h5.406v1.186h-4.02v1.981h3.935v1.198h-3.935v2.148h4.02v1.186h-5.406M61.705 15.756V9.243h-2.349V8.057h6.062v1.186H63.07v6.513h-1.365M70.274 8.057h1.323v7.7h-1.323zM75.384 15.756V9.243h-2.349V8.057h6.063v1.186h-2.35v6.513h-1.364M83.626 11.907c0-2.283 1.66-3.962 4.03-3.962 2.349 0 4.02 1.679 4.02 3.962 0 2.283-1.682 3.961-4.02 3.961-2.37 0-4.03-1.678-4.03-3.961zm6.612-.067c0-1.567-1.016-2.742-2.592-2.742-1.587 0-2.592 1.175-2.592 2.742 0 1.555 1.005 2.741 2.592 2.741 1.576 0 2.592-1.175 2.592-2.741zM98.627 15.756l-4.052-5.505v5.505H93.21V8.057h1.397l3.967 5.338V8.057h1.365v7.7h-1.312"/>
        </g>
    </g>
</svg>
