<svg width="408" height="426" xmlns="http://www.w3.org/2000/svg">
    <g fill-rule="nonzero" fill="none">
        <g fill="#EBEBEB">
            <path d="M408 106.786H298.175s10.887-29.696 27.647-29.696c16.76 0 22.013 20.493 22.013 20.493s11.306-11.13 20.602-11.13c9.295 0 17.36 14.717 17.36 14.717s13.118-7.913 22.203 5.616zM346.524 48.044h-51.32s11.466-16.586 20.502-16.586c9.035 0 11.707 11.101 11.707 11.101s6.373-5.166 12.287-4.246c5.913.919 6.824 9.731 6.824 9.731zM51.33 231.092H0s11.467-16.596 20.502-16.596c9.035 0 11.707 11.06 11.707 11.06s6.374-5.165 12.287-4.236c5.914.93 6.834 9.772 6.834 9.772zM91.934 125.49h-51.37s11.467-16.586 20.502-16.586c9.035 0 11.707 11.06 11.707 11.06s6.374-5.165 12.287-4.246c5.914.92 6.874 9.772 6.874 9.772zM107.943 78.07H7.885S21.613 47.554 36.25 45.635c14.639-1.918 21.663 22.682 21.663 22.682s9.446-8.693 16.87-8.693c7.424 0 13.148 11.45 13.148 11.45s14.868-7.843 20.011 6.994zM202.91 22.436h-67.54S146.966.324 159.554.004c12.587-.32 19.201 16.737 19.201 16.737s19.582-15.697 24.154 5.695zM395.943 202.216h-67.53s11.597-22.111 24.184-22.431c12.588-.32 19.202 16.736 19.202 16.736s19.571-15.697 24.144 5.695z"/>
        </g>
        <ellipse cx="203.019" cy="29.975" rx="203.019" ry="29.975" transform="translate(.98 366.05)" fill="#EBEBEB"/>
        <path d="M40.584 264.374c-8.165.28-17.27.75-24.014-4.536-6.244-4.876-11.807-12.15-11.007-20.503.24-2.378.79-3.846 3.342-2.827 3.893 1.548 6.894 5.835 9.586 8.842a82.64 82.64 0 0 0 11.337 10.731c2.901 2.229 6.003 4.147 9.005 6.305.37.26.74.53 1.11.82.14.1.28.2.42.32h.23a.43.43 0 0 1 .341.179.43.43 0 0 1-.35.67z" fill="#FFC727"/>
        <path d="M40.984 263.845c-7.174-.13-14.919.2-20.652-4.666a32.983 32.983 0 0 1-6.664-8.083c-.83-1.35-3.322-5.366-2.291-6.995 1.87-2.897 10.416 8.903 11.597 9.992a35.037 35.037 0 0 0 15.849 8.283c.37.26.74.53 1.11.82a39.056 39.056 0 0 1-11.897-4.567c-5.093-2.997-7.924-7.513-11.917-11.7-.86-.91-3.452-3.997-4.432-2.058-.64 1.249 1.76 5.185 2.271 5.995a33.122 33.122 0 0 0 6.304 7.683c5.723 4.996 13.428 4.816 20.662 5.116a.35.35 0 0 1 .06.18z" fill="#FFF"/>
        <path d="M45.087 269.37c-.07.32-.13.63-.2.95a.22.22 0 0 1-.15.16.34.34 0 0 1-.43-.16.34.34 0 0 1 0-.2.928.928 0 0 1 0-.13l.09-.27v-.09c-1.452-5.395-2.002-10.99-3.533-16.396-1.45-5.146-3.262-10.202-4.312-15.457-.66-3.318-3.002-19.984 4.372-17.876 3.252.92 5.473 5.626 6.714 8.433a34.4 34.4 0 0 1 2.702 11.99c.57 10.062-3.202 19.304-5.253 29.046z" fill="#FFC727"/>
        <path d="M47.438 248.648a40.012 40.012 0 0 0-1.18-11.251c-.331-1.279-1.922-7.394-4.003-7.244-1.34.09-1.561 2.728-1.681 3.597-.47 3.707.74 7.484 1.46 11.08a152.466 152.466 0 0 1 2.692 22.212c-.06.47-.14.95-.19 1.42-.05.469-.1.778-.15 1.178v.4a2.784 2.784 0 0 0 0 .32.35.35 0 0 0 .43.16c0-.3.09-.61.13-.91v.75c0-.26.1-.52.16-.77v-1.419c.881-6.534 2.162-12.979 2.332-19.523zm-2.482 16.786c-.21-4.357-.64-8.703-1.26-12.99-.49-3.487-1.151-6.944-1.881-10.381-.48-1.931-.792-3.9-.931-5.885-.07-1.519.15-7.124 3.002-3.647 2.091 2.528 2.591 7.893 2.851 10.99.249 3.44.182 6.895-.2 10.322-.36 3.857-1 7.724-1.58 11.59z" fill="#FFF"/>
        <path d="M49.48 291.722h-.301c-7.454-.37-17.4.33-23.614-4.606-4.583-3.637-9.085-10.841-7.634-16.986 1.65-6.885 11.006 1.379 13.417 3.367a227.153 227.153 0 0 1 18.281 17.855.6.6 0 0 1 .09.13c.08.13-.07.2-.24.24z" fill="#FFC727"/>
        <path d="M49.74 291.502c-.431-.27-.861-.53-1.292-.81a188.21 188.21 0 0 1-14.288-9.901c-1.16-.89-9.566-8.353-10.826-5.685-.76 1.608 2 4.895 2.891 5.995a23.003 23.003 0 0 0 5.674 5.065c5.003 3.098 11.006 3.767 16.64 5.256.267.056.53.126.79.21l.14.08c.18-.03.33-.1.27-.21zm-14.77-4.247a23.155 23.155 0 0 1-6.443-4.346c-1.251-1.189-5.664-5.645-4.493-7.484.62-.999 1.14-.45 2.332.13.545.27 1.073.573 1.58.91 1.251.819 2.402 1.778 3.573 2.707 2 1.639 4.122 3.217 6.243 4.756a161.822 161.822 0 0 0 10.686 7.164c-4.482-1.369-9.215-1.918-13.477-3.837z" fill="#FFF"/>
        <path d="M63.107 276.365a44.049 44.049 0 0 1-12.787 22.31.34.34 0 0 1-.52-.06.32.32 0 0 1 0-.429l.38-.38c1.23-10.13 2.591-20.203 3.642-30.364.24-2.398 2.12-17.635 6.804-15.157 2.901 1.538 3.091 7.783 3.342 10.58.405 4.518.114 9.07-.86 13.5z" fill="#FFC727"/>
        <path d="M60.406 262.786c-.26-.85-.7-1.719-1.651-1.13-1.822 1.14-2.542 8.304-2.842 10.282-1.25 8.183-3.192 16.037-5.163 24.04-.17.67-.33 1.35-.5 1.999l-.45.609a.34.34 0 0 0 .38.14l.06-.21c.2-.26.42-.54.61-.82a51.93 51.93 0 0 0 7.384-14.337 48.9 48.9 0 0 0 2.182-9.992c.35-3.177.93-7.514-.01-10.581zm-9.586 34.391c-.08.14-.19.26-.27.4.08-.28.17-.54.25-.82a146.955 146.955 0 0 0 4.563-18.594c.55-3.197.89-6.425 1.55-9.592.27-1.339.931-5.166 2.002-5.785 1.07-.62 1.09.87 1.21 1.728.07.62.07 1.739.08 2.328a51.276 51.276 0 0 1-9.385 30.335z" fill="#FFF"/>
        <path d="M51.56 320.518h-1.49l-.09-3.927c-.18-5.296-.4-10.581-.711-15.877-.18-2.997-.39-5.995-.71-8.992v-.31c0-.1-.07-.48-.09-.73-.02-.25-.07-.519-.1-.779a63.875 63.875 0 0 0-5.134-19.464c-.94-2.058-2-4.066-3.071-6.065l-.31-.569a1.189 1.189 0 0 0-.09-.15c-.1-.2-.22-.39-.33-.59l-.251-.44c-3.462-6.064-7.404-11.87-11.147-17.704a768.317 768.317 0 0 1-3.201-4.996 1.438 1.438 0 0 1-.19-.31 2.817 2.817 0 0 1-.24-.36c-4.713-7.423-9.346-14.897-14.229-22.171-.19-.27.26-.51.43-.24 3.302 4.826 6.724 9.572 10.116 14.348.45.63.89 1.279 1.351 1.908.9 1.26 1.781 2.518 2.672 3.777a427.562 427.562 0 0 1 5.223 7.614c4.802 7.194 9.835 14.448 13.738 22.202.29.58.57 1.169.85 1.758.18.37.35.73.51 1.1.16.369.39.848.58 1.278 3.313 7.594 4.493 15.407 5.004 23.47 0 .56.07 1.13.1 1.7v2.148c0 .479 0 .999.07 1.448.21 5.296.35 10.591.46 15.867.15 1.679.21 3.367.28 5.056z" fill="#FFC727"/>
        <path d="M7.014 224.618c-4.092-5.486-9.325-16.806-3.302-22.692a6.42 6.42 0 0 1 8.535-.629c3.182 2.298 4.603 6.644 5.634 10.241 2.761 9.592 4.592 19.374 8.004 28.786.06.06.29.8.38 1 .09.2-.24.28-.31.09-.07-.19-.23-.62-.35-.92-6.474-4.706-13.718-9.362-18.59-15.876z" fill="#FFC727"/>
        <path d="M25.975 240.394c0-.05-.06-.11-.1-.16a68.471 68.471 0 0 1-3.822-7.104 136.444 136.444 0 0 1-5.873-15.716c-.65-2.059-3.593-12.14-7.195-8.124-1.52 1.689-1.3 4.686-1.06 6.755a25.185 25.185 0 0 0 3.132 9.362c3.241 5.825 8.274 10.231 13.567 14.148l.72.55.151.25c.028.06.061.116.1.17 0 0 0 .06.09.07a.22.22 0 0 0 .31-.14.14.14 0 0 0-.02-.06zm-1.59-1.109c-4.263-3.367-8.436-6.994-11.507-11.52a28.51 28.51 0 0 1-3.743-7.634 22.264 22.264 0 0 1-.81-3.707 15.675 15.675 0 0 1-.16-2.827c.06-2.069.92-4.337 2.151-4.546 1.511-.28 2.001.609 3.002 2.348.336.587.637 1.195.9 1.818.67 1.559 1.181 3.177 1.691 4.776.85 2.668 1.711 5.316 2.672 7.993a80.67 80.67 0 0 0 2.101 5.286 70.584 70.584 0 0 0 4.473 8.693l-.77-.68z" fill="#FFF"/>
        <path d="M368.097 239.955c-.68 5.445-1.721 10.83-2.822 16.196-.62 2.998-1.28 6.075-1.891 9.133-.68 3.347-1.681 6.774-.77 10.161.018.156.018.314 0 .47v.06a.41.41 0 0 1-.711-.12l-.06-.23-.05-.07a13.239 13.239 0 0 1-1.17-2.817 70.144 70.144 0 0 1-2.712-7.864 67.525 67.525 0 0 1-2.642-16.776 56.875 56.875 0 0 1 1.58-15.107c1.002-3.997 2.352-9.842 5.294-12.87 2.682-2.727 4.903 1.649 5.673 3.867 1.771 5.026.94 10.821.28 15.967z" fill="#FFC727"/>
        <path d="M363.234 228.404c-2.002 0-3.422 6.405-4.133 9.173a54.601 54.601 0 0 0-1.69 13.349 71.15 71.15 0 0 0 4.112 23.7c.1.3.2.62.31.92 0 0 0 .05.05.08s0 .139.07.209a.4.4 0 0 0 .7.13c-.12-.67-.22-1.33-.3-1.999-.08-.669-.14-1.199-.18-1.788-.54-6.515.39-13.17 1.22-19.624.961-7.573 2.472-24.15-.16-24.15zm-1.421 45.043c.1.89.24 1.758.4 2.618-.2-.63-.4-1.26-.59-1.899a79.073 79.073 0 0 1-3.752-20.902c-.13-4.017.165-8.036.88-11.99a51.407 51.407 0 0 1 1.54-6.255c.281-.86 1.722-6.215 2.943-5.995.86.19 1.07 4.996 1.08 5.116v2.907c0 1.999-.17 3.997-.33 5.995-.38 4.307-1 8.603-1.52 12.9-.651 5.795-1.322 11.76-.651 17.515v-.01z" fill="#FFF"/>
        <path d="M399.385 254.982c-3.642 7.094-9.786 12.54-16.13 17.206-3.402 2.488-6.914 4.826-10.366 7.244-2.891 1.998-6.393 4.156-9.005 6.874-.11.12-.23.24-.34.37a15.318 15.318 0 0 0-1.861 2.558.2.2 0 0 1-.17.11c-.03.107-.07.21-.12.31a.07.07 0 0 1-.14 0v-.35c0-.11 0 0 0 0a.22.22 0 0 1 0-.27.6.6 0 0 1 .06-.11c0-.12 0-.24.05-.35 1-8.303 6.854-16.696 11.766-23.09 4.913-6.395 11.007-12.04 18.581-14.988 1.912-.74 6.244-2.758 8.185-1.209 1.851 1.389.27 4.187-.51 5.695z" fill="#FFC727"/>
        <path d="M393.752 255.012c-1.731-1.728-6.824 2.538-8.105 3.537a85.215 85.215 0 0 0-10.546 10.252c-5.384 5.995-10.196 12.19-13.468 19.464l-.18.23a2.385 2.385 0 0 0-.05.36.24.24 0 0 0-.06.109.22.22 0 0 0 0 .28l.25-.29c.64-.79 1.31-1.549 2-2.288.11-.13.231-.25.341-.37 4.753-5.116 10.376-9.422 15.78-13.908a78.415 78.415 0 0 0 10.496-10.192c.8-.959 5.002-5.735 3.542-7.184zm-1.591 3.807c-4.303 7.124-11.757 12.33-18.081 17.526a85.73 85.73 0 0 0-12.007 11.38c3.182-6.435 7.745-12.22 12.467-17.515a107.85 107.85 0 0 1 8.565-8.833 45.256 45.256 0 0 1 5.193-4.157c1.1-.763 2.28-1.4 3.522-1.898 2.412-.68 1.071 2.268.34 3.497z" fill="#FFF"/>
        <path d="M360.582 306.15a.47.47 0 0 1-.37.21l.09.13a.12.12 0 0 1 0 .17.12.12 0 0 1-.18 0c-6.734-6.845-13.238-15.168-16.59-24.24a37.533 37.533 0 0 1-2.451-11.94c-.07-2.798-.22-8.424 2.17-10.462 4.824-4.086 9.216 13.27 9.867 15.887 1.19 4.776 2 9.632 3.082 14.428 1.2 5.246 2.791 10.391 4.372 15.537a.38.38 0 0 1 .01.28z" fill="#FFC727"/>
        <path d="M360.582 306.14c-.27-.44-.52-.88-.76-1.34a80.471 80.471 0 0 1-8.675-23.32 75.55 75.55 0 0 0-3.202-12.14c-.39-.999-1.601-4.666-3.192-2.787-.82.999-.14 7.993.19 9.792a51.376 51.376 0 0 0 3.912 11.92 84.169 84.169 0 0 0 11.007 17.915c.12.17.25.33.38.48a.12.12 0 0 0 0-.17s-.06-.08-.09-.13a.44.44 0 0 0 .43-.22zm-9.776-14.918a58.723 58.723 0 0 1-4.632-11.57 42.412 42.412 0 0 1-1.001-4.866 25.344 25.344 0 0 1-.33-3.877c0-3.177.27-3.997.81-4.107.32-.06.78.28 1.721 2.169a20.963 20.963 0 0 1 1.351 3.856c.49 1.869.92 3.757 1.33 5.646.821 3.777 1.592 7.583 2.692 11.28a62.293 62.293 0 0 0 6.694 15.178 95.18 95.18 0 0 1-8.635-13.709z" fill="#FFF"/>
        <path d="M382.195 289.504a23.746 23.746 0 0 1-4.423 9.172c-4.002 5.525-9.115 10.102-13.478 15.317-.65.78-1.29 1.579-1.91 2.388-.06.09-.561 1.25-.561 1.15 0-.1.08-.46.23-1.2.7-3.657 3.002-14.688 5.863-20.323a48.95 48.95 0 0 1 6.384-9.992c1.24-1.398 4.153-4.426 6.344-3.766 2.351.719 1.891 5.495 1.55 7.254z" fill="#FFC727"/>
        <path d="M378.633 287.265c-2.342-1.448-8.375 9.313-9.186 10.702a68.96 68.96 0 0 0-6.884 16.416c-.19.64-.35 1.289-.51 1.948-.16.66-.23 1.17-.23 1.2 0 .03.5-1.05.57-1.15l.31-.42c.52-.669 1.051-1.328 1.581-1.998 2.622-3.917 5.323-7.793 7.865-11.78a63.918 63.918 0 0 0 4.873-8.943c.3-.669 2.641-5.335 1.61-5.975zm-.67 2.998c-3.323 9.362-10.117 16.736-15.31 25.05l-.25.409c.08-.24.14-.5.22-.74a77.322 77.322 0 0 1 5.474-13.638 74.396 74.396 0 0 1 4.622-7.704 37.68 37.68 0 0 1 2.892-3.997c.48-.53 1.861-1.928 2.321-1.688.7.32.25 1.728.03 2.398v-.09z" fill="#FFF"/>
        <path d="M405.699 212.228c-6.954 15.987-25.205 23.39-33.12 38.768a.2.2 0 0 1 0 .08c-.24.47-.47.949-.69 1.428a.31.31 0 0 1-.52.08.22.22 0 0 1 0-.26c.044-.12.098-.237.16-.35 1.23-9.591 5.173-19.463 9.765-27.926 4.003-7.354 9.466-14.238 17.01-18.105 1.861-1 5.514-2.997 7.605-1.399 2.091 1.599.65 5.716-.21 7.684z" fill="#FFC727"/>
        <path d="M399.435 212.917c-.88-.66-2.221.14-3.002.53a26.788 26.788 0 0 0-5.283 3.597 44.319 44.319 0 0 0-8.405 9.992 90.403 90.403 0 0 0-9.926 20.073c-.53 1.599-1 3.217-1.38 4.866-.05.2-.08.4-.14.6a.34.34 0 0 0 .54-.07c.2-.48.43-.93.65-1.39l.07-.13a53.791 53.791 0 0 1 4.953-9.092c3.052-4.436 6.834-8.343 10.416-12.34 1.441-1.548 14.569-14.398 11.507-16.636zm-1.11 3.687c-2.112 3.757-5.394 6.815-8.256 9.992-2.861 3.177-5.803 6.405-8.635 9.672a60.504 60.504 0 0 0-6.083 8.293 46.165 46.165 0 0 0-3.812 7.684 65.81 65.81 0 0 1 2.721-7.994.16.16 0 0 1 0-.09 119.296 119.296 0 0 1 6.844-13.409c.026-.055.056-.108.09-.16a54.596 54.596 0 0 1 7.695-10.73 31.167 31.167 0 0 1 5.473-4.647c2.291-1.478 4.293-2.438 4.863-1.708.33.51-.27 1.998-.9 3.097z" fill="#FFF"/>
        <path d="M381.404 230.932c-2.08 4.497-4.082 9.063-6.053 13.629-.94 2.145-1.865 4.29-2.772 6.435l-.07.13-1 2.318c-3.002 6.994-6.324 14.168-8.155 21.582a65.308 65.308 0 0 0-1.671 11.99c0 .42 0 .829-.06 1.249v1.069c-.13 3.497-.07 6.994 0 10.421.09 4.766.49 9.492.95 14.198-.01.14-.01.28 0 .42l.06.64v.33c0 .199 0 .409.05.609.16 1.518.29 2.997.42 4.556h-1.45a93.795 93.795 0 0 1-1.761-14.049 2.804 2.804 0 0 1 0-.29c0-.449-.07-.919-.08-1.378-.01-.46-.06-1.12-.08-1.689 0-1.369-.08-2.717-.11-4.056-.14-7.784-.05-15.897 1.67-23.52l.15-.64c.016-.089.04-.176.07-.26.024-.155.058-.309.1-.46l.19-.72c.11-.429.241-.858.361-1.268l.12-.38c2.001-6.664 5.163-13.119 8.005-19.374.53-1.149 1.06-2.288 1.6-3.427.31-.63.611-1.259.911-1.888l1.421-2.858a.16.16 0 0 1 0-.09c2.221-4.486 4.543-8.922 6.744-13.419.19-.19.54-.03.44.19z" fill="#FFC727"/>
        <g fill="#263238">
            <path d="m0 320.518 51-.24 51-.09 102-.17 102 .17 51 .09 51 .24-51 .25-51 .09-102 .16-102-.16-51-.09z"/>
        </g>
        <g transform="translate(34.467 54.004)">
            <path d="M254.583 112.452c-2.412-10.991-.31-21.722 5.933-30.125a34.824 34.824 0 0 1 25.745-13.839c21.513-1.688 42.886 14.518 47.628 36.16 2.412 10.991.31 21.722-5.933 30.125a34.824 34.824 0 0 1-25.705 13.859c-1 .08-2.071.12-3.112.12-20.432-.04-40.004-15.727-44.556-36.3zm32.529-32.703a23.633 23.633 0 0 0-17.5 9.312c-4.263 5.745-5.674 13.19-4.003 20.983 3.412 15.547 18.08 27.397 33.36 27.387.767 0 1.537-.03 2.311-.09a23.633 23.633 0 0 0 17.5-9.312c4.263-5.735 5.674-13.19 4.003-20.983-3.412-15.547-18.08-27.387-33.36-27.387-.747-.013-1.504.01-2.271.07l-.04.02z" fill="#FFC727"/>
            <path d="M254.583 112.452c-2.412-10.991-.31-21.722 5.933-30.125a34.824 34.824 0 0 1 25.745-13.839c21.513-1.688 42.886 14.518 47.628 36.16 2.412 10.991.31 21.722-5.933 30.125a34.824 34.824 0 0 1-25.705 13.859c-1 .08-2.071.12-3.112.12-20.432-.04-40.004-15.727-44.556-36.3zm32.529-32.703a23.633 23.633 0 0 0-17.5 9.312c-4.263 5.745-5.674 13.19-4.003 20.983 3.412 15.547 18.08 27.397 33.36 27.387.767 0 1.537-.03 2.311-.09a23.633 23.633 0 0 0 17.5-9.312c4.263-5.735 5.674-13.19 4.003-20.983-3.412-15.547-18.08-27.387-33.36-27.387-.747-.013-1.504.01-2.271.07l-.04.02z" fill="#000" opacity=".1"/>
            <path d="M257.745 86.763c1.86 2.818 5.253 4.916 9.575 6.175a23.104 23.104 0 0 1 19.832-13.22c.77-.059 1.54-.079 2.321-.079a33.053 33.053 0 0 1 17.33 5.146c3.433-2.748 5.814-5.845 6.795-8.993a43.883 43.883 0 0 0-27.347-7.304 34.814 34.814 0 0 0-25.665 13.819c-1.06 1.41-2.01 2.9-2.841 4.456z" fill="#000" opacity=".1"/>
            <path d="M321.822 83.945a48.953 48.953 0 0 1 7.285 11.071 44.358 44.358 0 0 1 4.062 12.83c.72 4.566.496 9.232-.66 13.708a33.196 33.196 0 0 1-6.384 12.27l-1.12 1.319-1.231 1.289a32.003 32.003 0 0 1-2.592 2.338 30.465 30.465 0 0 1-5.954 3.687 31.276 31.276 0 0 1-13.497 2.777 43.641 43.641 0 0 1-13.288-2.348 49.598 49.598 0 0 1-11.907-5.855 67.538 67.538 0 0 0 12.427 3.997 48.405 48.405 0 0 0 12.697 1.119 28.56 28.56 0 0 0 21.373-10.781 29.962 29.962 0 0 0 5.833-10.761 33.058 33.058 0 0 0 1.211-12.32 49.22 49.22 0 0 0-2.771-12.44 67.219 67.219 0 0 0-5.484-11.9z" fill="#FFF" opacity=".5"/>
            <ellipse fill="#FFC727" transform="rotate(-13.18 283.446 73.95)" cx="283.446" cy="73.949" rx="27.514" ry="11.631"/>
            <ellipse fill="#FFF" opacity=".3" transform="rotate(-13.18 289.62 70.37)" cx="289.62" cy="70.37" rx="13.857" ry="5.856"/>
            <path d="M76.898 280.052c-1 17.206-29.177 18.605-34.1 21.422-4.923 2.818-6.003 10.522-8.435 12.28a25.884 25.884 0 0 1-9.485 4.127C13.3 320.499.864 316.072 1.864 309.548c1.25-8.433 17.36-7.374 18.01-21.412.651-14.039 5.004-28.807 21.163-35.8 6.244-2.708 12.948-1.93 18.871.998 9.966 4.906 17.66 15.987 16.99 26.718z" fill="#37474F"/>
            <path d="M34.453 269.82c-4.472 13.54 3.422 20.744 0 27.278-3.422 6.535-32.309 16.386-9.585 20.783-11.577 2.618-24.014-1.809-23.014-8.333 1.25-8.433 17.36-7.374 18.01-21.412.651-14.039 5.014-28.807 21.173-35.8 6.244-2.708 12.948-1.93 18.871.998 0 0-20.522 1.59-25.455 16.487z" fill="#263238"/>
            <path d="M328.406 317.75c-6.944 1.81-16.6 1.08-23.704-3.996-2.461-1.758-3.522-9.482-8.435-12.28-4.913-2.797-33.02-4.216-34.1-21.422-.83-13.429 11.297-27.227 24.635-29.165a20.539 20.539 0 0 1 11.226 1.448c16.16 6.994 20.382 21.762 21.083 35.81.7 14.049 16.82 12.99 18.07 21.413.56 3.727-3.252 6.724-8.775 8.193z" fill="#37474F"/>
            <path d="M328.406 317.75c-6.944 1.81-16.6 1.08-23.704-3.996-2.461-1.758-3.522-9.482-8.435-12.28-4.913-2.797-33.02-4.216-34.1-21.422-.83-13.429 11.297-27.227 24.635-29.165-1.441 2.418-18.1 17.325-4.893 30.874 8.515 8.733 21.122 8.443 24.474 15.507 3.352 7.064 6.834 19.504 22.023 20.483z" fill="#263238"/>
            <path d="M331.848 175.09c0 65.605-41.024 104.103-91.954 121.479-22.403 7.653-46.727 11.22-70.341 11.22-77.386 0-162.316-38.258-162.316-132.7a160.952 160.952 0 0 1 6.354-46.051 139.348 139.348 0 0 1 6.854-18.415 165.98 165.98 0 0 1 20.382-33.142c5.083-6.605 9.496-11.82 12.167-16.067l.47-.77c3.803-6.464 2.192-18.254 2.192-18.254a533.88 533.88 0 0 0 25.505 6.165C150.34 63.492 216.12 62.493 283.41 42.4c0 0-1.611 11.79 2.191 18.255l.47.77c2.672 4.246 7.094 9.471 12.177 16.086a165.292 165.292 0 0 1 20.372 33.082 139.887 139.887 0 0 1 6.875 18.485 161.132 161.132 0 0 1 6.353 46.012z" fill="#263238"/>
            <path d="M283.45 93.208a93.187 93.187 0 0 1 8.665 11.32 138.84 138.84 0 0 1 7.274 12.3 149.235 149.235 0 0 1 10.857 26.658 130.884 130.884 0 0 1 5.263 28.856c.331 4.99.331 9.997 0 14.987 0 1.26-.19 2.508-.33 3.767-.14 1.26-.23 2.508-.43 3.757l-.601 3.757c-.08.61-.23 1.259-.38 1.918l-.43 1.949c-.531 2.628-1.431 5.136-2.212 7.673-1 2.458-1.881 4.996-3.082 7.294-1.2 2.298-2.441 4.636-3.742 6.895-1.3 2.258-2.782 4.376-4.383 6.384a88.557 88.557 0 0 1-10.095 11.36c-1.792 1.76-3.693 3.368-5.574 4.997-1.88 1.628-3.872 3.087-5.873 4.506a126.856 126.856 0 0 1-25.355 14.138 129.198 129.198 0 0 1-13.508 4.786 89.953 89.953 0 0 1-13.948 3.008c7.834-5.346 15.349-10.701 22.513-16.327a215.103 215.103 0 0 0 20.122-17.635 127.839 127.839 0 0 0 8.715-9.572c1.4-1.609 2.621-3.327 3.912-4.996 1.291-1.669 2.442-3.397 3.512-5.156a291.656 291.656 0 0 0 3.132-5.275 39.887 39.887 0 0 0 2.622-5.436c.73-1.858 1.47-3.697 2.181-5.535.53-1.899 1.22-3.747 1.57-5.675l.341-1.43c.129-.487.232-.98.31-1.478l.53-3.097c.19-1 .29-2.079.44-3.118.15-1.039.281-2.088.371-3.137.49-4.197.62-8.473.72-12.76a194.565 194.565 0 0 0-1.65-26.128c-1.101-8.813-2.772-17.665-4.713-26.578-1.941-8.912-4.223-17.835-6.744-26.977z" fill="#FFF" opacity=".1"/>
            <path d="M259.586 79.31a59.116 59.116 0 0 1 4.362 5.395c1.361 1.868 2.632 3.797 3.853 5.745a118.577 118.577 0 0 1 6.563 12.16 128.488 128.488 0 0 1 8.936 26.198c.5 2.258.91 4.546 1.33 6.834.42 2.288.7 4.587.901 6.905a98.35 98.35 0 0 1 .48 13.988 74.397 74.397 0 0 1-5.673 27.127c-.3-4.646-.41-9.122-.8-13.578-.39-4.457-.761-8.833-1.381-13.2-.12-1.088-.27-2.177-.45-3.257-.18-1.079-.29-2.168-.47-3.257-.391-2.158-.671-4.326-1.102-6.474a271.622 271.622 0 0 0-2.601-12.88c-1.891-8.563-4.132-17.076-6.524-25.638l-7.424-26.069z" fill="#FFF" opacity=".1"/>
            <path d="M35.124 38.014c-.64 16.346 6.093 45.062 138.631 42.165 132.538-2.898 129.967-37.74 130.217-44.274.25-6.534-14.849-36.36-132.968-35.9C50.193.445 35.454 29.86 35.124 38.014z" fill="#37474F"/>
            <path d="M56.366 29.46a16.11 16.11 0 0 0 4.593 5.826 37.413 37.413 0 0 0 6.103 4.246 71.357 71.357 0 0 0 13.729 5.756 126.372 126.372 0 0 0 14.498 3.587c4.893.999 9.836 1.698 14.799 2.298 9.926 1.129 19.922 1.848 29.927 2.098 10.006.25 20.012.36 30.078.06 10.066-.3 20.062-.6 30.068-1.299 10.006-.7 20.012-1.679 29.877-3.087 9.9-1.358 19.674-3.51 29.228-6.435a76.024 76.024 0 0 0 13.728-5.775 36.022 36.022 0 0 0 6.103-4.247c1.811-1.658 3.622-3.537 4.343-5.995-.48 2.508-2.121 4.626-3.812 6.505a36.43 36.43 0 0 1-5.904 4.886 72.722 72.722 0 0 1-13.628 6.904 165.423 165.423 0 0 1-29.417 7.993c-20.012 3.677-40.254 4.996-60.476 5.566-20.222.57-40.564-.18-60.666-3.288a149.962 149.962 0 0 1-29.567-7.453 69.489 69.489 0 0 1-13.648-6.915 37.26 37.26 0 0 1-5.893-4.876 16.473 16.473 0 0 1-4.063-6.354z" fill="#263238"/>
            <path d="M35.724 159.033c-1 0-2.071-.05-3.112-.13a34.854 34.854 0 0 1-25.705-13.848C.663 136.652-1.438 125.95.974 114.93 5.716 93.288 27.089 77.07 48.602 78.77a34.814 34.814 0 0 1 25.705 13.848c6.243 8.403 8.345 19.104 5.933 30.125-4.512 20.593-24.084 36.29-44.516 36.29zM45.4 89.95c-15.28 0-29.948 11.85-33.36 27.398-1.71 7.783-.3 15.227 4.002 20.982a23.694 23.694 0 0 0 17.5 9.312c.768.06 1.538.09 2.312.09 15.28 0 29.948-11.85 33.36-27.397 1.71-7.783.3-15.227-4.003-20.982a23.694 23.694 0 0 0-17.5-9.313c-.767-.06-1.537-.09-2.311-.09z" fill="#FFC727"/>
            <path d="M35.724 159.033c-1 0-2.071-.05-3.112-.13a34.854 34.854 0 0 1-25.705-13.848C.663 136.652-1.438 125.95.974 114.93 5.716 93.288 27.089 77.07 48.602 78.77a34.814 34.814 0 0 1 25.705 13.848c6.243 8.403 8.345 19.104 5.933 30.125-4.512 20.593-24.084 36.29-44.516 36.29zM45.4 89.95c-15.28 0-29.948 11.85-33.36 27.398-1.71 7.783-.3 15.227 4.002 20.982a23.694 23.694 0 0 0 17.5 9.312c.768.06 1.538.09 2.312.09 15.28 0 29.948-11.85 33.36-27.397 1.71-7.783.3-15.227-4.003-20.982a23.694 23.694 0 0 0-17.5-9.313c-.767-.06-1.537-.09-2.311-.09z" fill="#000" opacity=".1"/>
            <path d="M77.118 97.084c-1.86 2.818-5.253 4.916-9.575 6.165A23.164 23.164 0 0 0 47.71 90.04c-.77-.06-1.54-.08-2.321-.08a33.053 33.053 0 0 0-17.33 5.136c-3.432-2.748-5.814-5.835-6.794-8.992 8.049-5.408 17.665-8 27.346-7.374a34.814 34.814 0 0 1 25.695 13.848 33.744 33.744 0 0 1 2.811 4.506z" fill="#000" opacity=".1"/>
            <path d="M15.822 101.041a57.571 57.571 0 0 0-4.472 9.992 41.515 41.515 0 0 0-2.232 10.441 26.083 26.083 0 0 0 5.934 19.214 23.925 23.925 0 0 0 17.76 8.993 40.85 40.85 0 0 0 10.637-.85 59.027 59.027 0 0 0 10.506-3.187 40.686 40.686 0 0 1-10.006 5.076 36.548 36.548 0 0 1-11.227 2.078 26.498 26.498 0 0 1-11.496-2.318 26.022 26.022 0 0 1-5.063-3.057 27.763 27.763 0 0 1-2.212-1.999l-1-1.049-1-1.129a27.2 27.2 0 0 1-5.924-22.102 36.932 36.932 0 0 1 3.512-10.83 40.104 40.104 0 0 1 6.283-9.273z" fill="#FFF" opacity=".5"/>
            <ellipse fill="#FFC727" transform="rotate(-76.82 51.405 84.224)" cx="51.405" cy="84.224" rx="11.631" ry="27.514"/>
            <path d="M58.638 84.135c-1.171 3.048-8.105 3.997-15.51 1.999-7.404-1.999-12.447-5.945-11.276-8.993 1.17-3.047 8.105-3.997 15.499-1.998 7.394 1.998 12.447 5.955 11.287 8.992z" fill="#FFF" opacity=".3"/>
            <path d="m237.263 44.169.83 6.114c.54 3.997 10.826 5.925 23.014 4.287 12.187-1.639 21.552-6.225 21.012-10.232l-.83-6.115c.15 1.09-.44 2.229-1.621 3.338a23.084 23.084 0 0 1-7.695 4.156 62.78 62.78 0 0 1-23.704 3.198 22.94 22.94 0 0 1-8.495-1.999 3.999 3.999 0 0 1-2.511-2.747z" fill="#FFC727"/>
            <path d="m237.263 44.169.83 6.114c.54 3.997 10.826 5.925 23.014 4.287 12.187-1.639 21.552-6.225 21.012-10.232l-.83-6.115c.15 1.09-.44 2.229-1.621 3.338a23.084 23.084 0 0 1-7.695 4.156 62.78 62.78 0 0 1-23.704 3.198 22.94 22.94 0 0 1-8.495-1.999 3.999 3.999 0 0 1-2.511-2.747z" fill="#000" opacity=".1"/>
            <path d="M237.263 44.159a4.068 4.068 0 0 0 2.451 2.787 23.04 23.04 0 0 0 8.505 1.999 62.259 62.259 0 0 0 23.704-3.198 23.083 23.083 0 0 0 7.675-4.236 3.995 3.995 0 0 0 1.62-3.328c-.54-3.996-10.826-5.925-23.013-4.286-11.827 1.599-21.062 5.995-21.013 9.912.05.14.06.25.07.35z" fill="#FFC727"/>
            <path d="M242.055 42.64a3.159 3.159 0 0 0 1.912 2.158c2.081.93 4.324 1.45 6.603 1.529 6.24.37 12.494-.475 18.411-2.488a17.708 17.708 0 0 0 6.004-3.228 3.146 3.146 0 0 0 1.27-2.587c-.42-3.108-8.414-4.597-17.85-3.328-9.185 1.24-16.35 4.657-16.32 7.694a1.996 1.996 0 0 0-.03.25z" fill="#FFF" opacity=".3"/>
            <path d="m60.469 35.726-.07 6.174c0 3.997 9.855 7.424 22.103 7.554 12.247.13 22.233-2.997 22.273-7.074l.07-6.175a4.087 4.087 0 0 1-2.102 3.068 23.034 23.034 0 0 1-8.204 2.997 62.263 62.263 0 0 1-23.914-.26 23.033 23.033 0 0 1-8.135-3.177c-1.311-.95-2.021-2.008-2.021-3.107z" fill="#FFC727"/>
            <path d="m60.469 35.726-.07 6.174c0 3.997 9.855 7.424 22.103 7.554 12.247.13 22.233-2.997 22.273-7.074l.07-6.175a4.087 4.087 0 0 1-2.102 3.068 23.034 23.034 0 0 1-8.204 2.997 62.263 62.263 0 0 1-23.914-.26 23.033 23.033 0 0 1-8.135-3.177c-1.311-.95-2.021-2.008-2.021-3.107z" fill="#000" opacity=".1"/>
            <path d="M60.469 35.716c0 1.099.71 2.158 2 3.107A23.033 23.033 0 0 0 70.606 42a62.263 62.263 0 0 0 23.914.26 22.894 22.894 0 0 0 8.204-2.997 4.067 4.067 0 0 0 2.102-3.068c0-3.997-9.856-7.424-22.113-7.554-11.937-.13-21.713 2.888-22.243 6.765v.31z" fill="#FFC727"/>
            <path d="M65.472 34.906a3.157 3.157 0 0 0 1.57 2.418 17.936 17.936 0 0 0 6.314 2.458c3.049.654 6.157.989 9.276 1a46.18 46.18 0 0 0 9.305-.79 18.127 18.127 0 0 0 6.374-2.328 3.147 3.147 0 0 0 1.62-2.388c0-3.127-7.644-5.765-17.17-5.865-9.275-.1-16.86 2.238-17.27 5.255-.011.08-.018.16-.02.24z" fill="#FFF" opacity=".3"/>
            <path d="m217.711 32.398-.07 6.175c0 3.997 9.856 7.424 22.103 7.554 12.247.13 22.233-2.998 22.273-7.074l.07-6.175a3.997 3.997 0 0 1-2.101 3.067 22.894 22.894 0 0 1-8.205 2.998 62.263 62.263 0 0 1-23.914-.26 23.033 23.033 0 0 1-8.135-3.177 3.996 3.996 0 0 1-2.02-3.108z" fill="#FFC727"/>
            <path d="m217.711 32.398-.07 6.175c0 3.997 9.856 7.424 22.103 7.554 12.247.13 22.233-2.998 22.273-7.074l.07-6.175a3.997 3.997 0 0 1-2.101 3.067 22.894 22.894 0 0 1-8.205 2.998 62.263 62.263 0 0 1-23.914-.26 23.033 23.033 0 0 1-8.135-3.177 3.996 3.996 0 0 1-2.02-3.108z" fill="#000" opacity=".1"/>
            <path d="M217.711 32.388c.126 1.3.87 2.46 2.001 3.118a23.033 23.033 0 0 0 8.135 3.167 58.795 58.795 0 0 0 11.947 1.289c4.026.084 8.05-.251 12.007-1a22.704 22.704 0 0 0 8.205-2.997c1.33-.919 2.091-1.998 2.101-3.057 0-3.997-9.856-7.434-22.113-7.564-11.937-.13-21.713 2.888-22.243 6.765-.03.08-.04.18-.04.28z" fill="#FFC727"/>
            <path d="M222.674 31.579a3.147 3.147 0 0 0 1.571 2.418 18.115 18.115 0 0 0 6.324 2.518 48.446 48.446 0 0 0 18.58.2 18.127 18.127 0 0 0 6.374-2.328 3.147 3.147 0 0 0 1.621-2.378c0-3.138-7.644-5.776-17.17-5.875-9.275-.1-16.86 2.238-17.27 5.255a1.936 1.936 0 0 0-.03.19z" fill="#FFF" opacity=".3"/>
            <path d="m214.059 51.073-1.17 6.065c-.771 3.996 8.364 9.062 20.391 11.39 12.027 2.328 22.413 1 23.184-2.997l1.17-6.055a4.05 4.05 0 0 1-2.61 2.638 23.043 23.043 0 0 1-8.616 1.478 62.264 62.264 0 0 1-23.484-4.536 22.899 22.899 0 0 1-7.424-4.586 4.054 4.054 0 0 1-1.441-3.397z" fill="#FFC727"/>
            <path d="m214.059 51.073-1.17 6.065c-.771 3.996 8.364 9.062 20.391 11.39 12.027 2.328 22.413 1 23.184-2.997l1.17-6.055a4.05 4.05 0 0 1-2.61 2.638 23.043 23.043 0 0 1-8.616 1.478 62.264 62.264 0 0 1-23.484-4.536 22.899 22.899 0 0 1-7.424-4.586 4.054 4.054 0 0 1-1.441-3.397z" fill="#000" opacity=".1"/>
            <path d="M214.069 51.063a3.994 3.994 0 0 0 1.43 3.427 23.019 23.019 0 0 0 7.425 4.576 59.338 59.338 0 0 0 11.527 3.427 57.914 57.914 0 0 0 11.957 1.13c2.94.066 5.866-.436 8.615-1.48a4.05 4.05 0 0 0 2.612-2.637c.77-3.997-8.365-9.073-20.402-11.39-11.717-2.269-21.873-1.05-23.084 2.667-.03.08-.06.18-.08.28z" fill="#FFC727"/>
            <path d="M219.092 51.153a3.125 3.125 0 0 0 1.12 2.657 17.554 17.554 0 0 0 5.764 3.558 48.419 48.419 0 0 0 18.24 3.527c2.285.05 4.558-.34 6.695-1.15a3.13 3.13 0 0 0 2-2.048c.601-3.077-6.493-6.994-15.838-8.852-9.106-1.759-17.01-.81-17.931 2.078-.01.08-.03.16-.05.23z" fill="#FFF" opacity=".3"/>
            <path d="m77.409 51.502 1 6.095c.67 3.997 11.007 5.596 23.084 3.597 12.077-1.998 21.362-6.864 20.702-10.84l-1-6.096a3.994 3.994 0 0 1-1.532 3.388 22.921 22.921 0 0 1-7.554 4.376 59.252 59.252 0 0 1-11.607 3.097 60.009 60.009 0 0 1-12.007.81 22.942 22.942 0 0 1-8.555-1.719 3.999 3.999 0 0 1-2.531-2.708z" fill="#FFC727"/>
            <path d="m77.409 51.502 1 6.095c.67 3.997 11.007 5.596 23.084 3.597 12.077-1.998 21.362-6.864 20.702-10.84l-1-6.096a3.994 3.994 0 0 1-1.532 3.388 22.921 22.921 0 0 1-7.554 4.376 59.252 59.252 0 0 1-11.607 3.097 60.009 60.009 0 0 1-12.007.81 22.942 22.942 0 0 1-8.555-1.719 3.999 3.999 0 0 1-2.531-2.708z" fill="#000" opacity=".1"/>
            <path d="M77.409 51.502a4.069 4.069 0 0 0 2.541 2.708 22.962 22.962 0 0 0 8.555 1.709 62.236 62.236 0 0 0 23.604-3.907 22.751 22.751 0 0 0 7.554-4.376 3.994 3.994 0 0 0 1.531-3.378c-.66-3.996-11.006-5.605-23.093-3.597-11.777 1.999-20.873 6.615-20.712 10.532 0 .09.01.19.02.31z" fill="#FFC727"/>
            <path d="M82.161 49.824a3.15 3.15 0 0 0 2.002 2.108 17.903 17.903 0 0 0 6.643 1.329 48.3 48.3 0 0 0 18.331-2.998 17.907 17.907 0 0 0 5.874-3.397 3.145 3.145 0 0 0 1.18-2.628c-.51-3.087-8.545-4.346-17.93-2.787-9.156 1.509-16.21 5.135-16.09 8.173-.006.066-.01.133-.01.2z" fill="#FFF" opacity=".3"/>
            <path d="m172.154 30.52-.07 6.175c0 3.996 9.856 7.424 22.103 7.553 12.247.13 22.233-2.997 22.273-7.074l.07-6.175a4.057 4.057 0 0 1-2.09 3.068 23.034 23.034 0 0 1-8.216 2.997 62.263 62.263 0 0 1-23.914-.26 23.033 23.033 0 0 1-8.134-3.177 4.056 4.056 0 0 1-2.022-3.107z" fill="#FFC727"/>
            <path d="m172.154 30.52-.07 6.175c0 3.996 9.856 7.424 22.103 7.553 12.247.13 22.233-2.997 22.273-7.074l.07-6.175a4.057 4.057 0 0 1-2.09 3.068 23.034 23.034 0 0 1-8.216 2.997 62.263 62.263 0 0 1-23.914-.26 23.033 23.033 0 0 1-8.134-3.177 4.056 4.056 0 0 1-2.022-3.107z" fill="#000" opacity=".1"/>
            <path d="M172.154 30.52a4.086 4.086 0 0 0 2.001 3.117 23.033 23.033 0 0 0 8.135 3.168c7.88 1.627 16 1.72 23.914.27a23.034 23.034 0 0 0 8.215-2.998c1.321-.92 2.081-1.998 2.091-3.058 0-3.996-9.855-7.423-22.113-7.563-11.937-.13-21.712 2.887-22.233 6.764-.012.1-.015.2-.01.3z" fill="#FFC727"/>
            <path d="M177.117 29.74a3.147 3.147 0 0 0 1.571 2.419 18.116 18.116 0 0 0 6.314 2.467 48.446 48.446 0 0 0 18.58.2 18.027 18.027 0 0 0 6.375-2.308 3.157 3.157 0 0 0 1.6-2.398c0-3.137-7.654-5.775-17.18-5.875-9.235-.1-16.84 2.278-17.24 5.276-.01.073-.017.146-.02.22z" fill="#FFF" opacity=".3"/>
            <path d="m80.48 25.004-.07 6.175c0 3.997 9.856 7.424 22.103 7.564 12.248.14 22.233-2.997 22.273-7.084l.07-6.165a3.997 3.997 0 0 1-2.09 3.058 23.034 23.034 0 0 1-8.206 2.997 62.313 62.313 0 0 1-23.924-.26 22.883 22.883 0 0 1-8.124-3.177 3.996 3.996 0 0 1-2.032-3.108z" fill="#FFC727"/>
            <path d="m80.48 25.004-.07 6.175c0 3.997 9.856 7.424 22.103 7.564 12.248.14 22.233-2.997 22.273-7.084l.07-6.165a3.997 3.997 0 0 1-2.09 3.058 23.034 23.034 0 0 1-8.206 2.997 62.313 62.313 0 0 1-23.924-.26 22.883 22.883 0 0 1-8.124-3.177 3.996 3.996 0 0 1-2.032-3.108z" fill="#000" opacity=".1"/>
            <path d="M80.48 25.004c.12 1.3.866 2.46 2.002 3.108a22.883 22.883 0 0 0 8.124 3.177 62.844 62.844 0 0 0 23.894.23 23.235 23.235 0 0 0 8.205-2.997c1.331-.93 2.081-1.999 2.091-3.068 0-3.997-9.855-7.424-22.113-7.564-11.937-.13-21.702 2.888-22.233 6.765-.002.117.009.234.03.35z" fill="#FFC727"/>
            <path d="M85.393 24.185a3.137 3.137 0 0 0 1.581 2.418 17.956 17.956 0 0 0 6.314 2.468c3.05.645 6.158.98 9.275 1a45.32 45.32 0 0 0 9.296-.8 17.786 17.786 0 0 0 6.374-2.328 3.157 3.157 0 0 0 1.63-2.378c0-3.138-7.654-5.765-17.18-5.875-9.265-.1-16.86 2.248-17.27 5.255-.011.08-.018.16-.02.24z" fill="#FFF" opacity=".3"/>
            <path d="m190.135 28.961-.07 6.175c0 3.997 9.856 7.424 22.103 7.554 12.247.13 22.233-2.998 22.273-7.074l.07-6.175c0 1.099-.77 2.138-2.091 3.067a23.215 23.215 0 0 1-8.215 2.998 62.794 62.794 0 0 1-23.914-.26 23.033 23.033 0 0 1-8.135-3.177 4.056 4.056 0 0 1-2.021-3.108z" fill="#FFC727"/>
            <path d="m190.135 28.961-.07 6.175c0 3.997 9.856 7.424 22.103 7.554 12.247.13 22.233-2.998 22.273-7.074l.07-6.175c0 1.099-.77 2.138-2.091 3.067a23.215 23.215 0 0 1-8.215 2.998 62.794 62.794 0 0 1-23.914-.26 23.033 23.033 0 0 1-8.135-3.177 4.056 4.056 0 0 1-2.021-3.108z" fill="#000" opacity=".1"/>
            <path d="M190.135 28.951a4.056 4.056 0 0 0 2.001 3.108 23.033 23.033 0 0 0 8.135 3.177 62.263 62.263 0 0 0 23.914.26 23.034 23.034 0 0 0 8.215-2.998 4.057 4.057 0 0 0 2.091-3.067c0-3.997-9.856-7.424-22.113-7.554-11.937-.13-21.713 2.888-22.243 6.764.01.1 0 .21 0 .31z" fill="#FFC727"/>
            <path d="M195.098 28.142a3.127 3.127 0 0 0 1.57 2.408 17.735 17.735 0 0 0 6.314 2.468c3.052.654 6.164.989 9.286.999a46.15 46.15 0 0 0 9.295-.79 17.776 17.776 0 0 0 6.374-2.337 3.087 3.087 0 0 0 1.631-2.368c0-3.128-7.644-5.766-17.17-5.866-9.265-.1-16.86 2.239-17.27 5.256a1.936 1.936 0 0 0-.03.23z" fill="#FFF" opacity=".3"/>
            <path d="m205.944 15.342-1.21 6.055c-.791 3.997 8.304 9.123 20.311 11.52 12.007 2.399 22.414 1.13 23.204-2.827l1.21-6.055a4 4 0 0 1-2.62 2.618 23.043 23.043 0 0 1-8.626 1.429 62.373 62.373 0 0 1-23.454-4.686 22.768 22.768 0 0 1-7.394-4.626 3.994 3.994 0 0 1-1.42-3.428z" fill="#FFC727"/>
            <path d="m205.944 15.342-1.21 6.055c-.791 3.997 8.304 9.123 20.311 11.52 12.007 2.399 22.414 1.13 23.204-2.827l1.21-6.055a4 4 0 0 1-2.62 2.618 23.043 23.043 0 0 1-8.626 1.429 62.373 62.373 0 0 1-23.454-4.686 22.768 22.768 0 0 1-7.394-4.626 3.994 3.994 0 0 1-1.42-3.428z" fill="#000" opacity=".1"/>
            <path d="M205.944 15.333a4.074 4.074 0 0 0 1.421 3.437c2.146 2 4.656 3.57 7.394 4.626a58.877 58.877 0 0 0 11.497 3.467 58.394 58.394 0 0 0 11.957 1.209c2.94.082 5.867-.4 8.625-1.419a4 4 0 0 0 2.622-2.628c.8-3.996-8.305-9.122-20.322-11.52-11.707-2.338-21.863-1.18-23.104 2.528-.039.097-.069.197-.09.3z" fill="#FFC727"/>
            <path d="M210.977 15.462a3.125 3.125 0 0 0 1.1 2.658 17.774 17.774 0 0 0 5.744 3.597 48.578 48.578 0 0 0 18.22 3.637c2.282.057 4.554-.319 6.695-1.109a3.13 3.13 0 0 0 2.001-1.998c.61-3.078-6.454-7.084-15.79-8.993-9.095-1.808-17.01-.919-17.95 1.999-.01.07-.017.14-.02.21z" fill="#FFF" opacity=".3"/>
            <path d="m169.253 12.395-.07 6.175c-.05 3.996 9.855 7.424 22.103 7.564 12.247.14 22.223-2.998 22.273-7.085l.07-6.174a4.067 4.067 0 0 1-2.102 3.067 22.964 22.964 0 0 1-8.204 2.998 62.313 62.313 0 0 1-23.924-.26 22.963 22.963 0 0 1-8.125-3.178c-1.311-.969-2.041-1.968-2.021-3.107z" fill="#FFC727"/>
            <path d="m169.253 12.395-.07 6.175c-.05 3.996 9.855 7.424 22.103 7.564 12.247.14 22.223-2.998 22.273-7.085l.07-6.174a4.067 4.067 0 0 1-2.102 3.067 22.964 22.964 0 0 1-8.204 2.998 62.313 62.313 0 0 1-23.924-.26 22.963 22.963 0 0 1-8.125-3.178c-1.311-.969-2.041-1.968-2.021-3.107z" fill="#000" opacity=".1"/>
            <path d="M169.253 12.395c.118 1.3.866 2.46 2 3.107a23.153 23.153 0 0 0 8.126 3.178 59.636 59.636 0 0 0 11.947 1.279c4.026.077 8.049-.257 12.007-1a22.954 22.954 0 0 0 8.204-2.997 4.057 4.057 0 0 0 2.102-3.057c0-3.997-9.856-7.424-22.123-7.564-11.937-.13-21.703 2.887-22.233 6.764-.02.08-.03.18-.03.29z" fill="#FFC727"/>
            <path d="M174.216 11.536a3.117 3.117 0 0 0 1.57 2.418 18.116 18.116 0 0 0 6.314 2.468 48.436 48.436 0 0 0 18.581.2 17.937 17.937 0 0 0 6.374-2.329 3.147 3.147 0 0 0 1.62-2.378c0-3.137-7.654-5.765-17.17-5.875-9.275-.1-16.86 2.238-17.27 5.256-.011.08-.018.16-.02.24z" fill="#FFF" opacity=".3"/>
            <path d="m148.52 19.739-.07 6.175c0 3.996 9.856 7.424 22.103 7.563 12.248.14 22.233-2.997 22.273-7.084l.07-6.175a3.997 3.997 0 0 1-2.09 3.068 23.034 23.034 0 0 1-8.206 2.997 62.313 62.313 0 0 1-23.924-.26 22.883 22.883 0 0 1-8.124-3.177 3.996 3.996 0 0 1-2.032-3.107z" fill="#FFC727"/>
            <path d="m148.52 19.739-.07 6.175c0 3.996 9.856 7.424 22.103 7.563 12.248.14 22.233-2.997 22.273-7.084l.07-6.175a3.997 3.997 0 0 1-2.09 3.068 23.034 23.034 0 0 1-8.206 2.997 62.313 62.313 0 0 1-23.924-.26 22.883 22.883 0 0 1-8.124-3.177 3.996 3.996 0 0 1-2.032-3.107z" fill="#000" opacity=".1"/>
            <path d="M148.52 19.739c.12 1.3.866 2.46 2.002 3.107a22.883 22.883 0 0 0 8.124 3.178 62.844 62.844 0 0 0 23.924.26 23.235 23.235 0 0 0 8.205-2.998c1.331-.93 2.081-1.998 2.092-3.068.05-3.996-9.856-7.423-22.114-7.563-11.947-.12-21.712 2.877-22.233 6.764-.01.106-.01.213 0 .32z" fill="#FFC727"/>
            <path d="M153.443 18.92a3.137 3.137 0 0 0 1.581 2.418 17.956 17.956 0 0 0 6.314 2.467c3.05.645 6.158.98 9.275 1a45.32 45.32 0 0 0 9.296-.8 17.786 17.786 0 0 0 6.374-2.328 3.157 3.157 0 0 0 1.63-2.378c0-3.137-7.654-5.765-17.18-5.875-9.265-.1-16.86 2.248-17.27 5.256-.011.08-.018.16-.02.24z" fill="#FFF" opacity=".3"/>
            <path d="m113.83 22.706-.07 6.175c0 3.997 9.856 7.434 22.103 7.564 12.247.13 22.233-3.048 22.273-7.074l.07-6.175c0 1.099-.77 2.138-2.101 3.057a22.704 22.704 0 0 1-8.205 2.998 58.114 58.114 0 0 1-12.007 1 58.795 58.795 0 0 1-11.947-1.29 23.033 23.033 0 0 1-8.135-3.167 4.056 4.056 0 0 1-1.981-3.088z" fill="#FFC727"/>
            <path d="m113.83 22.706-.07 6.175c0 3.997 9.856 7.434 22.103 7.564 12.247.13 22.233-3.048 22.273-7.074l.07-6.175c0 1.099-.77 2.138-2.101 3.057a22.704 22.704 0 0 1-8.205 2.998 58.114 58.114 0 0 1-12.007 1 58.795 58.795 0 0 1-11.947-1.29 23.033 23.033 0 0 1-8.135-3.167 4.056 4.056 0 0 1-1.981-3.088z" fill="#000" opacity=".1"/>
            <path d="M113.83 22.706c.119 1.3.866 2.46 2.001 3.108a23.033 23.033 0 0 0 8.135 3.177 58.795 58.795 0 0 0 11.947 1.29 59.547 59.547 0 0 0 12.007-1 22.894 22.894 0 0 0 8.205-2.998 3.997 3.997 0 0 0 2.101-3.067c0-3.997-9.856-7.424-22.113-7.554-11.937-.13-21.713 2.878-22.243 6.765a2.993 2.993 0 0 0-.04.28z" fill="#FFC727"/>
            <path d="M118.793 21.897a3.147 3.147 0 0 0 1.57 2.408 17.735 17.735 0 0 0 6.315 2.468 48.446 48.446 0 0 0 18.58.2 17.676 17.676 0 0 0 6.374-2.328 3.127 3.127 0 0 0 1.621-2.378c0-3.138-7.644-5.765-17.17-5.865-9.275-.11-16.86 2.238-17.27 5.245a2.105 2.105 0 0 0-.02.25z" fill="#FFF" opacity=".3"/>
            <path d="m92.978 18.81-.07 6.164c0 3.997 9.855 7.434 22.103 7.564 12.247.13 22.233-2.997 22.273-7.074l.07-6.175a3.997 3.997 0 0 1-2.091 3.058 23.034 23.034 0 0 1-8.215 2.997 62.524 62.524 0 0 1-23.914-.27 22.903 22.903 0 0 1-8.125-3.167 4.056 4.056 0 0 1-2.031-3.097z" fill="#FFC727"/>
            <path d="m92.978 18.81-.07 6.164c0 3.997 9.855 7.434 22.103 7.564 12.247.13 22.233-2.997 22.273-7.074l.07-6.175a3.997 3.997 0 0 1-2.091 3.058 23.034 23.034 0 0 1-8.215 2.997 62.524 62.524 0 0 1-23.914-.27 22.903 22.903 0 0 1-8.125-3.167 4.056 4.056 0 0 1-2.031-3.097z" fill="#000" opacity=".1"/>
            <path d="M92.978 18.8c.119 1.3.866 2.46 2 3.107a22.883 22.883 0 0 0 8.126 3.177 58.795 58.795 0 0 0 11.947 1.29c4.026.074 8.049-.261 12.007-1a23.034 23.034 0 0 0 8.215-2.997 3.997 3.997 0 0 0 2.09-3.068c0-3.996-9.855-7.424-22.112-7.554-11.937-.13-21.703 2.878-22.233 6.765a1.626 1.626 0 0 0-.04.28z" fill="#FFC727"/>
            <path d="M97.94 17.99a3.137 3.137 0 0 0 1.582 2.408 17.575 17.575 0 0 0 6.313 2.468 48.396 48.396 0 0 0 18.571.2 17.596 17.596 0 0 0 6.374-2.328 3.127 3.127 0 0 0 1.63-2.378c0-3.127-7.654-5.765-17.18-5.865-9.265-.11-16.86 2.238-17.27 5.245a2.285 2.285 0 0 0-.02.25z" fill="#FFF" opacity=".3"/>
            <path d="m135.983 31.519-.07 6.175c0 3.997 9.856 7.424 22.103 7.554 12.247.13 22.233-2.998 22.273-7.075l.07-6.174a3.997 3.997 0 0 1-2.091 3.067 23.034 23.034 0 0 1-8.215 2.998 62.263 62.263 0 0 1-23.914-.26 22.883 22.883 0 0 1-8.125-3.178 3.996 3.996 0 0 1-2.031-3.107z" fill="#FFC727"/>
            <path d="m135.983 31.519-.07 6.175c0 3.997 9.856 7.424 22.103 7.554 12.247.13 22.233-2.998 22.273-7.075l.07-6.174a3.997 3.997 0 0 1-2.091 3.067 23.034 23.034 0 0 1-8.215 2.998 62.263 62.263 0 0 1-23.914-.26 22.883 22.883 0 0 1-8.125-3.178 3.996 3.996 0 0 1-2.031-3.107z" fill="#000" opacity=".1"/>
            <path d="M135.983 31.519c0 1.1.72 2.158 2.001 3.117a22.903 22.903 0 0 0 8.125 3.168 58.795 58.795 0 0 0 11.947 1.289c4.026.084 8.05-.25 12.007-1a22.834 22.834 0 0 0 8.215-2.997 3.997 3.997 0 0 0 2.091-3.057c0-3.997-9.856-7.424-22.113-7.564-11.937-.13-21.713 2.887-22.233 6.764a1.706 1.706 0 0 0-.04.28z" fill="#FFC727"/>
            <path d="M140.946 30.66a3.147 3.147 0 0 0 1.57 2.418 18.116 18.116 0 0 0 6.315 2.468 48.446 48.446 0 0 0 18.58.2 18.027 18.027 0 0 0 6.374-2.329 3.157 3.157 0 0 0 1.631-2.378c0-3.137-7.654-5.775-17.18-5.875-9.265-.1-16.86 2.238-17.27 5.256-.012.08-.018.16-.02.24z" fill="#FFF" opacity=".3"/>
            <path d="m124.676 12.295-.07 6.175c0 3.997 9.856 7.434 22.103 7.564 12.248.13 22.233-3.048 22.273-7.075l.07-6.174c0 1.099-.77 2.138-2.09 3.057a22.834 22.834 0 0 1-8.216 2.998 58.114 58.114 0 0 1-12.007.999 58.795 58.795 0 0 1-11.947-1.29 23.033 23.033 0 0 1-8.134-3.167 4.086 4.086 0 0 1-1.982-3.087z" fill="#FFC727"/>
            <path d="m124.676 12.295-.07 6.175c0 3.997 9.856 7.434 22.103 7.564 12.248.13 22.233-3.048 22.273-7.075l.07-6.174c0 1.099-.77 2.138-2.09 3.057a22.834 22.834 0 0 1-8.216 2.998 58.114 58.114 0 0 1-12.007.999 58.795 58.795 0 0 1-11.947-1.29 23.033 23.033 0 0 1-8.134-3.167 4.086 4.086 0 0 1-1.982-3.087z" fill="#000" opacity=".1"/>
            <path d="M124.676 12.295a4.056 4.056 0 0 0 2.002 3.107 23.033 23.033 0 0 0 8.134 3.178 62.263 62.263 0 0 0 23.914.26 23.215 23.215 0 0 0 8.215-2.998 3.997 3.997 0 0 0 2.091-3.067c0-3.997-9.855-7.424-22.113-7.554-11.937-.13-21.712 2.878-22.233 6.764a1.555 1.555 0 0 0-.01.31z" fill="#FFC727"/>
            <path d="M129.64 11.536a3.147 3.147 0 0 0 1.57 2.408 17.735 17.735 0 0 0 6.314 2.468 48.446 48.446 0 0 0 18.58.2 17.596 17.596 0 0 0 6.425-2.379 3.147 3.147 0 0 0 1.63-2.378c0-3.137-7.654-5.765-17.18-5.875-9.265-.1-16.86 2.248-17.27 5.256a1.996 1.996 0 0 0-.07.3z" fill="#FFF" opacity=".3"/>
            <path d="m154.964 39.512-.07 6.175c0 3.997 9.856 7.424 22.103 7.564 12.247.14 22.233-2.998 22.273-7.084l.07-6.165a3.997 3.997 0 0 1-2.09 3.057 22.834 22.834 0 0 1-8.216 2.998 62.263 62.263 0 0 1-23.914-.26 22.883 22.883 0 0 1-8.125-3.177 3.996 3.996 0 0 1-2.03-3.108z" fill="#FFC727"/>
            <path d="m154.964 39.512-.07 6.175c0 3.997 9.856 7.424 22.103 7.564 12.247.14 22.233-2.998 22.273-7.084l.07-6.165a3.997 3.997 0 0 1-2.09 3.057 22.834 22.834 0 0 1-8.216 2.998 62.263 62.263 0 0 1-23.914-.26 22.883 22.883 0 0 1-8.125-3.177 3.996 3.996 0 0 1-2.03-3.108z" fill="#000" opacity=".1"/>
            <path d="M154.964 39.512c.119 1.3.866 2.46 2.001 3.108a22.883 22.883 0 0 0 8.125 3.177c7.881 1.618 16 1.706 23.914.26a23.215 23.215 0 0 0 8.215-2.998c1.33-.929 2.081-1.998 2.091-3.067 0-3.997-9.856-7.424-22.113-7.564-11.937-.13-21.712 2.888-22.233 6.765-.01.106-.01.213 0 .32z" fill="#FFC727"/>
            <path d="M159.927 38.703a3.137 3.137 0 0 0 1.581 2.418 17.595 17.595 0 0 0 6.304 2.468 46.45 46.45 0 0 0 9.285 1 45.32 45.32 0 0 0 9.296-.8 17.786 17.786 0 0 0 6.373-2.328 3.157 3.157 0 0 0 1.631-2.378c0-3.138-7.654-5.765-17.18-5.875-9.265-.1-16.86 2.248-17.27 5.255-.012.08-.018.16-.02.24z" fill="#FFF" opacity=".3"/>
            <path d="m124.676 49.384-.07 6.175c0 3.997 9.856 7.424 22.103 7.554 12.248.13 22.233-2.998 22.273-7.074l.07-6.175a4.057 4.057 0 0 1-2.09 3.067 23.034 23.034 0 0 1-8.216 2.998 59.547 59.547 0 0 1-12.007.999 58.795 58.795 0 0 1-11.947-1.289 23.033 23.033 0 0 1-8.134-3.177 4.056 4.056 0 0 1-1.982-3.078z" fill="#FFC727"/>
            <path d="m124.676 49.384-.07 6.175c0 3.997 9.856 7.424 22.103 7.554 12.248.13 22.233-2.998 22.273-7.074l.07-6.175a4.057 4.057 0 0 1-2.09 3.067 23.034 23.034 0 0 1-8.216 2.998 59.547 59.547 0 0 1-12.007.999 58.795 58.795 0 0 1-11.947-1.289 23.033 23.033 0 0 1-8.134-3.177 4.056 4.056 0 0 1-1.982-3.078z" fill="#000" opacity=".1"/>
            <path d="M124.676 49.374a4.086 4.086 0 0 0 2.002 3.118 23.033 23.033 0 0 0 8.134 3.167 58.795 58.795 0 0 0 11.947 1.289c4.027.084 8.05-.25 12.007-1a22.834 22.834 0 0 0 8.215-2.997 3.997 3.997 0 0 0 2.092-3.057c0-3.997-9.856-7.434-22.114-7.564-11.937-.13-21.712 2.888-22.233 6.764a1.706 1.706 0 0 0-.05.28z" fill="#FFC727"/>
            <path d="M129.64 48.565a3.157 3.157 0 0 0 1.57 2.418 18.115 18.115 0 0 0 6.304 2.518 48.446 48.446 0 0 0 18.58.2 18.027 18.027 0 0 0 6.375-2.328 3.157 3.157 0 0 0 1.63-2.379c0-3.137-7.654-5.775-17.18-5.875-9.265-.1-16.86 2.239-17.27 5.256-.006.063-.01.126-.01.19z" fill="#FFF" opacity=".3"/>
            <path d="m147.09 66.49 2 5.825c1.332 3.807 11.798 3.637 23.354-.41 11.557-4.046 19.872-10.41 18.531-14.228l-2-5.825a4.062 4.062 0 0 1-.921 3.597 23.066 23.066 0 0 1-6.694 5.605 62.505 62.505 0 0 1-22.584 7.894 22.975 22.975 0 0 1-8.725-.23c-1.53-.49-2.601-1.229-2.961-2.228z" fill="#FFC727"/>
            <path d="m147.09 66.49 2 5.825c1.332 3.807 11.798 3.637 23.354-.41 11.557-4.046 19.872-10.41 18.531-14.228l-2-5.825a4.062 4.062 0 0 1-.921 3.597 23.066 23.066 0 0 1-6.694 5.605 62.505 62.505 0 0 1-22.584 7.894 22.975 22.975 0 0 1-8.725-.23c-1.53-.49-2.601-1.229-2.961-2.228z" fill="#000" opacity=".1"/>
            <path d="M147.08 66.49a4.062 4.062 0 0 0 3.001 2.238c2.868.628 5.83.703 8.725.22a59.034 59.034 0 0 0 11.667-2.848 59.745 59.745 0 0 0 10.907-4.996 23.006 23.006 0 0 0 6.704-5.615 4.052 4.052 0 0 0 .92-3.587c-1.33-3.817-11.797-3.637-23.374.41-11.266 3.936-19.42 10.091-18.6 13.918 0 .01.02.11.05.26z" fill="#FFC727"/>
            <path d="M151.522 63.992a3.191 3.191 0 0 0 2.312 1.739c2.226.486 4.525.544 6.774.17a48.554 48.554 0 0 0 17.53-6.125 17.904 17.904 0 0 0 5.203-4.357c.68-.76.948-1.803.72-2.798-1-2.997-9.165-2.817-18.15.32-8.756 3.058-15.09 7.844-14.449 10.811l.06.24z" fill="#FFF" opacity=".3"/>
            <path d="m191.866 44.638-.07 6.175c0 3.997 9.856 7.424 22.103 7.554 12.247.13 22.233-2.998 22.273-7.074l.07-6.175c0 1.099-.76 2.138-2.091 3.067a23.215 23.215 0 0 1-8.215 2.998 62.794 62.794 0 0 1-23.914-.26 22.883 22.883 0 0 1-8.125-3.177 3.996 3.996 0 0 1-2.031-3.108z" fill="#FFC727"/>
            <path d="m191.866 44.638-.07 6.175c0 3.997 9.856 7.424 22.103 7.554 12.247.13 22.233-2.998 22.273-7.074l.07-6.175c0 1.099-.76 2.138-2.091 3.067a23.215 23.215 0 0 1-8.215 2.998 62.794 62.794 0 0 1-23.914-.26 22.883 22.883 0 0 1-8.125-3.177 3.996 3.996 0 0 1-2.031-3.108z" fill="#000" opacity=".1"/>
            <path d="M191.866 44.628c.119 1.3.866 2.46 2.001 3.108a22.883 22.883 0 0 0 8.125 3.177 62.263 62.263 0 0 0 23.914.26 23.034 23.034 0 0 0 8.215-2.998 3.997 3.997 0 0 0 2.091-3.067c0-3.997-9.856-7.424-22.113-7.554-11.937-.13-21.713 2.888-22.233 6.764-.01.103-.01.207 0 .31z" fill="#FFC727"/>
            <path d="M196.829 43.819a3.147 3.147 0 0 0 1.58 2.418 17.795 17.795 0 0 0 6.304 2.458c3.053.654 6.164.989 9.286.999a46.09 46.09 0 0 0 9.295-.79 18.027 18.027 0 0 0 6.374-2.327 3.157 3.157 0 0 0 1.631-2.389c0-3.127-7.654-5.765-17.18-5.865-9.265-.1-16.86 2.239-17.27 5.256-.012.08-.018.16-.02.24z" fill="#FFF" opacity=".3"/>
            <path d="M255.023 76.681 249.6 79.68c-3.542 1.938-1.651 12.21 4.242 22.98 5.894 10.772 13.548 17.786 17.09 15.848l5.424-2.998a4.067 4.067 0 0 1-3.703-.33 23.005 23.005 0 0 1-6.643-5.665 59.706 59.706 0 0 1-6.764-9.922 58.967 58.967 0 0 1-4.733-10.99 22.721 22.721 0 0 1-1.211-8.633c.18-1.609.75-2.768 1.721-3.288z" fill="#FFC727"/>
            <path d="M255.023 76.681 249.6 79.68c-3.542 1.938-1.651 12.21 4.242 22.98 5.894 10.772 13.548 17.786 17.09 15.848l5.424-2.998a4.067 4.067 0 0 1-3.703-.33 23.005 23.005 0 0 1-6.643-5.665 59.706 59.706 0 0 1-6.764-9.922 58.967 58.967 0 0 1-4.733-10.99 22.721 22.721 0 0 1-1.211-8.633c.18-1.609.75-2.768 1.721-3.288z" fill="#000" opacity=".1"/>
            <path d="M255.023 76.671a4.065 4.065 0 0 0-1.721 3.288 22.95 22.95 0 0 0 1.22 8.633 62.112 62.112 0 0 0 11.498 20.982 22.885 22.885 0 0 0 6.643 5.675 4.007 4.007 0 0 0 3.703.32c3.542-1.938 1.64-12.21-4.253-22.98-5.733-10.452-13.158-17.476-16.8-16.037l-.29.12z" fill="#FFC727"/>
            <path d="M258.165 80.598a3.116 3.116 0 0 0-1.33 2.558 17.592 17.592 0 0 0 .94 6.695 48.28 48.28 0 0 0 8.935 16.266 17.564 17.564 0 0 0 5.153 4.406c.86.545 1.93.638 2.872.25 2.751-1.509 1.28-9.482-3.292-17.825-4.463-8.113-10.226-13.569-13.058-12.45l-.22.1z" fill="#FFF" opacity=".3"/>
            <path d="m110.258 39.263-.07 6.174c-.05 3.997 9.856 7.434 22.103 7.564 12.247.13 22.233-3.047 22.233-7.074l.07-6.175a4.057 4.057 0 0 1-2.101 3.058 22.704 22.704 0 0 1-8.205 2.997 62.253 62.253 0 0 1-23.914-.26 22.963 22.963 0 0 1-8.135-3.167c-1.27-.96-2.001-2.018-1.981-3.117z" fill="#FFC727"/>
            <path d="m110.258 39.263-.07 6.174c-.05 3.997 9.856 7.434 22.103 7.564 12.247.13 22.233-3.047 22.233-7.074l.07-6.175a4.057 4.057 0 0 1-2.101 3.058 22.704 22.704 0 0 1-8.205 2.997 62.253 62.253 0 0 1-23.914-.26 22.963 22.963 0 0 1-8.135-3.167c-1.27-.96-2.001-2.018-1.981-3.117z" fill="#000" opacity=".1"/>
            <path d="M110.258 39.263c0 1.099.71 2.158 2.001 3.107a22.953 22.953 0 0 0 8.135 3.177 58.795 58.795 0 0 0 11.947 1.29 59.607 59.607 0 0 0 12.007-1 22.894 22.894 0 0 0 8.205-2.997 4.067 4.067 0 0 0 2.101-3.068c0-3.997-9.856-7.424-22.123-7.554-11.927-.13-21.703 2.878-22.233 6.765a2.994 2.994 0 0 0-.04.28z" fill="#FFC727"/>
            <path d="M115.22 38.453c.1 1.01.687 1.909 1.572 2.408a17.735 17.735 0 0 0 6.313 2.468 48.436 48.436 0 0 0 18.581.2 17.746 17.746 0 0 0 6.374-2.328 3.127 3.127 0 0 0 1.621-2.378c0-3.137-7.654-5.765-17.17-5.865-9.275-.11-16.86 2.238-17.27 5.245a1.996 1.996 0 0 0-.02.25z" fill="#FFF" opacity=".3"/>
            <path d="m89.536 35.726-.07 6.174c0 3.997 9.855 7.424 22.103 7.554 12.247.13 22.233-2.997 22.273-7.074l.07-6.175c0 1.1-.77 2.138-2.101 3.068a23.034 23.034 0 0 1-8.205 2.997 62.263 62.263 0 0 1-23.914-.26 23.033 23.033 0 0 1-8.135-3.177 4.056 4.056 0 0 1-2.021-3.107z" fill="#FFC727"/>
            <path d="m89.536 35.726-.07 6.174c0 3.997 9.855 7.424 22.103 7.554 12.247.13 22.233-2.997 22.273-7.074l.07-6.175c0 1.1-.77 2.138-2.101 3.068a23.034 23.034 0 0 1-8.205 2.997 62.263 62.263 0 0 1-23.914-.26 23.033 23.033 0 0 1-8.135-3.177 4.056 4.056 0 0 1-2.021-3.107z" fill="#000" opacity=".1"/>
            <path d="M89.536 35.716a4.056 4.056 0 0 0 2 3.107A23.033 23.033 0 0 0 99.673 42a62.263 62.263 0 0 0 23.914.26 22.894 22.894 0 0 0 8.205-2.997 3.997 3.997 0 0 0 2.1-3.068c0-3.997-9.855-7.424-22.112-7.554-11.937-.13-21.713 2.888-22.243 6.765.01.11 0 .21 0 .31z" fill="#FFC727"/>
            <path d="M94.489 34.906a3.157 3.157 0 0 0 1.57 2.418 17.936 17.936 0 0 0 6.314 2.458c3.052.655 6.164.99 9.286 1a46.15 46.15 0 0 0 9.295-.79 18.027 18.027 0 0 0 6.374-2.328 3.117 3.117 0 0 0 1.62-2.388c0-3.127-7.644-5.765-17.17-5.865-9.265-.1-16.86 2.238-17.27 5.255-.011.08-.018.16-.02.24z" fill="#FFF" opacity=".3"/>
        </g>
        <g>
            <path d="m294.563 382.486-.07 6.165c-.05 3.997 9.856 7.434 22.103 7.564 12.247.13 22.223-2.998 22.273-7.074l.07-6.175a4.087 4.087 0 0 1-2.1 3.067 23.034 23.034 0 0 1-8.206 2.998 62.784 62.784 0 0 1-23.914-.26 22.953 22.953 0 0 1-8.135-3.177c-1.31-.95-2.04-2.009-2.02-3.108z" fill="#FFC727"/>
            <path d="m294.563 382.486-.07 6.165c-.05 3.997 9.856 7.434 22.103 7.564 12.247.13 22.223-2.998 22.273-7.074l.07-6.175a4.087 4.087 0 0 1-2.1 3.067 23.034 23.034 0 0 1-8.206 2.998 62.784 62.784 0 0 1-23.914-.26 22.953 22.953 0 0 1-8.135-3.177c-1.31-.95-2.04-2.009-2.02-3.108z" fill="#000" opacity=".1"/>
            <path d="M294.563 382.476c0 1.1.71 2.158 2.001 3.108a22.953 22.953 0 0 0 8.135 3.177 62.263 62.263 0 0 0 23.914.26 22.894 22.894 0 0 0 8.205-2.998 4.067 4.067 0 0 0 2.101-3.067c0-3.997-9.855-7.424-22.123-7.554-11.927-.13-21.702 2.888-22.233 6.764.01.11 0 .21 0 .31z" fill="#FFC727"/>
            <path d="M299.526 381.667c.09 1.003.66 1.9 1.531 2.408a17.735 17.735 0 0 0 6.314 2.468c3.048.654 6.157.989 9.275.999a45.43 45.43 0 0 0 9.306-.8 17.746 17.746 0 0 0 6.373-2.327 3.117 3.117 0 0 0 1.621-2.378c0-3.128-7.654-5.766-17.17-5.866-9.275-.1-16.86 2.239-17.27 5.256.002.08.009.16.02.24z" fill="#FFF" opacity=".3"/>
            <path d="m356.56 368.658-.07 6.175c0 3.996 9.855 7.423 22.103 7.563 12.247.14 22.233-3.047 22.273-7.074l.07-6.175a3.997 3.997 0 0 1-2.091 3.058 22.854 22.854 0 0 1-8.205 2.997 62.313 62.313 0 0 1-23.924-.26 22.903 22.903 0 0 1-8.125-3.167c-1.31-.96-2.041-2.018-2.031-3.117z" fill="#FFC727"/>
            <path d="m356.56 368.658-.07 6.175c0 3.996 9.855 7.423 22.103 7.563 12.247.14 22.233-3.047 22.273-7.074l.07-6.175a3.997 3.997 0 0 1-2.091 3.058 22.854 22.854 0 0 1-8.205 2.997 62.313 62.313 0 0 1-23.924-.26 22.903 22.903 0 0 1-8.125-3.167c-1.31-.96-2.041-2.018-2.031-3.117z" fill="#000" opacity=".1"/>
            <path d="M356.56 368.658c.119 1.3.866 2.46 2 3.107a22.883 22.883 0 0 0 8.126 3.177 62.313 62.313 0 0 0 23.924.26 23.235 23.235 0 0 0 8.205-2.997 3.997 3.997 0 0 0 2.091-3.068c.05-3.996-9.856-7.424-22.113-7.553-11.937-.13-21.703 2.877-22.233 6.764-.01.103-.01.207 0 .31z" fill="#FFC727"/>
            <path d="M361.523 367.848c.093 1.02.68 1.93 1.57 2.438a17.575 17.575 0 0 0 6.314 2.468 48.396 48.396 0 0 0 18.571.2 17.596 17.596 0 0 0 6.374-2.328 3.147 3.147 0 0 0 1.63-2.378c0-3.137-7.654-5.765-17.18-5.875-9.265-.1-16.86 2.248-17.27 5.256-.007.073-.01.146-.01.22z" fill="#FFF" opacity=".3"/>
            <path d="m251.868 390.05-.07 6.175c0 3.996 9.856 7.424 22.103 7.563 12.247.14 22.233-2.997 22.273-7.084l.07-6.174a3.997 3.997 0 0 1-2.091 3.067 23.034 23.034 0 0 1-8.215 2.997 62.263 62.263 0 0 1-23.914-.26 22.883 22.883 0 0 1-8.125-3.177 3.996 3.996 0 0 1-2.03-3.107z" fill="#FFC727"/>
            <path d="m251.868 390.05-.07 6.175c0 3.996 9.856 7.424 22.103 7.563 12.247.14 22.233-2.997 22.273-7.084l.07-6.174a3.997 3.997 0 0 1-2.091 3.067 23.034 23.034 0 0 1-8.215 2.997 62.263 62.263 0 0 1-23.914-.26 22.883 22.883 0 0 1-8.125-3.177 3.996 3.996 0 0 1-2.03-3.107z" fill="#000" opacity=".1"/>
            <path d="M251.868 390.05a4.056 4.056 0 0 0 2.001 3.107 23.033 23.033 0 0 0 8.125 3.178 59.556 59.556 0 0 0 11.947 1.279c4.026.079 8.05-.256 12.007-1a23.215 23.215 0 0 0 8.215-2.997c1.33-.93 2.081-1.998 2.091-3.068 0-3.996-9.856-7.423-22.113-7.563-11.937-.13-21.713 2.887-22.233 6.764a1.726 1.726 0 0 0-.04.3z" fill="#FFC727"/>
            <path d="M256.831 389.27a3.137 3.137 0 0 0 1.581 2.419 18.026 18.026 0 0 0 6.304 2.467 48.446 48.446 0 0 0 18.58.2 17.786 17.786 0 0 0 6.374-2.328 3.157 3.157 0 0 0 1.631-2.378c0-3.137-7.654-5.765-17.18-5.875-9.265-.1-16.86 2.248-17.27 5.256-.012.08-.018.16-.02.24z" fill="#FFF" opacity=".3"/>
            <path d="m94.366 391.788-.06 6.175c-.05 3.997 9.855 7.424 22.102 7.564 12.248.14 22.224-2.997 22.274-7.084l.06-6.165a3.997 3.997 0 0 1-2.092 3.058 22.774 22.774 0 0 1-8.204 2.997 62.313 62.313 0 0 1-23.925-.26 22.963 22.963 0 0 1-8.124-3.177 3.996 3.996 0 0 1-2.031-3.108z" fill="#FFC727"/>
            <path d="m94.366 391.788-.06 6.175c-.05 3.997 9.855 7.424 22.102 7.564 12.248.14 22.224-2.997 22.274-7.084l.06-6.165a3.997 3.997 0 0 1-2.092 3.058 22.774 22.774 0 0 1-8.204 2.997 62.313 62.313 0 0 1-23.925-.26 22.963 22.963 0 0 1-8.124-3.177 3.996 3.996 0 0 1-2.031-3.108z" fill="#000" opacity=".1"/>
            <path d="M94.366 391.788c.118 1.3.865 2.46 2 3.108a22.963 22.963 0 0 0 8.125 3.177 62.844 62.844 0 0 0 23.925.26c2.9-.47 5.685-1.487 8.204-2.997 1.331-.93 2.082-1.999 2.092-3.068.05-3.997-9.846-7.424-22.113-7.564-11.937-.13-21.703 2.888-22.233 6.765v.32z" fill="#FFC727"/>
            <path d="M99.338 390.97a3.117 3.117 0 0 0 1.571 2.417 17.575 17.575 0 0 0 6.314 2.468 46.35 46.35 0 0 0 9.276 1 45.26 45.26 0 0 0 9.295-.8 17.927 17.927 0 0 0 6.384-2.328 3.147 3.147 0 0 0 1.62-2.378c0-3.138-7.654-5.765-17.17-5.875-9.275-.1-16.86 2.248-17.27 5.255-.011.08-.018.16-.02.24z" fill="#FFF" opacity=".3"/>
            <path d="m216.007 375.102-.07 6.175c-.05 3.997 9.856 7.424 22.103 7.554 12.247.13 22.223-2.998 22.273-7.074l.07-6.175a4.087 4.087 0 0 1-2.101 3.067 23.154 23.154 0 0 1-8.205 2.998 62.313 62.313 0 0 1-23.924-.26 22.963 22.963 0 0 1-8.125-3.177c-1.32-.93-2.02-2.009-2.02-3.108z" fill="#FFC727"/>
            <path d="m216.007 375.102-.07 6.175c-.05 3.997 9.856 7.424 22.103 7.554 12.247.13 22.223-2.998 22.273-7.074l.07-6.175a4.087 4.087 0 0 1-2.101 3.067 23.154 23.154 0 0 1-8.205 2.998 62.313 62.313 0 0 1-23.924-.26 22.963 22.963 0 0 1-8.125-3.177c-1.32-.93-2.02-2.009-2.02-3.108z" fill="#000" opacity=".1"/>
            <path d="M216.007 375.092c0 1.1.71 2.159 2.001 3.108a22.963 22.963 0 0 0 8.125 3.177 62.313 62.313 0 0 0 23.924.26 22.964 22.964 0 0 0 8.205-2.998 4.067 4.067 0 0 0 2.101-3.057c0-3.997-9.856-7.434-22.123-7.564-11.927-.13-21.703 2.888-22.233 6.765v.31z" fill="#FFC727"/>
            <path d="M221.01 374.283a3.137 3.137 0 0 0 1.57 2.418 17.936 17.936 0 0 0 6.315 2.458c3.048.654 6.157.989 9.275 1a46.18 46.18 0 0 0 9.306-.79 18.127 18.127 0 0 0 6.373-2.328 3.147 3.147 0 0 0 1.621-2.388c0-3.128-7.654-5.765-17.17-5.865-9.275-.1-16.86 2.238-17.27 5.255-.012.08-.018.16-.02.24z" fill="#FFF" opacity=".3"/>
            <path d="m111.556 362.363-.06 6.175c-.05 3.996 9.845 7.424 22.103 7.564 12.257.14 22.223-3.048 22.273-7.085l.06-6.164a3.997 3.997 0 0 1-2.092 3.057 22.774 22.774 0 0 1-8.204 2.998 62.313 62.313 0 0 1-23.924-.26 22.963 22.963 0 0 1-8.125-3.178 3.996 3.996 0 0 1-2.031-3.107z" fill="#FFC727"/>
            <path d="m111.556 362.363-.06 6.175c-.05 3.996 9.845 7.424 22.103 7.564 12.257.14 22.223-3.048 22.273-7.085l.06-6.164a3.997 3.997 0 0 1-2.092 3.057 22.774 22.774 0 0 1-8.204 2.998 62.313 62.313 0 0 1-23.924-.26 22.963 22.963 0 0 1-8.125-3.178 3.996 3.996 0 0 1-2.031-3.107z" fill="#000" opacity=".1"/>
            <path d="M111.556 362.363c.118 1.3.866 2.46 2 3.107a22.963 22.963 0 0 0 8.126 3.178 62.844 62.844 0 0 0 23.924.26c2.9-.47 5.685-1.488 8.204-2.998 1.331-.93 2.082-1.998 2.092-3.067 0-3.997-9.846-7.424-22.113-7.564-11.937-.13-21.703 2.887-22.233 6.764.02.11 0 .25 0 .32z" fill="#FFC727"/>
            <path d="M116.529 361.544a3.117 3.117 0 0 0 1.57 2.418 17.575 17.575 0 0 0 6.314 2.468 46.35 46.35 0 0 0 9.276.999 45.26 45.26 0 0 0 9.295-.8 17.786 17.786 0 0 0 6.374-2.328 3.137 3.137 0 0 0 1.63-2.378c0-3.137-7.654-5.765-17.17-5.875-9.275-.1-16.86 2.248-17.27 5.256-.011.08-.018.16-.02.24z" fill="#FFF" opacity=".3"/>
            <path d="m257.742 368.808 1.62 5.995c1.061 3.896 11.507 4.466 23.334 1.249 11.827-3.218 20.552-8.993 19.492-12.88l-1.621-5.995a4.053 4.053 0 0 1-1.18 3.517 23.092 23.092 0 0 1-7.075 5.126 62.486 62.486 0 0 1-23.084 6.265 23.045 23.045 0 0 1-8.685-.84 4.05 4.05 0 0 1-2.801-2.437z" fill="#FFC727"/>
            <path d="m257.742 368.808 1.62 5.995c1.061 3.896 11.507 4.466 23.334 1.249 11.827-3.218 20.552-8.993 19.492-12.88l-1.621-5.995a4.053 4.053 0 0 1-1.18 3.517 23.092 23.092 0 0 1-7.075 5.126 62.486 62.486 0 0 1-23.084 6.265 23.045 23.045 0 0 1-8.685-.84 4.05 4.05 0 0 1-2.801-2.437z" fill="#000" opacity=".1"/>
            <path d="M257.742 368.808a4.05 4.05 0 0 0 2.791 2.478 23.045 23.045 0 0 0 8.695.839 62.245 62.245 0 0 0 23.084-6.275 23.212 23.212 0 0 0 7.074-5.116c1-1.259 1.461-2.468 1.17-3.527-1.06-3.887-11.506-4.456-23.333-1.239-11.517 3.128-20.102 8.693-19.541 12.57.012.091.032.181.06.27z" fill="#FFC727"/>
            <path d="M262.294 366.67a3.15 3.15 0 0 0 2.172 1.898c2.19.64 4.481.86 6.754.65a48.332 48.332 0 0 0 17.92-4.877 17.73 17.73 0 0 0 5.493-3.996 3.135 3.135 0 0 0 .92-2.728c-.83-2.998-8.944-3.467-18.13-1-8.945 2.429-15.609 6.755-15.179 9.763.01.097.027.194.05.29z" fill="#FFF" opacity=".3"/>
            <path d="m342.201 343.639-2.131 5.795c-1.4 3.787 6.784 10.291 18.28 14.518 11.498 4.226 21.964 4.576 23.365.789l2.13-5.795a4.002 4.002 0 0 1-3.001 2.188c-2.88.58-5.845.608-8.735.08a62.723 62.723 0 0 1-22.453-8.253 23.004 23.004 0 0 1-6.584-5.715c-.92-1.34-1.25-2.578-.87-3.607z" fill="#FFC727"/>
            <path d="m342.201 343.639-2.131 5.795c-1.4 3.787 6.784 10.291 18.28 14.518 11.498 4.226 21.964 4.576 23.365.789l2.13-5.795a4.002 4.002 0 0 1-3.001 2.188c-2.88.58-5.845.608-8.735.08a62.723 62.723 0 0 1-22.453-8.253 23.004 23.004 0 0 1-6.584-5.715c-.92-1.34-1.25-2.578-.87-3.607z" fill="#000" opacity=".1"/>
            <path d="M342.201 343.629a3.993 3.993 0 0 0 .87 3.607 22.614 22.614 0 0 0 6.595 5.715 62.092 62.092 0 0 0 22.433 8.253c2.89.533 5.855.506 8.735-.08a4.002 4.002 0 0 0 3.002-2.178c1.4-3.787-6.784-10.302-18.291-14.528-11.207-4.117-21.423-4.546-23.224-1.07-.046.091-.086.185-.12.28z" fill="#FFC727"/>
            <path d="M347.154 344.528c-.248.986.002 2.03.67 2.797a17.803 17.803 0 0 0 5.124 4.447 46.056 46.056 0 0 0 8.405 3.996 45.328 45.328 0 0 0 9.005 2.358c2.244.417 4.548.397 6.784-.06a3.121 3.121 0 0 0 2.331-1.698c1.09-2.938-5.273-7.993-14.208-11.28-8.695-3.198-16.63-3.528-18.01-.83a1.467 1.467 0 0 0-.1.27z" fill="#FFF" opacity=".3"/>
            <path d="m227.894 359.925-.06 6.175c-.05 3.997 9.846 7.424 22.103 7.564 12.257.14 22.223-3.048 22.273-7.085l.06-6.174a3.997 3.997 0 0 1-2.091 3.067 22.964 22.964 0 0 1-8.205 2.998 62.313 62.313 0 0 1-23.924-.26 22.963 22.963 0 0 1-8.125-3.178 3.996 3.996 0 0 1-2.03-3.107z" fill="#FFC727"/>
            <path d="m227.894 359.925-.06 6.175c-.05 3.997 9.846 7.424 22.103 7.564 12.257.14 22.223-3.048 22.273-7.085l.06-6.174a3.997 3.997 0 0 1-2.091 3.067 22.964 22.964 0 0 1-8.205 2.998 62.313 62.313 0 0 1-23.924-.26 22.963 22.963 0 0 1-8.125-3.178 3.996 3.996 0 0 1-2.03-3.107z" fill="#000" opacity=".1"/>
            <path d="M227.894 359.925a4.056 4.056 0 0 0 2.001 3.107 23.153 23.153 0 0 0 8.125 3.178 59.636 59.636 0 0 0 12.007 1.279c4.026.077 8.05-.257 12.007-1 2.9-.47 5.686-1.487 8.205-2.997 1.33-.93 2.081-1.998 2.091-3.067 0-3.997-9.846-7.424-22.113-7.564-11.937-.13-21.703 2.887-22.233 6.764l-.09.3z" fill="#FFC727"/>
            <path d="M232.867 359.106a3.117 3.117 0 0 0 1.57 2.418 18.026 18.026 0 0 0 6.315 2.468 48.396 48.396 0 0 0 18.57.2 17.927 17.927 0 0 0 6.384-2.329 3.147 3.147 0 0 0 1.621-2.378c0-3.137-7.654-5.765-17.17-5.875-9.275-.1-16.86 2.248-17.27 5.256-.012.08-.018.16-.02.24z" fill="#FFF" opacity=".3"/>
            <path d="m145.135 355.718-.07 6.165c0 3.997 9.856 7.434 22.103 7.564 12.248.13 22.233-3.047 22.273-7.074l.07-6.175a3.997 3.997 0 0 1-2.09 3.058 23.034 23.034 0 0 1-8.216 2.997 62.524 62.524 0 0 1-23.914-.27 22.903 22.903 0 0 1-8.124-3.167 4.056 4.056 0 0 1-2.032-3.098z" fill="#FFC727"/>
            <path d="m145.135 355.718-.07 6.165c0 3.997 9.856 7.434 22.103 7.564 12.248.13 22.233-3.047 22.273-7.074l.07-6.175a3.997 3.997 0 0 1-2.09 3.058 23.034 23.034 0 0 1-8.216 2.997 62.524 62.524 0 0 1-23.914-.27 22.903 22.903 0 0 1-8.124-3.167 4.056 4.056 0 0 1-2.032-3.098z" fill="#000" opacity=".1"/>
            <path d="M145.135 355.708c.12 1.3.866 2.46 2.002 3.108a22.883 22.883 0 0 0 8.124 3.177 58.795 58.795 0 0 0 11.977 1.3c4.026.073 8.05-.261 12.007-1a23.034 23.034 0 0 0 8.215-2.998 3.997 3.997 0 0 0 2.091-3.067c0-3.997-9.855-7.424-22.113-7.554-11.937-.13-21.712 2.878-22.233 6.765a1.627 1.627 0 0 0-.07.27z" fill="#FFC727"/>
            <path d="M150.098 354.9a3.137 3.137 0 0 0 1.581 2.407 17.575 17.575 0 0 0 6.314 2.468 48.396 48.396 0 0 0 18.57.2 17.596 17.596 0 0 0 6.375-2.328 3.127 3.127 0 0 0 1.63-2.378c0-3.128-7.654-5.765-17.18-5.865-9.265-.11-16.86 2.238-17.27 5.245a2.285 2.285 0 0 0-.02.25z" fill="#FFF" opacity=".3"/>
            <path d="m134.47 351.642-2.642 5.575c-1.731 3.647 5.853 10.861 16.93 16.077 11.076 5.216 21.472 6.494 23.193 2.847l2.642-5.585c-.47 1-1.591 1.629-3.182 1.919a23.045 23.045 0 0 1-8.715-.7 62.146 62.146 0 0 1-21.623-10.191 22.896 22.896 0 0 1-6.064-6.275 3.992 3.992 0 0 1-.54-3.667z" fill="#FFC727"/>
            <path d="m134.47 351.642-2.642 5.575c-1.731 3.647 5.853 10.861 16.93 16.077 11.076 5.216 21.472 6.494 23.193 2.847l2.642-5.585c-.47 1-1.591 1.629-3.182 1.919a23.045 23.045 0 0 1-8.715-.7 62.146 62.146 0 0 1-21.623-10.191 22.896 22.896 0 0 1-6.064-6.275 3.992 3.992 0 0 1-.54-3.667z" fill="#000" opacity=".1"/>
            <path d="M134.47 351.632a3.992 3.992 0 0 0 .54 3.667c1.6 2.46 3.658 4.59 6.063 6.275a59.413 59.413 0 0 0 10.316 6.144 58.679 58.679 0 0 0 11.317 4.057 22.795 22.795 0 0 0 8.705.69c1.6-.28 2.721-.92 3.182-1.909 1.73-3.647-5.844-10.85-16.94-16.086-10.787-5.086-20.933-6.415-23.014-3.108-.07.09-.13.18-.17.27z" fill="#FFC727"/>
            <path d="M139.322 352.96c-.337.961-.18 2.026.42 2.848a17.916 17.916 0 0 0 4.703 4.876 48.549 48.549 0 0 0 16.8 7.924c2.203.61 4.502.793 6.774.54a3.173 3.173 0 0 0 2.471-1.49c1.341-2.837-4.552-8.432-13.157-12.49-8.385-3.996-16.26-4.995-17.891-2.417a2.247 2.247 0 0 0-.12.21z" fill="#FFF" opacity=".3"/>
            <path d="m179.536 349.883-1.471 5.995c-1 3.927 7.894 9.472 19.791 12.39 11.897 2.918 22.344 2.098 23.304-1.818l1.481-5.995a4.08 4.08 0 0 1-2.742 2.507 23.044 23.044 0 0 1-8.675 1.05 62.579 62.579 0 0 1-23.233-5.716 22.814 22.814 0 0 1-7.185-4.946 3.994 3.994 0 0 1-1.27-3.467z" fill="#FFC727"/>
            <path d="m179.536 349.883-1.471 5.995c-1 3.927 7.894 9.472 19.791 12.39 11.897 2.918 22.344 2.098 23.304-1.818l1.481-5.995a4.08 4.08 0 0 1-2.742 2.507 23.044 23.044 0 0 1-8.675 1.05 62.579 62.579 0 0 1-23.233-5.716 22.814 22.814 0 0 1-7.185-4.946 3.994 3.994 0 0 1-1.27-3.467z" fill="#000" opacity=".1"/>
            <path d="M179.536 349.883c-.26 1.06.21 2.258 1.27 3.487a22.935 22.935 0 0 0 7.185 4.926 62.469 62.469 0 0 0 23.233 5.706 22.944 22.944 0 0 0 8.675-1.06 4 4 0 0 0 2.742-2.507c1-3.917-7.905-9.473-19.812-12.39-11.587-2.838-21.793-2.128-23.193 1.529l-.1.31z" fill="#FFC727"/>
            <path d="M184.559 350.223a3.145 3.145 0 0 0 1 2.708 17.791 17.791 0 0 0 5.583 3.837 48.354 48.354 0 0 0 18.011 4.426c2.28.158 4.569-.12 6.744-.82a3.11 3.11 0 0 0 2.121-1.948c.75-3.047-6.133-7.354-15.379-9.622-9.005-2.208-16.93-1.658-18.01 1.19-.03.074-.053.15-.07.229z" fill="#FFF" opacity=".3"/>
            <path d="m183.518 381.987-.06 6.174c-.05 3.997 9.846 7.424 22.103 7.554 12.257.13 22.223-2.997 22.273-7.074l.06-6.175a3.997 3.997 0 0 1-2.091 3.068 22.964 22.964 0 0 1-8.205 2.997 59.648 59.648 0 0 1-12.007 1 58.875 58.875 0 0 1-11.917-1.26 22.963 22.963 0 0 1-8.125-3.177 3.996 3.996 0 0 1-2.031-3.107z" fill="#FFC727"/>
            <path d="m183.518 381.987-.06 6.174c-.05 3.997 9.846 7.424 22.103 7.554 12.257.13 22.223-2.997 22.273-7.074l.06-6.175a3.997 3.997 0 0 1-2.091 3.068 22.964 22.964 0 0 1-8.205 2.997 59.648 59.648 0 0 1-12.007 1 58.875 58.875 0 0 1-11.917-1.26 22.963 22.963 0 0 1-8.125-3.177 3.996 3.996 0 0 1-2.031-3.107z" fill="#000" opacity=".1"/>
            <path d="M183.518 381.977c0 1.099.72 2.158 2.001 3.117a23.033 23.033 0 0 0 8.125 3.167 62.313 62.313 0 0 0 23.924.26 22.774 22.774 0 0 0 8.205-2.997 3.997 3.997 0 0 0 2.091-3.058c.05-3.996-9.846-7.434-22.113-7.563-11.937-.13-21.703 2.887-22.233 6.764.02.11 0 .21 0 .31z" fill="#FFC727"/>
            <path d="M188.49 381.167a3.137 3.137 0 0 0 1.572 2.418 17.956 17.956 0 0 0 6.314 2.468 48.396 48.396 0 0 0 18.57.2 18.027 18.027 0 0 0 6.374-2.328 3.137 3.137 0 0 0 1.631-2.378c0-3.137-7.654-5.775-17.17-5.875-9.275-.1-16.86 2.238-17.27 5.256-.012.079-.018.159-.02.24z" fill="#FFF" opacity=".3"/>
            <path d="m138.792 398.883-.06 6.164c-.05 3.997 9.845 7.434 22.093 7.564 12.247.13 22.233-3.047 22.283-7.074l.06-6.175a3.997 3.997 0 0 1-2.091 3.058 23.034 23.034 0 0 1-8.205 2.997 58.966 58.966 0 0 1-12.007 1 59.636 59.636 0 0 1-11.897-1.25 23.033 23.033 0 0 1-8.125-3.177 4.056 4.056 0 0 1-2.051-3.107z" fill="#FFC727"/>
            <path d="m138.792 398.883-.06 6.164c-.05 3.997 9.845 7.434 22.093 7.564 12.247.13 22.233-3.047 22.283-7.074l.06-6.175a3.997 3.997 0 0 1-2.091 3.058 23.034 23.034 0 0 1-8.205 2.997 58.966 58.966 0 0 1-12.007 1 59.636 59.636 0 0 1-11.897-1.25 23.033 23.033 0 0 1-8.125-3.177 4.056 4.056 0 0 1-2.051-3.107z" fill="#000" opacity=".1"/>
            <path d="M138.792 398.873c.118 1.3.866 2.46 2 3.107a22.883 22.883 0 0 0 8.176 3.177 58.875 58.875 0 0 0 11.947 1.29 59.648 59.648 0 0 0 12.007-1 23.034 23.034 0 0 0 8.205-2.997 3.997 3.997 0 0 0 2.09-3.068c0-3.997-9.855-7.424-22.112-7.554-11.937-.13-21.703 2.878-22.233 6.765-.06.07-.08.18-.08.28z" fill="#FFC727"/>
            <path d="M143.755 398.063a3.157 3.157 0 0 0 1.58 2.408 17.575 17.575 0 0 0 6.314 2.468 48.396 48.396 0 0 0 18.571.2 17.596 17.596 0 0 0 6.374-2.328 3.107 3.107 0 0 0 1.63-2.378c0-3.127-7.654-5.765-17.18-5.865-9.265-.11-16.85 2.238-17.26 5.245l-.03.25z" fill="#FFF" opacity=".3"/>
            <path d="m223.331 400.711 2.402 5.695c1.56 3.717 12.007 2.888 23.283-1.858 11.277-4.746 19.182-11.63 17.61-15.347l-2.4-5.696c.43 1 .15 2.268-.701 3.647a22.93 22.93 0 0 1-6.334 5.995 58.931 58.931 0 0 1-10.566 5.706 59.807 59.807 0 0 1-11.477 3.567c-2.861.661-5.823.77-8.725.32a4.003 4.003 0 0 1-3.092-2.029z" fill="#FFC727"/>
            <path d="m223.331 400.711 2.402 5.695c1.56 3.717 12.007 2.888 23.283-1.858 11.277-4.746 19.182-11.63 17.61-15.347l-2.4-5.696c.43 1 .15 2.268-.701 3.647a22.93 22.93 0 0 1-6.334 5.995 58.931 58.931 0 0 1-10.566 5.706 59.807 59.807 0 0 1-11.477 3.567c-2.861.661-5.823.77-8.725.32a4.003 4.003 0 0 1-3.092-2.029z" fill="#000" opacity=".1"/>
            <path d="M223.321 400.711a4.053 4.053 0 0 0 3.102 1.998c2.902.456 5.865.348 8.725-.32a58.144 58.144 0 0 0 11.467-3.566 58.701 58.701 0 0 0 10.576-5.706 23.06 23.06 0 0 0 6.334-5.995c.85-1.379 1.13-2.637.7-3.647-1.57-3.717-12.007-2.897-23.303 1.859-11.007 4.626-18.761 11.28-17.7 15.047.03.13.06.23.1.33z" fill="#FFC727"/>
            <path d="M227.554 397.983a3.162 3.162 0 0 0 2.411 1.599c2.254.343 4.552.258 6.774-.25a48.706 48.706 0 0 0 17.12-7.204 17.7 17.7 0 0 0 4.923-4.676c.628-.8.83-1.853.54-2.828-1.22-2.887-9.325-2.248-18.1 1.45-8.545 3.586-14.569 8.752-13.738 11.68.017.078.04.155.07.23z" fill="#FFF" opacity=".3"/>
            <path d="m12.467 361.464-.07 6.175c0 3.996 9.856 7.423 22.103 7.563 12.247.14 22.233-3.047 22.273-7.084l.07-6.165a3.997 3.997 0 0 1-2.09 3.058 22.834 22.834 0 0 1-8.216 2.997 62.263 62.263 0 0 1-23.914-.26 22.702 22.702 0 0 1-8.124-3.177 3.996 3.996 0 0 1-2.032-3.107z" fill="#FFC727"/>
            <path d="m12.467 361.464-.07 6.175c0 3.996 9.856 7.423 22.103 7.563 12.247.14 22.233-3.047 22.273-7.084l.07-6.165a3.997 3.997 0 0 1-2.09 3.058 22.834 22.834 0 0 1-8.216 2.997 62.263 62.263 0 0 1-23.914-.26 22.702 22.702 0 0 1-8.124-3.177 3.996 3.996 0 0 1-2.032-3.107z" fill="#000" opacity=".1"/>
            <path d="M12.467 361.464c.12 1.3.866 2.46 2.002 3.107a22.883 22.883 0 0 0 8.124 3.177c7.881 1.618 16 1.706 23.914.26a23.215 23.215 0 0 0 8.215-2.997c1.331-.93 2.081-1.999 2.091-3.068 0-3.996-9.855-7.424-22.113-7.563-11.907-.08-21.672 2.917-22.203 6.764-.02.105-.03.212-.03.32z" fill="#FFC727"/>
            <path d="M17.43 360.644a3.137 3.137 0 0 0 1.581 2.418 17.575 17.575 0 0 0 6.314 2.468c3.05.645 6.158.98 9.275 1a45.32 45.32 0 0 0 9.296-.8 17.786 17.786 0 0 0 6.374-2.328 3.157 3.157 0 0 0 1.64-2.378c0-3.137-7.654-5.765-17.18-5.875-9.265-.1-16.86 2.248-17.27 5.256-.015.079-.025.159-.03.24z" fill="#FFF" opacity=".3"/>
            <path d="m120.841 378.18-.07 6.175c0 3.996 9.856 7.433 22.103 7.563 12.247.13 22.233-2.997 22.273-7.074l.07-6.175a3.997 3.997 0 0 1-2.091 3.058 22.854 22.854 0 0 1-8.205 2.997 62.313 62.313 0 0 1-23.924-.26 22.903 22.903 0 0 1-8.125-3.167c-1.31-.959-2.04-2.018-2.03-3.117z" fill="#FFC727"/>
            <path d="m120.841 378.18-.07 6.175c0 3.996 9.856 7.433 22.103 7.563 12.247.13 22.233-2.997 22.273-7.074l.07-6.175a3.997 3.997 0 0 1-2.091 3.058 22.854 22.854 0 0 1-8.205 2.997 62.313 62.313 0 0 1-23.924-.26 22.903 22.903 0 0 1-8.125-3.167c-1.31-.959-2.04-2.018-2.03-3.117z" fill="#000" opacity=".1"/>
            <path d="M120.841 378.18c.119 1.3.866 2.46 2.001 3.107a22.883 22.883 0 0 0 8.125 3.178 62.313 62.313 0 0 0 23.924.26 23.235 23.235 0 0 0 8.205-2.998 3.997 3.997 0 0 0 2.091-3.068c0-3.996-9.856-7.423-22.113-7.553-11.937-.13-21.703 2.877-22.233 6.764-.01.103-.01.207 0 .31z" fill="#FFC727"/>
            <path d="M125.804 377.37a3.137 3.137 0 0 0 1.58 2.408 17.575 17.575 0 0 0 6.315 2.468 48.396 48.396 0 0 0 18.57.2 17.596 17.596 0 0 0 6.374-2.328 3.147 3.147 0 0 0 1.631-2.378c0-3.137-7.654-5.765-17.18-5.865-9.265-.11-16.86 2.238-17.27 5.246a1.995 1.995 0 0 0-.02.25z" fill="#FFF" opacity=".3"/>
            <path d="m41.434 375.282-.06 6.175c0 3.997 9.846 7.424 22.103 7.554 12.258.13 22.223-2.998 22.273-7.074l.06-6.175a3.997 3.997 0 0 1-2.09 3.067 23.034 23.034 0 0 1-8.206 2.998 59.648 59.648 0 0 1-12.007.999 58.875 58.875 0 0 1-11.947-1.289 22.963 22.963 0 0 1-8.124-3.177 3.996 3.996 0 0 1-2.002-3.078z" fill="#FFC727"/>
            <path d="m41.434 375.282-.06 6.175c0 3.997 9.846 7.424 22.103 7.554 12.258.13 22.223-2.998 22.273-7.074l.06-6.175a3.997 3.997 0 0 1-2.09 3.067 23.034 23.034 0 0 1-8.206 2.998 59.648 59.648 0 0 1-12.007.999 58.875 58.875 0 0 1-11.947-1.289 22.963 22.963 0 0 1-8.124-3.177 3.996 3.996 0 0 1-2.002-3.078z" fill="#000" opacity=".1"/>
            <path d="M41.434 375.282c0 1.1.72 2.158 2.002 3.118a23.033 23.033 0 0 0 8.124 3.167 62.313 62.313 0 0 0 23.924.26 22.854 22.854 0 0 0 8.205-2.998 3.997 3.997 0 0 0 2.092-3.057c.05-3.997-9.856-7.434-22.114-7.564-11.937-.13-21.702 2.888-22.233 6.764.02.14 0 .24 0 .31z" fill="#FFC727"/>
            <path d="M46.407 374.503a3.137 3.137 0 0 0 1.571 2.418 17.956 17.956 0 0 0 6.314 2.468 48.927 48.927 0 0 0 18.57.2 18.027 18.027 0 0 0 6.375-2.328 3.137 3.137 0 0 0 1.63-2.378c0-3.138-7.654-5.776-17.18-5.876-9.265-.1-16.85 2.239-17.26 5.256-.011.08-.018.16-.02.24z" fill="#FFF" opacity=".3"/>
            <path d="m7.104 376.371 1.17 6.065c.771 3.997 11.147 5.306 23.174 2.998 12.028-2.308 21.173-7.424 20.402-11.38l-1.17-6.066c.21 1.08-.32 2.248-1.441 3.417a22.839 22.839 0 0 1-7.434 4.577 58.667 58.667 0 0 1-11.527 3.397 58.645 58.645 0 0 1-12.007 1.129 22.832 22.832 0 0 1-8.595-1.489 4.05 4.05 0 0 1-2.572-2.648z" fill="#FFC727"/>
            <path d="m7.104 376.371 1.17 6.065c.771 3.997 11.147 5.306 23.174 2.998 12.028-2.308 21.173-7.424 20.402-11.38l-1.17-6.066c.21 1.08-.32 2.248-1.441 3.417a22.839 22.839 0 0 1-7.434 4.577 58.667 58.667 0 0 1-11.527 3.397 58.645 58.645 0 0 1-12.007 1.129 22.832 22.832 0 0 1-8.595-1.489 4.05 4.05 0 0 1-2.572-2.648z" fill="#000" opacity=".1"/>
            <path d="M7.104 376.361a4.06 4.06 0 0 0 2.612 2.648 23.043 23.043 0 0 0 8.595 1.489c4.03.032 8.053-.346 12.007-1.13a58.667 58.667 0 0 0 11.527-3.396 23.019 23.019 0 0 0 7.434-4.577 3.994 3.994 0 0 0 1.44-3.427c-.76-3.996-11.146-5.305-23.183-2.997-11.717 2.258-20.692 7.164-20.432 11.07a3.092 3.092 0 0 0 0 .32z" fill="#FFC727"/>
            <path d="M11.807 374.583a3.14 3.14 0 0 0 2.001 2.048 17.743 17.743 0 0 0 6.674 1.15 45.48 45.48 0 0 0 9.296-.87c3.073-.57 6.08-1.45 8.975-2.628a17.905 17.905 0 0 0 5.783-3.557 3.155 3.155 0 0 0 1.11-2.658c-.59-3.077-8.654-4.116-18.01-2.318-9.105 1.749-16.07 5.565-15.87 8.593.01.08.022.16.04.24z" fill="#FFF" opacity=".3"/>
            <path d="m244.714 345.967 2.812 5.505c1.83 3.587 12.177 1.998 23.083-3.537 10.907-5.535 18.29-12.99 16.45-16.586l-2.802-5.496c.5 1 .32 2.248-.43 3.687a23.233 23.233 0 0 1-5.884 6.455 62.79 62.79 0 0 1-21.312 10.84 23.044 23.044 0 0 1-8.675 1 4.064 4.064 0 0 1-3.242-1.868z" fill="#FFC727"/>
            <path d="m244.714 345.967 2.812 5.505c1.83 3.587 12.177 1.998 23.083-3.537 10.907-5.535 18.29-12.99 16.45-16.586l-2.802-5.496c.5 1 .32 2.248-.43 3.687a23.233 23.233 0 0 1-5.884 6.455 62.79 62.79 0 0 1-21.312 10.84 23.044 23.044 0 0 1-8.675 1 4.064 4.064 0 0 1-3.242-1.868z" fill="#000" opacity=".1"/>
            <path d="M244.714 345.967a4.004 4.004 0 0 0 3.242 1.808c2.929.229 5.875-.11 8.675-1a62.32 62.32 0 0 0 21.312-10.84 22.903 22.903 0 0 0 5.874-6.455 3.992 3.992 0 0 0 .44-3.687c-1.84-3.597-12.177-1.998-23.103 3.537-10.637 5.416-17.9 12.61-16.56 16.297.03.116.07.23.12.34z" fill="#FFC727"/>
            <path d="M248.736 342.94a3.123 3.123 0 0 0 2.512 1.418 17.925 17.925 0 0 0 6.744-.74 48.194 48.194 0 0 0 16.55-8.422 17.564 17.564 0 0 0 4.562-4.996 3.094 3.094 0 0 0 .34-2.858c-1.42-2.798-9.455-1.569-17.94 2.748-8.265 4.206-13.898 9.792-12.868 12.65.028.068.062.135.1.2z" fill="#FFF" opacity=".3"/>
            <path d="m254.62 318.33 1 6.085c.67 3.996 11.007 5.575 23.094 3.547 12.087-2.029 21.332-6.925 20.662-10.901l-1-6.085a4.044 4.044 0 0 1-1.521 3.387 23.141 23.141 0 0 1-7.545 4.396 62.797 62.797 0 0 1-23.594 3.997 22.982 22.982 0 0 1-8.555-1.699 3.999 3.999 0 0 1-2.541-2.727z" fill="#FFC727"/>
            <path d="m254.62 318.33 1 6.085c.67 3.996 11.007 5.575 23.094 3.547 12.087-2.029 21.332-6.925 20.662-10.901l-1-6.085a4.044 4.044 0 0 1-1.521 3.387 23.141 23.141 0 0 1-7.545 4.396 62.797 62.797 0 0 1-23.594 3.997 22.982 22.982 0 0 1-8.555-1.699 3.999 3.999 0 0 1-2.541-2.727z" fill="#000" opacity=".1"/>
            <path d="M254.62 318.27c.18 1.089 1.09 1.998 2.541 2.707a23.112 23.112 0 0 0 8.565 1.689 62.276 62.276 0 0 0 23.594-3.997 22.961 22.961 0 0 0 7.545-4.396 3.994 3.994 0 0 0 1.52-3.387c-.67-3.997-11.006-5.566-23.103-3.537-11.777 1.998-20.852 6.674-20.692 10.58.01.13.01.24.03.34z" fill="#FFC727"/>
            <path d="M259.363 316.601a3.15 3.15 0 0 0 2 2.098 17.953 17.953 0 0 0 6.645 1.31 48.24 48.24 0 0 0 18.32-3.078 17.726 17.726 0 0 0 5.864-3.417 3.145 3.145 0 0 0 1.18-2.628c-.52-3.088-8.554-4.327-17.94-2.748-9.145 1.539-16.2 5.176-16.07 8.213a2.105 2.105 0 0 0 0 .25z" fill="#FFF" opacity=".3"/>
        </g>
        <g>
            <path fill="#FFC727" d="m132.208 343.549 10.926 2.018 2.432 11.49 2.441-11.49 10.916-2.028-10.866-2.648-2.491-10.861-2.482 10.86zM105.652 73.503l10.917 2.019 2.441 11.49 2.431-11.49 10.917-2.019-10.867-2.658-2.481-10.85-2.491 10.85zM219.229 96.045l6.104 1.129 1.36 6.424 1.371-6.424 6.094-1.13-6.074-1.478-1.39-6.065-1.391 6.065zM287.099 163.898l6.093 1.12 1.371 6.424 1.361-6.425 6.104-1.129-6.084-1.479-1.38-6.065-1.392 6.065zM15.78 365.28l6.103 1.13 1.36 6.424 1.361-6.424 6.104-1.13-6.074-1.478-1.39-6.075-1.391 6.075zM119.28 360.165l6.104 1.129 1.36 6.424 1.371-6.424 6.094-1.13-6.074-1.478-1.39-6.075-1.381 6.075zM134.4 100.141l6.093 1.13 1.37 6.424 1.361-6.425 6.104-1.129-6.084-1.479-1.38-6.075-1.391 6.075zM75.725 149.69l6.103 1.129 1.36 6.425 1.372-6.425 6.093-1.13-6.073-1.478-1.391-6.075-1.38 6.075zM270.75 360.844l6.103 1.13 1.36 6.414 1.361-6.415 6.104-1.129-6.074-1.489-1.39-6.065-1.391 6.065zM322.64 381.507l6.093 1.13 1.371 6.424 1.361-6.425 6.104-1.129-6.074-1.479-1.39-6.065-1.392 6.065zM297.955 75.721l6.104 1.12 1.36 6.424 1.361-6.424 6.104-1.13-6.074-1.478-1.39-6.065-1.391 6.065zM394.362 367.069a1.77 1.77 0 0 1 0 3.527 1.77 1.77 0 0 1 0-3.527zM171.57 70.366a1.77 1.77 0 0 1 0 3.527 1.77 1.77 0 0 1 0-3.527zM367.196 353.07a1.77 1.77 0 0 1 1.771 1.77 1.77 1.77 0 0 1-1.771 1.768 1.77 1.77 0 0 1-1.771-1.769 1.77 1.77 0 0 1 1.771-1.768zM265.256 90.33a1.77 1.77 0 0 1 1.771 1.768 1.77 1.77 0 0 1-1.771 1.768 1.77 1.77 0 0 1-1.771-1.768 1.77 1.77 0 0 1 1.771-1.769zM180.666 352.451a1.77 1.77 0 0 1 0 3.527 1.77 1.77 0 0 1 0-3.527zM43.025 359.525a1.26 1.26 0 0 1 0 2.508 1.26 1.26 0 0 1 0-2.508zM109.604 387.592a1.25 1.25 0 1 1 .002 2.5 1.25 1.25 0 0 1-.002-2.5zM236.67 393.867a1.25 1.25 0 1 1 .001 2.5 1.25 1.25 0 0 1-.002-2.5zM259.703 68.268a1.25 1.25 0 1 1 .002 2.5 1.25 1.25 0 0 1-.002-2.5zM188.801 60.854c4.363 0 4.373 6.774 0 6.774s-4.373-6.774 0-6.774zM246.125 382.366c4.362 0 4.372 6.775 0 6.775-4.373 0-4.373-6.775 0-6.775zM276.503 316.651c4.362 0 4.372 6.774 0 6.774-4.373 0-4.373-6.774 0-6.774z"/>
            <g opacity=".8" fill="#FFF">
                <path d="m132.208 343.549 10.926 2.018 2.432 11.49 2.441-11.49 10.916-2.028-10.866-2.648-2.491-10.861-2.482 10.86zM105.652 73.503l10.917 2.019 2.441 11.49 2.431-11.49 10.917-2.019-10.867-2.658-2.481-10.85-2.491 10.85zM219.229 96.045l6.104 1.129 1.36 6.424 1.371-6.424 6.094-1.13-6.074-1.478-1.39-6.065-1.391 6.065zM287.099 163.898l6.093 1.12 1.371 6.424 1.361-6.425 6.104-1.129-6.084-1.479-1.38-6.065-1.392 6.065zM15.78 365.28l6.103 1.13 1.36 6.424 1.361-6.424 6.104-1.13-6.074-1.478-1.39-6.075-1.391 6.075zM119.28 360.165l6.104 1.129 1.36 6.424 1.371-6.424 6.094-1.13-6.074-1.478-1.39-6.075-1.381 6.075zM134.4 100.141l6.093 1.13 1.37 6.424 1.361-6.425 6.104-1.129-6.084-1.479-1.38-6.075-1.391 6.075zM75.725 149.69l6.103 1.129 1.36 6.425 1.372-6.425 6.093-1.13-6.073-1.478-1.391-6.075-1.38 6.075zM270.75 360.844l6.103 1.13 1.36 6.414 1.361-6.415 6.104-1.129-6.074-1.489-1.39-6.065-1.391 6.065zM322.64 381.507l6.093 1.13 1.371 6.424 1.361-6.425 6.104-1.129-6.074-1.479-1.39-6.065-1.392 6.065zM297.955 75.721l6.104 1.12 1.36 6.424 1.361-6.424 6.104-1.13-6.074-1.478-1.39-6.065-1.391 6.065zM394.362 367.069a1.77 1.77 0 0 1 0 3.527 1.77 1.77 0 0 1 0-3.527zM171.57 70.366a1.77 1.77 0 0 1 0 3.527 1.77 1.77 0 0 1 0-3.527zM367.196 353.07a1.77 1.77 0 0 1 1.771 1.77 1.77 1.77 0 0 1-1.771 1.768 1.77 1.77 0 0 1-1.771-1.769 1.77 1.77 0 0 1 1.771-1.768zM265.256 90.33a1.77 1.77 0 0 1 1.771 1.768 1.77 1.77 0 0 1-1.771 1.768 1.77 1.77 0 0 1-1.771-1.768 1.77 1.77 0 0 1 1.771-1.769zM180.666 352.451a1.77 1.77 0 0 1 0 3.527 1.77 1.77 0 0 1 0-3.527zM43.025 359.525a1.26 1.26 0 0 1 0 2.508 1.26 1.26 0 0 1 0-2.508zM109.604 387.592a1.25 1.25 0 1 1 .002 2.5 1.25 1.25 0 0 1-.002-2.5zM236.67 393.867a1.25 1.25 0 1 1 .001 2.5 1.25 1.25 0 0 1-.002-2.5zM259.703 68.268a1.25 1.25 0 1 1 .002 2.5 1.25 1.25 0 0 1-.002-2.5zM188.801 60.854c4.363 0 4.373 6.774 0 6.774s-4.373-6.774 0-6.774zM246.125 382.366c4.362 0 4.372 6.775 0 6.775-4.373 0-4.373-6.775 0-6.775zM276.503 316.651c4.362 0 4.372 6.774 0 6.774-4.373 0-4.373-6.774 0-6.774z"/>
            </g>
        </g>
        <g>
            <path d="M347.795 162.56s-3.452-9.293-3.002-18.126c.42-8.992 4.653-12.32 7.004-12.72 2.351-.399 5.253 5.996 4.513 12.36 0 0 7.404-10.22 13.658-6.514 6.253 3.707-5.744 18.145-22.173 25z" fill="#455A64"/>
            <path d="M347.935 162.34s5.373-2.928 14.758-4.477c7.195-1.199 17.21 2.238 17.19 5.715-.02 3.477-10.065 3.877-10.065 3.877s7.234 4.996 4.512 9.332c-2.721 4.337-18.8-2.877-26.395-14.448zM347.665 162.02s-4.003-10.991-9.716-15.837c-5.714-4.846-12.548-5.845-14.149-3.068-1.6 2.778 7.885 9.283 7.885 9.283s-11.337-.48-11.707 5.245c-.37 5.726 14.499 8.283 27.687 4.377z" fill="#455A64"/>
            <path d="M348.025 162.14s4.162 8.103 5.103 14.647c.94 6.545-1.451 11.7-4.103 12.05-2.651.35-6.193-4.906-5.233-10.441 0 0-5.643 7.074-10.186 4.117-4.542-2.958 3.913-13.779 14.419-20.373z" fill="#455A64"/>
            <path d="M367.746 167.705a37.785 37.785 0 0 0-19.381-5.086c3.752-5.156 6.003-11.52 7.734-17.565 0-.12-.15-.19-.18-.06-1.93 6.065-7.834 17.465-7.834 17.465-1.371-2.128-3.893-3.857-6.004-5.205a35.714 35.714 0 0 0-7.894-3.677.11.11 0 0 0-.07.2 37.179 37.179 0 0 1 7.554 4.056c2.181 1.489 6.214 4.996 6.254 4.996-.63 4.906-2.332 9.312-3.733 13.988a.17.17 0 0 0 .31.12c2.062-4.306 3.753-9.272 3.703-14.098a59.683 59.683 0 0 1 19.371 4.996.13.13 0 0 0 .17-.13z" fill="#37474F"/>
            <path d="M100.309 288.005s-3.252-7.484-3.312-14.768c-.07-7.444 3.272-10.351 5.163-10.78 1.891-.43 4.603 4.655 4.283 9.99 0 0 5.623-8.742 10.936-5.994 5.313 2.747-3.862 15.177-17.07 21.552z" fill="#455A64"/>
            <path d="M100.42 287.825a41.983 41.983 0 0 1 11.936-4.356c5.864-1.3 14.258 1.069 14.399 3.936.14 2.868-8.105 3.597-8.105 3.597s6.183 3.807 4.132 7.484-15.589-1.489-22.363-10.661zM100.179 287.575s-3.812-8.872-8.705-12.6c-4.893-3.726-10.586-4.246-11.777-1.888-1.19 2.358 6.904 7.284 6.904 7.284s-9.346.12-9.396 4.836c-.05 4.716 12.298 6.145 22.974 2.368z" fill="#455A64"/>
            <path d="M100.49 287.655s3.781 6.475 4.852 11.82c1.07 5.346-.67 9.682-2.832 10.092-2.161.41-5.313-3.757-4.773-8.353 0 0-4.322 6.075-8.194 3.847-3.873-2.229 2.591-11.52 10.946-17.406z" fill="#455A64"/>
            <path d="M116.949 291.352a30.965 30.965 0 0 0-16.18-3.317c2.862-4.417 4.403-9.752 5.584-14.798 0-.1-.13-.15-.16-.05-1.311 5.076-5.634 14.728-5.634 14.748a16.557 16.557 0 0 0-5.153-3.997 29.512 29.512 0 0 0-6.654-2.668.084.084 0 0 0-.05.16 31.599 31.599 0 0 1 6.394 2.998c1.861 1.129 5.343 3.827 5.363 3.827-.29 4.056-1.5 7.763-2.441 11.69a.142.142 0 1 0 .27.09 27.164 27.164 0 0 0 2.411-11.77 48.939 48.939 0 0 1 16.16 3.287c.09.03.21-.15.09-.2z" fill="#37474F"/>
            <path d="M321.339 313.014s-6.804-4.536-10.806-10.631c-4.003-6.095-2.852-10.461-1.491-11.86 1.36-1.4 6.394 1.439 9.005 6.075 0 0 0-10.402 6.004-10.941 6.003-.54 4.933 14.857-2.712 27.357z" fill="#455A64"/>
            <path d="M321.329 312.794a41.671 41.671 0 0 1 7.675-10.101c4.232-4.277 12.567-6.815 14.248-4.477 1.68 2.338-4.873 7.404-4.873 7.404s7.264-.14 7.524 4.057c.26 4.196-13.908 7.174-24.574 3.117zM320.989 312.714s-8.005-5.395-14.138-5.885c-6.134-.49-11.217 2.148-10.937 4.776.28 2.628 9.756 2.398 9.756 2.398s-7.795 5.146-5.283 9.143c2.511 3.996 13.678-1.47 20.602-10.432z" fill="#455A64"/>
            <path d="M321.289 312.624s6.694 3.398 10.486 7.314c3.792 3.917 4.693 8.503 3.092 9.992-1.601 1.489-6.504-.29-8.545-4.446 0 0-.34 7.443-4.803 7.653-4.462.21-4.052-11.05-.23-20.513z" fill="#455A64"/>
            <path d="M337.148 306.82a31.214 31.214 0 0 0-15.409 5.994c0-5.255-1.58-10.561-3.322-15.447 0-.1-.19-.06-.16 0 1.651 4.996 3.242 15.427 3.252 15.447a16.412 16.412 0 0 0-6.504-.58c-2.381.158-4.734.611-7.004 1.35a.084.084 0 1 0 .05.16 31.25 31.25 0 0 1 7.004-.93c2.172-.06 6.564.33 6.584.31 2.001 3.567 2.942 7.334 4.283 11.15a.14.14 0 0 0 .27-.07 27.274 27.274 0 0 0-4.353-11.2 49.29 49.29 0 0 1 15.38-5.995c.07 0 .05-.2-.07-.19z" fill="#37474F"/>
            <path d="M63.848 232.91s-13.008-2.787-22.624-9.591c-9.886-6.995-10.566-14.079-9.345-16.986 1.22-2.908 10.486-1.649 17.19 3.787 0 0-6.224-15.667 2.461-19.984 8.685-4.316 16.39 19.364 12.318 42.775z" fill="#455A64"/>
            <path d="M63.707 232.59s.55-8.142 5.534-19.813c3.822-8.992 14.888-17.755 18.8-15.237 3.913 2.518-2.9 14.068-2.9 14.068s10.855-4.536 13.767 1.629c2.912 6.165-16.69 19.164-35.2 19.354zM63.157 232.67s-15.319-3.356-24.844-.449c-9.526 2.908-15.61 9.922-13.628 13.719 1.98 3.797 16.139-2.198 16.139-2.198s-8.675 12.41-2.491 16.936c6.183 4.526 19.751-10.372 24.824-28.007z" fill="#455A64"/>
            <path d="M63.547 232.401s12.128 1.13 20.192 4.776c8.065 3.647 12.147 9.992 10.647 13.27-1.501 3.276-10.006 3.436-15.54-1.61 0 0 3.933 11.42-2.671 14.408-6.604 2.988-12.738-14.348-12.628-30.844z" fill="#455A64"/>
            <path d="M83.99 214.156a50.302 50.302 0 0 0-19.662 18.155c-3.122-7.933-8.705-14.987-14.259-21.312-.11-.13-.32 0-.21.16 5.464 6.524 14.119 21.332 14.149 21.352-3.392 0-7.145 1.619-10.156 2.997a47.247 47.247 0 0 0-9.816 6.225.143.143 0 1 0 .17.23 49.75 49.75 0 0 1 10.006-5.585c3.242-1.39 10.086-3.417 10.106-3.457 5.083 4.216 8.835 9.312 13.138 14.268a.23.23 0 0 0 .36-.28c-3.382-5.405-7.765-10.87-13.248-14.288a79.373 79.373 0 0 1 19.592-18.205c.16-.07 0-.35-.17-.26z" fill="#37474F"/>
        </g>
    </g>
</svg>
