<svg width="416" height="432" xmlns="http://www.w3.org/2000/svg">
    <g fill-rule="nonzero" fill="none">
        <path d="M169.406 432 22.547 347.207l235.408-135.842 146.859 84.793z" fill="#E0E0E0"/>
        <path fill="#FAFAFA" d="m19.313 98.647 2.568 1.532 52.652-30.402-2.559-1.523z"/>
        <path fill="#FFF" d="M71.974 68.254 21.881 97.161V44.707l50.093-28.889z"/>
        <path d="M79.38 5.927 17.042 41.915v66.66L79.38 72.541V5.927zm-4.847 63.85L21.88 100.179V44.707l52.652-30.393v55.463z" fill="#F0F0F0"/>
        <path fill="#E0E0E0" d="m74.533 69.777-2.559-1.523V15.818l2.559-1.504z"/>
        <path fill="#FAFAFA" d="m79.38 5.927-2.604-1.495L14.44 40.428l2.603 1.487z"/>
        <path fill="#E0E0E0" d="m14.44 40.428 2.603 1.487v66.65l-2.603-1.495z"/>
        <path d="m47.599 47.77-2.55-4.387 2.478-7.207h.054l5.008-2.891.072.126 2.477 4.288-2.432 7.143h-.054L47.6 47.77zm-2.216-4.45 2.324 4.035 4.702-2.702 2.396-6.918-2.333-4.036-4.693 2.703-2.396 6.918z" fill="#F0F0F0"/>
        <path d="m54.913 49.175-.072-.126-2.477-4.288 2.486-7.206h.045l5.018-2.883 2.558 4.423-2.486 7.161-5.072 2.92zm-2.207-4.45 2.324 4.063 4.694-2.703 2.396-6.927-2.324-4.036-4.703 2.703-2.387 6.9z" fill="#F0F0F0"/>
        <path d="m47.599 59.039-2.559-4.414 2.487-7.207h.054l5.008-2.891 2.55 4.414-2.478 7.206h-.054L47.6 59.04zm-2.216-4.45 2.324 4.036 4.702-2.703 2.396-6.927-2.333-4.036-4.693 2.703-2.396 6.927z" fill="#F0F0F0"/>
        <path d="m40.275 68.894-2.55-4.414 2.487-7.207h.045l5.009-2.9 2.558 4.423-2.486 7.206-5.063 2.892zm-2.216-4.45 2.333 4.035 4.693-2.702 2.406-6.927-2.334-4.036-4.702 2.703-2.396 6.927z" fill="#F0F0F0"/>
        <path d="m40.275 80.163-2.55-4.414 2.487-7.207h.045l5.009-2.9 2.558 4.423-2.486 7.206-5.063 2.892zm-2.216-4.45 2.333 4.035 4.693-2.702 2.406-6.927-2.334-4.036-4.702 2.703-2.396 6.927z" fill="#F0F0F0"/>
        <path d="m32.96 78.758-.072-.136-2.468-4.278 2.477-7.207h.055l5.008-2.891 2.55 4.414-2.487 7.152h-.054l-5.008 2.946zm-2.215-4.45 2.324 4.035 4.702-2.702 2.396-6.927-2.324-4.045-4.702 2.702-2.396 6.937zM53.877 43.968a3.243 3.243 0 0 1-1.342 2.577c-.748.423-1.351 0-1.351-1.027a3.198 3.198 0 0 1 1.351-2.568c.739-.468 1.342.018 1.342 1.018zM56.31 36.924a3.234 3.234 0 0 1-1.352 2.576c-.738.424-1.342 0-1.342-1.018a3.216 3.216 0 0 1 1.342-2.576c.757-.432 1.351.018 1.351 1.018zM48.995 58.048a3.216 3.216 0 0 1-1.342 2.576c-.748.433-1.352 0-1.352-1.018a3.234 3.234 0 0 1 1.352-2.576c.738-.423 1.342.027 1.342 1.018z" fill="#F0F0F0"/>
        <path d="M41.68 67.912a3.234 3.234 0 0 1-1.35 2.576c-.74.424-1.343 0-1.343-1.018a3.216 3.216 0 0 1 1.342-2.576c.748-.432 1.351.027 1.351 1.018zM39.24 63.687a3.243 3.243 0 0 1-1.343 2.576c-.748.424-1.351 0-1.351-1.018a3.207 3.207 0 0 1 1.35-2.576c.74-.432 1.343.018 1.343 1.018zM48.247 35.951a1.441 1.441 0 0 1-.594 1.126c-.334.19-.595 0-.595-.45.004-.452.226-.874.595-1.135.324-.216.594.018.594.46zM53.13 33.132c-.01.45-.23.87-.595 1.135-.333.189-.603 0-.603-.45.007-.454.232-.876.603-1.136.324-.189.595.01.595.45zM45.806 42.987c-.004.454-.225.879-.594 1.144-.325.189-.595 0-.595-.45.007-.455.227-.878.595-1.145.333-.19.594.018.594.45zM48.247 47.22c-.01.45-.23.87-.594 1.135-.334.19-.595 0-.595-.45.004-.452.226-.874.595-1.135.324-.19.594.009.594.45zM60.444 34.537a1.432 1.432 0 0 1-.594 1.144c-.325.19-.595 0-.595-.45.007-.454.227-.878.595-1.144.333-.19.594.009.594.45zM62.885 38.762c-.004.454-.225.88-.594 1.144-.333.189-.595 0-.595-.45.004-.455.225-.88.595-1.145.324-.189.594.018.594.45zM60.444 45.806c.006.467-.216.907-.594 1.18-.325.19-.595 0-.595-.45.007-.454.227-.878.595-1.144.333-.208.594-.027.594.414zM55.57 48.626a1.414 1.414 0 0 1-.603 1.135c-.324.189-.594 0-.594-.45.01-.451.23-.871.594-1.136.334-.189.604.01.604.45zM53.13 55.67a1.423 1.423 0 0 1-.595 1.135c-.333.19-.603 0-.603-.45.009-.453.233-.875.603-1.136.324-.189.595.01.595.45zM45.806 54.265a1.414 1.414 0 0 1-.594 1.135c-.334.189-.595 0-.595-.45.004-.453.225-.875.595-1.136.333-.198.594.01.594.45zM40.933 57.075a1.414 1.414 0 0 1-.604 1.135c-.324.198-.594 0-.594-.45.01-.45.23-.87.594-1.135.333-.19.604.009.604.45zM45.806 65.525c-.004.454-.225.88-.594 1.144-.325.189-.595 0-.595-.45.007-.454.227-.878.595-1.145.333-.189.594.018.594.45zM48.247 69.75c-.004.454-.225.879-.594 1.144-.334.189-.595 0-.595-.45.004-.455.225-.88.595-1.145.333-.19.594.018.594.45zM45.806 76.794c-.004.454-.225.88-.594 1.144-.325.189-.595 0-.595-.45.007-.454.227-.878.595-1.145.333-.189.594.018.594.45zM40.933 79.613a1.414 1.414 0 0 1-.604 1.135c-.324.199-.594 0-.594-.45.01-.45.23-.87.594-1.135.333-.19.604.009.604.45zM33.61 78.208c-.01.45-.23.87-.595 1.135-.334.19-.595 0-.595-.45.004-.452.225-.875.595-1.135.324-.144.594.009.594.45zM38.491 75.389a1.423 1.423 0 0 1-.594 1.135c-.333.189-.604 0-.604-.45 0-.463.226-.897.604-1.163.324-.162.594 0 .594.478zM33.61 66.939c-.01.45-.23.87-.595 1.135-.334.19-.595 0-.595-.45.004-.452.225-.875.595-1.135.324-.19.594.009.594.45zM31.168 74.01a1.414 1.414 0 0 1-.595 1.135c-.324.19-.594 0-.594-.45.007-.451.227-.872.594-1.135.334-.225.595-.018.595.45zM51.373 66.804l18.016-10.395c.349-.184.597-.515.676-.901 0-.298-.307-.37-.676-.162L51.373 65.74a1.306 1.306 0 0 0-.667.9c0 .27.298.343.667.163zM51.373 63.921l18.016-10.395c.349-.184.597-.514.676-.9 0-.298-.307-.37-.676-.163L51.373 62.858a1.306 1.306 0 0 0-.667.901c0 .342.298.342.667.162zM24.727 56.742l12.611-7.297c.348-.183.594-.514.667-.9 0-.307-.297-.379-.667-.163l-12.61 7.288a1.306 1.306 0 0 0-.667.9c0 .325.297.379.666.172zM24.727 53.895 37.338 46.6c.348-.183.594-.515.667-.901 0-.306-.297-.378-.667-.162l-12.61 7.287a1.306 1.306 0 0 0-.667.901c0 .306.297.378.666.171zM61.129 55.337a.162.162 0 0 1-.153-.154V51.49l-4.847-2a.144.144 0 0 1-.08-.198.153.153 0 0 1 .197-.08l4.937 1.99c.06.017.101.072.099.135v3.846a.162.162 0 0 1-.153.154zM39.24 57.372l-7.514-1.207a.153.153 0 0 1-.126-.153v-2a.153.153 0 0 1 .153-.153c.083.005.15.07.154.153v1.874l7.377 1.19a.144.144 0 0 1 .126.17.144.144 0 0 1-.17.126z" fill="#F0F0F0"/>
        <g>
            <path fill="#E0E0E0" d="m99.548 35.987 2.613 1.487v66.65l-2.613-1.495z"/>
            <path fill="#FAFAFA" d="m104.43 94.206 2.568 1.532 52.652-30.393-2.567-1.532z"/>
            <path d="m164.496 1.486-62.335 35.988v66.66l62.335-35.988V1.486zm-4.846 63.859-52.652 30.393V40.275L159.65 9.873v55.472z" fill="#F0F0F0"/>
            <path fill="#E0E0E0" d="m159.65 65.345-2.567-1.532V11.377l2.567-1.504z"/>
            <path fill="#FAFAFA" d="M164.496 1.486 161.884 0 99.548 35.987l2.613 1.487z"/>
            <path d="M136.004 46.635h-.072c-.072 0 .054 0 0 0h.072c.018 0 0-.018 0 0z" fill="#F0F0F0"/>
            <path fill="#FFF" d="M157.083 63.813 106.998 92.72V40.275l50.085-28.898z"/>
            <path d="M149.894 52.706c2.288-1.315 4.135-.252 4.135 2.387a9.116 9.116 0 0 1-4.135 7.207c-2.279 1.315-4.125.252-4.125-2.387a9.134 9.134 0 0 1 4.125-7.207zM116.492 41.942l31.123-18.017c.901-.504 1.568-.099 1.568.901v.09a3.45 3.45 0 0 1-1.568 2.703l-31.123 18.016c-.9.495-1.567.09-1.567-.9v-.1a3.486 3.486 0 0 1 1.567-2.693z" fill="#E0E0E0"/>
            <path d="m111.565 56.102 40.969-23.646c.9-.504 1.567-.28 1.567.505a3.153 3.153 0 0 1-1.567 2.315l-40.996 23.673c-.9.504-1.567.27-1.559-.514a3.216 3.216 0 0 1 1.586-2.333zM111.565 61.76l40.969-23.656c.9-.504 1.567-.27 1.567.505a3.153 3.153 0 0 1-1.567 2.324l-40.996 23.673c-.9.495-1.567.261-1.559-.523a3.19 3.19 0 0 1 1.586-2.324zM111.565 67.407l40.969-23.655c.9-.495 1.567-.27 1.567.514a3.135 3.135 0 0 1-1.567 2.315l-40.996 23.673c-.9.495-1.567.27-1.559-.523a3.19 3.19 0 0 1 1.586-2.324z" fill="#F0F0F0"/>
            <path d="M142.544 64.804a2.387 2.387 0 0 1-1.027.27c-.901 0-.793-.9-.766-1.513 0-.28-.37-.703-.576-.333-.532.954-1.198 1.801-1.802 2.774-.351.577-1.009 1.865-1.856 1.676-.351-.072-.468-.45-.468-.901a4.55 4.55 0 0 0 .55-2.55c0-.27-.478-.594-.622-.234a8.341 8.341 0 0 0-.532 2.351c-.387.693-.83 1.352-1.324 1.973-.28.379-.531.793-.847 1.153-.072.081-.216.298-.342.325-.288 0-.261-.127-.297-.316-.009-.285.037-.57.135-.838a.171.171 0 0 1 0-.063c0-.279-.351-.693-.496-.342a12.611 12.611 0 0 1-2.369 3.973l-.162.126c0-.162-.045-.324-.063-.487a4.27 4.27 0 0 0-.189-1.117c-.072-.18-.378-.45-.55-.216-.9 1.252-1.558 2.703-2.702 3.775a6.207 6.207 0 0 1-.576.396c-.19-.108.099-1.1.144-1.252.108-.45.252-.901.396-1.315.153-.35.265-.715.333-1.09.054-.334-.531-.847-.63-.397-.045.18-.207.63-.379 1.19a30.627 30.627 0 0 1-2.297 3.89 9.008 9.008 0 0 1-3.197 3.082c-.37.198-1.054.486-1.45.198-.397-.288-.361-.793-.37-1.162a9.792 9.792 0 0 1 .378-2.838 17.016 17.016 0 0 0 3.55-2.504 11.918 11.918 0 0 0 2.63-2.982c.37-.648.585-1.738-.297-2.108-.613-.26-1.397.172-1.91.46a8.666 8.666 0 0 0-1.955 1.513 11.197 11.197 0 0 0-2.441 4.504c-.081.252-.18.595-.28.982a7.603 7.603 0 0 1-4.503.748c-.081 0-.118.18 0 .198 1.48.312 3.02.164 4.414-.423-.397 1.711-.613 3.981.981 4.422 1.595.442 3.523-1.558 4.378-2.702a18.917 18.917 0 0 0 1.712-2.765c.043-.073.09-.142.144-.208 0 .793.162 1.37.9 1.244.74-.127 1.505-1.253 1.938-1.856a29.33 29.33 0 0 0 1.17-1.802c.064.712.199 1.532.901 1.387.703-.144 1.253-1.315 1.577-1.801.324-.487.54-.838.774-1.28a.9.9 0 0 0 .154.226c.567.612 1.243 0 1.612-.523.514-.684 1.108-1.405 1.595-2.17.115.331.358.604.675.756.9.415 1.703-.306 2.207-.955a18.917 18.917 0 0 0 1.649-2.648c.065.353.283.66.594.838.66.335 1.452.283 2.063-.135.27-.163.009-.748-.28-.604zm-19.17 3.423c.406-.207 1.253-.558 1.298.126a2.36 2.36 0 0 1-.55 1.198 15.179 15.179 0 0 1-2.387 2.54 19.899 19.899 0 0 1-2.982 2.27 9.576 9.576 0 0 1 4.622-6.134z" fill="#E0E0E0"/>
        </g>
        <g>
            <path d="M279.944 391.644a3.946 3.946 0 0 1-2.37.153l-5.593-1.748a2.594 2.594 0 0 0-2.198.433l-3.667 3.054a.9.9 0 0 0-.36.675v5.891a.82.82 0 0 0 .523.73l1.981 1-5.09.9a1.072 1.072 0 0 0-.9 1.1v5.9c0 .122.02.243.054.36l.99 3.171c.26.694.918 1.159 1.658 1.171l6.567-.27a3.08 3.08 0 0 1 1.586.495l-.334.352a.9.9 0 0 0-.288.64v5.918a.9.9 0 0 0 .595.765l5.747 2.297c.749.256 1.572.17 2.252-.234l3.864-2.558a3.603 3.603 0 0 1 2.315-.469c1.232.217 2.474.37 3.72.46.775.094 1.46.544 1.856 1.216l1.433 2.783a1.99 1.99 0 0 0 1.855 1l7.207-.747a1.243 1.243 0 0 0 1.117-1.225v-4.036c.184-.244.439-.427.73-.522a31.771 31.771 0 0 0 3-1.1 3.91 3.91 0 0 1 2.377-.162l5.585 1.757c.762.193 1.57.031 2.198-.441l3.666-3.045a.9.9 0 0 0 .36-.658v-5.936a.82.82 0 0 0-.522-.72l-1.981-.992 5.09-.9c.508-.086.886-.52.9-1.036v-5.928c.026-.13.026-.265 0-.396l-.991-3.17a1.802 1.802 0 0 0-1.657-1.172l-6.567.27a3.054 3.054 0 0 1-1.577-.495l.334-.351a.964.964 0 0 0 .279-.649v-5.882a.838.838 0 0 0-.595-.73l-5.747-2.306a2.702 2.702 0 0 0-2.252.234l-3.963 2.55a3.675 3.675 0 0 1-2.325.459 36.483 36.483 0 0 0-3.72-.46 2.504 2.504 0 0 1-1.856-1.216l-1.432-2.783a2.027 2.027 0 0 0-1.855-1l-7.207.748a1.261 1.261 0 0 0-1.117 1.396l.333 2.702a1.55 1.55 0 0 1-1.072 1.622c-.997.327-1.978.706-2.936 1.135zm25.376 15.314c-4.315 3.603-12.864 4.504-19.098 1.99a10.612 10.612 0 0 1-4.909-3.603 8.215 8.215 0 0 1 1.46-1.54c4.323-3.603 12.872-4.504 19.096-2a10.675 10.675 0 0 1 4.9 3.55 8.314 8.314 0 0 1-1.45 1.62v-.017z" fill="#407BFF"/>
            <path d="M279.944 391.644a3.946 3.946 0 0 1-2.37.153l-5.593-1.748a2.594 2.594 0 0 0-2.198.433l-3.667 3.054a.9.9 0 0 0-.36.675v5.891a.82.82 0 0 0 .523.73l1.981 1-5.09.9a1.072 1.072 0 0 0-.9 1.1v5.9c0 .122.02.243.054.36l.99 3.171c.26.694.918 1.159 1.658 1.171l6.567-.27a3.08 3.08 0 0 1 1.586.495l-.334.352a.9.9 0 0 0-.288.64v5.918a.9.9 0 0 0 .595.765l5.747 2.297c.749.256 1.572.17 2.252-.234l3.864-2.558a3.603 3.603 0 0 1 2.315-.469c1.232.217 2.474.37 3.72.46.775.094 1.46.544 1.856 1.216l1.433 2.783a1.99 1.99 0 0 0 1.855 1l7.207-.747a1.243 1.243 0 0 0 1.117-1.225v-4.036c.184-.244.439-.427.73-.522a31.771 31.771 0 0 0 3-1.1 3.91 3.91 0 0 1 2.377-.162l5.585 1.757c.762.193 1.57.031 2.198-.441l3.666-3.045a.9.9 0 0 0 .36-.658v-5.936a.82.82 0 0 0-.522-.72l-1.981-.992 5.09-.9c.508-.086.886-.52.9-1.036v-5.928c.026-.13.026-.265 0-.396l-.991-3.17a1.802 1.802 0 0 0-1.657-1.172l-6.567.27a3.054 3.054 0 0 1-1.577-.495l.334-.351a.964.964 0 0 0 .279-.649v-5.882a.838.838 0 0 0-.595-.73l-5.747-2.306a2.702 2.702 0 0 0-2.252.234l-3.963 2.55a3.675 3.675 0 0 1-2.325.459 36.483 36.483 0 0 0-3.72-.46 2.504 2.504 0 0 1-1.856-1.216l-1.432-2.783a2.027 2.027 0 0 0-1.855-1l-7.207.748a1.261 1.261 0 0 0-1.117 1.396l.333 2.702a1.55 1.55 0 0 1-1.072 1.622c-.997.327-1.978.706-2.936 1.135zm25.376 15.314c-4.315 3.603-12.864 4.504-19.098 1.99a10.612 10.612 0 0 1-4.909-3.603 8.215 8.215 0 0 1 1.46-1.54c4.323-3.603 12.872-4.504 19.096-2a10.675 10.675 0 0 1 4.9 3.55 8.314 8.314 0 0 1-1.45 1.62v-.017z" fill="#FFF" opacity=".2"/>
            <path d="M316.643 405.985a1.243 1.243 0 0 0 .531 1.693l2.63 1.324 5.081-.9c.51-.086.887-.52.9-1.036v-5.847c-.039.494-.411.896-.9.973l-6.252 1.063a2.162 2.162 0 0 0-1.522 1.46 7.765 7.765 0 0 1-.468 1.27zm-1.027-16.692a.964.964 0 0 1-.28.64l-2.612 2.765a1.108 1.108 0 0 0 .162 1.684c.56.426 1.083.896 1.568 1.406.163.158.345.297.54.414l.342-.36a1 1 0 0 0 .28-.649v-5.9zM301.87 395.95c5.404 2.153 7.26 6.116 4.89 9.467a10.657 10.657 0 0 0-4.89-3.513c-6.234-2.486-14.774-1.603-19.098 2a7.873 7.873 0 0 0-1.45 1.54c-1.666-2.378-1.28-5.188 1.441-7.458 4.324-3.64 12.873-4.532 19.106-2.036z" fill="#000" opacity=".1"/>
            <path d="M292.213 422.316c.252.18.461.414.612.685l1.433 2.783c.233.42.61.74 1.063.901v-5.918a2.054 2.054 0 0 1-1.054-.9l-1.442-2.793a1.919 1.919 0 0 0-.594-.685l-.018 5.927zm-19.71-.792a.82.82 0 0 0 .595.756l5.747 2.306a2.702 2.702 0 0 0 1.504.063v-5.918a2.603 2.603 0 0 1-1.513-.054l-5.73-2.306a.81.81 0 0 1-.594-.766l-.009 5.919zm38.086-2.505 5.522 1.73c.453.135.935.135 1.387 0v-5.9a2.432 2.432 0 0 1-1.387 0l-5.513-1.73-.009 5.9zm-48.346-9.359a.9.9 0 0 0 .063.36l.982 3.18c.262.69.919 1.151 1.657 1.162l6.567-.261c.353-.002.703.068 1.027.207v-5.918a2.702 2.702 0 0 0-1.027-.207l-6.558.26a1.748 1.748 0 0 1-1.657-1.161l-.991-3.171a1.802 1.802 0 0 1-.063-.351v5.9zm3.513-9.576c.017.327.22.614.523.74l1.981.99 1.153-.198a2.135 2.135 0 0 0 1.532-1.469 8.63 8.63 0 0 1 .468-1.234 2.18 2.18 0 0 0 .108-.315v-.243a1.144 1.144 0 0 0-.072-.46 1.09 1.09 0 0 0-.306-.477 1.108 1.108 0 0 0-.28-.198l-4.611-2.315a1.252 1.252 0 0 1-.289-.207.622.622 0 0 1-.198-.298.577.577 0 0 1-.045-.207l.036 5.891z" fill="#407BFF"/>
            <path d="M292.213 422.316c.252.18.461.414.612.685l1.433 2.783c.233.42.61.74 1.063.901v-5.918a2.054 2.054 0 0 1-1.054-.9l-1.442-2.793a1.919 1.919 0 0 0-.594-.685l-.018 5.927zm-19.71-.792a.82.82 0 0 0 .595.756l5.747 2.306a2.702 2.702 0 0 0 1.504.063v-5.918a2.603 2.603 0 0 1-1.513-.054l-5.73-2.306a.81.81 0 0 1-.594-.766l-.009 5.919zm38.086-2.505 5.522 1.73c.453.135.935.135 1.387 0v-5.9a2.432 2.432 0 0 1-1.387 0l-5.513-1.73-.009 5.9zm-48.346-9.359a.9.9 0 0 0 .063.36l.982 3.18c.262.69.919 1.151 1.657 1.162l6.567-.261c.353-.002.703.068 1.027.207v-5.918a2.702 2.702 0 0 0-1.027-.207l-6.558.26a1.748 1.748 0 0 1-1.657-1.161l-.991-3.171a1.802 1.802 0 0 1-.063-.351v5.9zm3.513-9.576c.017.327.22.614.523.74l1.981.99 1.153-.198a2.135 2.135 0 0 0 1.532-1.469 8.63 8.63 0 0 1 .468-1.234 2.18 2.18 0 0 0 .108-.315v-.243a1.144 1.144 0 0 0-.072-.46 1.09 1.09 0 0 0-.306-.477 1.108 1.108 0 0 0-.28-.198l-4.611-2.315a1.252 1.252 0 0 1-.289-.207.622.622 0 0 1-.198-.298.577.577 0 0 1-.045-.207l.036 5.891z" fill="#FFF" opacity=".7"/>
            <path d="m269.8 390.482-3.666 3.054a.775.775 0 0 0 .163 1.387l4.603 2.315a1.252 1.252 0 0 1 .531 1.693c-.189.399-.345.811-.468 1.234a2.153 2.153 0 0 1-1.532 1.469l-6.242 1.063a1.09 1.09 0 0 0-.901 1.441l.99 3.17c.26.695.918 1.16 1.658 1.172l6.567-.27a3.225 3.225 0 0 1 2.126.9c.489.505 1.013.975 1.568 1.406a1.099 1.099 0 0 1 .162 1.675l-2.604 2.775a.81.81 0 0 0 .307 1.405l5.747 2.306c.749.255 1.572.17 2.252-.234l3.855-2.567a3.675 3.675 0 0 1 2.324-.46c1.225.207 2.469.36 3.72.46.772.094 1.457.54 1.856 1.207l1.433 2.792a2.027 2.027 0 0 0 1.855 1l7.207-.748a1.252 1.252 0 0 0 1.117-1.405l-.325-2.702a1.55 1.55 0 0 1 1.072-1.622 29.303 29.303 0 0 0 2.991-1.108 3.91 3.91 0 0 1 2.378-.153l5.594 1.748c.76.196 1.569.037 2.198-.433l3.666-3.053a.775.775 0 0 0-.162-1.388l-4.603-2.315a1.252 1.252 0 0 1-.531-1.693c.19-.4.347-.817.468-1.243a2.135 2.135 0 0 1 1.532-1.46l6.242-1.063a1.09 1.09 0 0 0 .9-1.441l-.99-3.17a1.802 1.802 0 0 0-1.657-1.172l-6.567.27a3.234 3.234 0 0 1-2.126-.9c-.492-.5-1.015-.966-1.568-1.397a1.108 1.108 0 0 1-.162-1.684l2.604-2.766a.81.81 0 0 0-.307-1.405l-5.747-2.306a2.702 2.702 0 0 0-2.252.234l-3.945 2.54a3.675 3.675 0 0 1-2.325.46 36.483 36.483 0 0 0-3.72-.46 2.504 2.504 0 0 1-1.856-1.216l-1.432-2.783a2.027 2.027 0 0 0-1.855-1l-7.207.748a1.261 1.261 0 0 0-1.117 1.396l.333 2.702a1.55 1.55 0 0 1-1.072 1.622c-1.018.316-2.02.686-3 1.108a3.946 3.946 0 0 1-2.368.153l-5.594-1.748a2.594 2.594 0 0 0-2.117.46zm32.087 5.468c6.225 2.495 7.774 7.431 3.45 11.026-4.323 3.594-12.863 4.504-19.097 1.99-6.233-2.513-7.774-7.431-3.45-11.026 4.324-3.594 12.846-4.486 19.08-1.99h.017z" fill="#407BFF"/>
            <path d="m269.8 390.482-3.666 3.054a.775.775 0 0 0 .163 1.387l4.603 2.315a1.252 1.252 0 0 1 .531 1.693c-.189.399-.345.811-.468 1.234a2.153 2.153 0 0 1-1.532 1.469l-6.242 1.063a1.09 1.09 0 0 0-.901 1.441l.99 3.17c.26.695.918 1.16 1.658 1.172l6.567-.27a3.225 3.225 0 0 1 2.126.9c.489.505 1.013.975 1.568 1.406a1.099 1.099 0 0 1 .162 1.675l-2.604 2.775a.81.81 0 0 0 .307 1.405l5.747 2.306c.749.255 1.572.17 2.252-.234l3.855-2.567a3.675 3.675 0 0 1 2.324-.46c1.225.207 2.469.36 3.72.46.772.094 1.457.54 1.856 1.207l1.433 2.792a2.027 2.027 0 0 0 1.855 1l7.207-.748a1.252 1.252 0 0 0 1.117-1.405l-.325-2.702a1.55 1.55 0 0 1 1.072-1.622 29.303 29.303 0 0 0 2.991-1.108 3.91 3.91 0 0 1 2.378-.153l5.594 1.748c.76.196 1.569.037 2.198-.433l3.666-3.053a.775.775 0 0 0-.162-1.388l-4.603-2.315a1.252 1.252 0 0 1-.531-1.693c.19-.4.347-.817.468-1.243a2.135 2.135 0 0 1 1.532-1.46l6.242-1.063a1.09 1.09 0 0 0 .9-1.441l-.99-3.17a1.802 1.802 0 0 0-1.657-1.172l-6.567.27a3.234 3.234 0 0 1-2.126-.9c-.492-.5-1.015-.966-1.568-1.397a1.108 1.108 0 0 1-.162-1.684l2.604-2.766a.81.81 0 0 0-.307-1.405l-5.747-2.306a2.702 2.702 0 0 0-2.252.234l-3.945 2.54a3.675 3.675 0 0 1-2.325.46 36.483 36.483 0 0 0-3.72-.46 2.504 2.504 0 0 1-1.856-1.216l-1.432-2.783a2.027 2.027 0 0 0-1.855-1l-7.207.748a1.261 1.261 0 0 0-1.117 1.396l.333 2.702a1.55 1.55 0 0 1-1.072 1.622c-1.018.316-2.02.686-3 1.108a3.946 3.946 0 0 1-2.368.153l-5.594-1.748a2.594 2.594 0 0 0-2.117.46zm32.087 5.468c6.225 2.495 7.774 7.431 3.45 11.026-4.323 3.594-12.863 4.504-19.097 1.99-6.233-2.513-7.774-7.431-3.45-11.026 4.324-3.594 12.846-4.486 19.08-1.99h.017z" fill="#FFF" opacity=".55"/>
            <path d="M295.924 421.388a2.54 2.54 0 0 1-2.153-1.288l-1.432-2.783a2.036 2.036 0 0 0-1.45-.946 36.429 36.429 0 0 1-3.766-.468 3.18 3.18 0 0 0-1.955.396l-3.864 2.558a3.189 3.189 0 0 1-2.702.28l-5.748-2.298a1.378 1.378 0 0 1-.9-.963 1.414 1.414 0 0 1 .396-1.253l2.603-2.774a.577.577 0 0 0 .18-.46.703.703 0 0 0-.279-.477 14.944 14.944 0 0 1-1.621-1.45 2.765 2.765 0 0 0-1.748-.748l-6.558.261a2.243 2.243 0 0 1-2.162-1.513l-.99-3.18a1.567 1.567 0 0 1 .144-1.333c.25-.4.66-.672 1.126-.748l6.242-1.063a1.63 1.63 0 0 0 1.126-1.117c.134-.446.3-.883.496-1.306a.757.757 0 0 0-.298-1.036l-4.603-2.306a1.27 1.27 0 0 1-.26-2.225l3.665-3.054a3.162 3.162 0 0 1 2.703-.531l5.585 1.757c.673.161 1.38.114 2.027-.136.994-.428 2.01-.804 3.044-1.126.462-.15.762-.596.73-1.08l-.333-2.703a1.748 1.748 0 0 1 1.567-1.955l7.207-.756a2.504 2.504 0 0 1 2.35 1.279l1.424 2.783c.322.512.852.858 1.45.946 1.288.09 2.55.252 3.775.46a3.18 3.18 0 0 0 1.954-.388l3.856-2.558a3.243 3.243 0 0 1 2.702-.288l5.747 2.306c.445.147.784.51.901.964.08.457-.068.924-.396 1.252l-2.604 2.774a.577.577 0 0 0-.18.46c.028.189.128.36.28.477.574.44 1.116.922 1.621 1.441a2.702 2.702 0 0 0 1.748.757l6.557-.261a2.234 2.234 0 0 1 2.162 1.513l.991 3.18a1.576 1.576 0 0 1-1.27 2.072l-6.242 1.072a1.63 1.63 0 0 0-1.126 1.108c-.132.45-.298.89-.496 1.315a.748.748 0 0 0 .297 1.027l4.604 2.315c.426.184.726.576.792 1.036.04.461-.16.91-.531 1.189l-3.667 3.054a3.162 3.162 0 0 1-2.702.531l-5.603-1.765a3.486 3.486 0 0 0-2.027.135c-.995.427-2.011.802-3.045 1.126a1.063 1.063 0 0 0-.73 1.08l.334 2.703a1.748 1.748 0 0 1-1.567 1.955l-7.207.747-.17.027zm-9.17-6.512a2.63 2.63 0 0 1 .54.045c1.217.211 2.444.362 3.676.45.948.111 1.789.662 2.27 1.486l1.423 2.784c.284.477.806.76 1.36.739l7.207-.757a.739.739 0 0 0 .513-.28.72.72 0 0 0 .153-.558l-.333-2.702a2.08 2.08 0 0 1 1.432-2.162 28.826 28.826 0 0 0 2.937-1.081c.86-.34 1.806-.4 2.702-.171l5.585 1.747c.6.144 1.231.02 1.73-.342l3.666-3.054c.126-.099.198-.216.18-.297-.018-.081-.099-.18-.243-.252l-4.603-2.315a1.748 1.748 0 0 1-.757-2.351c.18-.388.33-.789.45-1.199a2.621 2.621 0 0 1 1.92-1.801l6.242-1.063a.64.64 0 0 0 .441-.28.667.667 0 0 0 .045-.513l-1-3.17a1.27 1.27 0 0 0-1.153-.82l-6.566.26a3.657 3.657 0 0 1-2.505-1.053 15.025 15.025 0 0 0-1.522-1.351 1.685 1.685 0 0 1-.658-1.198c-.03-.452.13-.897.442-1.225l2.612-2.775a.378.378 0 0 0 .144-.342c0-.1-.126-.19-.279-.253l-5.747-2.297a2.243 2.243 0 0 0-1.802.18l-3.864 2.568a4.108 4.108 0 0 1-2.703.54 37.57 37.57 0 0 0-3.675-.45 3.036 3.036 0 0 1-2.27-1.486l-1.423-2.784a1.522 1.522 0 0 0-1.36-.739l-7.207.748a.81.81 0 0 0-.513.28.748.748 0 0 0-.154.567l.325 2.702a2.054 2.054 0 0 1-1.423 2.162c-.997.314-1.977.678-2.937 1.09a4.441 4.441 0 0 1-2.703.171l-5.585-1.747a2.108 2.108 0 0 0-1.73.342l-3.665 3.054c-.126.099-.199.207-.19.297.043.117.136.21.253.252l4.603 2.315a1.748 1.748 0 0 1 .756 2.352c-.174.379-.322.77-.44 1.17a2.621 2.621 0 0 1-1.92 1.802l-6.242 1.063a.64.64 0 0 0-.442.28.63.63 0 0 0-.045.513l.991 3.17c.194.478.648.798 1.162.82l6.567-.27c.94.025 1.834.405 2.504 1.063.477.484.985.936 1.523 1.351.378.289.617.724.657 1.198.03.453-.13.897-.441 1.226l-2.612 2.765a.405.405 0 0 0-.145.351c.051.122.154.214.28.253l5.747 2.297c.6.195 1.253.13 1.801-.18l3.865-2.568c.66-.393 1.42-.59 2.189-.567h-.036zm7.206-4.009a21.62 21.62 0 0 1-7.963-1.432c-3.513-1.405-5.756-3.666-6.161-6.18-.316-2.036.594-4.053 2.567-5.702 4.441-3.693 13.242-4.621 19.602-2.072 3.513 1.406 5.756 3.658 6.161 6.18.315 2.027-.594 4.053-2.567 5.702-2.703 2.279-7.117 3.55-11.594 3.55l-.045-.046zm.045-15.836c-4.224 0-8.377 1.153-10.953 3.297-1.721 1.432-2.487 3.08-2.216 4.765.333 2.162 2.35 4.135 5.53 5.405 6.063 2.432 14.413 1.567 18.584-1.91 1.72-1.432 2.486-3.08 2.216-4.765-.333-2.162-2.35-4.135-5.53-5.405a20.719 20.719 0 0 0-7.586-1.387h-.045z" fill="#FFF" opacity=".55"/>
            <g>
                <path d="M332.353 352.27v7.206c.012.225.133.43.324.55l3.792 2.702a1.91 1.91 0 0 1-.91.441l-11.034.703a1.117 1.117 0 0 0-1.027 1.099v13.323c.003.578.45 1.057 1.027 1.099l11.035.703c.33.043.642.177.9.387l-3.81 2.702a.712.712 0 0 0-.324.55v7.206c.022.24.17.448.387.55l8.27 4.774c.561.281 1.216.31 1.801.081l8.387-3.882a3.045 3.045 0 0 1 1.918-.118 49.03 49.03 0 0 0 6.513 1.55c.598.127 1.07.586 1.216 1.18l1.045 5.522c.128.58.632.999 1.225 1.018h12.17a1.297 1.297 0 0 0 1.225-1.018l1.054-5.522a1.585 1.585 0 0 1 1.207-1.18 48.698 48.698 0 0 0 6.513-1.55 3.045 3.045 0 0 1 1.919.118l8.395 3.882c.585.232 1.24.202 1.802-.081l8.278-4.774a.676.676 0 0 0 .379-.568v-7.206a.712.712 0 0 0-.325-.55l-3.792-2.702c.274-.228.61-.369.964-.406l11.026-.702a1.108 1.108 0 0 0 1.027-1.1v-13.286a1.117 1.117 0 0 0-1.027-1.099l-10.963-.703a1.802 1.802 0 0 1-.9-.387l3.81-2.702a.667.667 0 0 0 .324-.559v-7.206a.676.676 0 0 0-.387-.568l-8.27-4.774a2.216 2.216 0 0 0-1.802-.081l-8.386 3.882a3.045 3.045 0 0 1-1.919.117 48.698 48.698 0 0 0-6.612-1.594 1.585 1.585 0 0 1-1.216-1.18l-1.045-5.522a1.297 1.297 0 0 0-1.225-1.018h-12.16a1.297 1.297 0 0 0-1.226 1.018l-1.054 5.522a1.558 1.558 0 0 1-1.207 1.18c-2.204.366-4.38.884-6.513 1.55a3.045 3.045 0 0 1-1.918-.118l-8.387-3.882c-.585-.23-1.24-.2-1.801.08l-8.279 4.775a.676.676 0 0 0-.414.568zm50.868 23.799c-7.729 4.459-20.24 4.459-27.97 0-3.017-1.739-4.846-3.91-5.504-6.162.83-1.846 2.703-3.648 5.513-5.278 7.72-4.46 20.241-4.46 27.925 0 3.018 1.738 4.793 3.684 5.405 5.666-.739 2.117-2.531 4.134-5.369 5.774z" fill="#407BFF"/>
                <path d="M332.353 352.27v7.206c.012.225.133.43.324.55l3.792 2.702a1.91 1.91 0 0 1-.91.441l-11.034.703a1.117 1.117 0 0 0-1.027 1.099v13.323c.003.578.45 1.057 1.027 1.099l11.035.703c.33.043.642.177.9.387l-3.81 2.702a.712.712 0 0 0-.324.55v7.206c.022.24.17.448.387.55l8.27 4.774c.561.281 1.216.31 1.801.081l8.387-3.882a3.045 3.045 0 0 1 1.918-.118 49.03 49.03 0 0 0 6.513 1.55c.598.127 1.07.586 1.216 1.18l1.045 5.522c.128.58.632.999 1.225 1.018h12.17a1.297 1.297 0 0 0 1.225-1.018l1.054-5.522a1.585 1.585 0 0 1 1.207-1.18 48.698 48.698 0 0 0 6.513-1.55 3.045 3.045 0 0 1 1.919.118l8.395 3.882c.585.232 1.24.202 1.802-.081l8.278-4.774a.676.676 0 0 0 .379-.568v-7.206a.712.712 0 0 0-.325-.55l-3.792-2.702c.274-.228.61-.369.964-.406l11.026-.702a1.108 1.108 0 0 0 1.027-1.1v-13.286a1.117 1.117 0 0 0-1.027-1.099l-10.963-.703a1.802 1.802 0 0 1-.9-.387l3.81-2.702a.667.667 0 0 0 .324-.559v-7.206a.676.676 0 0 0-.387-.568l-8.27-4.774a2.216 2.216 0 0 0-1.802-.081l-8.386 3.882a3.045 3.045 0 0 1-1.919.117 48.698 48.698 0 0 0-6.612-1.594 1.585 1.585 0 0 1-1.216-1.18l-1.045-5.522a1.297 1.297 0 0 0-1.225-1.018h-12.16a1.297 1.297 0 0 0-1.226 1.018l-1.054 5.522a1.558 1.558 0 0 1-1.207 1.18c-2.204.366-4.38.884-6.513 1.55a3.045 3.045 0 0 1-1.918-.118l-8.387-3.882c-.585-.23-1.24-.2-1.801.08l-8.279 4.775a.676.676 0 0 0-.414.568zm50.868 23.799c-7.729 4.459-20.24 4.459-27.97 0-3.017-1.739-4.846-3.91-5.504-6.162.83-1.846 2.703-3.648 5.513-5.278 7.72-4.46 20.241-4.46 27.925 0 3.018 1.738 4.793 3.684 5.405 5.666-.739 2.117-2.531 4.134-5.369 5.774z" fill="#FFF" opacity=".2"/>
                <path d="M399.112 377.114a.9.9 0 0 0 .117 1.342l2.765 1.99c.277-.222.611-.363.964-.405l11.035-.693a1.126 1.126 0 0 0 1.036-1.1v-8.629 1.46a1.117 1.117 0 0 1-1.027 1.098l-11.026.694a2.036 2.036 0 0 0-1.495.99 16.953 16.953 0 0 1-2.37 3.253zm7.017-24.772a.838.838 0 0 1-.333.486l-6.558 4.711a.9.9 0 0 0-.126 1.352 16.674 16.674 0 0 1 2.342 3.251c.143.235.33.44.55.604l3.81-2.702a.667.667 0 0 0 .324-.55l-.01-7.152zM355.26 359.935c7.72-4.504 20.232-4.504 27.925 0 4.874 2.82 6.675 6.738 5.405 10.378-.585-1.982-2.36-3.928-5.405-5.675-7.729-4.504-20.24-4.46-27.925 0-2.828 1.63-4.684 3.423-5.522 5.27-1.027-3.523.82-7.261 5.522-9.973z" fill="#000" opacity=".2"/>
                <path d="M323.489 378.258a1.117 1.117 0 0 0 1.036 1.09l11.026.702c.187.019.37.07.54.154v-7.207a1.441 1.441 0 0 0-.558-.153l-11.035-.667c-.52-.044-.94-.439-1.018-.954l.009 7.035zm8.873-18.8c.017.226.14.43.333.55l3.792 2.702c.21-.164.387-.366.523-.595a16.43 16.43 0 0 1 2.216-3.098c.037-.052.08-.1.126-.145.099-.108.173-.237.216-.378a.676.676 0 0 0 0-.144.982.982 0 0 0 0-.28.9.9 0 0 0-.207-.405.64.64 0 0 0-.162-.144l-6.558-4.71c-.052-.041-.1-.086-.144-.136a.405.405 0 0 1-.135-.216.378.378 0 0 1-.045-.216l.045 7.215zm0 31.465c.018.24.167.451.387.55l8.27 4.774c.394.201.84.277 1.279.216v-7.17c-.44.059-.887-.02-1.28-.225l-8.287-4.775a.757.757 0 0 1-.387-.513l.018 7.143zm54.048 1.324c.282.02.558.084.82.19l8.386 3.891c.239.095.492.147.748.153v-7.206a1.802 1.802 0 0 1-.748-.153l-8.386-3.892a2.702 2.702 0 0 0-.829-.198l.01 7.215zm-24.322 8.738c.231.372.635.603 1.072.613h12.161c.268-.004.528-.096.739-.261v-7.207a1.261 1.261 0 0 1-.748.27h-12.16a1.252 1.252 0 0 1-1.019-.54l-.045 7.125z" fill="#407BFF"/>
                <path d="M323.489 378.258a1.117 1.117 0 0 0 1.036 1.09l11.026.702c.187.019.37.07.54.154v-7.207a1.441 1.441 0 0 0-.558-.153l-11.035-.667c-.52-.044-.94-.439-1.018-.954l.009 7.035zm8.873-18.8c.017.226.14.43.333.55l3.792 2.702c.21-.164.387-.366.523-.595a16.43 16.43 0 0 1 2.216-3.098c.037-.052.08-.1.126-.145.099-.108.173-.237.216-.378a.676.676 0 0 0 0-.144.982.982 0 0 0 0-.28.9.9 0 0 0-.207-.405.64.64 0 0 0-.162-.144l-6.558-4.71c-.052-.041-.1-.086-.144-.136a.405.405 0 0 1-.135-.216.378.378 0 0 1-.045-.216l.045 7.215zm0 31.465c.018.24.167.451.387.55l8.27 4.774c.394.201.84.277 1.279.216v-7.17c-.44.059-.887-.02-1.28-.225l-8.287-4.775a.757.757 0 0 1-.387-.513l.018 7.143zm54.048 1.324c.282.02.558.084.82.19l8.386 3.891c.239.095.492.147.748.153v-7.206a1.802 1.802 0 0 1-.748-.153l-8.386-3.892a2.702 2.702 0 0 0-.829-.198l.01 7.215zm-24.322 8.738c.231.372.635.603 1.072.613h12.161c.268-.004.528-.096.739-.261v-7.207a1.261 1.261 0 0 1-.748.27h-12.16a1.252 1.252 0 0 1-1.019-.54l-.045 7.125z" fill="#FFF" opacity=".7"/>
                <path d="m341.01 346.955-8.279 4.774a.622.622 0 0 0-.054 1.126l6.558 4.72a.9.9 0 0 1 .126 1.343 16.413 16.413 0 0 0-2.342 3.251 2.036 2.036 0 0 1-1.46 1l-11.034.703a1.117 1.117 0 0 0-1.027 1.099v6.152a1.117 1.117 0 0 0 1.027 1.1l11.035.693a2.018 2.018 0 0 1 1.486.991 16.674 16.674 0 0 0 2.342 3.252.9.9 0 0 1-.126 1.342l-6.558 4.72a.613.613 0 0 0 .063 1.117l8.27 4.784a2.288 2.288 0 0 0 1.801.08l8.387-3.89a3.108 3.108 0 0 1 1.918-.109 51.634 51.634 0 0 0 6.513 1.55c.597.124 1.07.579 1.216 1.17l1.045 5.531c.13.578.633.996 1.225 1.018h12.17a1.306 1.306 0 0 0 1.225-1.018l1.045-5.53a1.585 1.585 0 0 1 1.216-1.172 51.634 51.634 0 0 0 6.513-1.549 3.099 3.099 0 0 1 1.919.108l8.386 3.892c.587.22 1.238.191 1.802-.081l8.27-4.784a.613.613 0 0 0 .062-1.117l-6.521-4.738a.9.9 0 0 1-.117-1.342 16.674 16.674 0 0 0 2.342-3.252c.314-.544.863-.91 1.486-.99l11.035-.695a1.117 1.117 0 0 0 1.027-1.099v-6.134a1.117 1.117 0 0 0-1.027-1.099l-11.035-.703a2.036 2.036 0 0 1-1.486-.982 16.413 16.413 0 0 0-2.342-3.251.9.9 0 0 1 .117-1.343l6.567-4.72a.622.622 0 0 0-.064-1.126l-8.269-4.774a2.216 2.216 0 0 0-1.802-.081l-8.386 3.882a3.045 3.045 0 0 1-1.919.117 48.698 48.698 0 0 0-6.558-1.594 1.585 1.585 0 0 1-1.216-1.18l-1.045-5.522a1.297 1.297 0 0 0-1.225-1.018h-12.16a1.297 1.297 0 0 0-1.226 1.018l-1.045 5.522a1.585 1.585 0 0 1-1.216 1.18c-2.204.366-4.38.884-6.513 1.55a3.045 3.045 0 0 1-1.918-.118l-8.387-3.882a2.216 2.216 0 0 0-1.838.108zm42.211 12.998c7.72 4.504 7.72 11.71 0 16.143-7.72 4.432-20.24 4.459-27.97 0-7.729-4.46-7.72-11.71 0-16.143 7.72-4.432 20.241-4.486 27.97-.027v.027z" fill="#407BFF"/>
                <path d="m341.01 346.955-8.279 4.774a.622.622 0 0 0-.054 1.126l6.558 4.72a.9.9 0 0 1 .126 1.343 16.413 16.413 0 0 0-2.342 3.251 2.036 2.036 0 0 1-1.46 1l-11.034.703a1.117 1.117 0 0 0-1.027 1.099v6.152a1.117 1.117 0 0 0 1.027 1.1l11.035.693a2.018 2.018 0 0 1 1.486.991 16.674 16.674 0 0 0 2.342 3.252.9.9 0 0 1-.126 1.342l-6.558 4.72a.613.613 0 0 0 .063 1.117l8.27 4.784a2.288 2.288 0 0 0 1.801.08l8.387-3.89a3.108 3.108 0 0 1 1.918-.109 51.634 51.634 0 0 0 6.513 1.55c.597.124 1.07.579 1.216 1.17l1.045 5.531c.13.578.633.996 1.225 1.018h12.17a1.306 1.306 0 0 0 1.225-1.018l1.045-5.53a1.585 1.585 0 0 1 1.216-1.172 51.634 51.634 0 0 0 6.513-1.549 3.099 3.099 0 0 1 1.919.108l8.386 3.892c.587.22 1.238.191 1.802-.081l8.27-4.784a.613.613 0 0 0 .062-1.117l-6.521-4.738a.9.9 0 0 1-.117-1.342 16.674 16.674 0 0 0 2.342-3.252c.314-.544.863-.91 1.486-.99l11.035-.695a1.117 1.117 0 0 0 1.027-1.099v-6.134a1.117 1.117 0 0 0-1.027-1.099l-11.035-.703a2.036 2.036 0 0 1-1.486-.982 16.413 16.413 0 0 0-2.342-3.251.9.9 0 0 1 .117-1.343l6.567-4.72a.622.622 0 0 0-.064-1.126l-8.269-4.774a2.216 2.216 0 0 0-1.802-.081l-8.386 3.882a3.045 3.045 0 0 1-1.919.117 48.698 48.698 0 0 0-6.558-1.594 1.585 1.585 0 0 1-1.216-1.18l-1.045-5.522a1.297 1.297 0 0 0-1.225-1.018h-12.16a1.297 1.297 0 0 0-1.226 1.018l-1.045 5.522a1.585 1.585 0 0 1-1.216 1.18c-2.204.366-4.38.884-6.513 1.55a3.045 3.045 0 0 1-1.918-.118l-8.387-3.882a2.216 2.216 0 0 0-1.838.108zm42.211 12.998c7.72 4.504 7.72 11.71 0 16.143-7.72 4.432-20.24 4.459-27.97 0-7.729-4.46-7.72-11.71 0-16.143 7.72-4.432 20.241-4.486 27.97-.027v.027z" fill="#FFF" opacity=".55"/>
                <path d="M375.321 394.833h-12.17a1.703 1.703 0 0 1-1.621-1.352l-1.054-5.521a1.19 1.19 0 0 0-.9-.856 50.184 50.184 0 0 1-6.559-1.559 2.702 2.702 0 0 0-1.63.09L343 389.527a2.63 2.63 0 0 1-2.207-.1l-8.278-4.782a1.081 1.081 0 0 1-.586-.901c.006-.364.192-.701.496-.901l6.558-4.711a.495.495 0 0 0 .216-.343.577.577 0 0 0-.153-.405 16.944 16.944 0 0 1-2.405-3.324 1.648 1.648 0 0 0-1.153-.784l-11.035-.693a1.531 1.531 0 0 1-1.406-1.505v-6.107a1.522 1.522 0 0 1 1.406-1.504l11.035-.703a1.612 1.612 0 0 0 1.153-.775 16.782 16.782 0 0 1 2.405-3.324.531.531 0 0 0 .144-.405.45.45 0 0 0-.207-.342l-6.558-4.72a1.018 1.018 0 0 1 .09-1.802l8.278-4.774a2.63 2.63 0 0 1 2.207-.1l8.387 3.883a2.621 2.621 0 0 0 1.621.099 49.977 49.977 0 0 1 6.567-1.558c.448-.103.798-.453.9-.901l1.055-5.531a1.694 1.694 0 0 1 1.621-1.342h12.17c.786.02 1.456.574 1.622 1.342l1.054 5.53c.102.449.452.8.9.902 2.219.372 4.41.892 6.558 1.558.54.14 1.111.105 1.63-.1l8.387-3.882a2.63 2.63 0 0 1 2.207.1l8.279 4.774c.337.179.558.52.585.9a1.09 1.09 0 0 1-.495.901l-6.531 4.676a.495.495 0 0 0-.216.342.577.577 0 0 0 .153.405 17.052 17.052 0 0 1 2.405 3.324c.244.423.67.71 1.153.775l11.035.703a1.531 1.531 0 0 1 1.405 1.504v6.152a1.531 1.531 0 0 1-1.405 1.505l-11.035.693a1.63 1.63 0 0 0-1.153.784 17.115 17.115 0 0 1-2.405 3.324.577.577 0 0 0-.153.405c.02.14.098.265.216.343l6.558 4.72c.308.196.494.536.495.9a1.099 1.099 0 0 1-.585.902l-8.279 4.783a2.702 2.702 0 0 1-2.207.099l-8.386-3.892a2.702 2.702 0 0 0-1.622-.09 50.32 50.32 0 0 1-6.567 1.559 1.19 1.19 0 0 0-.9.856l-1.054 5.522a1.703 1.703 0 0 1-1.649 1.342zm-22.943-10.188c.304-.002.608.04.9.126a48.346 48.346 0 0 0 6.46 1.531c.76.16 1.361.747 1.54 1.504l1.045 5.531a.9.9 0 0 0 .828.685h12.17a.9.9 0 0 0 .829-.685l1.045-5.53c.18-.76.784-1.347 1.55-1.505a50.445 50.445 0 0 0 6.458-1.531 3.369 3.369 0 0 1 2.207.135l8.387 3.882a1.865 1.865 0 0 0 1.459-.063l8.278-4.783c.108-.063.18-.144.18-.207s-.054-.153-.162-.225l-6.558-4.72a1.27 1.27 0 0 1-.54-.901c-.033-.381.098-.758.36-1.036.885-.958 1.65-2.02 2.28-3.162a2.441 2.441 0 0 1 1.8-1.207l11.036-.694a.703.703 0 0 0 .648-.694v-6.125a.712.712 0 0 0-.648-.694l-11.035-.693a2.468 2.468 0 0 1-1.802-1.207 16.305 16.305 0 0 0-2.279-3.171 1.315 1.315 0 0 1-.36-1.036c.04-.365.238-.694.54-.9l6.558-4.721c.108-.072.171-.162.162-.225-.009-.063-.072-.145-.18-.217l-8.278-4.774a1.802 1.802 0 0 0-1.46-.063l-8.386 3.883a3.45 3.45 0 0 1-2.216.135 48.346 48.346 0 0 0-6.459-1.532 2 2 0 0 1-1.54-1.504l-1.045-5.531a.9.9 0 0 0-.829-.685h-12.17a.9.9 0 0 0-.828.685l-1.045 5.531a2.009 2.009 0 0 1-1.55 1.504 48.346 48.346 0 0 0-6.459 1.532c-.73.2-1.506.152-2.207-.135l-8.386-3.883a1.802 1.802 0 0 0-1.46.063l-8.278 4.774c-.108.072-.18.145-.18.217 0 .072.054.153.162.225l6.558 4.72c.303.207.5.536.54.9.037.382-.094.76-.36 1.037a16.467 16.467 0 0 0-2.288 3.17 2.432 2.432 0 0 1-1.801 1.208l-11.026.693a.694.694 0 0 0-.649.694v6.152a.703.703 0 0 0 .649.694l11.026.694a2.414 2.414 0 0 1 1.801 1.207 16.413 16.413 0 0 0 2.288 3.162c.262.278.393.655.36 1.036a1.27 1.27 0 0 1-.54.9l-6.558 4.72c-.108.073-.17.154-.162.226.01.072.072.144.18.207l8.279 4.783c.457.219.984.242 1.459.063l8.386-3.882a3.207 3.207 0 0 1 1.316-.288zm16.863-4.838a29.06 29.06 0 0 1-14.188-3.378c-3.864-2.234-6-5.224-6-8.431 0-3.207 2.136-6.189 6-8.423 7.82-4.504 20.547-4.504 28.366 0 3.865 2.234 6 5.225 6 8.423 0 3.198-2.135 6.197-6 8.431a29.051 29.051 0 0 1-14.178 3.378zm0-22.817a28.204 28.204 0 0 0-13.774 3.288c-3.603 2.08-5.585 4.828-5.585 7.72 0 2.891 1.982 5.639 5.585 7.72 7.603 4.387 19.962 4.387 27.556 0 3.603-2.081 5.585-4.82 5.585-7.72 0-2.9-1.982-5.64-5.585-7.72a28.24 28.24 0 0 0-13.791-3.288h.009z" fill="#FFF" opacity=".55"/>
            </g>
        </g>
        <g>
            <path d="M180.197 289.24c.226-2.937-2.098-6.306-7.27-10.251-9.539-7.333-44.229-31.456-57.705-40.383a.135.135 0 0 0-.108-.126c-10.314-7.45-12.611-58.472-18.241-82.875-.054-.225-.442-2.098-1.225-4.504l-.117-.324a27.074 27.074 0 0 0-.352-1.009c-.054-.162-.108-.342-.17-.495a22.691 22.691 0 0 0-4.442-7.64 10.918 10.918 0 0 0-2.315-1.927c-1.162-.784-4.009-2.207-4.621-2.63-7.017-5-24.817 7.684-37.384 13.314-7.819 3.513-14.602 7.882-19.214 16.665a53.049 53.049 0 0 0-5.035 16.08c-2.063 12.466-1.649 54.318-.55 72.694 1.27 30.673 5.792 31.087 11.972 36.7 10.62 9.647 41.815 29.383 52.247 34.473 18.917 9.224 35.753-1.333 48.094-6.252 12.34-4.918 35.726-16.367 41.014-19.601 3.134-1.928 4.855-3.99 5.008-6.306.027-.91.342-4.639.414-5.603z" fill="#263238"/>
            <path d="M134.175 315.084c12.341-4.91 35.726-16.376 41.014-19.61 7.143-4.36 6.927-9.432-2.252-16.485-12.756-9.8-65.11-45.284-65.11-45.284s-60.85 29.322-75.272 42.131c-2.18 1.937-2.27 6.036-1.513 6.99 7.909 9.91 43.094 32.673 55.04 38.51 18.871 9.224 35.752-1.333 48.093-6.252zM88.243 139.697l-.198-.117a10.738 10.738 0 0 0-5.216-1.63c-6.378-.514-16.449 3.945-31.528 13.692a82.262 82.262 0 0 0-12.927 9.909l-.234.225a30.52 30.52 0 0 0-3.306 3.702c-.17.216-.333.433-.495.658-.162.225-.19.252-.27.378-.208.297-.415.595-.613.901a42.932 42.932 0 0 0-1.162 1.91l-.117.207-.433.81-4.684-3.242c4.612-8.783 11.71-13.305 18.998-17.782 12.612-7.711 26.583-17.728 35.501-13.404.64.252 5.513 3 6.684 3.783z" fill="#455A64"/>
            <path d="M96.846 155.596c-.82-3.215-3.603-17.115-14.044-17.646-6.378-.514-16.449 3.954-31.528 13.692-7.017 4.504-15.107 10.341-19.124 17.854-5.91 9.332-6.837 35.221-6.486 60.129.351 24.907 1.964 48.814 5.333 53.22 5.918-16.611 75.902-49.302 84.09-44.365-10.287-7.45-12.602-58.472-18.241-82.884z" fill="#37474F"/>
            <path d="M53.463 236.786c-6.153 14.07-7.35 28.475-5.81 36.537 1.54 8.062 3 19.196 23.078 31.88 22.926 14.475 39.627 22.835 39.627 22.835l76.145-48.788-51.95-31.591-81.09-10.873z" fill="#407BFF"/>
            <path d="M53.463 236.786c-6.153 14.07-7.35 28.475-5.81 36.537 1.54 8.062 3 19.196 23.078 31.88 22.926 14.475 39.627 22.835 39.627 22.835l76.145-48.788-51.95-31.591-81.09-10.873z" fill="#000" opacity=".15"/>
            <path d="M72.731 289.555a52.488 52.488 0 0 1-1.801-2.053c5.828-1.54 9.26-8.783 8.54-16.963-.424-4.684-.902-10.008-.262-15.034l-1.018-.135c-.649 5.143-.171 10.521.252 15.26.73 8.25-2.702 14.917-8.27 15.998-11.16-13.377-9.44-26.367-4.008-43.608l-.982-.307c-5.954 18.917-6.864 32.772 6.792 47.536 9.009 9.71 33.465 22.962 47.788 31.79l.964-.613c-14.296-8.792-38.996-22.15-47.995-31.87zM135.211 261.856c-3.117 10.026-9.602 14.836-9.602 14.836 12.124 8.828 22.07 17.025 29.006 23.043l8.485-5.405-29.79-19.998c3.478-7.153 1.901-12.476 1.901-12.476z" fill="#000" opacity=".35"/>
            <g>
                <path fill="#407BFF" d="M169.406 411.29 35.663 334.073l222.751-128.572 133.743 77.226z"/>
                <path fill="#FFF" opacity=".8" d="M169.406 411.29 35.663 334.073l222.751-128.572 133.743 77.226z"/>
                <path fill="#407BFF" d="M35.663 334.073v9.648l133.743 77.217v-9.648z"/>
                <path fill="#FFF" opacity=".5" d="M35.663 334.073v9.648l133.743 77.217v-9.648z"/>
                <path fill="#407BFF" d="m169.406 420.938 222.751-128.563v-9.648L169.406 411.29z"/>
                <path fill="#FFF" opacity=".65" d="m169.406 411.29 222.751-128.563v9.648L169.406 420.938z"/>
            </g>
            <g>
                <path d="m303.563 276.296-58.084-33.565a3.333 3.333 0 0 0-3.342 0L141.265 300.96a.748.748 0 0 0 0 1.288l58.67 33.897 103.628-59.85z" fill="#407BFF" opacity=".2"/>
                <path d="M299.221 269.224v1.306a5.405 5.405 0 0 1-2.702 4.649l-93.937 54.228a5.247 5.247 0 0 1-2.702.712 5.355 5.355 0 0 1-2.702-.72l-51.202-29.457a5.405 5.405 0 0 1-2.703-4.657v-1.802c0 .242.132.466.343.585l56.228 32.475 99.377-57.319z" fill="#37474F"/>
                <path d="m299.23 269.215-55.697-32.159a3.216 3.216 0 0 0-3.198 0l-96.647 55.85a.712.712 0 0 0 0 1.225l56.22 32.43 99.322-57.346z" fill="#455A64"/>
                <path d="M199.934 326.552v3.603a5.343 5.343 0 0 0 2.703-.712l93.936-54.228a5.405 5.405 0 0 0 2.702-4.658v-1.342l-99.34 57.337z" fill="#263238"/>
                <path fill="#37474F" d="M199.42 321.822 169.38 304.5l87.837-50.716 30.195 17.233z"/>
                <path fill="#263238" d="m287.411 271.017-1.144.666-29.05-16.574-86.685 50.048-1.144-.657 87.828-50.716zM184.656 273.63l.55.314 14.728 8.504 26.187-15.116.54-.315-15.278-8.819z"/>
                <path fill="#37474F" d="m185.206 273.944 14.728 8.504 26.187-15.116-14.738-8.503z"/>
                <path d="M218.95 243.984a57.13 57.13 0 0 0-9.72-10.963c-4.386-3.603-6.188-4.693-14.106-8.477l-11.71 15.818 3.53 1.063c1.478.523 2.28.667 2.856 2.045.318 1.555.538 3.129.658 4.711.29 2.637.864 5.234 1.711 7.747 1.243 3.73 2.045 3.468 4.288 6.441 2.072 2.702 2.91 4.567 4.063 4.423 1.153-.144 2.585-2.405 2-4.936-.586-2.532-2.703-6.17-3.01-7.207-.251-.9-.702-2.603 2.028-1.747 2.864.9 7.8 7.116 10.278 9.674 2.477 2.559 4.008 6.468 6.305 8.189 2.297 1.72 5.793 1.63 4.82-2.108.369-2.162 1.702-5.9 2.027-9.369.324-3.468-3.46-11.593-6.018-15.304z" fill="#FFA8A7"/>
                <g>
                    <path d="M201.447 327.344a6.369 6.369 0 0 0 5.477-.423l93.504-53.995a6.369 6.369 0 0 0 3.09-4.45l10.242-61.047c.054-.346.081-.695.081-1.045a6.306 6.306 0 0 0-1.883-4.504l-97.16 56.093a4.73 4.73 0 0 0-2.289 3.297l-11.062 66.074z" fill="#37474F"/>
                    <path d="m199.934 326.552.64.369c.279.153.576.297.9.423l11.062-66.074a4.73 4.73 0 0 1 2.288-3.297l97.18-56.111a5.954 5.954 0 0 0-1.298-.991l-97.377 56.22a4.73 4.73 0 0 0-2.288 3.296l-11.107 66.165z" fill="#455A64"/>
                    <path d="m213.42 259.225-1.514-.9a4.828 4.828 0 0 0-.901 2.035l-11.08 66.165.64.369c.279.153.576.297.9.423l11.062-66.074a4.675 4.675 0 0 1 .892-2.018z" fill="#263238"/>
                    <path d="M256.045 269.864c.523-3.117 3.748-7.27 7.207-9.26 3.459-1.991 5.828-1.082 5.306 2.044-.523 3.126-3.748 7.27-7.207 9.26-3.459 1.991-5.828 1.082-5.306-2.044z" fill="#407BFF"/>
                </g>
            </g>
            <g>
                <path d="M131.977 143.562c6.189 1.459 15.314 4.332 19.305 16.818 4.756 14.926 9.728 48.706 9.728 48.706l34.096 15.458-11.71 15.818s-25.115-6.233-37.231-9.764c-13.07-3.81-12.611-7.738-16.818-29.304-2.703-13.971-5.594-31.132-5.594-31.132 1.342-11.737 8.224-26.6 8.224-26.6z" fill="#FFA8A7"/>
                <path d="M132.878 143.318c9.909 2.297 13.512 6.135 16.764 10.91 3.252 4.773 6.522 21.123 9.008 33.797 2.486 12.675 3.657 20.476 3.657 20.476l18.314 9.458s-4.504-.837-8.702 7.44c-2.702 5.253-1.324 11.711-1.324 11.711s-23.908-4.9-28.475-6.494c-4.567-1.595-7.71-3.162-10.098-10.81-2.387-7.648-9.909-51.436-9.909-51.436l10.765-25.052z" fill="#EBEBEB"/>
                <path d="M141.643 155.777c-4.504-7.73-8.17-11.279-9.648-12.215-4.504-1.352-19.592-2.523-27.186-.793-13.404 1.883-23.106 4.072-32.79 7.62-3.242 1.19-5.08 4.685-5.927 6.766-1.747 4.432-2.108 15.395-2.207 21.313-.216 14.242.307 25.024-1.801 34.88-1.28 6.017-10.81 19.889-14.413 42.94 32.933 30.412 84.55 3.298 86.892-8.593 0 0-1.433-8.18-3.297-17.827 0-3.17 4.576-15.143 4.44-14.953 22.656-11.855 18.791-38.339 5.937-59.138z" fill="#263238"/>
                <path d="M125.609 212.536c-5.072 5.513-24.863 8.684-36.033-4.576 1.748 11.188 25.124 19.656 36.033 4.576z" fill="#000"/>
                <path d="M151.876 98.837c-2.612 4.35-1.162 7.89-3.55 12.359-.9 1.63-44.841 12.404-52.408 15.503a101.935 101.935 0 0 0-5.792-14.657c-4.117-8.269-5.955-16.62-4.784-22.862 1.343-7.207 5.99-9.648 8.288-9.648 0-5.882 6.468-13.962 19.818-16.89 26.582-5.846 50.958 15.34 38.428 36.195z" fill="#263238"/>
                <path d="M146.057 82.703a6.405 6.405 0 0 1 3.792 3.73c1.514 3.675 3.603 12.368.288 28.888-2.882 14.341-7.846 20.827-12.998 22.89-3.099 1.243-10.287.72-14.656-.442a14.917 14.917 0 0 0-.595 1.856c-.64 2.27 1.072 2.576 1.072 2.576s11.819 16.125-4.207 18.557a27.925 27.925 0 0 1-19.817-4.756 114.997 114.997 0 0 1-12.9-9.81c5.306-1.387 5.855-2.702 7.207-7.369 2.35-8.314 4.459-21.619 4.459-21.619s-4.171 3.702-8.216-1.324c-4.702-5.855-5.18-14.413 0-17.43 6.306-3.667 10.395.729 11.828 5.179 1.315 4.062 5.756 4.72 7.395.08 2.333-6.629 1.937-15.313 9.387-20.07 4.693-3.017 11.872-2.99 18.592 4.703 3.396-5.432 6.576-6.576 9.369-5.639z" fill="#FFA8A7"/>
                <path d="m123.465 119.861 8.395 3.243a4.423 4.423 0 0 1-5.747 2.703 4.711 4.711 0 0 1-2.648-5.946z" fill="#B16668"/>
                <path d="M123.284 122.348c.352.011.701.053 1.045.126a6.306 6.306 0 0 1 4.378 3.53 4.288 4.288 0 0 1-2.594-.161 4.594 4.594 0 0 1-2.829-3.495z" fill="#F28F8F"/>
                <path d="m125.825 93.91-6.46 2.116a3.27 3.27 0 0 1 2.055-4.288 3.603 3.603 0 0 1 4.405 2.171zM142.21 97.638l6.027 3.19a3.27 3.27 0 0 0-1.297-4.577 3.603 3.603 0 0 0-4.73 1.387zM140.751 104.944a2.702 2.702 0 0 0 2.513 2.702 2.513 2.513 0 0 0 2.703-2.405 2.702 2.702 0 0 0-2.504-2.702 2.522 2.522 0 0 0-2.712 2.405zM121.168 103.836a2.702 2.702 0 0 0 2.062 3.09 2.522 2.522 0 0 0 3.036-1.973 2.702 2.702 0 0 0-2.072-3.09 2.504 2.504 0 0 0-3.026 1.973z" fill="#263238"/>
                <path fill="#F28F8F" d="m133.094 101.773-1.072 15.386 9.17-1.712zM101.134 119.861s-1.496 8.063 3.044 12.846c5.405 5.666 14.089 7.783 17.665 8.45a2.63 2.63 0 0 1 .045-1.532c.158-.63.356-1.25.595-1.856-3.829-1.054-11.54-3.27-15.9-7.062a15.143 15.143 0 0 1-5.45-10.846z"/>
                <path d="M95.666 113.43a1.856 1.856 0 1 1-3.712 0 1.856 1.856 0 0 1 3.712 0z" fill="#407BFF"/>
                <g>
                    <path d="M93.152 138.868s.415 6.829 2.27 11.801c3.487 9.287 8.495 20.782 16.27 31.177 7.773 10.395 19.195 23.682 19.195 23.682s8.315-23.015-.81-47.743a130.059 130.059 0 0 0-6.207-13.845 8.387 8.387 0 0 0-1.703-2.117c-.35-.342-.621-.99-.288-2.198l.36-1.225a21.899 21.899 0 0 0 3.748 2.324 47.599 47.599 0 0 0 5.864 2.288c.748.252.973.306.973.306a62.156 62.156 0 0 1 10.521 12.738c6.099 10.503 9.954 22.862 9.63 31.32-.558 14.774-6.098 20.764-12.611 27.457-4.126 4.225-5.288 27.025-1.135 32.348 4.152 5.324 12.791 11.017 12.791 11.017s-12.188 2.072-34.456 13.017-34.906 20.719-38.464 26.673a23.583 23.583 0 0 0-3.46 11.359s-16.754-8.54-23.096-16.9c-6.342-8.359-8.72-21.276-7.314-33.149 1.405-11.872 27.024-109.853 27.024-109.853s10.918-5.882 15.647-9.387c2.369-1.747 5.125-3.468 5.846-3.315l-.595 2.225z" fill="#FAFAFA"/>
                    <path d="m116.934 196.349-13.819-9.909a389.812 389.812 0 0 1-6.8-5.017 69.362 69.362 0 0 1-6.378-5.234 9.597 9.597 0 0 1-.604-.658c-.171-.207-.171-.207-.207-.27v-.405c.01-.255.043-.508.099-.757.301-1.22.755-2.398 1.351-3.504A51.346 51.346 0 0 1 95 163.74l.063-.072a1.694 1.694 0 0 0-1.801-2.63 43.867 43.867 0 0 1-3.604.9c-1.133.25-2.29.376-3.45.378l-.414-.045v-5.053c0-2.558.18-5.126.441-7.675.255-2.57.67-5.121 1.243-7.639a39.347 39.347 0 0 0-2.594 7.396 61.12 61.12 0 0 0-1.405 7.756c-.171 1.306-.27 2.612-.36 3.927l-.055.982v.487a1.892 1.892 0 0 0 0 .288c.002.207.03.412.081.612.12.417.353.792.676 1.081.247.217.527.393.829.523.427.17.876.282 1.333.333 1.295.116 2.599.071 3.883-.135a45.5 45.5 0 0 0-2.307 3.81 18.331 18.331 0 0 0-1.73 4.396 8.63 8.63 0 0 0-.18 1.343 6.9 6.9 0 0 0 0 .747l.055.406v.198c.021.12.055.237.099.351.057.186.136.364.234.532.09.162.162.26.234.369.134.199.282.389.442.567.263.315.542.616.837.901a69.92 69.92 0 0 0 6.829 5.477c2.315 1.676 4.693 3.261 7.062 4.837a227.34 227.34 0 0 0 7.206 4.595c2.442 1.495 4.838 2.981 7.288 4.422 4.891 2.892 9.846 5.685 14.9 8.288a1456.27 1456.27 0 0 0-13.9-10.044zM129.734 210.825c-.207 4.189-.657 8.36-1.126 12.521-.468 4.162-1.036 8.315-1.351 12.467-.19 2.081-.315 4.162-.324 6.234a27.997 27.997 0 0 0 .567 6.152 31.744 31.744 0 0 0 1.946 5.91 16.665 16.665 0 0 0 3.351 5.224 10.81 10.81 0 0 1-2.117-2.324 21.845 21.845 0 0 1-1.63-2.702 32.159 32.159 0 0 1-2.225-5.927 25.394 25.394 0 0 1-.712-6.306c0-2.117.081-4.216.252-6.306.388-4.189.901-8.341 1.559-12.485.657-4.144 1.234-8.305 1.81-12.458zM145.111 164.145a9.008 9.008 0 0 0-1.054-2.027 23.268 23.268 0 0 0-2.513-3.063c-.901-.9-1.802-1.801-2.757-2.594-.955-.793-2-1.693-3.026-2.495a5.53 5.53 0 0 0 .612-.252c.153-.064.298-.146.433-.244.165-.106.316-.233.45-.378.345-.343.561-.795.613-1.279.03-.253.011-.51-.055-.757a1.432 1.432 0 0 0-.108-.306l-.117-.243a6.306 6.306 0 0 0-.46-.676c-.305-.378-.62-.72-.9-1.045-.63-.64-1.28-1.225-1.928-1.801a98.987 98.987 0 0 0-4.053-3.252 86.982 86.982 0 0 0-4.216-3l3.531 3.765c1.171 1.253 2.342 2.505 3.45 3.784.559.63 1.117 1.27 1.613 1.919.244.307.47.629.675.963.044.07.083.142.117.217h-.072a3.603 3.603 0 0 1-.9.18c-.756.072-1.516.072-2.27 0a1.423 1.423 0 0 0-1.055 2.504l.1.09c1.801 1.522 3.666 3.09 5.404 4.747.901.82 1.676 1.676 2.469 2.523a19.286 19.286 0 0 1 2.08 2.612c.255.377.467.782.631 1.207.093.426.138.861.135 1.297a31.96 31.96 0 0 1-.171 3.414c-.234 2.342-.658 4.711-1.072 7.072-.414 2.36-.9 4.729-1.45 7.089-.55 2.36-1.1 4.702-1.703 7.044a78.37 78.37 0 0 1-4.666 13.765 32.708 32.708 0 0 0 3.928-6.306c1.117-2.198 2.062-4.504 2.954-6.783.892-2.28 1.649-4.648 2.378-7 .73-2.35 1.316-4.756 1.874-7.206.523-2.39.926-4.803 1.207-7.233.163-1.29.238-2.591.225-3.892.001-.798-.111-1.593-.333-2.36zM82.045 209.131s17.062 2.802 28.763-.54v-6.09c-11.71 3.351-28.763.55-28.763.55v6.08z" fill="#E0E0E0"/>
                </g>
                <g>
                    <path d="M39.194 223.067c3.702-21.25 7.297-38.78 12.242-54.049 2.91-9.008 9.909-14.034 20.575-18.628 11.485 8.18 6.638 33.762 5.017 39.752l-9.008 36.366s9.819 7.918 20.286 15.593c8.846 6.486 14.8 10.377 25.223 11.611 10.422 1.234 14.674.901 20.124 3.252 2.9 1.261 9.512 4.18 11.773 5.315 2.261 1.135 6.306 5.225 10.044 7.972 3.522 2.802-.9 4.36-3.603 3.603-3.603-1.045-5.774-2.603-8.215-3.981-2.306-1.297-4.63-1.802-7.045-2.703a41.969 41.969 0 0 1 1.496 8.216c0 1.504.342 3.324-.964 4.423a11.305 11.305 0 0 1-3.144 1.297 2.27 2.27 0 0 1-.622 1.45 3.756 3.756 0 0 1-2.702.694 11.972 11.972 0 0 1-1.531-.225c-.14.967-.78 1.79-1.685 2.161a12.017 12.017 0 0 1-6.405.226c-.315-.126-2.702-1.406-3.405-1.802-1.009-.522-1.91-.82-2.35-1.477-.442-.658.9-2.586 2.17-2.784a12.476 12.476 0 0 1 4.072.261 14.557 14.557 0 0 1-1.198-3.513c-1.108-1.801-9.125 0-16.215-1.189-5.405-.9-9.269-6.035-11.71-7.125-15.386-6.954-27.24-11.81-42.888-21.25-14.286-8.576-12.224-12.44-10.332-23.466z" fill="#FFA8A7"/>
                    <path d="M138.03 267.63c-.828-2.027-2.098-4.45-3.648-5.009a18.25 18.25 0 0 1 2.261 4.504c.469.198.928.352 1.388.505zM134.031 281.088c.239-1.462.284-2.95.135-4.423a40.203 40.203 0 0 0-.576-4.396 19.331 19.331 0 0 0-1.198-4.297 8.107 8.107 0 0 0-2.703-3.54 6.044 6.044 0 0 1 1.207 1.802c.34.636.621 1.302.838 1.99.427 1.38.755 2.79.982 4.216.28 1.432.513 2.865.757 4.306.271 1.435.458 2.885.558 4.342zM129.212 282.998a20.665 20.665 0 0 0 0-4.351 36.51 36.51 0 0 0-.649-4.306 31.303 31.303 0 0 0-1.189-4.198c-.54-1.324-1.045-2.802-2.225-3.72.443.558.773 1.198.973 1.882.243.667.45 1.352.63 2.036.36 1.387.685 2.775.973 4.18.595 2.81 1.144 5.612 1.487 8.477zM117.564 279.394a7.36 7.36 0 0 1 1.802.253c.576.135.99.432 1.72.657l-.297-.468c-.038.305.002.615.117.9.097.246.238.472.415.667.321.381.747.66 1.225.802a5.972 5.972 0 0 1-.739-1.117 2.946 2.946 0 0 1-.18-.568c-.02-.164-.02-.33 0-.495l.045-.333-.342-.145a5.531 5.531 0 0 0-1.694-.35 3.603 3.603 0 0 0-2.072.197z" fill="#F28F8F"/>
                    <path d="M72.245 149.345c-14.413 6.8-17.035 9.161-21.35 16.899-4.314 7.738-6.485 17.557-9.43 34.465-2.757 15.836-6.496 31.06-4.352 35.924 2.144 4.864 4.189 5.765 11.71 10.548 7.522 4.784 25.98 12.675 25.98 12.675s.27-6.99 4.08-11.71c5.775-7.1 9.396-6.081 9.396-6.081L69.975 226.02s7.81-33.005 9.746-40.797c1.937-7.792 4.513-29.24-7.476-35.88z" fill="#EBEBEB"/>
                </g>
            </g>
            <g>
                <path d="m141.886 386.662 47.05-27.096c1.855-1.072 1.855-2.81 0-3.882l-67.84-39.24a7.423 7.423 0 0 0-6.72 0L67.361 343.56c-1.855 1.072-1.855 2.81 0 3.882l67.831 39.24a7.44 7.44 0 0 0 6.693-.019z" fill="#407BFF" opacity=".2"/>
                <path fill="#407BFF" d="m179.243 357.656-41.699 23.547-64.03-36.743 41.69-23.548z"/>
                <path fill="#000" opacity=".6" d="m179.243 357.656-41.699 23.547-64.03-36.743 41.69-23.548z"/>
                <path d="m137.094 379.483 40.293-22.89c-1-2.846-.9-3.702.207-7.485l-40.05 22.655s-.73-.054-.45 7.72z" fill="#F5F5F5"/>
                <path d="M139.499 368.664a8.107 8.107 0 0 0-3.675 6.306v4.954c0 2.333 1.648 3.28 3.675 2.108l39.735-22.565v-1.802l-39.23 22.151c-1.226.694-2.208.126-2.208-1.27v-4.414a4.864 4.864 0 0 1 2.207-3.801l39.186-22.151v-2.126l-39.69 22.61z" fill="#407BFF"/>
                <path d="M139.499 368.664a8.107 8.107 0 0 0-3.675 6.306v4.954c0 2.333 1.648 3.28 3.675 2.108l39.735-22.565v-1.802l-39.23 22.151c-1.226.694-2.208.126-2.208-1.27v-4.414a4.864 4.864 0 0 1 2.207-3.801l39.186-22.151v-2.126l-39.69 22.61z" fill="#000" opacity=".5"/>
                <path d="m179.243 346.054-64.039-36.744-39.734 22.574a8.107 8.107 0 0 0-3.676 6.306v4.954a2.576 2.576 0 0 0 1.072 2.37l64.039 36.743a2.558 2.558 0 0 1-1.081-2.369v-4.954a8.107 8.107 0 0 1 3.684-6.306l39.735-22.574z" fill="#407BFF"/>
                <path d="m179.243 346.054-64.039-36.744-39.734 22.574a8.107 8.107 0 0 0-3.676 6.306v4.954a2.576 2.576 0 0 0 1.072 2.37l64.039 36.743a2.558 2.558 0 0 1-1.081-2.369v-4.954a8.107 8.107 0 0 1 3.684-6.306l39.735-22.574z" fill="#000" opacity=".35"/>
                <path d="M136.896 371.394a7.414 7.414 0 0 0-1.081 3.603v4.954a2.558 2.558 0 0 0 1.08 2.37l-64.038-36.744a2.576 2.576 0 0 1-1.072-2.37v-4.954a7.423 7.423 0 0 1 1.072-3.603l64.039 36.744z" fill="#407BFF"/>
                <path d="M136.896 371.394a7.414 7.414 0 0 0-1.081 3.603v4.954a2.558 2.558 0 0 0 1.08 2.37l-64.038-36.744a2.576 2.576 0 0 1-1.072-2.37v-4.954a7.423 7.423 0 0 1 1.072-3.603l64.039 36.744z" fill="#000" opacity=".45"/>
                <path d="M81.532 339.56c-1.198 5.188-1.18 7.206 0 11.007l3.054 1.802c-1.18-3.802-1.198-5.829 0-11.008l-3.054-1.802zM123.519 363.692c-1.198 5.18-1.18 7.143 0 10.945l3.044 1.756c-1.17-3.801-1.189-5.756 0-10.936l-3.044-1.765z" fill="#407BFF"/>
                <g>
                    <path fill="#407BFF" d="m187.656 345.477-41.698 23.539-64.03-36.744 41.69-23.547z"/>
                    <path fill="#000" opacity=".4" d="m187.656 345.477-41.698 23.539-64.03-36.744 41.69-23.547z"/>
                    <path d="m145.49 367.295 40.283-22.89c-1-2.837-.9-4.107.208-7.89L145.94 359.17s-.712.396-.45 8.125z" fill="#F5F5F5"/>
                    <path d="M147.913 356.071a8.107 8.107 0 0 0-3.685 6.306v5.404c0 2.334 1.649 3.28 3.685 2.117l39.734-22.574v-1.801l-39.24 22.141c-1.215.703-2.206.135-2.206-1.27v-4.81a4.846 4.846 0 0 1 2.261-3.82l39.185-22.15v-2.081l-39.734 22.538z" fill="#407BFF"/>
                    <path d="M147.913 356.071a8.107 8.107 0 0 0-3.685 6.306v5.404c0 2.334 1.649 3.28 3.685 2.117l39.734-22.574v-1.801l-39.24 22.141c-1.215.703-2.206.135-2.206-1.27v-4.81a4.846 4.846 0 0 1 2.261-3.82l39.185-22.15v-2.081l-39.734 22.538z" fill="#000" opacity=".25"/>
                    <path d="m187.647 333.497-64.03-36.744-39.734 22.574a8.107 8.107 0 0 0-3.684 6.306v5.36a2.55 2.55 0 0 0 1.08 2.36l64.03 36.744a2.567 2.567 0 0 1-1.08-2.36v-5.405a8.107 8.107 0 0 1 3.674-6.306l39.744-22.53z" fill="#407BFF"/>
                    <path d="M145.31 358.8a7.44 7.44 0 0 0-1.082 3.604v5.404a2.567 2.567 0 0 0 1.081 2.36l-64.03-36.743a2.55 2.55 0 0 1-1.08-2.36v-5.36a7.477 7.477 0 0 1 1.08-3.603l64.03 36.698z" fill="#407BFF"/>
                    <path d="M145.31 358.8a7.44 7.44 0 0 0-1.082 3.604v5.404a2.567 2.567 0 0 0 1.081 2.36l-64.03-36.743a2.55 2.55 0 0 1-1.08-2.36v-5.36a7.477 7.477 0 0 1 1.08-3.603l64.03 36.698z" fill="#000" opacity=".15"/>
                    <path d="M89.928 326.966c-1.19 5.189-1.171 7.62 0 11.422l3.053 1.757c-1.18-3.802-1.198-6.234 0-11.414l-3.053-1.765zM131.923 351.135c-1.189 5.18-1.17 7.53 0 11.332l3.054 1.756c-1.18-3.801-1.198-6.161 0-11.35l-3.054-1.738z" fill="#407BFF"/>
                    <g opacity=".4" fill="#FFF">
                        <path d="M89.928 326.966c-1.19 5.189-1.171 7.62 0 11.422l3.053 1.757c-1.18-3.802-1.198-6.234 0-11.414l-3.053-1.765zM131.923 351.135c-1.189 5.18-1.17 7.53 0 11.332l3.054 1.756c-1.18-3.801-1.198-6.161 0-11.35l-3.054-1.738z"/>
                    </g>
                </g>
            </g>
            <g>
                <path d="m274.25 320.49-49.904 28.825-6.918 1.405a.216.216 0 0 1-.225-.315l2.162-3.964 49.913-28.825c1.36-.793 6.036 2.252 4.973 2.873z" fill="#000" opacity=".2"/>
                <path d="M269.45 314.742a4.099 4.099 0 0 0 1.855 3.216c.313.206.693.287 1.063.225a.649.649 0 0 1-.198.153l.441-.252.063-.054.09-.063.045-.054.045-.054a1.18 1.18 0 0 0 .154-.28V317.41c.037-.15.055-.305.054-.46a4.099 4.099 0 0 0-1.856-3.207 1.594 1.594 0 0 0-.829-.252h-.441l-.388.225a.522.522 0 0 1 .199-.072 1.46 1.46 0 0 0-.298 1.099z" fill="#407BFF"/>
                <path d="m221.5 341.55 2.62 4.504.442-.252L272.17 318.3a.649.649 0 0 0 .198-.153c.245-.29.368-.665.342-1.045a4.08 4.08 0 0 0-1.855-3.207 1.676 1.676 0 0 0-.83-.252 1.036 1.036 0 0 0-.233 0 .522.522 0 0 0-.198.072l-48.095 27.835z" fill="#F0F0F0"/>
                <path d="M222.815 341.676c-1.027-.585-1.856-.108-1.856 1.072.071 1.306.76 2.5 1.856 3.216 1.018.585 1.855.108 1.855-1.072a4.117 4.117 0 0 0-1.855-3.216z" fill="#407BFF"/>
                <path d="M218.824 344.433v-.054l2.37-2.595v-.054a1.198 1.198 0 0 1 1.485 0 4.117 4.117 0 0 1 1.856 3.216 1.207 1.207 0 0 1-.72 1.27h-.136l-3.432.748a.81.81 0 0 1-.594-.126 2.36 2.36 0 0 1-1.063-1.802.9.9 0 0 1 .234-.603z" fill="#E0E0E0"/>
                <path d="M249.127 327.551h.063a.522.522 0 0 1 .433.063c.389.255.633.68.657 1.145a.468.468 0 0 1-.153.396l-.081.054-28.16 16.214-1.855-1.072 29.096-16.8z" fill="#455A64"/>
                <path d="m224.5 343.91-2.613 1.513-1.856-1.072 3.54-2.044a4.35 4.35 0 0 1 .928 1.603z" fill="#37474F"/>
                <path d="m217.896 345.667 2.144-2.36.054-.064a.9.9 0 0 1 1.063 0 2.892 2.892 0 0 1 1.306 2.27.9.9 0 0 1-.495.901h-.081l-3.144.685a.486.486 0 0 1-.333-.072 1.315 1.315 0 0 1-.595-1.036.477.477 0 0 1 .081-.324z" fill="#407BFF"/>
                <path d="m217.896 345.667 2.144-2.36.054-.064a.9.9 0 0 1 1.063 0 2.892 2.892 0 0 1 1.306 2.27.9.9 0 0 1-.495.901h-.081l-3.144.685a.486.486 0 0 1-.333-.072 1.315 1.315 0 0 1-.595-1.036.477.477 0 0 1 .081-.324z" fill="#000" opacity=".1"/>
                <path d="M217.78 346.054c.02.42.241.806.594 1.036a.486.486 0 0 0 .333.072l1.585-.351c.253-.045.415-.289.415-.667a2.099 2.099 0 0 0-.955-1.648.604.604 0 0 0-.757 0h-.045l-1.063 1.17a.477.477 0 0 0-.108.388z" fill="#407BFF"/>
                <path d="M218.374 345.667c-.334-.19-.595 0-.595.342.021.42.242.806.595 1.036.324.19.594 0 .594-.342a1.324 1.324 0 0 0-.594-1.036z" fill="#000" opacity=".1"/>
                <path d="M265.585 318.039a.45.45 0 0 1 .468.045c.387.253.63.674.658 1.135a.432.432 0 0 1-.198.423l-16.377 9.468a.468.468 0 0 0 .153-.397 1.46 1.46 0 0 0-.657-1.144.522.522 0 0 0-.433-.063l16.386-9.467z" fill="#FAFAFA"/>
                <path d="M265.396 318.462c.027.461.27.882.657 1.135a.46.46 0 0 0 .46.045.45.45 0 0 0 .198-.423 1.46 1.46 0 0 0-.658-1.135.45.45 0 0 0-.468-.045.46.46 0 0 0-.19.423z" fill="#F5F5F5"/>
                <path d="m266.864 315.652 2.702-1.577h.064a1.19 1.19 0 0 1 1.126.135 3.693 3.693 0 0 1 1.675 2.892c.048.424-.143.84-.495 1.081l-2.775 1.603a1.198 1.198 0 0 1-1.153-.135 3.657 3.657 0 0 1-1.666-2.882c-.042-.44.158-.867.522-1.117z" fill="#407BFF"/>
                <path d="m266.864 315.652 2.702-1.577h.064a1.19 1.19 0 0 1 1.126.135 3.693 3.693 0 0 1 1.675 2.892c.048.424-.143.84-.495 1.081l-2.775 1.603a1.198 1.198 0 0 1-1.153-.135 3.657 3.657 0 0 1-1.666-2.882c-.042-.44.158-.867.522-1.117z" fill="#000" opacity=".05"/>
                <path d="M268.08 315.75c-.9-.53-1.666-.107-1.666.965a3.657 3.657 0 0 0 1.666 2.882c.901.532 1.667.108 1.667-.964a3.684 3.684 0 0 0-1.667-2.882z" fill="#000" opacity=".1"/>
                <path d="m217.022 346.667 1.126-.685c.07-.04.156-.04.226 0a.676.676 0 0 1 .306.531.225.225 0 0 1-.09.199l-1.126.684a.55.55 0 0 1-.216.054.441.441 0 0 1-.433-.441.414.414 0 0 1 .207-.342z" fill="#455A64"/>
                <path d="m216.95 346.712.054-.045a.234.234 0 0 1 .199 0c.179.12.292.316.306.531a.225.225 0 0 1-.09.198h-.045a.37.37 0 0 1-.144 0 .441.441 0 0 1-.298-.756l.018.072z" fill="#263238"/>
            </g>
            <g>
                <path d="M245.848 344.045c.505 1.36 1.955 2.207 4.378 2.522l43.239-25.177 4.504-4.504a.351.351 0 0 0-.36-.577l-8.26 2.703-43.5 25.033z" fill="#000" opacity=".2"/>
                <path d="m289.618 315.931 7.351-1.441a.234.234 0 0 1 .216.378l-4.99 5.648-2.577-4.585z" fill="#FFA8A7"/>
                <path d="M297.212 314.868a.234.234 0 0 0-.216-.378l-1.432.279c.401.252.627.708.585 1.18v.126l1.063-1.207z" fill="#263238"/>
                <path d="m256.081 341.208.604-.343.73-.414 34.807-19.935c.243-.81.17-1.683-.207-2.441a3.45 3.45 0 0 0-2.37-2.144l-34.789 19.926-1.387.802c.919-.469 3.54 4.071 2.612 4.549z" fill="#455A64"/>
                <path d="m258.378 339.901 1.343-.774c.396-.207.17-1.18-.298-2.19-.612-1.341-1.801-2.63-2.342-2.36l-.99.577-.352.207c.523-.279 1.739 1.018 2.351 2.352.442.963.667 1.91.324 2.161l-.036.027z" fill="#EBEBEB"/>
                <path d="M258.712 339.748c.9-.486-1.72-5.026-2.64-4.504l-1.342.766c.901-.486 3.603 4.054 2.64 4.55l1.342-.812z" fill="#407BFF"/>
                <path d="m256.081 341.208 1.334-.757c.9-.477-1.604-4.882-2.559-4.594h-.063l-1.324.775c.919-.442 3.54 4.098 2.612 4.576z" fill="#EBEBEB"/>
                <path d="m297.24 314.616-.244-.126-5.333 2.918-36.275 20.8c-.054-.081-.09-.09-.126 0 .783 1.216 1.378 2.756.855 3.027l.604-.343.73-.414 34.807-19.935 4.99-5.648a.234.234 0 0 0-.009-.28z" fill="#000" opacity=".15"/>
                <path d="m250.451 344.433 5.63-3.225c.397-.208.18-1.171-.279-2.171-.603-1.342-1.801-2.649-2.333-2.378l-5.657 3.233c-1.126.65-.09 3.09 1.162 4.18.37.415.958.558 1.477.36z" fill="#F28F8F"/>
                <path d="M250.785 342.685a4.08 4.08 0 0 0-2.297-2.784.9.9 0 0 0-.847.118c-.847.783.144 3.026 1.324 4.053.362.409.937.555 1.45.37.469-.244.586-.892.37-1.757z" fill="#000" opacity=".1"/>
            </g>
            <g>
                <path d="M359.63 286.763a6.702 6.702 0 0 1-1.082 2.504 11.81 11.81 0 0 1-4.035 3.603c-6.982 4.036-18.305 4.036-25.295 0a11.89 11.89 0 0 1-4.036-3.603 6.81 6.81 0 0 1-1.063-2.504c-.621-3.027 1.081-6.189 5.108-8.513 6.99-4.035 18.313-4.035 25.295 0 4.017 2.324 5.729 5.486 5.107 8.513z" fill="#407BFF" opacity=".2"/>
                <path d="M355.648 273.305h-27.925l2.882 12.026c.216 1.45 1.288 2.873 3.207 3.981 4.342 2.504 11.386 2.504 15.728 0 2.072-1.198 3.144-2.747 3.243-4.306l2.865-11.701z" fill="#E0E0E0"/>
                <path d="M357.107 269.738a5.873 5.873 0 0 1-.9 2.17 10.278 10.278 0 0 1-3.505 3.117c-6.062 3.496-15.89 3.496-21.953 0a10.278 10.278 0 0 1-3.504-3.116 5.846 5.846 0 0 1-.9-2.171c-.541-2.63.945-5.405 4.44-7.387 6.063-3.504 15.89-3.504 21.953 0 3.423 2.018 4.91 4.756 4.369 7.387z" fill="#FAFAFA"/>
                <path d="M356.17 271.909a10.278 10.278 0 0 1-3.504 3.116c-6.063 3.496-15.89 3.496-21.953 0a10.278 10.278 0 0 1-3.504-3.116 5.846 5.846 0 0 1-.9-2.171l.693 4.738c.315 1.9 1.73 3.756 4.26 5.216 5.784 3.333 15.143 3.333 20.927 0 2.495-1.442 3.909-3.27 4.251-5.153v-.243l.667-4.558a5.873 5.873 0 0 1-.937 2.17z" fill="#EBEBEB"/>
                <path d="M350.873 263.405c-5.053-2.919-13.242-2.919-18.295 0-2.856 1.648-4.099 3.882-3.72 6.035.288 1.649 1.531 3.261 3.72 4.504 5.053 2.919 13.242 2.919 18.295 0 2.19-1.26 3.432-2.873 3.72-4.504.343-2.153-.891-4.387-3.72-6.035z" fill="#E0E0E0"/>
                <path d="M329.668 271.44a8.62 8.62 0 0 0 2.874 2.522c5.053 2.919 13.242 2.919 18.295 0a8.585 8.585 0 0 0 2.865-2.522c0-1.747-1.207-3.486-3.513-4.82-4.693-2.702-12.305-2.702-16.999 0-2.306 1.334-3.477 3.073-3.522 4.82z" fill="#407BFF"/>
                <path d="M337.785 252.613c-.244-7.134-2.937-18.223-5.513-22.7a36.5 36.5 0 0 1 8.107 21.106l-2.594 1.594z" fill="#263238"/>
                <path d="M345.532 268.017c.234-4.963 3.891-6.576 7.999-4.963 2.918 1.153 7.134 5.486 8.467 12.404-1.306-3.567-10.782-15.593-16.466-7.44z" fill="#455A64"/>
                <path d="M345.748 270.386c.234-1.801 1.9-4.27 4.801-3.675 2.9.594 9.729 5.927 12.611 14.683-.522-5.873-2.432-10.936-6.35-14.224-3.919-3.288-6.783-3.783-9.648-2.08-2.45 1.477-1.414 5.296-1.414 5.296z" fill="#37474F"/>
                <path d="M340.541 272.8c-2.36-7.89-2.702-22.52-.441-30.483 3.216-11.215 9.909-16.124 14.854-17.313-4.711 1.963-9.684 9.152-11.08 16.214-1.396 7.062-.594 31.618-.594 31.618l-2.739-.036z" fill="#455A64"/>
                <path d="M342.478 265.107c.306-4.413 2.882-14.205 7.981-18.15a9.386 9.386 0 0 1 12.512.774 7.666 7.666 0 0 0-9.485.144c-2.703 2.216-5.405 8.864-6.774 15.179l-4.234 2.053z" fill="#263238"/>
                <path d="M349.423 247.866c3.207-3.144 5.711-5.27 9.693-5.062 3.981.207 9.296 5.765 12.377 17.547-3.18-7.485-7.306-14.061-13.909-14.764a10.602 10.602 0 0 0-8.161 2.279z" fill="#37474F"/>
                <path d="M313.562 240.876c13.017-.523 24.36 8.793 26.376 21.664l-3.532-.567s-2.936-9.279-8.053-14.107c-4.504-4.27-7.864-5.972-14.791-6.99z" fill="#455A64"/>
                <path d="M340.811 260.324c.27-3.981-1.603-12.35-7.693-18.016-6.089-5.666-8.278-6.91-14.539-8.513a39.708 39.708 0 0 1 13.035 10.81c4.027 5.26 4.207 11.494 4.207 13.846.684 1.873 3.162 5.71 4.99 1.873z" fill="#37474F"/>
                <path d="M340.541 262.279c-.793-5.072 1.937-14.152 5.126-18.593 3.855-5.405 9.54-9.395 15.854-10.485-6.756 2.585-13.557 10.125-15.557 17.241a38.546 38.546 0 0 0-.829 14.476l-4.594-2.639z" fill="#37474F"/>
                <path d="M342.694 272.8c-.856-4.738.658-14.61 8.459-20.052 7.8-5.44 13.232-3.981 15.241-3.387-6.035-.405-12.107 2.955-15.809 7.117-2.576 2.891-4.99 7.62-5.144 15.467l-2.747.855z" fill="#455A64"/>
                <path d="M342.766 273.197s2.045-.054 2.865-1.01c0-3.062.828-9.196 5.125-12.818 4.297-3.62 7.648-2.927 8.324-1.504 0-2.09-2.622-3.946-5.522-3.324-4.829 1.027-11.693 7.315-10.792 18.656z" fill="#263238"/>
                <path d="M351.053 255.478c2.649-1.441 4.919-2.703 7.874-1.306.126-.081 1.801-.505 2.44.252 2.469 2.91 1.676 10.152-2.846 17.115 2.081-5.206 2.18-14.809-1.657-16.304a7.639 7.639 0 0 0-5.81.243z" fill="#37474F"/>
                <path d="M358.927 254.172c1.189.54 3.603 4.71 2.053 10.521 1.46-4.387.901-8.612-1.531-10.656a2.216 2.216 0 0 0-.522.135zM337.604 271.782c-.234-1.846-1.9-4.278-4.8-3.684-2.901.595-9.73 5.936-12.612 14.683a23.646 23.646 0 0 1 6.188-14.512c3.153-3.324 7.297-4.927 10.585-3.162 3.288 1.766.64 6.675.64 6.675z" fill="#263238"/>
                <path d="M336.406 260.72c-2.549-2.549-4.333-4.99-9.008-4.026-4.675.964-7.9 6.062-9.17 12.936.793-2.703 3.207-8.73 8-9.765 4.792-1.036 7.116-.676 10.178.856z" fill="#455A64"/>
                <path d="M337.604 271.782c-.666-4.504-2.378-10.908-7.161-11.17-4.783-.26-10.035 2.757-12.224 9.009 1.117-5.703 5.981-11.143 11.053-11.153 5.072-.008 10.062 1.09 11.27 14.323l-2.938-1.009zM333.569 252.703a12.909 12.909 0 0 0-6.594-3.27c-1.63-.279-4.801-1.53-8.197 1.63-3.396 3.163-6.973 10.55-5.739 15.72.577-5.495 7.937-20.863 20.53-14.08z" fill="#37474F"/>
                <path d="M341.217 273.25c0-4.17-3.045-17.394-7.855-20.763-6.018-4.207-10.044-.621-10.044-.621a8.107 8.107 0 0 1 7.206 1.135c3.108 2.279 6.008 8.927 7.116 18.781a4.378 4.378 0 0 0 3.577 1.469z" fill="#263238"/>
                <path d="M338.487 260.829c-.288 1.225.973 10.314 1.955 12.368a8.702 8.702 0 0 0 2.9-.045c.901-1.595 0-11.882 1.802-12.08-1.378-.595-5.981-2.342-6.657-.243z" fill="#37474F"/>
                <path d="M338.487 260.829c1.424-1.46 7.207 1.423 8.27 10.008 1.432-4.072.792-9.117-.64-10.387a2.603 2.603 0 0 0-2.964-.405s-4.468-1.964-4.666.784z" fill="#455A64"/>
                <path d="M343.153 260.045c1.802.748 3.784 3.198 3.766 7.378.135-2.144-.28-5.9-3.306-7.558a2.874 2.874 0 0 0-.46.18z" fill="#37474F"/>
            </g>
        </g>
        <g>
            <g fill="#E0E0E0">
                <path d="M346.775 55.994c-5.189-1.46-5.784-3.603-5.829-3.82a.477.477 0 0 1 0-.297l.73-2.612c.198-.702 0-2.17-2.144-5.161a.504.504 0 0 0-.045-.073 16.043 16.043 0 1 1 19.818 5.558h-.054c-3.468 1.469-4.414 2.604-4.612 3.315l-.739 2.604a.595.595 0 0 1-.153.261c-.171.225-1.775 1.693-6.972.225zm-4.567-3.981c.198.378 1.153 1.72 4.909 2.783s5.252.423 5.639.198l.676-2.405c.414-1.45 2.08-2.702 5.251-4.09h.054a14.791 14.791 0 1 0-18.214-5.143c2.018 2.846 2.702 4.81 2.342 6.251l-.657 2.406zM344.433 64.29c-5.405-1.53-6.018-3.729-6.072-3.972a.703.703 0 0 1 0-.306l1.477-5.225a.63.63 0 0 1 1.217 0s.558 1.72 5.188 3.027c4.63 1.306 6.018.135 6.027.117a.64.64 0 0 1 .756-.072c.24.14.355.426.28.693l-1.478 5.225a.676.676 0 0 1-.144.261c-.171.226-1.847 1.775-7.251.253zm-4.802-4.134c.198.387 1.18 1.802 5.144 2.928 3.963 1.126 5.522.432 5.918.198l1.081-3.739c-1.09.27-2.927.343-5.837-.486-2.91-.829-4.432-1.802-5.225-2.64l-1.08 3.739z"/>
                <path d="m345.847 51.598-.153-.072a.622.622 0 0 1-.208-.9s.982-1.74 1.92-7.64c.263-1.488.284-3.009.062-4.504-2.27 0-3.82-1.207-4.252-2.35a1.802 1.802 0 0 1 1-2.379 2.351 2.351 0 0 1 2.442.406 5.846 5.846 0 0 1 1.801 2.981c.343-.068.68-.161 1.01-.279a8.54 8.54 0 0 0 2.305-1.18c-.486-1.603-.495-3.144.1-4.063a1.892 1.892 0 0 1 3.36.955c0 1.09-.784 2.405-2.037 3.513a8.558 8.558 0 0 0 1.28 2.225c.219.272.46.525.72.757a5.82 5.82 0 0 1 3.081-1.594 2.36 2.36 0 0 1 2.297.9 1.802 1.802 0 0 1-.396 2.559 4.414 4.414 0 0 1-4.856-.226A14.197 14.197 0 0 0 353 44.608c-2.288 5.513-2.36 7.495-2.36 7.513a.622.622 0 0 1-.63.612.613.613 0 0 1-.613-.621c0-.09 0-2.153 2.45-7.981a15.188 15.188 0 0 1 2.477-4.18 7.72 7.72 0 0 1-.82-.901 10.287 10.287 0 0 1-1.35-2.207c-.72.486-1.498.88-2.316 1.171-.375.135-.76.24-1.153.315.235 1.612.21 3.251-.072 4.856-.99 6.233-2.045 8.017-2.08 8.107a.64.64 0 0 1-.685.306zm-.496-16.719a.9.9 0 0 0-.648 0 .54.54 0 0 0-.324.793 3.126 3.126 0 0 0 2.783 1.531 4.324 4.324 0 0 0-1.28-2.08 1.513 1.513 0 0 0-.53-.244zm10.927 4.9c.951.626 2.167.68 3.171.145a.531.531 0 0 0 .144-.838 1.126 1.126 0 0 0-1.135-.405 4.26 4.26 0 0 0-2.18 1.099zm-2.747-7.692c-.406-.117-.55 0-.649.18a3.603 3.603 0 0 0-.099 2.477 3.603 3.603 0 0 0 1.207-2.162c-.009-.144-.054-.342-.468-.46l.009-.035z"/>
            </g>
            <g fill="#EBEBEB">
                <path d="M390.671 115.348a22.989 22.989 0 1 0-30.465 28.367l.108.054c4.918 1.873 6.305 3.459 6.657 4.459l1.189 3.693a.82.82 0 0 0 .225.37c.252.243 2.64 2.296 9.999-.073 7.36-2.369 8.107-5.404 8.152-5.774a.9.9 0 0 0 0-.432l-1.189-3.694c-.324-.99-.099-3.107 2.865-7.611a.198.198 0 0 0 .045-.072 22.899 22.899 0 0 0 2.414-19.287zm-8.206 8.279c-.559 1.648-2.703 3.477-5.964 3.603a20.286 20.286 0 0 0 .316 6.495c1.657 8.395 3.134 10.81 3.152 10.81a.9.9 0 0 1-1.504.981c-.063-.108-1.657-2.603-3.405-11.467a21.97 21.97 0 0 1-.351-6.954 11.314 11.314 0 0 1-1.667-.387 14.512 14.512 0 0 1-3.369-1.559 14.35 14.35 0 0 1-1.801 3.234c-.343.457-.72.888-1.126 1.288a22.214 22.214 0 0 1 3.774 5.855c3.747 8.216 3.91 11.17 3.918 11.297a.9.9 0 0 1-.621.9.72.72 0 0 1-.234 0 .9.9 0 0 1-.901-.855s-.207-2.847-3.757-10.63a20.205 20.205 0 0 0-3.53-5.459c-2.703 1.802-5.505 1.586-6.937.577a2.54 2.54 0 0 1-.694-3.604 3.342 3.342 0 0 1 3.234-1.44 8.287 8.287 0 0 1 4.504 2.134c.36-.354.695-.733 1-1.135a12.683 12.683 0 0 0 1.757-3.234c-1.856-1.522-3.09-3.36-3.099-4.927a2.702 2.702 0 0 1 4.82-1.55c.9 1.28.972 3.495.36 5.81a12.305 12.305 0 0 0 3.315 1.595c.48.152.97.266 1.468.342a8.323 8.323 0 0 1 2.405-4.35 3.36 3.36 0 0 1 3.468-.721 2.531 2.531 0 0 1 1.469 3.35zm-2.19-1.694a1.603 1.603 0 0 0-1.675.415 6.116 6.116 0 0 0-1.73 3.044c2.226-.207 3.604-1.423 3.91-2.35a.766.766 0 0 0-.504-1.109zm-12.773-3.549c-.585.19-.63.477-.63.739a5.198 5.198 0 0 0 1.801 3.026 5.117 5.117 0 0 0-.27-3.53c-.108-.217-.315-.424-.9-.235zm-7.558 9.774a1.37 1.37 0 0 0-.756.567.757.757 0 0 0 .243 1.19c.802.558 2.621.756 4.504-.379a6.189 6.189 0 0 0-3.153-1.477 2.126 2.126 0 0 0-.838.099zM382.167 163.965c-7.657 2.46-10.134.333-10.395.081a.9.9 0 0 1-.225-.37l-2.378-7.404a.9.9 0 0 1 .378-1.036.9.9 0 0 1 1.09.126s2.036 1.604 8.603-.513 7.278-4.603 7.278-4.63a.9.9 0 0 1 .847-.694.9.9 0 0 1 .9.603l2.379 7.405a.9.9 0 0 1 0 .433c-.045.35-.82 3.53-8.477 5.999zM360.782 97.54a.9.9 0 0 1-1.126-.577l-2.288-7.126a.9.9 0 1 1 1.703-.549l2.288 7.125a.9.9 0 0 1-.577 1.126z"/>
                <path d="M374.97 97.053a.9.9 0 0 1-1.144-1.045l1.576-7.315a.9.9 0 0 1 1.748.379l-1.577 7.314a.9.9 0 0 1-.603.667zM387.5 103.737a.9.9 0 0 1-.964-1.45l5.027-5.558a.9.9 0 1 1 1.324 1.207l-5.027 5.549a.9.9 0 0 1-.36.252zM402.147 113.457l-7.134 2.297a.9.9 0 1 1-.54-1.703l7.125-2.297a.9.9 0 1 1 .55 1.703zM402.823 131.509a.793.793 0 0 1-.46 0l-7.35-1.55a.9.9 0 0 1-.685-1.063.9.9 0 0 1 1.063-.684l7.324 1.576a.9.9 0 0 1 .08 1.72h.028zM348.99 105.412a.9.9 0 0 1-.9-.189l-5.55-5.026a.9.9 0 0 1-.062-1.261.9.9 0 0 1 1.27-.063l5.549 5.026a.9.9 0 0 1 .063 1.27.9.9 0 0 1-.37.243zM342.703 118.15a.9.9 0 0 1-.468 0l-7.315-1.577a.9.9 0 0 1 .378-1.747l7.315 1.576a.9.9 0 0 1 .685 1.063.9.9 0 0 1-.595.685zM343.613 132.302l-7.153 2.288a.9.9 0 0 1-.55-1.703l7.126-2.297a.9.9 0 0 1 .55 1.712h.027zM346.46 149.678a.9.9 0 0 1-.964-1.45l5.026-5.55a.9.9 0 0 1 1.333 1.199l-5.026 5.549a.9.9 0 0 1-.37.252z"/>
            </g>
            <path d="m11.386 372.78-5.405 3.1a.405.405 0 0 0 0 .73l4.261 3.062a.577.577 0 0 1 .081.9 10.45 10.45 0 0 0-1.522 2.109 1.324 1.324 0 0 1-.973.64l-7.152.459a.73.73 0 0 0-.676.711v3.991a.73.73 0 0 0 .676.712l7.152.45c.406.056.765.295.973.649.42.761.931 1.47 1.522 2.108a.577.577 0 0 1-.08.9l-4.262 3.063a.405.405 0 0 0 0 .73l5.405 3.099c.37.188.804.208 1.19.054l5.404-2.523a1.99 1.99 0 0 1 1.252-.072c1.384.43 2.796.764 4.225 1 .387.083.692.38.784.766l.684 3.603c.086.373.41.643.793.658h7.9a.9.9 0 0 0 .802-.658l.675-3.603c.098-.385.405-.682.793-.766 1.43-.237 2.84-.571 4.225-1a1.955 1.955 0 0 1 1.243.072l5.405 2.523c.386.154.819.134 1.189-.054l5.405-3.1a.396.396 0 0 0 0-.729l-4.252-3.063a.558.558 0 0 1-.081-.9c.588-.641 1.1-1.349 1.522-2.108.205-.353.56-.593.964-.649l7.162-.45a.72.72 0 0 0 .666-.712v-3.99a.72.72 0 0 0-.666-.712l-7.162-.46a1.288 1.288 0 0 1-.964-.64 10.81 10.81 0 0 0-1.441-2.134.559.559 0 0 1 .081-.9l4.252-3.064a.396.396 0 0 0 0-.73l-5.405-3.098a1.414 1.414 0 0 0-1.189-.054l-5.405 2.522c-.396.154-.831.18-1.243.072a33.591 33.591 0 0 0-4.225-1.009 1.018 1.018 0 0 1-.792-.756l-.685-3.604a.838.838 0 0 0-.793-.657h-7.945a.847.847 0 0 0-.793.657l-.684 3.604c-.091.383-.397.679-.784.756-1.429.244-2.84.581-4.225 1.01a2.054 2.054 0 0 1-1.252-.073l-5.405-2.522c-.399-.162-.85-.132-1.225.08zm27.394 8.405c5.017 2.892 5.017 7.585 0 10.477-5.018 2.891-13.134 2.891-18.152 0-5.017-2.892-5.008-7.585 0-10.477 5.009-2.891 13.161-2.864 18.152 0zM60.94 402.111l-2.379 1.973a.513.513 0 0 0 .1.9l3 1.496a.81.81 0 0 1 .333 1.1 5.882 5.882 0 0 0-.298.81 1.396 1.396 0 0 1-.99.946l-4.054.693a.703.703 0 0 0-.568.901l.64 2.063c.161.457.596.761 1.08.757l4.262-.172c.515.02 1.006.228 1.378.586.316.325.657.626 1.018.9a.72.72 0 0 1 .108 1.09l-1.694 1.802a.531.531 0 0 0 .199.901l3.729 1.487a1.802 1.802 0 0 0 1.46-.145l2.512-1.666a2.37 2.37 0 0 1 1.505-.306c.798.144 1.604.243 2.414.297.502.066.947.358 1.207.793l.9 1.801c.247.424.71.675 1.199.649l4.666-.487a.81.81 0 0 0 .72-.9l-.215-1.802c-.04-.472.251-.909.702-1.054.66-.208 1.31-.448 1.946-.72a2.567 2.567 0 0 1 1.54-.1l3.603 1.135c.493.123 1.014.02 1.424-.279l2.378-1.982a.504.504 0 0 0-.1-.9l-2.99-1.505a.802.802 0 0 1-.342-1.099c.121-.26.224-.527.306-.802.14-.47.516-.832.991-.954l4.054-.694a.703.703 0 0 0 .567-.9l-.648-2.064a1.144 1.144 0 0 0-1.072-.756l-4.261.17a2.08 2.08 0 0 1-1.378-.585 9.233 9.233 0 0 0-1.027-.9.72.72 0 0 1-.1-1.09l1.694-1.802a.531.531 0 0 0-.207-.901l-3.73-1.495a1.802 1.802 0 0 0-1.459.153l-2.504 1.666a2.378 2.378 0 0 1-1.504.298 27.17 27.17 0 0 0-2.415-.298 1.612 1.612 0 0 1-1.207-.792l-.9-1.802a1.306 1.306 0 0 0-1.208-.658l-4.657.487a.82.82 0 0 0-.73.9l.217 1.802c.04.472-.252.91-.703 1.054-.658.2-1.305.438-1.937.712a2.531 2.531 0 0 1-1.549.099l-3.603-1.135a1.694 1.694 0 0 0-1.423.324zm20.826 3.55c4.045 1.612 5.045 4.819 2.243 7.152-2.801 2.333-8.35 2.91-12.395 1.297-4.044-1.612-5.044-4.828-2.243-7.161 2.802-2.334 8.36-2.91 12.395-1.289zM395.914 69.858c-2.144.9-2.703 2.603-2.027 4.251.675 1.649 2.306 2.523 4.44 1.64 2.136-.883 2.658-2.621 1.974-4.27-.685-1.648-2.306-2.486-4.387-1.621zm-8.108-21.476c-5.332 2.19-7.864 6.513-7.278 11.134l6.576-.846c0-1.937.63-3.288 2.954-4.243 2.325-.955 3.775 0 4.306 1.306.622 1.504-.27 3.18-4.981 7.09l2.612 6.377 6.306-2.603-1.487-3.522c2.703-2.46 5.405-6.153 3.478-10.81-1.757-4.315-6.612-6.315-12.54-3.883h.054z" fill="#EBEBEB"/>
        </g>
        <g>
            <path d="M353.071 219.04a1.18 1.18 0 0 1-.108-.099l-61.39-67.822c-.9-.9-1.198-2.45-.648-4.342a13.701 13.701 0 0 1 9.008-8.54c1.936-.468 3.468-.125 4.369.803l66.425 63.056.09.108c.064.05.125.104.18.162a12.07 12.07 0 0 1-.297 17.224c-4.945 4.653-12.704 4.497-17.458-.352a.537.537 0 0 1-.17-.198z" fill="#407BFF"/>
            <path d="M299.915 138.265c3.873-.9 6.116 1.36 5.017 5.134a13.692 13.692 0 0 1-9.008 8.55c-3.873.9-6.116-1.361-5.017-5.144a13.701 13.701 0 0 1 9.008-8.54z" fill="#000" opacity=".25"/>
            <path d="m362.908 205.168-59.732-58.354a11.476 11.476 0 0 0 1.756-3.442c.55-1.882.28-3.387-.63-4.323l66.407 63.056.09.108c.064.05.125.104.18.162a12.07 12.07 0 0 1-.297 17.224c2.072-3.324-1.874-8.72-7.774-14.431z" fill="#000" opacity=".1"/>
            <path d="M276.782 128.815a8.233 8.233 0 0 1 5.405-5.17 2.702 2.702 0 0 1 2.648.486l16.917 17.323c.604.734.757 1.74.397 2.621a8.26 8.26 0 0 1-5.405 5.162 2.702 2.702 0 0 1-2.622-.46l-16.917-17.322a2.594 2.594 0 0 1-.423-2.64z" fill="#E0E0E0"/>
            <path d="m294.122 133.653-6.305-6.441a120.402 120.402 0 0 1-6.26 8.774l6.188 6.305a109.35 109.35 0 0 0 6.377-8.638z" fill="#000" opacity=".25"/>
            <path d="m295.555 31.114-17.926-10.35c-10.035-5.784-23.899-4.955-39.221 3.882-30.628 17.7-55.472 60.714-55.472 96.098 0 17.692 6.206 30.114 16.214 35.915l17.89 10.324a28.466 28.466 0 0 0 14.413 3.693c7.45 0 15.864-2.432 24.773-7.576 30.627-17.692 55.472-60.714 55.472-96.089.071-17.674-6.126-30.096-16.143-35.897zm-25.556 75.839c-9.72 16.827-22.52 30.393-36.032 38.185-7.08 4.08-13.954 6.306-19.926 6.387-2.892-5.135-4.441-12.062-4.441-20.458 0-15.584 5.35-33.438 15.07-50.265 9.72-16.827 22.52-30.393 36.033-38.185 7.08-4.09 13.962-6.305 19.934-6.387 2.883 5.144 4.433 12.071 4.433 20.458.044 15.584-5.36 33.438-15.071 50.265z" fill="#455A64"/>
            <path d="m197.43 69.191 25.529 14.728c.567-1.045 1.144-2.09 1.747-3.126a126.203 126.203 0 0 1 10.035-14.89l-25.583-14.764A135.644 135.644 0 0 0 197.43 69.19zm25.222-32.834c-2.585 2.369-5.08 4.9-7.485 7.566l25.718 14.837a99.332 99.332 0 0 1 7.71-7.441l-25.943-14.962z" fill="#FFF" opacity=".1"/>
            <path d="m217.004 166.938-17.818-10.279c-10.044-5.8-16.214-18.223-16.214-35.915V118.7l17.88 10.324v2.044c-.026 17.638 6.162 30.051 16.152 35.87z" fill="#37474F"/>
            <path d="M281.079 36.221h-.469c2.883 5.144 4.432 12.071 4.432 20.458 0 15.584-5.35 33.438-15.07 50.265-9.72 16.827-22.52 30.393-36.032 38.185-7.08 4.08-13.954 6.306-19.926 6.387 3.738 6.675 9.71 10.341 17.448 10.341 6.08 0 13.116-2.216 20.368-6.396 13.512-7.792 26.285-21.349 36.032-38.185 9.747-16.836 15.061-34.681 15.061-50.274.036-19.268-8.134-30.78-21.844-30.78z" fill="#263238"/>
            <path d="M294.636 62.228c0 15.584-5.35 33.447-15.07 50.274-9.72 16.827-22.52 30.393-36.033 38.176-7.251 4.189-14.296 6.405-20.367 6.405a21.352 21.352 0 0 1-5.468-.685 22.52 22.52 0 0 1-3.648-4.873c-2.892-5.135-4.441-12.062-4.441-20.458 0-15.584 5.35-33.438 15.07-50.265 9.72-16.827 22.52-30.393 36.033-38.185 7.08-4.09 13.962-6.305 19.934-6.387h.442a20.747 20.747 0 0 1 5.486.694c5.188 5.18 8.062 13.882 8.062 25.304z" fill="#FFF" opacity=".3"/>
            <path d="M256.289 34.987c-30.628 17.683-55.472 60.706-55.472 96.08 0 35.375 24.844 49.725 55.472 32.033 30.627-17.692 55.49-60.705 55.49-96.089s-24.863-49.752-55.49-32.024zm-4.405 120.483c-7.252 4.18-14.287 6.396-20.368 6.396-7.738 0-13.71-3.666-17.448-10.341-2.892-5.135-4.441-12.062-4.441-20.458 0-15.584 5.35-33.438 15.07-50.265 9.72-16.827 22.52-30.393 36.033-38.185 7.08-4.09 13.962-6.305 19.934-6.387h.442c13.71 0 21.88 11.513 21.88 30.79 0 15.593-5.341 33.447-15.061 50.274-9.72 16.827-22.53 30.384-36.032 38.176h-.01z" fill="#37474F"/>
            <path d="M214.284 81.478a128.347 128.347 0 0 0-11.27 31.528 89.828 89.828 0 0 0-1.882 16.63 61.714 61.714 0 0 0 1.802 16.565 36.645 36.645 0 0 0 7.413 14.782 26.655 26.655 0 0 0 13.936 8.603 34.744 34.744 0 0 0 16.548-.252 59.606 59.606 0 0 0 15.458-6.234 59.588 59.588 0 0 1-15.44 6.549 35.023 35.023 0 0 1-16.728.36 27.078 27.078 0 0 1-14.233-8.62 37.257 37.257 0 0 1-7.576-14.98 62.471 62.471 0 0 1-1.73-16.747 90.567 90.567 0 0 1 2-16.71 116.934 116.934 0 0 1 4.73-16.133 136.86 136.86 0 0 1 6.972-15.341z" fill="#455A64"/>
            <path d="M281.079 36.221a20.98 20.98 0 0 1 8.107 1.487 18.854 18.854 0 0 1 6.765 4.828 24.89 24.89 0 0 1 4.396 7.153 37.176 37.176 0 0 1 2.306 8.044 64.273 64.273 0 0 1 .478 16.656 91.648 91.648 0 0 1-3.108 16.403 106.295 106.295 0 0 1-5.72 15.647 127.536 127.536 0 0 1-7.837 14.747 114.844 114.844 0 0 1-21.277 25.682 80.92 80.92 0 0 1-13.648 9.728 47.085 47.085 0 0 1-15.818 5.711c-2.83.44-5.712.407-8.53-.099a19.367 19.367 0 0 1-11-6.395 22.44 22.44 0 0 1-2.477-3.487 31.042 31.042 0 0 1-3.152-7.864 55.382 55.382 0 0 1-1.406-16.674 86.18 86.18 0 0 1 2.586-16.484c1.392-5.38 3.199-10.645 5.405-15.746a121.609 121.609 0 0 1 7.557-14.792 120.537 120.537 0 0 0-12.125 30.745 86.28 86.28 0 0 0-2.306 16.323 54.202 54.202 0 0 0 1.595 16.277 29.573 29.573 0 0 0 3.117 7.459 19.818 19.818 0 0 0 5.27 5.963 17.53 17.53 0 0 0 7.206 3.135c2.644.464 5.348.482 7.999.054a45.842 45.842 0 0 0 15.233-5.594 79.766 79.766 0 0 0 13.304-9.585 112.781 112.781 0 0 0 21.08-25.222 124.437 124.437 0 0 0 13.629-29.961 90.657 90.657 0 0 0 3.288-16.143 63.56 63.56 0 0 0-.217-16.44 36.131 36.131 0 0 0-2.072-7.935 24.637 24.637 0 0 0-4.098-7.063 18.692 18.692 0 0 0-6.504-4.801 20.908 20.908 0 0 0-8.026-1.757z" fill="#455A64"/>
        </g>
        <g>
            <path d="M65.056 87.19a1.37 1.37 0 0 0-.675-.172l-11.45-.81v14.827l6.243 3.603 12.341-11.603a1.37 1.37 0 0 0-.19-2.216l-6.269-3.63z" fill="#407BFF"/>
            <path d="M65.056 87.19a1.37 1.37 0 0 0-.675-.172l-11.45-.81v14.827l6.243 3.603 12.341-11.603a1.37 1.37 0 0 0-.19-2.216l-6.269-3.63z" fill="#000" opacity=".2"/>
            <path d="m59.174 89.81 11.45.811a1.37 1.37 0 0 1 .9 2.405l-12.35 11.612V89.81z" fill="#407BFF"/>
            <path d="M59.985 67.75a5.405 5.405 0 0 0-2.477-4.28l-2.01-1.17a5.459 5.459 0 0 0-4.954 0L8.963 86.342a5.477 5.477 0 0 0-2.477 4.288v51.58a5.477 5.477 0 0 0 2.477 4.288l2.018 1.162a5.495 5.495 0 0 0 4.945 0l41.582-24.042a5.405 5.405 0 0 0 2.477-4.28V67.75z" fill="#407BFF"/>
            <path d="M6.486 142.21a5.477 5.477 0 0 0 2.477 4.288l2.018 1.162a5.522 5.522 0 0 0 4.504.198c-1.162.442-2.054-.216-2.054-1.63v-51.58a5.09 5.09 0 0 1 .73-2.441l-6.964-4.018a5.036 5.036 0 0 0-.73 2.441l.019 51.58z" fill="#000" opacity=".2"/>
            <path d="M59.913 67.047c-.289-1.045-1.243-1.378-2.387-.72l-41.6 24.042a4.873 4.873 0 0 0-1.747 1.802l-6.955-4.018a4.927 4.927 0 0 1 1.739-1.802L50.544 62.3a5.495 5.495 0 0 1 4.946 0l2.027 1.162a5.468 5.468 0 0 1 2.396 3.585z" fill="#FFF" opacity=".25"/>
            <path d="M34.933 119.951c-2.18 1.262-3.288 3.91-3.288 6.495 0 2.586 1.108 4.018 3.288 2.757 2.18-1.261 3.261-3.937 3.261-6.531s-1.117-3.928-3.26-2.72zm.577-33.68c-5.405 3.134-9.188 9.719-10.332 16.925l6.044-1.017c.694-2.991 1.72-5.063 4.099-6.432 2.378-1.37 3.288.162 3.288 2.225 0 2.36-1.379 4.918-6.892 10.755v10.017l6.477-3.738v-5.504c3.216-3.684 6.891-9.287 6.891-16.539 0-6.837-3.522-10.16-9.575-6.666v-.027z" fill="#FFF"/>
        </g>
    </g>
</svg>
