<svg width="460" height="436" xmlns="http://www.w3.org/2000/svg">
    <g fill-rule="nonzero" fill="none">
        <ellipse cx="230" cy="127.036" rx="230" ry="127.036" transform="translate(0 181.928)" fill="#F5F5F5"/>
        <g fill="#E6E6E6">
            <path d="M38.609 346.698c27.747 13.994 72.718 13.994 100.455 0 27.737-13.994 27.747-36.734 0-50.758-27.747-14.024-72.708-13.994-100.455 0s-27.717 36.764 0 50.758zM421.391 346.698c-27.737 13.994-72.718 13.994-100.455 0-27.737-13.994-27.737-36.734 0-50.758 27.737-14.024 72.718-13.994 100.455 0 27.737 13.994 27.717 36.764 0 50.758zM287.117 304.956 230 272.06l-57.117 32.896L230 337.842z"/>
        </g>
        <path d="M311.617 114.447c18.838-16.913 39.08-38.124 39.36-50.798-8.748-.2-10.752 0-16.473 4.328-5.09 3.858-25.984 30.237-33.068 34.805-9.38 2.349-26.254 5.088-34.38 5.238a5.88 5.88 0 0 1-3.918-1.44c-2.936-2.519-5.221-2.439-8.417-3.998-2.506-1.24-3.478-2.659-4.009-2.219-.53.44-1.553 2.27-.16 4.298a16.214 16.214 0 0 0 3.197 3.139 32.732 32.732 0 0 1-8.798-2.27c-6.744-2.698-10.101-1.858-7.406 6.998 1.684 5.537 6.484 8.886 20.041 9.236 4.983.228 9.977.097 14.94-.39 9.921-1.29 21.324-1.49 29.421-2.509a17.937 17.937 0 0 0 9.67-4.418z" fill="#FFB3B2"/>
        <g transform="translate(309.185)">
            <path d="M42.734 63.099c-6.473-1.19-14.209.5-19.37 5.488-5.16 4.987-16.343 17.992-16.343 17.992S12.402 96.645 20.5 98.634l8.016-8.727L42.735 63.1z" fill="#407BFF"/>
            <path d="M42.734 63.099c-6.473-1.19-14.209.5-19.37 5.488-5.16 4.987-16.343 17.992-16.343 17.992S12.402 96.645 20.5 98.634l8.016-8.727L42.735 63.1z" fill="#000" opacity=".1"/>
            <path fill="#FFB3B2" d="M67.294 302.417h11.493v16.693H67.294zM26.872 282.152l11.487-.394.575 16.683-11.486.394z"/>
            <path d="M78.026 139.436c0 10.996 1.423 81.766 1.423 81.766.27 3.158 3.227 8.996 2.585 21.06-.871 16.434-2.294 62.094-2.294 62.094s-5.391 5.328-13.027 0c0 0-10.401-62.033-12.465-78.327-1.794-14.213-4.85-52.827-4.85-52.827l-5.852 46.35s1.874 10.686 2.294 18.232c.421 7.547-6.753 50.2-6.753 50.2a12.593 12.593 0 0 1-12.506.479s-4.409-62.713-5.561-69.56c-1.153-6.848 3.286-79.467 3.286-79.467h53.72z" fill="#37474F"/>
            <path d="M60.73 63.619c.863.21 5.803 1.37 10.502 2.609a9.1 9.1 0 0 1 6.794 8.806v64.402c-8.016 8.747-36.154 12.825-53.75 0V83.55c0-8.926 5.01-19.651 18.709-20.451l17.746.52z" fill="#EBEBEB"/>
            <path d="M64.599 17.918a6.121 6.121 0 0 1 5.07 1.78c2.175 2.218 1.724 6.327 0 15.773l-6.724.77L64.6 17.917zM25.379 15.19a10.514 10.514 0 0 1-4.209-.86c-2.064-1.18-2.605 1.16-1.473 3.198a9.62 9.62 0 0 0 7.806 5.178c.06-.29 1.934-5.238 1.934-5.238l-4.058-2.279z" fill="#263238"/>
            <ellipse fill="#263238" cx="35.86" cy="25.145" rx="13.137" ry="13.104"/>
            <path d="M61.442 36.24c1.002.6 2.425-1.32 3.658-2.599 1.232-1.279 5.25-2.998 7.255 1.17 2.004 4.168-1.774 9.996-4.94 10.995-5.452 1.71-6.273-1.779-6.273-1.779l-.411 19.622s-3.577 8.716-13.247 9.995c-9.67 1.28-7.676-6.647-4.5-10.545V57.1s-4.94.75-7.344.37c-4.009-.62-6.544-3.768-7.756-8.106-1.954-6.997-2.696-12.575-1.002-26.25C28.705 8.123 46.192 7.963 55.63 13.89c9.44 5.927 5.812 22.35 5.812 22.35z" fill="#FFB3B2"/>
            <path d="M60.941 39.02c.471-.18 2.916-4.249 4.159-5.379 1.723-1.569-.501-15.723-.501-15.723s1.743-5.368-1.664-8.926c-3.407-3.559-10.02-2.999-14.82-3.139-5.01-.18-10.401-.48-17.245-3.448-6.844-2.969-7.365-3.319-8.217-.32-.852 2.999-1.172 9.876 2.916 14.484l3.407 1.24s1.834 1.629 8.227 2.408a66.85 66.85 0 0 0 14.45 0c1.853-.25 3.827 1 4.448 6.877.461 4.258 1.994 12.995 4.84 11.925z" fill="#263238"/>
            <path d="m64.589 19.018 6.012-3.229a3.334 3.334 0 0 0-4.58-1.51 3.584 3.584 0 0 0-1.432 4.739z" fill="#263238"/>
            <path d="M42.995 57.131s8.958-1.799 12.084-3.458a10.309 10.309 0 0 0 4.33-4.278 13.98 13.98 0 0 1-2.456 4.998c-2.295 2.918-13.958 5.067-13.958 5.067v-2.329z" fill="#F59595"/>
            <path d="M42.995 34.011a1.802 1.802 0 0 0 1.852 1.729 1.801 1.801 0 0 0 1.753-1.828 1.802 1.802 0 0 0-1.812-1.77 1.851 1.851 0 0 0-1.793 1.87z" fill="#263238"/>
            <path d="M44.698 38.69a.25.25 0 1 0 .5-.001.25.25 0 0 0-.5 0zM46.712 37.55a.25.25 0 0 0 .25.26.26.26 0 0 0 .261-.26.26.26 0 0 0-.4-.267.26.26 0 0 0-.11.267zM47.734 39.549a.24.24 0 0 0 .25.26.26.26 0 1 0 0-.52.26.26 0 0 0-.25.26zM49.408 37.83a.27.27 0 0 0 .26.27.26.26 0 0 0 .25-.27.26.26 0 0 0-.25-.26.26.26 0 0 0-.26.26zM41.862 37.29a.25.25 0 1 0 .5 0 .25.25 0 0 0-.5 0zM42.454 39.549a.24.24 0 0 0 .25.26.25.25 0 0 0 .25-.26.25.25 0 0 0-.5 0zM39.668 38.08a.25.25 0 1 0 .5-.001.25.25 0 0 0-.5 0zM31.852 37.19c0 .14.11.254.25.26a.26.26 0 0 0 .25-.27.26.26 0 0 0-.25-.26.26.26 0 0 0-.25.27zM30.088 38.42a.25.25 0 0 0 .25.26.26.26 0 0 0 .251-.26.25.25 0 0 0-.5 0zM28.705 37.1a.26.26 0 0 0 .25.27.27.27 0 0 0 0-.53.26.26 0 0 0-.25.26zM27.032 37.71a.26.26 0 0 0 .4.267.26.26 0 0 0 .111-.267.26.26 0 0 0-.25-.26.26.26 0 0 0-.261.26zM26.751 35.75a.26.26 0 0 0 .25.27.27.27 0 0 0 0-.53.26.26 0 0 0-.25.26z" fill="#F59595"/>
            <path d="m44.899 27.254 3.837 2.11c.54-1.079.15-2.39-.891-3a2.15 2.15 0 0 0-2.946.89z" fill="#263238"/>
            <path d="m43.806 46.376-4.098 1.53a2.17 2.17 0 0 0 2.786 1.36 2.277 2.277 0 0 0 1.312-2.89z" fill="#F59595"/>
            <path d="m28.104 28.744 3.507-2.69a2.135 2.135 0 0 0-3.006-.47 2.315 2.315 0 0 0-.5 3.16zM29.186 33.502a1.792 1.792 0 0 0 1.845 1.708 1.791 1.791 0 0 0 1.74-1.814 1.792 1.792 0 0 0-1.79-1.764 1.841 1.841 0 0 0-1.795 1.87z" fill="#263238"/>
            <path fill="#F59595" d="m37.203 31.802-.591 10.766-5.632-1.92z"/>
            <path d="M67.294 313.452v-1.64c-1.102.48-3.657 10.207-8.217 14.355-3.627 3.298-8.567 7.107-9.83 10.785-1.262 3.679 6.884 5.938 10.271 5.338 3.938-.7 10.762-3.459 12.476-5.998 1.713-2.538 2.505-6.337 3.898-8.216 1.393-1.88 4.6-3.998 5.35-6.147.422-1.19-.07-3.809-.65-5.998-.542-1.999-1.113-4.258-1.804-4.068v1.25c-.842.929-3.147 1.839-5.752 1.939-1.683.02-5.762-.34-5.742-1.6zM27.333 295.3c-.602 0-1.083.86-2.405 2.279a25.29 25.29 0 0 1-6.754 4.858c-4.309 2.149-12.676 5.448-16.464 7.157-2.365 1.06-2.254 3.908.19 5.528 2.446 1.619 8.348 2.798 15.442 1.209 3.858-.86 8.888-4.418 12.025-4.228 3.136.19 9.138.15 11.493-1.46 2.355-1.609 1.403-5.067.742-7.996-.722-3.229-1.764-8.177-2.836-7.997v1c-1.383 2.079-8.417 2.939-11.453 1.4l.02-1.75zM49.428 173.202a42.583 42.583 0 0 1-16.033-9.156s3.096 5.767 12.275 11.135l-.5 31.527 4.258-33.506z" fill="#263238"/>
        </g>
        <path d="M148.393 114.447c-18.848-16.913-39.13-38.124-39.36-50.798 8.738-.2 10.752 0 16.463 4.328 5.09 3.858 25.984 30.237 33.068 34.805 9.38 2.349 26.264 5.088 34.38 5.238a5.88 5.88 0 0 0 3.918-1.44c2.936-2.519 5.221-2.439 8.417-3.998 2.516-1.24 3.478-2.659 4.009-2.219.691.56 1.553 2.27.16 4.298a16.214 16.214 0 0 1-3.197 3.139 32.732 32.732 0 0 0 8.798-2.27c6.744-2.698 10.101-1.858 7.416 6.998-1.684 5.537-6.494 8.886-20.041 9.236-4.983.228-9.977.097-14.94-.39-9.921-1.29-21.314-1.49-29.411-2.509a17.876 17.876 0 0 1-9.68-4.418z" fill="#9C5456"/>
        <path d="M98.26 6.003h2.917c13.835 0 25.05 11.188 25.05 24.99V60.6H95.165a21.982 21.982 0 0 1-15.518-6.429A21.873 21.873 0 0 1 73.23 38.68v-7.706c0-13.802 11.215-24.99 25.05-24.99l-.02.02z" fill="#263238"/>
        <path d="m49.3 296.17 1.203-1.24c-.922 1.93-4.75 10.396-4.359 16.873.31 5.148 1.243 11.655-.52 15.353-1.824 3.859-9.02-1.18-11.083-4.118-2.465-3.408-4.68-8.826-4.27-13.424.291-3.229 1.434-6.287 1.764-8.726.331-2.44-.54-6.378.491-8.567.562-1.21 2.866-2.819 4.93-4.068 1.894-1.14 4.009-2.399 4.36-1.75l-.922.94c-.05 1.31 1.002 3.699 2.916 5.678 1.222 1.29 4.549 4.028 5.49 3.049z" fill="#407BFF"/>
        <path d="m49.3 296.17 1.203-1.24c-.922 1.93-4.75 10.396-4.359 16.873.31 5.148 1.243 11.655-.52 15.353-1.824 3.859-9.02-1.18-11.083-4.118-2.465-3.408-4.68-8.826-4.27-13.424.291-3.229 1.434-6.287 1.764-8.726.331-2.44-.54-6.378.491-8.567.562-1.21 2.866-2.819 4.93-4.068 1.894-1.14 4.009-2.399 4.36-1.75l-.922.94c-.05 1.31 1.002 3.699 2.916 5.678 1.222 1.29 4.549 4.028 5.49 3.049z" fill="#000" opacity=".1"/>
        <path d="M46.485 316.401c-.11-1.58-.25-3.149-.34-4.608-.271-4.528 1.512-9.996 2.935-13.584.812-2 8.377-12.765 8.377-12.765l-10.561-8.996-6.012 10.995-.21.21v.07c-1.334 2.2-2.005 10.856-2.797 16.183-.52 3.569-.23 8.996 2.766 12.825 2.886 3.608 5.551 4.198 5.842-.33z" fill="#9C5456"/>
        <path d="M113.292 300.878a.81.81 0 0 0-.592.74c-.14.999-.3 2.818-.6 4.497-.412 2.24-.823 5.458-.422 7.237.401 1.78 4.6 4.308 7.425 4.678 2.826.37 7.686 2.999 9.96 4.998 2.786 2.44 8.688 4.398 12.657 4.448 4.65.05 8.297-1 9.359-4.398.44-1.41-.722-3.129-6.724-5.867 0 0-3.006-1.52-4.76-2.56-8.687-5.227-11.674-8.236-14.269-13.683l-12.034-.09z" fill="#407BFF"/>
        <path d="M113.292 300.878a.81.81 0 0 0-.592.74c-.14.999-.3 2.818-.6 4.497-.412 2.24-.823 5.458-.422 7.237.401 1.78 4.6 4.308 7.425 4.678 2.826.37 7.686 2.999 9.96 4.998 2.786 2.44 8.688 4.398 12.657 4.448 4.65.05 8.297-1 9.359-4.398.44-1.41-.722-3.129-6.724-5.867 0 0-3.006-1.52-4.76-2.56-8.687-5.227-11.674-8.236-14.269-13.683l-12.034-.09z" fill="#000" opacity=".1"/>
        <path d="M128.643 305.416a15.227 15.227 0 0 1-2.395-7.617l-.19-7.387H113.25v12.055c.722 5.078 5.522 5.677 9.53 8.486 2.004 1.4 9.8 7.377 15.03 8.347 4.27.78 5.863-.9 6.434-2.1a84.774 84.774 0 0 1-15.602-11.784z" fill="#9C5456"/>
        <path d="M71.907 223.89a49.52 49.52 0 0 0-13.027 18.353c-3.948 10.025-15.26 39.403-15.26 39.403s4.95 8.666 11.683 9.256c0 0 31.975-46.91 35.653-57.876 3.727-5.597 8.387-33.165 11.764-52.237l.12.21 5.752 40.462a86.58 86.58 0 0 0-3.217 14.544c-1.002 9.926 7.426 57.976 7.426 57.976s5.721 2.998 13.637.35c0 0 1.273-62.654 2.175-74.619 1.503-20.081 2.234-76.717-1.453-88.602l-52.758 2.939c-4.379 12.614-4.72 20.67-4.158 34.505.52 14.294 1.663 55.336 1.663 55.336z" fill="#37474F"/>
        <path d="m102.81 180.999 3.006-18.682s12.676-2.63 18.428-7.997c0 0-6.012 7.487-15.03 9.936l-3.368 14.384 2.295 39.713-5.33-37.354z" fill="#263238"/>
        <path d="M90.635 64.188c-11.834.81-15.552 5.648-15.632 12.755a53.158 53.158 0 0 0 2.836 16.683l5.371 18.172s-4.45 10.076-8.858 22.31c20.702 11.526 46.545 5.468 52.778-2.938.26-1.79-1.343-15.733-2.325-24.85 3.647-9.116 4.61-14.903 3.066-20.93-2.856-11.196-13.938-22.101-18.838-21.711l-18.398.51z" fill="#407BFF"/>
        <path d="M90.635 64.188c-11.834.81-15.552 5.648-15.632 12.755a53.158 53.158 0 0 0 2.836 16.683l5.371 18.172s-4.45 10.076-8.858 22.31c20.702 11.526 46.545 5.468 52.778-2.938.26-1.79-1.343-15.733-2.325-24.85 3.647-9.116 4.61-14.903 3.066-20.93-2.856-11.196-13.938-22.101-18.838-21.711l-18.398.51z" fill="#000" opacity=".1"/>
        <path d="m116.909 137.647-18.247-19.622-23.288-35.284a54.762 54.762 0 0 0 2.465 10.885l5.371 18.172s-4.45 10.076-8.858 22.31c14.5 8.047 31.524 7.487 42.557 3.54z" fill="#407BFF"/>
        <path d="m116.909 137.647-18.247-19.622-23.288-35.284a54.762 54.762 0 0 0 2.465 10.885l5.371 18.172s-4.45 10.076-8.858 22.31c14.5 8.047 31.524 7.487 42.557 3.54z" fill="#000" opacity=".1"/>
        <path d="m72.679 14.49 3.587 5.737a3.293 3.293 0 0 1-4.67-1 3.553 3.553 0 0 1 1.083-4.737z" fill="#263238"/>
        <path d="m68.76 21.037 6.714-1a3.282 3.282 0 0 1-.54 2.572 3.298 3.298 0 0 1-2.255 1.357 3.556 3.556 0 0 1-3.918-2.93z" fill="#263238"/>
        <path d="M117.51 16.689c2.796 1.649 6.253 8.676 5.912 23.39-.29 12.474-4.339 15.553-6.373 16.443-2.034.89-5.962.35-9.78-.29v7.487s5.281 6.117 4.94 9.546c-.34 3.428-7.615 4.248-12.545.89a31.7 31.7 0 0 1-8.097-8.457V47.605s-2.575 3.429-6.794.64c-4.218-2.789-4.369-9.706-1.924-12.185 2.445-2.479 7.726-1.699 8.718 1.73 0 0 6.083.22 14.19-4.219A22.711 22.711 0 0 0 117.51 16.69z" fill="#9C5456"/>
        <path d="M108.06 36.94a1.571 1.571 0 0 1-1.534 1.587 1.572 1.572 0 0 1-1.61-1.51 1.57 1.57 0 0 1 1.491-1.626 1.606 1.606 0 0 1 1.654 1.549z" fill="#263238"/>
        <path d="m109.885 47.516 3.647 1.169a1.888 1.888 0 0 1-2.375 1.3 1.998 1.998 0 0 1-1.272-2.47z" fill="#7D3336"/>
        <path d="m120.957 32.132-3.186-2.209a1.874 1.874 0 0 1 2.645-.54 1.996 1.996 0 0 1 .541 2.75zM120.226 35.83a1.571 1.571 0 0 1-1.535 1.587 1.572 1.572 0 0 1-1.61-1.51 1.57 1.57 0 0 1 1.491-1.626 1.606 1.606 0 0 1 1.654 1.55z" fill="#263238"/>
        <path fill="#7D3336" d="m112.54 34.91.25 9.447 4.98-1.54zM107.27 56.232c-4.009-.52-12.296-2.889-13.579-6.158a8.406 8.406 0 0 0 2.896 4.169c2.475 2.109 10.682 4.488 10.682 4.488v-2.5z"/>
        <g>
            <path fill="#407BFF" d="m230 230.168-77.078-44.441v-67.941l-1.623-.93v-22.67L230 139.516z"/>
            <path fill="#000" opacity=".1" d="m230 230.168-77.078-44.441v-67.941l-1.623-.93v-22.67L230 139.516z"/>
            <path fill="#000" opacity=".15" d="m230 162.177-27.596-15.894-.01-22.7-1.894-1.06-.01 22.66-47.568-27.397v3.258l47.568 27.389-.01 64.732 1.934 1.11-.01-64.743L230 165.425z"/>
            <path fill="#407BFF" d="m230 230.168 76.657-44.121v-68.022l2.044-1.169v-22.67L230 139.516z"/>
            <path fill="#000" opacity=".1" d="m306.657 118.025-47.147 27.159-.01-22.66-1.894 1.06v22.7L230 162.176v3.248l27.596-15.883-.01 64.732 1.934-1.109-.01-64.712 47.147-27.129z"/>
            <path fill="#407BFF" d="M308.7 94.186 230 48.865l-78.7 45.32 78.7 45.331z"/>
            <path fill="#FFF" opacity=".4" d="M308.7 94.186 230 48.865l-78.7 45.32 78.7 45.331z"/>
            <path fill="#000" opacity=".15" d="m216.753 95.085-37.617-16.893 1.673-1 37.938 17.004M243.237 95.085l37.617-16.893-1.684-1-37.937 17.004M259.5 122.524l-27.927-20.682v-.01l-1.573-1.17-.01.01v-.01l-1.583 1.17.01.01-27.937 20.682 1.904 1.06 27.606-20.572 27.616 20.571z"/>
            <path fill="#37474F" d="M279.19 111.188v92.9l-19.67 11.336-.02-92.9z"/>
            <path fill="#263238" d="m259.52 215.424-1.934-1.15 1.934-1.109zM180.81 111.188v92.9l19.67 11.336.02-92.9z"/>
            <path fill="#000" d="m200.48 215.424 1.934-1.15-1.934-1.109z"/>
            <path fill="#455A64" d="m200.5 122.524 29.51-21.851 11.253-6.487 37.928-16.993-19.67-11.335-29.511 21.85-11.243 6.488-37.958 16.992z"/>
            <path fill="#263238" d="m218.767 94.196-2.004.89 6.623 2.928 5.04 3.818 1.584-1.17-4.92-3.638z"/>
            <path fill="#455A64" d="m259.5 122.524-34.41-25.5-44.28-19.831 19.68-11.335 34.44 25.499 44.26 19.831z"/>
            <path d="M223.827 90.467s-23.117 19.142-60.864 14.784c0 0 16.033 10.465 35.633 8.096 0 0-2.816 7.137-19.33 15.824 0 0 41.255.38 51.916-33.786l-7.355-4.918z" fill="#37474F"/>
            <path d="M202.093 124.793c11.423-4.279 23.889-12.715 29.06-29.378l-7.356-4.918a65.405 65.405 0 0 1-14.54 8.307s8.017 3.498 16.194 1.34a40.175 40.175 0 0 1-23.358 24.649z" fill="#263238"/>
            <path d="M172.573 65.428s4.589-5.358 18.668-2.939c8.497 1.47 22.927 11.345 30.061 27.798.902 2.08 2.926 2.78 4.008 4.179.252.313.526.607.822.88l4.46.05c0-15.374-8.648-30.888-16.825-39.864-8.177-8.976-21.644-13.364-31.244-13.704a21.59 21.59 0 0 0-9.9 1.9c-2.616 7.266-3.698 14.473-.05 21.7z" fill="#37474F"/>
            <path d="M220.32 88.218s8.017-2.699 4.72-15.513a54.537 54.537 0 0 1 5.521 22.7l-4.459-.05a8.004 8.004 0 0 1-.822-.88c-1.082-1.399-3.106-2.099-4.008-4.178-.29-.72-.621-1.4-.952-2.079z" fill="#263238"/>
            <path d="M180.79 75.274a32.005 32.005 0 0 1-8.217-9.856c-3.658-7.227-2.576-14.434 0-21.72-8.257 3.638-13.187 14.343-15.031 22.99-1.002 4.837-1.122 8.996-.3 10.995 2.314 5.437 15.872 27.408 73.94 17.732l-.06-6.087c-14.54-.9-39.931-5.318-50.333-14.054z" fill="#37474F"/>
            <path d="M172.573 65.428s-.692-16.933 9.95-23.6a21.59 21.59 0 0 0-9.9 1.9c-2.616 7.266-3.698 14.473-.05 21.7z" fill="#263238"/>
            <path d="M236.173 90.467s23.117 19.142 60.864 14.784c0 0-16.033 10.465-35.633 8.096 0 0 2.816 7.137 19.33 15.824 0 0-41.255.38-51.916-33.786l7.355-4.918z" fill="#37474F"/>
            <path d="M234.55 100.123c8.136 2.16 16.192-1.34 16.192-1.34l-1.513-.679-.23-.1-1.343-.63-.3-.14-1.223-.61a2.858 2.858 0 0 1-.3-.16c-.391-.19-.762-.39-1.133-.58l-.3-.159-1.003-.57-.29-.16-.942-.54-.26-.15-.882-.5-.241-.14-.762-.479-.22-.14-.671-.44-.2-.13-.582-.39-.17-.12-.491-.34-.15-.11-.391-.28-.13-.1-.291-.219-.13-.1-.18-.13-.121-.09-.06-.06-.07-.05-2.405 1.61-4.95 3.308c10.651 34.166 51.906 33.786 51.916 33.786-21.224-1-43.52-17.063-46.175-29.068z" fill="#263238"/>
            <path d="M287.427 65.428s-4.589-5.358-18.668-2.939c-8.497 1.47-22.927 11.345-30.061 27.798-.902 2.08-2.926 2.78-4.008 4.179a8.004 8.004 0 0 1-.822.88l-4.46.05c0-15.374 8.648-30.888 16.825-39.864 8.177-8.976 21.644-13.364 31.244-13.704a21.59 21.59 0 0 1 9.9 1.9c2.616 7.266 3.748 14.473.05 21.7z" fill="#37474F"/>
            <path d="M239.68 88.218s-8.017-2.699-4.72-15.513a54.537 54.537 0 0 0-5.521 22.7l4.459-.05c.296-.272.57-.566.822-.88 1.082-1.399 3.106-2.099 4.008-4.178.29-.72.621-1.4.952-2.079z" fill="#263238"/>
            <path d="M279.21 75.274a32.005 32.005 0 0 0 8.217-9.856c3.658-7.227 2.576-14.434 0-21.72 8.257 3.638 13.187 14.343 15.031 22.99 1.002 4.837 1.122 8.996.3 10.995-2.314 5.437-15.872 27.408-73.94 17.732l.06-6.087c14.54-.9 39.931-5.318 50.333-14.054z" fill="#37474F"/>
            <path d="M287.427 65.428s.692-16.933-9.95-23.6a21.59 21.59 0 0 1 9.9 1.9c2.616 7.266 3.748 14.473.05 21.7z" fill="#263238"/>
            <path d="M238.016 91.377a3.34 3.34 0 0 0-2.004-2.709 15.688 15.688 0 0 0-6.012-.86 14.783 14.783 0 0 0-6.153 1 3.219 3.219 0 0 0-1.813 2.599c-.21 1.82-.341 4.898.861 6.647a10.648 10.648 0 0 0 7.125 2.549 10.487 10.487 0 0 0 7.085-2.549c1.192-1.78 1.072-4.858.911-6.677z" fill="#455A64"/>
        </g>
        <path d="M96.477 124.733C75.785 93.596 65.784 67.997 82.55 65.758c5.12 1.19 8.728 7.077 13.197 20.201 0 0 9.168 19.812 13.287 28.288 7.716 6.167 22.576 19.992 30.061 23.12 1.333.54 3.287-.62 4.64-1.1 3.647-1.269 5.751-.38 9.309-.689 2.785-.24 4.208-1.21 4.549-.61a3.054 3.054 0 0 1-1.002 4.168 7.466 7.466 0 0 1-3.688 1.48s1.684 1.27 8.157 1.25c7.265 0 10.09 1.929 4.359 9.205-3.597 4.548-9.289 5.928-22.045 1.35a104.254 104.254 0 0 1-13.768-5.778c-8.768-4.798-5.662-2.789-12.556-7.147-5.581-3.528-18.558-11.705-20.572-14.763z" fill="#9C5456"/>
        <g>
            <path d="M363.523 124.733c24.61-33.426 33.709-56.266 16.934-58.505-5.11 1.19-8.727 7.087-13.197 20.211 0 0-12.174 19.342-16.283 27.818-7.726 6.167-22.586 19.992-30.061 23.12-1.323.54-3.287-.62-4.64-1.1-3.647-1.269-5.751-.38-9.309-.689-2.785-.24-4.208-1.21-4.549-.61a3.054 3.054 0 0 0 1.002 4.168 7.466 7.466 0 0 0 3.688 1.48s-1.684 1.27-8.157 1.25c-7.255 0-10.08 1.929-4.359 9.205 3.597 4.548 9.289 5.928 22.045 1.35a104.254 104.254 0 0 0 13.768-5.778c8.778-4.798 5.662-2.789 12.556-7.147 5.581-3.538 18.407-11.845 20.562-14.773z" fill="#FFB3B2"/>
            <path d="M378.303 65.668s5.942 0 8.938 2.919c2.996 2.918 4.119 8.286 1.093 16.533-3.027 8.246-11.294 21.74-11.294 21.74s-9.74.53-18.397-8.226l8.638-16.053s3.336-12.085 11.022-16.913z" fill="#407BFF"/>
            <path d="M378.303 65.668s5.942 0 8.938 2.919c2.996 2.918 4.119 8.286 1.093 16.533-3.027 8.246-11.294 21.74-11.294 21.74s-9.74.53-18.397-8.226l8.638-16.053s3.336-12.085 11.022-16.913z" fill="#000" opacity=".1"/>
        </g>
    </g>
</svg>
