<svg width="554" height="545" xmlns="http://www.w3.org/2000/svg">
    <defs>
        <linearGradient x1="61.721%" y1="128.12%" x2="61.721%" y2="-88.067%" id="a">
            <stop stop-color="#0052CC" offset="0%"/>
            <stop stop-color="#2684FF" offset="100%"/>
        </linearGradient>
        <linearGradient x1="40.093%" y1="19.478%" x2="11.738%" y2="109.023%" id="b">
            <stop stop-color="#BAB4B4" offset="0%"/>
            <stop offset="100%"/>
            <stop offset="100%"/>
        </linearGradient>
        <linearGradient x1="267.759%" y1="135.685%" x2="-63.809%" y2="-36.926%" id="c">
            <stop stop-color="#BAB4B4" offset="0%"/>
            <stop offset="100%"/>
        </linearGradient>
        <linearGradient x1="157.685%" y1="223.995%" x2="78.977%" y2="-207.089%" id="d">
            <stop stop-color="#BAB4B4" offset="0%"/>
            <stop offset="100%"/>
        </linearGradient>
        <linearGradient x1="30.434%" y1="15.834%" x2="82.083%" y2="137.871%" id="e">
            <stop stop-color="#BAB4B4" offset="0%"/>
            <stop offset="100%"/>
        </linearGradient>
        <linearGradient x1="37.637%" y1="15.834%" x2="33.826%" y2="271.121%" id="f">
            <stop stop-color="#BAB4B4" offset="0%"/>
            <stop offset="100%"/>
        </linearGradient>
        <linearGradient x1="50%" y1="100%" x2="50%" y2="13.191%" id="g">
            <stop stop-color="#070A92" offset="0%"/>
            <stop stop-color="#030459" offset="100%"/>
        </linearGradient>
        <linearGradient x1="75.263%" y1="15.812%" x2="72.421%" y2="2.385%" id="h">
            <stop stop-color="#0D0D83" offset="0%"/>
            <stop stop-color="#0F66E0" offset="100%"/>
        </linearGradient>
        <linearGradient x1="50%" y1="0%" x2="50%" y2="100%" id="i">
            <stop stop-color="#080A92" offset="0%"/>
            <stop stop-color="#030459" offset="100%"/>
        </linearGradient>
        <linearGradient x1="1.332%" y1="71.485%" x2="65.819%" y2="55.012%" id="j">
            <stop stop-color="#151A94" offset="0%"/>
            <stop stop-color="#090B5B" offset="100%"/>
        </linearGradient>
        <linearGradient x1="28.78%" y1="98.855%" x2="43.62%" y2="26.619%" id="k">
            <stop stop-color="#1E1EB9" offset="0%"/>
            <stop stop-color="#0D0D83" offset="100%"/>
        </linearGradient>
        <linearGradient x1="77.003%" y1="15.812%" x2="27.113%" y2="95.198%" id="l">
            <stop stop-color="#0052CC" offset="0%"/>
            <stop stop-color="#2684FF" offset="100%"/>
        </linearGradient>
        <linearGradient x1="12.181%" y1="0%" x2="89.095%" y2="100%" id="m">
            <stop stop-color="#B5FAFD" offset="0%"/>
            <stop stop-color="#84A4D4" offset="100%"/>
        </linearGradient>
        <linearGradient x1="30.092%" y1="0%" x2="70.58%" y2="100%" id="n">
            <stop stop-color="#B5FAFD" offset="0%"/>
            <stop stop-color="#84A4D4" offset="100%"/>
        </linearGradient>
        <linearGradient x1="30.012%" y1="0%" x2="70.662%" y2="100%" id="o">
            <stop stop-color="#B5FAFD" offset="0%"/>
            <stop stop-color="#84A4D4" offset="100%"/>
        </linearGradient>
        <linearGradient x1="30.025%" y1="0%" x2="70.649%" y2="100%" id="p">
            <stop stop-color="#B5FAFD" offset="0%"/>
            <stop stop-color="#84A4D4" offset="100%"/>
        </linearGradient>
        <linearGradient x1="30.023%" y1="0%" x2="70.651%" y2="100%" id="q">
            <stop stop-color="#B5FAFD" offset="0%"/>
            <stop stop-color="#84A4D4" offset="100%"/>
        </linearGradient>
        <linearGradient x1="30.055%" y1="0%" x2="70.618%" y2="100%" id="r">
            <stop stop-color="#B5FAFD" offset="0%"/>
            <stop stop-color="#84A4D4" offset="100%"/>
        </linearGradient>
        <linearGradient x1="30.057%" y1="0%" x2="70.616%" y2="100%" id="s">
            <stop stop-color="#B5FAFD" offset="0%"/>
            <stop stop-color="#84A4D4" offset="100%"/>
        </linearGradient>
        <linearGradient x1="30.077%" y1="0%" x2="70.596%" y2="100%" id="t">
            <stop stop-color="#B5FAFD" offset="0%"/>
            <stop stop-color="#84A4D4" offset="100%"/>
        </linearGradient>
        <linearGradient x1="44.922%" y1="0%" x2="55.249%" y2="100%" id="u">
            <stop stop-color="#B5FAFD" offset="0%"/>
            <stop stop-color="#84A4D4" offset="100%"/>
        </linearGradient>
        <linearGradient x1="21.436%" y1="15.834%" x2="258.355%" y2="89.46%" id="v">
            <stop stop-color="#BAB4B4" offset="0%"/>
            <stop offset="100%"/>
        </linearGradient>
        <linearGradient x1="31.368%" y1="15.834%" x2="50%" y2="138.312%" id="w">
            <stop stop-color="#BAB4B4" offset="0%"/>
            <stop offset="100%"/>
        </linearGradient>
        <linearGradient x1="27.495%" y1="15.834%" x2="111.506%" y2="67.749%" id="x">
            <stop stop-color="#BAB4B4" offset="0%"/>
            <stop offset="100%"/>
        </linearGradient>
        <linearGradient x1="36.609%" y1="15.834%" x2="85.147%" y2="67.761%" id="y">
            <stop stop-color="#BAB4B4" offset="0%"/>
            <stop offset="100%"/>
        </linearGradient>
        <linearGradient x1="11.78%" y1="46.676%" x2="171.963%" y2="36.047%" id="z">
            <stop stop-color="#BAB4B4" offset="0%"/>
            <stop offset="100%"/>
            <stop offset="100%"/>
            <stop offset="100%"/>
        </linearGradient>
        <linearGradient x1="-70.972%" y1="2.984%" x2="239.722%" y2="83.681%" id="A">
            <stop stop-color="#BAB4B4" offset="0%"/>
            <stop offset="100%"/>
        </linearGradient>
        <linearGradient x1="33.253%" y1="15.834%" x2="89.484%" y2="110.977%" id="B">
            <stop stop-color="#BAB4B4" offset="0%"/>
            <stop offset="100%"/>
        </linearGradient>
        <linearGradient x1="11.78%" y1="38.619%" x2="109.333%" y2="50%" id="C">
            <stop stop-color="#BAB4B4" offset="0%"/>
            <stop offset="100%"/>
        </linearGradient>
        <linearGradient x1="11.78%" y1="37.831%" x2="135.56%" y2="58.901%" id="D">
            <stop stop-color="#BAB4B4" offset="0%"/>
            <stop offset="100%"/>
        </linearGradient>
        <linearGradient x1="42.693%" y1="105.002%" x2="86.239%" y2="-23.478%" id="E">
            <stop stop-color="#BAB4B4" offset="0%"/>
            <stop offset="100%"/>
        </linearGradient>
        <linearGradient x1="11.78%" y1="18.413%" x2="135.56%" y2="73.105%" id="F">
            <stop stop-color="#BAB4B4" offset="0%"/>
            <stop offset="100%"/>
        </linearGradient>
        <linearGradient x1="32.464%" y1="15.834%" x2="77.223%" y2="50%" id="G">
            <stop stop-color="#BAB4B4" offset="0%"/>
            <stop offset="100%"/>
        </linearGradient>
        <linearGradient x1="-7.698%" y1="45.233%" x2="160.776%" y2="47.863%" id="H">
            <stop stop-color="#BAB4B4" offset="0%"/>
            <stop offset="100%"/>
        </linearGradient>
        <linearGradient x1="11.78%" y1="15.834%" x2="11.78%" y2="220.648%" id="I">
            <stop stop-color="#BAB4B4" offset="0%"/>
            <stop offset="100%"/>
        </linearGradient>
        <linearGradient x1="50%" y1="0%" x2="50%" y2="100%" id="J">
            <stop stop-color="#080A92" offset="0%"/>
            <stop stop-color="#030459" offset="100%"/>
        </linearGradient>
        <linearGradient x1="169.334%" y1="-507.627%" x2="344.612%" y2="-1321.651%" id="K">
            <stop stop-color="#4F52FF" offset="0%"/>
            <stop stop-color="#4042E1" offset="100%"/>
        </linearGradient>
        <linearGradient x1="-31.461%" y1="-222.263%" x2="190.143%" y2="538.352%" id="L">
            <stop stop-color="#08005D" offset="0%"/>
            <stop stop-color="#1A0F91" offset="100%"/>
        </linearGradient>
        <linearGradient x1="50%" y1="0%" x2="50%" y2="100%" id="M">
            <stop stop-color="#080A92" offset="0%"/>
            <stop stop-color="#030459" offset="100%"/>
        </linearGradient>
        <linearGradient x1="396.294%" y1="-94.815%" x2="904.933%" y2="-306.215%" id="N">
            <stop stop-color="#4F52FF" offset="0%"/>
            <stop stop-color="#4042E1" offset="100%"/>
        </linearGradient>
        <linearGradient x1="-31.57%" y1="-222.263%" x2="190.33%" y2="538.352%" id="O">
            <stop stop-color="#08005D" offset="0%"/>
            <stop stop-color="#1A0F91" offset="100%"/>
        </linearGradient>
        <linearGradient x1="74.943%" y1="15.812%" x2="47.309%" y2="90.911%" id="P">
            <stop stop-color="#0052CC" offset="0%"/>
            <stop stop-color="#2684FF" offset="100%"/>
        </linearGradient>
        <linearGradient x1="24.511%" y1="15.834%" x2="151.497%" y2="205.779%" id="Q">
            <stop stop-color="#BAB4B4" offset="0%"/>
            <stop offset="100%"/>
        </linearGradient>
        <linearGradient x1="11.78%" y1="29.167%" x2="185.159%" y2="90.227%" id="R">
            <stop stop-color="#BAB4B4" offset="0%"/>
            <stop offset="100%"/>
        </linearGradient>
        <linearGradient x1="11.78%" y1="38.606%" x2="218.718%" y2="33.326%" id="S">
            <stop stop-color="#BAB4B4" offset="0%"/>
            <stop offset="100%"/>
        </linearGradient>
        <linearGradient x1="22.343%" y1="15.834%" x2="192.15%" y2="261.655%" id="T">
            <stop stop-color="#BAB4B4" offset="0%"/>
            <stop offset="100%"/>
        </linearGradient>
        <linearGradient x1="74.904%" y1="15.812%" x2="34.461%" y2="85.909%" id="U">
            <stop stop-color="#0052CC" offset="0%"/>
            <stop stop-color="#2684FF" offset="100%"/>
        </linearGradient>
        <linearGradient x1="74.939%" y1="15.812%" x2="34.844%" y2="84.725%" id="V">
            <stop stop-color="#0052CC" offset="0%"/>
            <stop stop-color="#2684FF" offset="100%"/>
        </linearGradient>
        <linearGradient x1="75.788%" y1="15.812%" x2="39.481%" y2="92.56%" id="W">
            <stop stop-color="#0052CC" offset="0%"/>
            <stop stop-color="#2684FF" offset="100%"/>
        </linearGradient>
        <linearGradient x1="63.785%" y1="21.446%" x2="35.195%" y2="78.07%" id="X">
            <stop stop-color="#0052CC" offset="0%"/>
            <stop stop-color="#2684FF" offset="100%"/>
        </linearGradient>
        <linearGradient x1="68.414%" y1="24.437%" x2="38.18%" y2="100%" id="Y">
            <stop stop-color="#0052CC" offset="0%"/>
            <stop stop-color="#2684FF" offset="100%"/>
        </linearGradient>
        <linearGradient x1="51.95%" y1="15.812%" x2="49.79%" y2="90.911%" id="Z">
            <stop stop-color="#0052CC" offset="0%"/>
            <stop stop-color="#2684FF" offset="100%"/>
        </linearGradient>
        <linearGradient x1="50%" y1="0%" x2="50%" y2="100%" id="aa">
            <stop stop-color="#FFD3D3" offset="0%"/>
            <stop stop-color="#FFA8A7" offset="100%"/>
        </linearGradient>
        <linearGradient x1="50%" y1="0%" x2="59.328%" y2="59.916%" id="ab">
            <stop stop-color="#74B2FF" offset="0%"/>
            <stop stop-color="#407BFF" offset="100%"/>
        </linearGradient>
        <linearGradient x1="50%" y1="-51.752%" x2="50%" y2="100%" id="ac">
            <stop stop-color="#7B939D" offset="0%"/>
            <stop stop-color="#455A64" offset="100%"/>
        </linearGradient>
        <linearGradient x1="50%" y1="-51.752%" x2="50%" y2="100%" id="ad">
            <stop stop-color="#7B939D" offset="0%"/>
            <stop stop-color="#455A64" offset="100%"/>
        </linearGradient>
        <linearGradient x1="50%" y1="0%" x2="64.843%" y2="103.984%" id="ae">
            <stop stop-color="#FFD3D3" offset="0%"/>
            <stop stop-color="#FFA8A7" offset="100%"/>
        </linearGradient>
        <linearGradient x1="50%" y1="0%" x2="79.173%" y2="103.984%" id="af">
            <stop stop-color="#FFD3D3" offset="0%"/>
            <stop stop-color="#FFA8A7" offset="100%"/>
        </linearGradient>
        <linearGradient x1="50%" y1="0%" x2="50%" y2="100%" id="ag">
            <stop stop-color="#FFD3D3" offset="0%"/>
            <stop stop-color="#FFA8A7" offset="100%"/>
        </linearGradient>
        <linearGradient x1="50%" y1="0%" x2="58.606%" y2="30.098%" id="ah">
            <stop stop-color="#74B2FF" offset="0%"/>
            <stop stop-color="#407BFF" offset="100%"/>
        </linearGradient>
        <linearGradient x1="50%" y1="0%" x2="106.649%" y2="77.059%" id="ai">
            <stop stop-color="#4E6169" offset="0%"/>
            <stop stop-color="#263238" offset="100%"/>
        </linearGradient>
    </defs>
    <g fill-rule="nonzero" fill="none">
        <ellipse cx="276.535" cy="159.656" rx="276.535" ry="159.656" transform="translate(0 225.688)" fill="url(#a)"/>
        <path d="M191.005 316.232 155.222 336.6a18.387 18.387 0 0 1-18.265 0l-22.953-13.289-2.61-1.51a17.915 17.915 0 0 1-8.951-15.5v-66.08l53.71-30.575v67.445a15.451 15.451 0 0 0 7.72 13.385l27.156 15.705a5.787 5.787 0 0 1-.024 10.05z" fill="url(#b)" transform="translate(78.886 51.704)"/>
        <path d="M147.563 338.92a18.242 18.242 0 0 0 7.66-2.345l35.782-20.343a5.787 5.787 0 0 0 0-10.039l-18.544-10.715h-24.898v43.441z" fill="url(#c)" transform="translate(78.886 51.704)"/>
        <path d="m190.4 301.735.992.786a6.825 6.825 0 0 1 2.56 5.327v3.346h-3.624l.073-9.459z" fill="url(#d)" transform="translate(78.886 51.704)"/>
        <path d="M160.284 214.756v60.68a14.992 14.992 0 0 0 7.478 13.01l22.639 13.29a5.593 5.593 0 0 1 0 9.664l-2.573 1.461-32.074 18.266a17.783 17.783 0 0 1-17.674-.06l-22.252-13.132a14.956 14.956 0 0 1-7.575-12.914v-60.68l52.031-29.585z" fill="url(#e)" transform="translate(78.886 51.704)"/>
        <path d="M160.284 275.436v-60.68l-51.946 29.585v60.68a14.956 14.956 0 0 0 7.478 12.963l51.233-30.069a14.956 14.956 0 0 1-6.765-12.479z" fill="url(#f)" transform="translate(78.886 51.704)"/>
        <path d="m19.208 336.104-4.965 2.876v9.072a17.577 17.577 0 0 1-9.048-2.5l-.387-.23a9.749 9.749 0 0 1-4.53-6.222A5.666 5.666 0 0 1 0 337.385v-12.358l19.208 11.077z" fill="url(#g)" transform="translate(78.886 51.704)"/>
        <path d="m234.845 2.73-.386-.241A17.714 17.714 0 0 0 225.434 0a5.597 5.597 0 0 0-2.899.773L8.71 123.741a17.311 17.311 0 0 0-8.65 14.98v186.306l19.196 11.077 203.146-116.782a17.311 17.311 0 0 0 8.65-14.98V11.162h8.637a9.81 9.81 0 0 0-4.844-8.431z" fill="url(#h)" transform="translate(78.886 51.704)"/>
        <path d="M1.848 130.965A17.336 17.336 0 0 0 0 138.721v186.306l19.208 11.077 7.188-4.143V146.162L1.848 130.965z" fill="url(#i)" transform="translate(78.886 51.704)"/>
        <path d="M8.65 330.016v12.358a5.666 5.666 0 0 0 8.456 4.905L230.931 224.31a17.311 17.311 0 0 0 8.65-14.98v-12.696L8.65 330.015z" fill="url(#j)" transform="translate(78.886 51.704)"/>
        <path d="M239.641 10.667a5.666 5.666 0 0 0-8.456-4.904L17.36 128.73a17.311 17.311 0 0 0-8.65 14.98v186.306l230.931-133.381" fill="url(#k)" transform="translate(78.886 51.704)"/>
        <path d="M227.247 19.244a6.223 6.223 0 0 0-2.815.653L23.412 135.435a15.282 15.282 0 0 0-7.647 13.289V307.4c0 .685.14 1.364.41 1.993a5.013 5.013 0 0 0 7.104 2.344L224.226 196.2a15.294 15.294 0 0 0 7.635-13.289V24.234a5.003 5.003 0 0 0-4.614-4.99z" fill="url(#l)" transform="translate(78.886 51.704)"/>
        <path d="M306.132 70.948a6.223 6.223 0 0 0-2.815.653l-201.02 115.538a15.282 15.282 0 0 0-7.646 13.289v158.677c0 .685.14 1.364.41 1.993a5.013 5.013 0 0 0 7.104 2.344l200.947-115.538a15.294 15.294 0 0 0 7.635-13.289V75.938a5.003 5.003 0 0 0-4.615-4.99z" fill="#FFF" opacity=".4"/>
        <g>
            <path d="M113.001 210.2v178.128c0 2.85 1.051 4.772 2.658 5.412l6.825 3.745v-6.04l.979-183.129-8.928-4.506a15.475 15.475 0 0 0-1.534 6.39z" fill="#E0E0E0"/>
            <path d="m114.535 203.786 8.928 4.506L339.438 81.628l5.147-2.984-7.116-4.01-.193-.122a4.12 4.12 0 0 0-4.265.314l-213.523 123.1a13.107 13.107 0 0 0-4.953 5.86z" fill="#F0F0F0"/>
            <path d="M120.696 214.079v176.955c0 2.416.786 4.228 2.042 5.05l.399.23a4.204 4.204 0 0 0 3.938-.46l212.363-122.327c3.528-2.042 6.39-7.502 6.39-12.202V84.382c0-2.416-.736-4.107-1.908-4.965a2.489 2.489 0 0 0-.652-.362 4.228 4.228 0 0 0-3.83.507L127.123 201.889a12.854 12.854 0 0 0-4.723 5.533 15.523 15.523 0 0 0-1.704 6.657z" fill="#FFF"/>
            <path d="m204.245 123.998-101.114 58.41a3.358 3.358 0 0 1-5.05-2.912v-54.12a15.777 15.777 0 0 1 7.877-13.652l98.795-57.044A4.832 4.832 0 0 1 212 58.86v51.765a15.463 15.463 0 0 1-7.756 13.373z" fill="url(#m)" transform="translate(113.001 74.062)"/>
            <path d="m114.076 213.128-12.491 7.248c-2.187 1.269-3.962-.072-3.962-2.996v-13.034a9.52 9.52 0 0 1 3.962-7.587l12.491-7.248c2.187-1.269 3.963.072 3.963 2.996v12.998a9.483 9.483 0 0 1-3.963 7.623z" fill="url(#n)" transform="translate(113.001 74.062)"/>
            <path d="m144.543 195.636-12.49 7.248c-2.187 1.208-3.963-.073-3.963-2.996v-13.035a9.483 9.483 0 0 1 3.962-7.574l12.491-7.249c2.187-1.208 3.963.073 3.963 2.996v12.999a9.483 9.483 0 0 1-3.963 7.61z" fill="url(#o)" transform="translate(113.001 74.062)"/>
            <path d="m175.904 177.515-12.49 7.248c-2.187 1.208-3.963-.072-3.963-2.996V168.72a9.52 9.52 0 0 1 3.962-7.574l12.491-7.249c2.187-1.208 3.963.085 3.963 3.008v13a9.483 9.483 0 0 1-3.963 7.61z" fill="url(#p)" transform="translate(113.001 74.062)"/>
            <path d="m207.277 159.394-12.49 7.248c-2.187 1.208-3.963-.084-3.963-2.996V150.6a9.52 9.52 0 0 1 3.962-7.574l12.491-7.248c2.187-1.208 3.963.084 3.963 2.996v13.01a9.495 9.495 0 0 1-3.963 7.611z" fill="url(#q)" transform="translate(113.001 74.062)"/>
            <path d="m114.076 247.546-12.491 7.248c-2.187 1.208-3.962-.085-3.962-2.996V238.75a9.495 9.495 0 0 1 3.962-7.575l12.491-7.248c2.187-1.268 3.963.085 3.963 2.996v13.01a9.52 9.52 0 0 1-3.963 7.612zM144.543 230.053l-12.49 7.248c-2.187 1.269-3.963-.084-3.963-2.996v-13.047a9.52 9.52 0 0 1 3.962-7.574l12.491-7.248c2.187-1.209 3.963.084 3.963 2.996v13.046a9.495 9.495 0 0 1-3.963 7.575z" fill="url(#r)" transform="translate(113.001 74.062)"/>
            <path d="m175.904 211.932-12.49 7.248c-2.187 1.209-3.963-.084-3.963-2.995v-13.047a9.495 9.495 0 0 1 3.962-7.575l12.491-7.248c2.187-1.269 3.963.072 3.963 2.996v13.047a9.52 9.52 0 0 1-3.963 7.574z" fill="url(#s)" transform="translate(113.001 74.062)"/>
            <path d="m207.277 193.8-12.49 7.248c-2.187 1.268-3.963-.073-3.963-2.996v-13.035a9.483 9.483 0 0 1 3.962-7.575l12.491-7.248c2.187-1.268 3.963.072 3.963 2.996v12.999a9.483 9.483 0 0 1-3.963 7.61z" fill="url(#t)" transform="translate(113.001 74.062)"/>
            <g opacity=".7" fill="#FFF">
                <path d="m317.246 198.06-101.114 58.41a3.358 3.358 0 0 1-5.05-2.912v-54.121a15.777 15.777 0 0 1 7.877-13.651l98.795-57.044a4.832 4.832 0 0 1 7.248 4.18v51.765a15.463 15.463 0 0 1-7.756 13.373zM227.077 287.19l-12.49 7.248c-2.187 1.269-3.963-.072-3.963-2.996v-13.035a9.52 9.52 0 0 1 3.962-7.586l12.491-7.249c2.187-1.268 3.963.073 3.963 2.996v12.999a9.483 9.483 0 0 1-3.963 7.623zM257.544 269.697l-12.49 7.249c-2.187 1.208-3.963-.073-3.963-2.996v-13.035a9.483 9.483 0 0 1 3.962-7.575l12.491-7.248c2.187-1.208 3.963.072 3.963 2.996v12.998a9.483 9.483 0 0 1-3.963 7.611zM288.905 251.576l-12.49 7.249c-2.187 1.208-3.963-.073-3.963-2.996v-13.047a9.52 9.52 0 0 1 3.962-7.575l12.491-7.248c2.187-1.208 3.963.085 3.963 3.008v12.999a9.483 9.483 0 0 1-3.963 7.61zM320.279 233.456l-12.492 7.248c-2.186 1.208-3.962-.085-3.962-2.996v-13.047a9.52 9.52 0 0 1 3.962-7.574l12.492-7.249c2.186-1.208 3.962.085 3.962 2.996v13.011a9.495 9.495 0 0 1-3.962 7.61zM227.077 321.607l-12.49 7.248c-2.187 1.209-3.963-.084-3.963-2.995v-13.047a9.495 9.495 0 0 1 3.962-7.575l12.491-7.248c2.187-1.269 3.963.084 3.963 2.996v13.01a9.52 9.52 0 0 1-3.963 7.611zM257.544 304.115l-12.49 7.248c-2.187 1.268-3.963-.085-3.963-2.996V295.32a9.52 9.52 0 0 1 3.962-7.575l12.491-7.248c2.187-1.208 3.963.085 3.963 2.996v13.047a9.495 9.495 0 0 1-3.963 7.575zM288.905 285.994l-12.49 7.248c-2.187 1.208-3.963-.084-3.963-2.996V277.2a9.495 9.495 0 0 1 3.962-7.574l12.491-7.249c2.187-1.268 3.963.073 3.963 2.996v13.047a9.52 9.52 0 0 1-3.963 7.575zM320.279 267.861l-12.492 7.248c-2.186 1.269-3.962-.072-3.962-2.996v-13.035a9.483 9.483 0 0 1 3.962-7.574l12.492-7.248c2.186-1.269 3.962.072 3.962 2.996v12.998a9.483 9.483 0 0 1-3.962 7.611z"/>
            </g>
            <path d="m78.68 284.79-64.944 37.473a4.18 4.18 0 0 1-6.282-3.624V144.076l71.19-41.074.036 181.788z" fill="url(#u)" transform="translate(113.001 74.062)"/>
            <path d="m191.681 358.851-64.944 37.474a4.18 4.18 0 0 1-6.282-3.624V218.138l71.19-41.074.036 181.787z" fill="#FFF" opacity=".7"/>
            <path d="M140.134 229.662a10.872 10.872 0 0 1-4.917 8.457c-2.706 1.57-4.905.302-4.905-2.827a10.872 10.872 0 0 1 4.905-8.456c2.718-1.57 4.917-.242 4.917 2.826zM140.134 248.472a10.872 10.872 0 0 1-4.917 8.456c-2.706 1.57-4.905.302-4.905-2.827a10.872 10.872 0 0 1 4.905-8.516c2.718-1.51 4.917-.242 4.917 2.887zM140.134 267.281a10.872 10.872 0 0 1-4.917 8.456c-2.706 1.57-4.905.302-4.905-2.838a10.872 10.872 0 0 1 4.905-8.457c2.718-1.607 4.917-.29 4.917 2.84zM140.134 286.09a10.872 10.872 0 0 1-4.917 8.457c-2.706 1.57-4.905.29-4.905-2.84a10.872 10.872 0 0 1 4.905-8.455c2.718-1.57 4.917-.302 4.917 2.838zM151.079 225.132a1.776 1.776 0 0 1-.894-3.322l28.776-16.61a1.778 1.778 0 0 1 1.776 3.08l-28.776 16.61a1.801 1.801 0 0 1-.882.242zM151.079 243.942a1.776 1.776 0 0 1-.894-3.323l28.776-16.622a1.788 1.788 0 0 1 2.416.652 1.764 1.764 0 0 1-.653 2.416l-28.775 16.623a1.801 1.801 0 0 1-.87.254zM151.079 262.739a1.776 1.776 0 0 1-.894-3.31l28.776-16.623a1.788 1.788 0 0 1 2.416.652 1.764 1.764 0 0 1-.653 2.416l-28.775 16.623a1.776 1.776 0 0 1-.87.242zM151.079 281.548a1.776 1.776 0 0 1-.894-3.322l28.776-16.599a1.788 1.788 0 0 1 2.416.653 1.764 1.764 0 0 1-.653 2.416l-28.775 16.61a1.68 1.68 0 0 1-.87.242zM135.193 325.654a1.776 1.776 0 0 1-.894-3.322l44.625-25.756a1.776 1.776 0 1 1 1.776 3.069l-44.625 25.768a1.68 1.68 0 0 1-.882.241zM135.193 341.359a1.776 1.776 0 0 1-.894-3.322l44.625-25.768a1.788 1.788 0 0 1 2.417.652 1.764 1.764 0 0 1-.653 2.416l-44.625 25.768a1.68 1.68 0 0 1-.87.254zM135.193 357.064a1.776 1.776 0 0 1-.894-3.323l44.625-25.767a1.788 1.788 0 0 1 2.417.652 1.764 1.764 0 0 1-.653 2.416l-44.625 25.768a1.801 1.801 0 0 1-.87.254zM135.193 372.696a1.776 1.776 0 0 1-.894-3.322l44.625-25.768a1.778 1.778 0 1 1 1.776 3.08l-44.625 25.768a1.801 1.801 0 0 1-.882.242zM120.696 317.79a.568.568 0 0 1-.507-.29.592.592 0 0 1 .205-.81l69.125-39.865a.58.58 0 0 1 .81.217.604.604 0 0 1-.218.81l-69.113 39.865a.69.69 0 0 1-.302.073z" fill="#FAFAFA"/>
            <path d="M125.698 203.097 340.622 78.668a3.793 3.793 0 0 1 5.714 3.274v9.35L120.491 221.4v-7.32c0-3.745 1.981-9.097 5.207-10.982z" fill="#E6E6E6"/>
            <path d="M342.82 79.14c.316 0 .628.06.919.18.145.058.28.14.399.242a5.038 5.038 0 0 1 1.485 4.12V261.7c0 4.3-2.694 9.495-5.895 11.331L126.145 396.108a4.073 4.073 0 0 1-2.006.616 2.213 2.213 0 0 1-.93-.193l-.338-.182c-.979-.676-1.534-2.186-1.534-4.167V214.163c.05-2.168.582-4.297 1.558-6.233a11.827 11.827 0 0 1 4.325-5.098L340.803 79.767a4.047 4.047 0 0 1 2.018-.628m0-1.075c-.902.028-1.78.29-2.55.761L126.738 201.901a12.914 12.914 0 0 0-4.76 5.557 15.608 15.608 0 0 0-1.667 6.705v178.019c0 2.476.785 4.252 2.054 5.085l.41.23c.442.209.925.314 1.414.314a5.183 5.183 0 0 0 2.549-.773L340.32 273.974c3.552-2.054 6.427-7.55 6.427-12.274V83.68c0-2.416-.737-4.119-1.92-4.989a2.694 2.694 0 0 0-.653-.374 3.313 3.313 0 0 0-1.305-.254h-.048z" fill="#F0F0F0"/>
        </g>
        <g transform="translate(312.5 34.908)">
            <path fill="url(#v)" d="M90.517 201.979v5.617l24.85-8.964 19.546-41.17-9.169-1.22-16.526 34.381z"/>
            <path fill="url(#w)" d="m90.517 201.979 6.15 3.189v5.617l-6.15-3.189z"/>
            <path fill="url(#x)" d="M96.666 205.168v5.617l21.165-12.153 18.242-39.153-4.168-.048-16.538 34.381z"/>
            <path fill="url(#y)" d="m145.194 240.528 36.036-72.363 12.08 4.784-29.38 76.506z"/>
            <path d="M193.31 142.071c-2.077-1.208-4.965-1.039-8.142.798-6.342 3.624-11.488 12.563-11.488 19.896 0 3.999 1.546 6.693 3.974 7.72l13.579 7.912 16.2-28.135-14.123-8.19z" fill="#407BFF"/>
            <ellipse fill="#407BFF" transform="rotate(-60 199.64 164.484)" cx="199.64" cy="164.484" rx="16.248" ry="9.387"/>
            <ellipse fill="#000" opacity=".3" transform="rotate(-60 199.64 164.484)" cx="199.64" cy="164.484" rx="16.248" ry="9.387"/>
            <path d="M205.463 161.122a12.914 12.914 0 0 1-5.822 10.1c-3.226 1.86-5.835.35-5.835-3.37a12.878 12.878 0 0 1 5.835-10.1c3.213-1.86 5.822-.35 5.822 3.37z" fill="#407BFF"/>
            <path d="M205.463 161.122a12.914 12.914 0 0 1-5.822 10.1c-3.226 1.86-5.835.35-5.835-3.37a12.878 12.878 0 0 1 5.835-10.1c3.213-1.86 5.822-.35 5.822 3.37z" fill="#000" opacity=".6"/>
            <path d="M137.051 154.72c.423.688 45.906 9.76 45.906 9.76s4.253-.64 4.253-4.65a5.448 5.448 0 0 0-3.83-5.11l-45.386-5.884-.943 5.884z" fill="url(#z)"/>
            <path d="M133.669 137.988c-1.438-.833-3.43-.713-5.63.556a17.54 17.54 0 0 0-7.949 13.76c0 2.766 1.076 4.626 2.755 5.34l9.398 5.447 11.2-19.45-9.774-5.653z" fill="#407BFF"/>
            <path d="M145.991 148.909a17.54 17.54 0 0 1-7.997 13.784c-4.385 2.537-7.95.483-7.95-4.579a17.577 17.577 0 0 1 7.95-13.796c4.433-2.537 7.997-.483 7.997 4.591z" fill="#407BFF"/>
            <path d="M145.991 148.909a17.54 17.54 0 0 1-7.997 13.784c-4.385 2.537-7.95.483-7.95-4.579a17.577 17.577 0 0 1 7.95-13.796c4.433-2.537 7.997-.483 7.997 4.591z" fill="#000" opacity=".3"/>
            <path d="M142.077 151.168a8.952 8.952 0 0 1-4.035 6.983c-2.223 1.28-4.035.241-4.035-2.332a8.915 8.915 0 0 1 4.035-6.983c2.223-1.292 4.035-.241 4.035 2.332z" fill="#407BFF"/>
            <path d="M142.077 151.168a8.952 8.952 0 0 1-4.035 6.983c-2.223 1.28-4.035.241-4.035-2.332a8.915 8.915 0 0 1 4.035-6.983c2.223-1.292 4.035-.241 4.035 2.332z" fill="#000" opacity=".6"/>
            <ellipse fill="url(#A)" transform="rotate(-72.46 66.941 324.484)" cx="66.941" cy="324.484" rx="30.455" ry="17.577"/>
            <path fill="url(#B)" d="m56.172 352.84 15.137 9.338 22.76-56.065-1.752-1.184z"/>
            <ellipse fill="url(#C)" transform="rotate(-72.46 82.406 333.988)" cx="82.406" cy="333.988" rx="30.455" ry="17.577"/>
            <ellipse fill="url(#D)" transform="rotate(-72.46 172.76 323.78)" cx="172.759" cy="323.781" rx="29.452" ry="17.577"/>
            <path fill="url(#E)" d="m161.502 350.835 16.02 9.942L199 303.854l-15.644-7.454z"/>
            <path fill="#407BFF" d="m78.872 240.528 58.18 33.04 44.178-25.708-57.564-32.943z"/>
            <path fill="#000" opacity=".2" d="m181.23 247.86-15.089 8.783h-.012l-2.247 1.317-26.83 15.608-58.192-33.04 27.459-15.693 2.114-1.22 15.233-8.698z"/>
            <path d="M181.23 247.86v76.93l-15.089 8.758-2.102 1.208-14.496 8.383c-3.624-11.585-13.579-14.085-23.134-5.34a41.001 41.001 0 0 0-9.484 13.87v-17.94l20.078-60.161 26.831-15.608 2.247-1.317 15.149-8.783z" fill="#407BFF"/>
            <path d="M181.23 247.86v76.93l-15.089 8.758-2.102 1.208-14.496 8.383c-3.624-11.585-13.579-14.085-23.134-5.34a41.001 41.001 0 0 0-9.484 13.87v-17.94l20.078-60.161 26.831-15.608 2.247-1.317 15.149-8.783z" fill="#000" opacity=".4"/>
            <path fill="#407BFF" d="m58.794 300.689 58.18 33.04v17.951l-12.02-6.56v18.991L70.1 344.13v-19.123l-11.307-6.379zM78.872 240.528l-20.078 60.16 58.18 33.04 20.077-60.16z"/>
            <path fill="#FFF" opacity=".2" d="m78.872 240.528-20.078 60.16 58.18 33.04 20.077-60.16z"/>
            <path d="m116.974 351.68-12.008-6.571c-3.83 7.586-5.884 16.2-5.159 23.665 1.341 13.663 11.477 18.266 22.64 10.28 7.779-5.568 13.988-15.764 16.598-26.069l-22.071-1.305z" fill="url(#F)"/>
            <path fill="url(#G)" d="m106.415 381.507 16.019 9.942 22.76-56.053-1.74-1.196z"/>
            <ellipse fill="url(#H)" transform="rotate(-72.46 131.84 362.11)" cx="131.839" cy="362.109" rx="30.455" ry="17.577"/>
            <ellipse fill="url(#I)" transform="rotate(-72.46 133.54 363.275)" cx="133.539" cy="363.275" rx="30.455" ry="17.577"/>
            <ellipse fill="url(#J)" transform="rotate(-72.46 134.8 364.124)" cx="134.8" cy="364.124" rx="13.748" ry="7.937"/>
            <path d="M141.497 357.37a20.948 20.948 0 0 1-5.098 16.116c-3.624 3.733-7.345 2.56-8.203-2.598a20.923 20.923 0 0 1 5.086-16.115c3.673-3.733 7.345-2.573 8.215 2.597z" fill="url(#K)"/>
            <path d="M139.335 359.448c.332 3.935-.9 7.842-3.431 10.873-2.416 2.549-4.712 1.824-5.207-1.643a15.004 15.004 0 0 1 3.443-10.873c2.38-2.549 4.711-1.824 5.195 1.643z" fill="url(#L)"/>
            <ellipse fill="url(#H)" transform="rotate(-72.46 186.915 331.443)" cx="186.915" cy="331.443" rx="30.455" ry="17.577"/>
            <ellipse fill="url(#I)" transform="rotate(-72.46 188.607 332.596)" cx="188.607" cy="332.596" rx="30.455" ry="17.577"/>
            <path d="M198.143 325.852a21.552 21.552 0 0 1-5.86 18.544c-4.578 4.18-9.362 2.67-10.703-3.383-1.34-6.052 1.28-14.351 5.86-18.543 4.578-4.192 9.362-2.67 10.703 3.382z" fill="url(#M)"/>
            <ellipse fill="url(#N)" transform="rotate(-72.46 189.945 333.468)" cx="189.945" cy="333.468" rx="11.948" ry="6.089"/>
            <path d="M194.422 328.764a14.956 14.956 0 0 1-3.443 10.872c-2.416 2.55-4.712 1.812-5.195-1.643a14.944 14.944 0 0 1 3.443-10.872c2.38-2.55 4.712-1.812 5.195 1.643z" fill="url(#O)"/>
            <path fill="#37474F" d="m130.915 275.706-8.553 25.599-2.223 6.668-4.543 13.627-1.606 4.808-8.082-4.579-40.965-23.267 16.925-50.726 6.91 3.926 11.295 6.427 9.145 5.195 4.482 2.549z"/>
            <path d="M166.141 256.643v76.905l-2.102 1.208a1.075 1.075 0 0 1-.157-.568V257.96l-57.14-32.714a1.063 1.063 0 0 1-.423-.411l2.114-1.208 57.696 33.028.012-.012z" fill="#407BFF"/>
            <path d="M166.141 256.643v76.905l-2.102 1.208a1.075 1.075 0 0 1-.157-.568V257.96l-57.14-32.714a1.063 1.063 0 0 1-.423-.411l2.114-1.208 57.696 33.028.012-.012z" opacity=".5" fill="#000"/>
            <path fill="#455A64" d="m115.596 321.6-1.606 4.808-8.082-4.579-17.13-70.067 11.295 6.427zM122.362 301.305l-2.223 6.668-10.921-44.59 4.482 2.55z"/>
            <path fill="#37474F" d="m160.222 307.526-37.86 22.542 17.577-52.659 20.283-11.802zM177.642 297.415l-7.538 4.349V259.76l7.538-4.361z"/>
            <path d="M.022 176.283v76.108c-.13.932.32 1.85 1.136 2.32l2.911 1.606v-2.598l.41-78.281-3.817-1.933a6.656 6.656 0 0 0-.64 2.778z" fill="#407BFF"/>
            <path d="m.675 173.565 3.817 1.933 92.32-54.12 2.198-1.281-3.032-1.715h-.097a1.728 1.728 0 0 0-1.812.132L2.764 171.113a5.726 5.726 0 0 0-2.09 2.452z" fill="#407BFF"/>
            <path d="m.675 173.565 3.817 1.933 92.32-54.12 2.198-1.281-3.032-1.715h-.097a1.728 1.728 0 0 0-1.812.132L2.764 171.113a5.726 5.726 0 0 0-2.09 2.452z" fill="#FFF" opacity=".2"/>
            <path d="M3.332 177.95v75.637a2.5 2.5 0 0 0 .87 2.162l.181.097a1.8 1.8 0 0 0 1.68-.194l90.748-52.296a6.523 6.523 0 0 0 2.73-5.207v-75.636a2.549 2.549 0 0 0-.809-2.126 1.208 1.208 0 0 0-.278-.157 1.848 1.848 0 0 0-1.643.217L6.062 172.732a5.472 5.472 0 0 0-2.017 2.416 6.548 6.548 0 0 0-.713 2.803z" fill="url(#P)"/>
            <path d="M3.332 177.95v75.637a2.5 2.5 0 0 0 .87 2.162l.181.097a1.8 1.8 0 0 0 1.68-.194l90.748-52.296a6.523 6.523 0 0 0 2.73-5.207v-75.636a2.549 2.549 0 0 0-.809-2.126 1.208 1.208 0 0 0-.278-.157 1.848 1.848 0 0 0-1.643.217L6.062 172.732a5.472 5.472 0 0 0-2.017 2.416 6.548 6.548 0 0 0-.713 2.803z" fill="#000" opacity=".2"/>
            <text fill="#FAFAFA" transform="rotate(-25 53.72 190.37)" font-family="Helvetica" font-size="42.409">
                        <tspan x="21.22" y="202.371">&lt;/&gt;</tspan>
                    </text>
            <path d="M98.26 120.266a.86.86 0 0 1 .388.085c.067.017.129.05.18.096.465.463.696 1.111.629 1.764v76.107a6.161 6.161 0 0 1-2.513 4.832L5.64 255.713a1.703 1.703 0 0 1-.858.278.94.94 0 0 1-.387-.085l-.145-.072a2.09 2.09 0 0 1-.664-1.788v-76.108c.024-.927.25-1.839.664-2.67a5.17 5.17 0 0 1 1.849-2.174l91.304-52.562c.26-.16.554-.251.858-.266m0-.459a2.235 2.235 0 0 0-1.087.326l-91.305 52.61a5.4 5.4 0 0 0-2.03 2.417 6.56 6.56 0 0 0-.712 2.863v76.107a2.537 2.537 0 0 0 .87 2.175l.18.096c.19.088.396.133.605.133.386-.012.762-.13 1.087-.338l91.305-52.599a6.596 6.596 0 0 0 2.742-5.242v-76.108a2.561 2.561 0 0 0-.822-2.138 1.208 1.208 0 0 0-.277-.157 1.425 1.425 0 0 0-.556-.109v-.036z" fill="#407BFF"/>
            <path fill="url(#Q)" d="m105.558 115.905 21.08 26.758 5.122 2.755-21.672-32.086z"/>
            <path fill="url(#R)" d="M91.629 123.806v4.192l19.28-10.982 20.851 28.402 2.32-2.332-22.108-30.817z"/>
            <path fill="url(#S)" d="m111.972 112.269-7.018-4.265-20.344 11.743 7.019 4.059z"/>
            <path fill="url(#T)" d="M84.61 119.747v4.059l7.019 4.192v-4.192z"/>
            <path d="M96.727 349.675a1.703 1.703 0 0 1-.858-.242l-18.918-10.872a4.7 4.7 0 0 1-2.344-4.071v-14.026a1.68 1.68 0 0 1 .858-1.486 1.703 1.703 0 0 1 1.728 0l18.906 10.873a4.711 4.711 0 0 1 2.355 4.071v13.977c0 .613-.327 1.18-.857 1.486-.26.172-.56.272-.87.29zm-.339-1.123a.7.7 0 0 0 1.04-.605V333.97a3.624 3.624 0 0 0-1.837-3.177l-18.918-10.872a.677.677 0 0 0-.689 0 .7.7 0 0 0-.35.604v13.977a3.697 3.697 0 0 0 1.836 3.19l18.918 10.86z" fill="#455A64"/>
            <path fill="#455A64" d="m74.856 322.27.513-.89 22.808 13.169-.514.889zM74.857 326.16l.514-.89 22.807 13.168-.513.89zM74.857 330.008l.514-.89 22.807 13.168-.513.89zM74.859 333.885l.513-.889 22.808 13.168-.514.89z"/>
            <path fill="#FFF" d="m66.888 317.432-8.094-4.675v-4.784l8.094 4.675zM116.974 345.592l-8.094-4.675v-4.772l8.094 4.663z"/>
            <path d="M23.229 96.818v41.87a1.28 1.28 0 0 0 .628 1.281l1.595.882v-1.425l.193-43.055-2.102-1.051c-.214.47-.321.981-.314 1.498zM23.58 95.32l2.101 1.05L76.42 66.618l1.208-.701-1.667-.942a.979.979 0 0 0-1.002.072L24.75 94.04c-.506.305-.913.75-1.172 1.28z" fill="#407BFF"/>
            <path d="m23.58 95.32 2.101 1.05L76.42 66.618l1.208-.701-1.667-.942a.979.979 0 0 0-1.002.072L24.75 94.04c-.506.305-.913.75-1.172 1.28z" fill="#FFF" opacity=".2"/>
            <path d="M25.041 97.736v41.593c-.056.456.12.91.471 1.208l.097.06c.309.118.656.078.93-.108l49.905-28.752a3.624 3.624 0 0 0 1.498-2.875V67.257a1.39 1.39 0 0 0-.447-1.208.447.447 0 0 0-.145-.085 1.003 1.003 0 0 0-.906.109L26.539 94.837a3.032 3.032 0 0 0-1.111 1.292 3.624 3.624 0 0 0-.387 1.607z" fill="url(#U)"/>
            <path d="M25.041 97.736v41.593c-.056.456.12.91.471 1.208l.097.06c.309.118.656.078.93-.108l49.905-28.752a3.624 3.624 0 0 0 1.498-2.875V67.257a1.39 1.39 0 0 0-.447-1.208.447.447 0 0 0-.145-.085 1.003 1.003 0 0 0-.906.109L26.539 94.837a3.032 3.032 0 0 0-1.111 1.292 3.624 3.624 0 0 0-.387 1.607z" fill="#000" opacity=".2"/>
            <text fill="#FAFAFA" transform="rotate(-25 52.923 104.792)" font-family="Helvetica" font-size="18.245">
                        <tspan x="34.531" y="111.792">C++</tspan>
                    </text>
            <path d="M77.24 66.049a.471.471 0 0 1 .218 0h.097c.254.259.378.618.338.978v41.835a3.395 3.395 0 0 1-1.377 2.67l-50.207 28.993a.954.954 0 0 1-.47.145.58.58 0 0 1-.218 0h-.073a1.208 1.208 0 0 1-.374-.99V97.76a3.37 3.37 0 0 1 .374-1.474 2.67 2.67 0 0 1 1.015-1.208L76.77 66.145a.954.954 0 0 1 .47-.145m0-.253c-.213.008-.42.07-.603.18L26.43 94.922a3.08 3.08 0 0 0-1.111 1.305 3.697 3.697 0 0 0-.399 1.582v41.835c-.051.458.13.912.483 1.208h.097a.817.817 0 0 0 .338.073c.21-.008.414-.07.592-.181l50.207-28.994a3.624 3.624 0 0 0 1.51-2.887V67.088a1.377 1.377 0 0 0-.447-1.208.689.689 0 0 0-.157-.097.846.846 0 0 0-.302 0v-.036zM23.229 31.849v41.714c0 .664.241 1.123.628 1.208l1.595.882v-1.426l.23-42.886-2.09-1.05a3.503 3.503 0 0 0-.363 1.558z" fill="#407BFF"/>
            <path d="m23.58 30.35 2.09 1.052L76.25 1.756l1.208-.7-1.667-.943a.93.93 0 0 0-1.002.073L24.775 28.998a3.129 3.129 0 0 0-1.196 1.353z" fill="#407BFF"/>
            <path d="m23.58 30.35 2.09 1.052L76.25 1.756l1.208-.7-1.667-.943a.93.93 0 0 0-1.002.073L24.775 28.998a3.129 3.129 0 0 0-1.196 1.353z" fill="#FFF" opacity=".2"/>
            <path d="M25.029 32.755V74.19c-.051.458.13.912.483 1.208h.097c.304.122.65.081.918-.109L76.25 46.72a3.624 3.624 0 0 0 1.486-2.863V2.384a1.39 1.39 0 0 0-.447-1.208l-.145-.084a.979.979 0 0 0-.894.12L26.527 29.905c-.484.32-.868.767-1.112 1.292a3.624 3.624 0 0 0-.386 1.559z" fill="url(#V)"/>
            <path d="M25.029 32.755V74.19c-.051.458.13.912.483 1.208h.097c.304.122.65.081.918-.109L76.25 46.72a3.624 3.624 0 0 0 1.486-2.863V2.384a1.39 1.39 0 0 0-.447-1.208l-.145-.084a.979.979 0 0 0-.894.12L26.527 29.905c-.484.32-.868.767-1.112 1.292a3.624 3.624 0 0 0-.386 1.559z" fill="#000" opacity=".2"/>
            <text transform="rotate(-25 83.58 -67.602)" fill="#FAFAFA" font-family="Helvetica" font-size="23.233">
                            <tspan x="0" y="23">{}</tspan>
                        </text>
            <path d="M77.035 1.164a.657.657 0 0 1 .218 0h.097c.25.256.374.61.338.967v41.678a3.37 3.37 0 0 1-1.377 2.657L26.297 75.29a.954.954 0 0 1-.47.145.35.35 0 0 1-.206 0h-.085a1.208 1.208 0 0 1-.362-.978V32.779a3.346 3.346 0 0 1 .362-1.462c.216-.49.569-.91 1.015-1.208L76.564 1.297a.954.954 0 0 1 .471-.145m0-.253c-.21.001-.416.064-.591.18L26.418 29.905a3.08 3.08 0 0 0-1.111 1.305 3.624 3.624 0 0 0-.387 1.57v41.726c-.058.46.125.916.483 1.208h.097c.102.05.213.074.326.073.21-.008.414-.07.592-.182L76.444 46.78a3.624 3.624 0 0 0 1.498-2.875V2.227a1.401 1.401 0 0 0-.447-1.208.399.399 0 0 0-.158-.084.616.616 0 0 0-.302-.06v.024z" fill="#407BFF"/>
        </g>
        <g>
            <path d="M237.153 67.832a5.219 5.219 0 0 1 1.473-3.25l4.712-4.76a2.996 2.996 0 0 0 .821-2.742l-1.208-5.75a1.208 1.208 0 0 0-.604-.797l-6.668-3.262-.157-.085a1.208 1.208 0 0 0-1.208.181l-1.91 1.643 1.982-6.04a1.498 1.498 0 0 0-.761-1.812l-6.62-3.298a1.522 1.522 0 0 0-.532-.169l-4.3-.556a2.03 2.03 0 0 0-1.631.532c-.208.183-.373.41-.483.664l-3.178 7.249a3.733 3.733 0 0 1-1.461 1.679l-.218-.592a1.208 1.208 0 0 0-.592-.628l-6.56-3.202-.205-.096a1.111 1.111 0 0 0-1.208.253l-5.617 5.678a3.624 3.624 0 0 0-.858 1.414c-.151.5-.188 1.029-.109 1.546l.81 5.17a2.658 2.658 0 0 1-.435 1.873l-3.202 4.977c-.177.29-.411.54-.688.737-.453.32-.992.492-1.546.495h-3.625c-.22-.001-.44.027-.652.085a2.525 2.525 0 0 0-1.703 1.558l-3.214 8.795a1.353 1.353 0 0 0 .604 1.655l4.76 2.331c.043.212.043.43 0 .64l-.532 4.93a2.96 2.96 0 0 1-.241.905c-.16.415-.403.793-.713 1.112l-4.832 5.025a3.129 3.129 0 0 0-.737 1.208 3.044 3.044 0 0 0 0 1.547l1.34 6.282a.918.918 0 0 0 .52.628l6.645 3.25a.894.894 0 0 0 1.014-.097l2.163-1.776-1.812 6.258c-.025.14-.025.283 0 .423.033.525.354.99.833 1.208l6.463 3.14c.19.154.422.247.665.266l3.733.471a2.344 2.344 0 0 0 2.416-1.365l3.177-7.103a3.745 3.745 0 0 1 1.546-1.691l.17.47c.11.318.359.567.676.677l6.56 3.214c.405.18.878.104 1.208-.194l5.714-5.23a2.851 2.851 0 0 0 .894-2.501l-.81-5.714a4.06 4.06 0 0 1 .616-2.767l2.61-4.047a3.685 3.685 0 0 1 3.08-1.679h3.48a2.066 2.066 0 0 0 2.077-1.256l3.166-8.456a1.728 1.728 0 0 0-.75-2.078h-.132l-4.374-2.139a1.703 1.703 0 0 1 0-.555l.158-4.482zm-21.02-4.095a11.307 11.307 0 0 1 4.687-2.054 12.08 12.08 0 0 1 1.208 4.578c.712 7.66-3.794 17.469-10.075 21.927a12.19 12.19 0 0 1-4.603 2.114 11.67 11.67 0 0 1-1.329-4.651c-.628-7.647 3.878-17.469 10.111-21.914z" fill="#407BFF"/>
            <path d="M237.153 67.832a5.219 5.219 0 0 1 1.473-3.25l4.712-4.76a2.996 2.996 0 0 0 .821-2.742l-1.208-5.75a1.208 1.208 0 0 0-.604-.797l-6.668-3.262-.157-.085a1.208 1.208 0 0 0-1.208.181l-1.91 1.643 1.982-6.04a1.498 1.498 0 0 0-.761-1.812l-6.62-3.298a1.522 1.522 0 0 0-.532-.169l-4.3-.556a2.03 2.03 0 0 0-1.631.532c-.208.183-.373.41-.483.664l-3.178 7.249a3.733 3.733 0 0 1-1.461 1.679l-.218-.592a1.208 1.208 0 0 0-.592-.628l-6.56-3.202-.205-.096a1.111 1.111 0 0 0-1.208.253l-5.617 5.678a3.624 3.624 0 0 0-.858 1.414c-.151.5-.188 1.029-.109 1.546l.81 5.17a2.658 2.658 0 0 1-.435 1.873l-3.202 4.977c-.177.29-.411.54-.688.737-.453.32-.992.492-1.546.495h-3.625c-.22-.001-.44.027-.652.085a2.525 2.525 0 0 0-1.703 1.558l-3.214 8.795a1.353 1.353 0 0 0 .604 1.655l4.76 2.331c.043.212.043.43 0 .64l-.532 4.93a2.96 2.96 0 0 1-.241.905c-.16.415-.403.793-.713 1.112l-4.832 5.025a3.129 3.129 0 0 0-.737 1.208 3.044 3.044 0 0 0 0 1.547l1.34 6.282a.918.918 0 0 0 .52.628l6.645 3.25a.894.894 0 0 0 1.014-.097l2.163-1.776-1.812 6.258c-.025.14-.025.283 0 .423.033.525.354.99.833 1.208l6.463 3.14c.19.154.422.247.665.266l3.733.471a2.344 2.344 0 0 0 2.416-1.365l3.177-7.103a3.745 3.745 0 0 1 1.546-1.691l.17.47c.11.318.359.567.676.677l6.56 3.214c.405.18.878.104 1.208-.194l5.714-5.23a2.851 2.851 0 0 0 .894-2.501l-.81-5.714a4.06 4.06 0 0 1 .616-2.767l2.61-4.047a3.685 3.685 0 0 1 3.08-1.679h3.48a2.066 2.066 0 0 0 2.077-1.256l3.166-8.456a1.728 1.728 0 0 0-.75-2.078h-.132l-4.374-2.139a1.703 1.703 0 0 1 0-.555l.158-4.482zm-21.02-4.095a11.307 11.307 0 0 1 4.687-2.054 12.08 12.08 0 0 1 1.208 4.578c.712 7.66-3.794 17.469-10.075 21.927a12.19 12.19 0 0 1-4.603 2.114 11.67 11.67 0 0 1-1.329-4.651c-.628-7.647 3.878-17.469 10.111-21.914z" fill="#000" opacity=".3"/>
            <path d="m198.012 89.226-7.249 7.345-6.68-3.443c.15-.453.402-.866.737-1.208l4.832-5.025c.31-.319.552-.697.713-1.112l7.647 3.443zM203.279 67.614l-.145.822h-6.27l-6.1-3.516c.212-.057.431-.086.652-.084h3.624a2.706 2.706 0 0 0 1.546-.495l6.693 3.273zM214.586 46.039l-2.827 2.778-5.001 4.929-6.62-3.624c.173-.531.467-1.015.858-1.414l5.617-5.677a1.111 1.111 0 0 1 1.208-.254l.205.097 6.56 3.165zM233.65 41.122h-6.585l-6.547-3.455a2.03 2.03 0 0 1 1.63-.532l4.29.544c.185.023.365.08.53.169l6.681 3.274z" fill="#000" opacity=".2"/>
            <path d="m225.725 64.582 4.711-4.76a2.996 2.996 0 0 0 .821-2.742l-1.208-5.75a1.208 1.208 0 0 0-1.896-.677l-4.832 4.023c-.526.439-1.301.397-1.776-.096l-1.402-1.462a3.48 3.48 0 0 1-.797-3.491l2.138-6.657a1.51 1.51 0 0 0-1.208-1.969L216 40.469a2.017 2.017 0 0 0-2.114 1.209l-3.178 7.248a3.781 3.781 0 0 1-1.98 1.957l-2.852 1.208a1.353 1.353 0 0 1-1.788-.761l-1.775-4.603a1.123 1.123 0 0 0-1.86-.386l-5.679 5.605a3.48 3.48 0 0 0-.954 2.96l.81 5.17a2.658 2.658 0 0 1-.4 1.836l-3.189 4.99a2.67 2.67 0 0 1-2.247 1.208h-3.624a2.513 2.513 0 0 0-2.416 1.655l-3.225 8.782a1.377 1.377 0 0 0 .894 1.776l3.334 1.003a1.74 1.74 0 0 1 1.208 1.86l-.532 4.929a3.43 3.43 0 0 1-.954 2.017l-4.832 5.038a3.056 3.056 0 0 0-.797 2.779l1.389 6.257a.906.906 0 0 0 1.462.508l4.832-3.95a1.86 1.86 0 0 1 2.633.253l1.208 1.486c.596.734.795 1.713.532 2.621l-2.126 7.357a1.413 1.413 0 0 0 1.208 1.813l3.733.47a2.344 2.344 0 0 0 2.416-1.364l3.177-7.104c.36-.808 1-1.46 1.8-1.836l2.778-1.329a1.728 1.728 0 0 1 2.417.99l1.485 4.241a1.123 1.123 0 0 0 1.825.459l5.714-5.23a2.851 2.851 0 0 0 .894-2.501l-.81-5.715a4.06 4.06 0 0 1 .616-2.766l2.61-4.047a3.685 3.685 0 0 1 3.08-1.68h3.48a2.066 2.066 0 0 0 1.98-1.34l3.166-8.456a1.74 1.74 0 0 0-1.208-2.272l-2.875-.773a1.752 1.752 0 0 1-1.293-1.812l.302-4.337a5.219 5.219 0 0 1 1.45-3.31zm-19.873 26.891c-6.27 4.446-11.935 1.837-12.648-5.822-.713-7.66 3.793-17.469 10.063-21.914 6.27-4.446 11.948-1.837 12.66 5.822.713 7.66-3.805 17.469-10.075 21.914z" fill="url(#W)" transform="translate(12.902)"/>
            <path d="M104.992 169.526a8.843 8.843 0 0 1 2.549-5.63l8.166-8.239a5.315 5.315 0 0 0 1.414-4.772l-2.066-9.954a2.005 2.005 0 0 0-1.051-1.377l-11.573-5.642-.278-.145a1.993 1.993 0 0 0-2.042.314l-3.37 2.779 3.443-10.462a2.597 2.597 0 0 0-1.33-3.14l-11.548-5.654a2.416 2.416 0 0 0-.918-.302l-7.43-.943a3.491 3.491 0 0 0-2.827.906 3.31 3.31 0 0 0-.833 1.208l-5.509 12.552a6.366 6.366 0 0 1-2.525 2.911l-.386-1.026a1.993 1.993 0 0 0-1.027-1.076l-11.356-5.557-.362-.169a1.945 1.945 0 0 0-2.102.435l-9.737 9.846a6.137 6.137 0 0 0-1.474 2.416 6.21 6.21 0 0 0-.193 2.67l1.401 8.963a4.59 4.59 0 0 1-.676 3.178l-5.545 8.637a4.289 4.289 0 0 1-1.208 1.269c-.778.56-1.712.86-2.67.857h-6.282a3.83 3.83 0 0 0-1.124.157 4.325 4.325 0 0 0-2.96 2.694l-5.58 15.234a2.416 2.416 0 0 0 1.063 2.863l8.239 4.035c.1.361.13.739.084 1.111l-.918 8.541a6.04 6.04 0 0 1-.423 1.583 5.823 5.823 0 0 1-1.184 1.836l-8.456 8.722a5.352 5.352 0 0 0-1.365 4.832l2.416 10.873c.113.492.454.9.918 1.099l11.513 5.63c.565.312 1.263.25 1.763-.157l3.733-3.081-3.128 10.872c-.08.238-.113.488-.097.737.024.94.575 1.786 1.425 2.187l11.199 5.436c.352.264.77.427 1.208.471l6.475.81a4.083 4.083 0 0 0 4.228-2.416l5.51-12.298a6.415 6.415 0 0 1 2.681-2.924l.278.81c.195.567.64 1.013 1.208 1.208l11.38 5.58a1.933 1.933 0 0 0 2.138-.325l9.906-9.06a4.99 4.99 0 0 0 1.51-4.265l-1.413-9.906a7.067 7.067 0 0 1 1.063-4.832l4.53-7.007a6.342 6.342 0 0 1 5.327-2.9h6.04a3.624 3.624 0 0 0 3.383-2.416l5.497-14.593a2.996 2.996 0 0 0-1.305-3.624h-.072l-.218-.109-7.586-3.696a2.936 2.936 0 0 1-.097-.979l.556-7.586zm-36.363-7.092a19.824 19.824 0 0 1 8.106-3.624 20.923 20.923 0 0 1 2.187 7.961c1.208 13.289-6.584 30.202-17.456 37.97a20.839 20.839 0 0 1-7.973 3.623 20.259 20.259 0 0 1-2.308-8.045c-1.232-13.18 6.584-30.177 17.456-37.885h-.012z" fill="#407BFF"/>
            <path d="M104.992 169.526a8.843 8.843 0 0 1 2.549-5.63l8.166-8.239a5.315 5.315 0 0 0 1.414-4.772l-2.066-9.954a2.005 2.005 0 0 0-1.051-1.377l-11.573-5.642-.278-.145a1.993 1.993 0 0 0-2.042.314l-3.37 2.779 3.443-10.462a2.597 2.597 0 0 0-1.33-3.14l-11.548-5.654a2.416 2.416 0 0 0-.918-.302l-7.43-.943a3.491 3.491 0 0 0-2.827.906 3.31 3.31 0 0 0-.833 1.208l-5.509 12.552a6.366 6.366 0 0 1-2.525 2.911l-.386-1.026a1.993 1.993 0 0 0-1.027-1.076l-11.356-5.557-.362-.169a1.945 1.945 0 0 0-2.102.435l-9.737 9.846a6.137 6.137 0 0 0-1.474 2.416 6.21 6.21 0 0 0-.193 2.67l1.401 8.963a4.59 4.59 0 0 1-.676 3.178l-5.545 8.637a4.289 4.289 0 0 1-1.208 1.269c-.778.56-1.712.86-2.67.857h-6.282a3.83 3.83 0 0 0-1.124.157 4.325 4.325 0 0 0-2.96 2.694l-5.58 15.234a2.416 2.416 0 0 0 1.063 2.863l8.239 4.035c.1.361.13.739.084 1.111l-.918 8.541a6.04 6.04 0 0 1-.423 1.583 5.823 5.823 0 0 1-1.184 1.836l-8.456 8.722a5.352 5.352 0 0 0-1.365 4.832l2.416 10.873c.113.492.454.9.918 1.099l11.513 5.63c.565.312 1.263.25 1.763-.157l3.733-3.081-3.128 10.872c-.08.238-.113.488-.097.737.024.94.575 1.786 1.425 2.187l11.199 5.436c.352.264.77.427 1.208.471l6.475.81a4.083 4.083 0 0 0 4.228-2.416l5.51-12.298a6.415 6.415 0 0 1 2.681-2.924l.278.81c.195.567.64 1.013 1.208 1.208l11.38 5.58a1.933 1.933 0 0 0 2.138-.325l9.906-9.06a4.99 4.99 0 0 0 1.51-4.265l-1.413-9.906a7.067 7.067 0 0 1 1.063-4.832l4.53-7.007a6.342 6.342 0 0 1 5.327-2.9h6.04a3.624 3.624 0 0 0 3.383-2.416l5.497-14.593a2.996 2.996 0 0 0-1.305-3.624h-.072l-.218-.109-7.586-3.696a2.936 2.936 0 0 1-.097-.979l.556-7.586zm-36.363-7.092a19.824 19.824 0 0 1 8.106-3.624 20.923 20.923 0 0 1 2.187 7.961c1.208 13.289-6.584 30.202-17.456 37.97a20.839 20.839 0 0 1-7.973 3.623 20.259 20.259 0 0 1-2.308-8.045c-1.232-13.18 6.584-30.177 17.456-37.885h-.012z" fill="#000" opacity=".3"/>
            <path d="M37.196 206.589 24.68 219.346l-11.5-6.04a5.328 5.328 0 0 1 1.208-2.15l8.456-8.723c.524-.551.934-1.2 1.208-1.909l13.144 6.065zM46.305 169.151l-.254 1.426H35.178l-10.679-6.04a3.83 3.83 0 0 1 1.124-.158h6.318a4.542 4.542 0 0 0 2.67-.857l11.694 5.63zM65.887 131.774l-4.832 4.832-8.662 8.517-11.464-6.33a6.137 6.137 0 0 1 1.474-2.416l9.736-9.846a1.945 1.945 0 0 1 2.102-.435l.363.17 11.283 5.508zM98.951 123.245H87.523l-11.355-6.04a3.491 3.491 0 0 1 2.826-.906l7.43.942c.323.038.636.14.918.302l11.61 5.702z" fill="#000" opacity=".2"/>
            <path d="m94.651 163.896 8.166-8.239a5.315 5.315 0 0 0 1.414-4.772l-2.066-9.954a2.042 2.042 0 0 0-3.298-1.208l-8.456 6.97a2.26 2.26 0 0 1-3.069-.18l-2.416-2.538a6.04 6.04 0 0 1-1.377-6.04l3.817-11.597a2.61 2.61 0 0 0-2.15-3.407l-7.43-.93a3.528 3.528 0 0 0-3.624 2.078l-5.496 12.54a6.56 6.56 0 0 1-3.443 3.394l-4.941 2.09a2.344 2.344 0 0 1-3.226-1.28l-3.08-7.986a1.97 1.97 0 0 0-3.226-.676l-9.7 9.87a5.968 5.968 0 0 0-1.655 5.11l1.389 8.963a4.603 4.603 0 0 1-.676 3.177l-5.533 8.638a4.59 4.59 0 0 1-3.89 2.126h-6.246a4.361 4.361 0 0 0-4.083 2.863l-5.581 15.197a2.416 2.416 0 0 0 1.534 3.069l5.714 1.764a2.996 2.996 0 0 1 2.114 3.213l-.906 8.541a5.895 5.895 0 0 1-1.643 3.491l-8.456 8.722a5.267 5.267 0 0 0-1.377 4.833l2.416 10.872a1.583 1.583 0 0 0 2.549.882l8.287-6.898a3.238 3.238 0 0 1 4.566.447l2.114 2.585a4.99 4.99 0 0 1 .93 4.53l-3.708 12.745a2.489 2.489 0 0 0 2.078 3.153l6.475.81a4.083 4.083 0 0 0 4.228-2.416L47.2 236.15a6.427 6.427 0 0 1 3.117-3.178l4.832-2.295a2.984 2.984 0 0 1 4.107 1.704l2.55 7.357a1.957 1.957 0 0 0 3.164.797l9.906-9.06a4.99 4.99 0 0 0 1.51-4.301l-1.413-9.906a7.067 7.067 0 0 1 1.063-4.832l4.53-7.007a6.342 6.342 0 0 1 5.328-2.9h6.04a3.624 3.624 0 0 0 3.382-2.416l5.497-14.593a3.008 3.008 0 0 0-2.03-3.938l-4.977-1.341a3.032 3.032 0 0 1-2.247-3.153l.544-7.502a8.843 8.843 0 0 1 2.549-5.69zM60.209 210.48c-10.872 7.707-20.681 3.189-21.914-10.076-1.232-13.264 6.572-30.2 17.445-37.969 10.872-7.767 20.682-3.189 21.926 10.075 1.244 13.265-6.584 30.262-17.457 37.97z" fill="url(#X)" transform="translate(12.902)"/>
            <path d="M166.059 43.864a7.248 7.248 0 0 1 2.102-4.639l6.729-6.801a4.289 4.289 0 0 0 1.208-3.926l-1.704-8.203a1.643 1.643 0 0 0-.857-1.136l-9.544-4.663-.23-.108a1.655 1.655 0 0 0-1.679.253l-2.778 2.284 2.839-8.614a2.138 2.138 0 0 0-1.1-2.585l-9.531-4.663a2.005 2.005 0 0 0-.761-.242l-6.125-.773a2.875 2.875 0 0 0-2.332.75 2.73 2.73 0 0 0-.688.953l-4.543 10.341a5.23 5.23 0 0 1-2.077 2.416l-.327-.845a1.522 1.522 0 0 0-.845-.882l-9.375-4.566-.302-.158a1.583 1.583 0 0 0-1.727.363l-8.034 8.118a5.001 5.001 0 0 0-1.208 2.005 5.17 5.17 0 0 0-.157 2.199l1.208 7.393a3.709 3.709 0 0 1-.555 2.622l-4.567 7.127c-.251.41-.584.764-.978 1.04a3.793 3.793 0 0 1-2.211.712h-5.207a3.455 3.455 0 0 0-.93.12 3.624 3.624 0 0 0-2.416 2.224L92.67 54.483c-.359.91.013 1.944.87 2.416l6.8 3.322c.074.3.098.61.073.918l-.773 7.043c-.045.45-.16.89-.338 1.305a4.687 4.687 0 0 1-1.015 1.57l-6.982 7.249c-.483.5-.84 1.11-1.04 1.775a4.289 4.289 0 0 0-.084 2.211l1.97 8.94c.09.404.369.74.748.906l9.483 4.65c.469.26 1.048.208 1.462-.132l3.08-2.537-2.585 8.928a2.09 2.09 0 0 0-.084.604 2.042 2.042 0 0 0 1.208 1.8l9.23 4.494c.282.203.61.336.954.386l5.34.665a3.346 3.346 0 0 0 3.479-1.958l4.554-10.135a5.267 5.267 0 0 1 2.199-2.416l.241.664c.156.457.512.817.967.979l9.374 4.59a1.63 1.63 0 0 0 1.764-.265l8.154-7.478a4.035 4.035 0 0 0 1.28-3.624l-1.207-8.167a5.726 5.726 0 0 1 .87-3.962l3.732-5.775a5.23 5.23 0 0 1 4.398-2.416h4.965c1.246.001 2.36-.776 2.79-1.945l4.506-12.153a2.416 2.416 0 0 0-1.063-2.984h-.06l-.181-.096-6.258-3.045a3.02 3.02 0 0 1-.073-.809l.64-6.137zm-29.984-5.847a16.466 16.466 0 0 1 6.692-2.947 17.517 17.517 0 0 1 1.8 6.56c1.015 10.872-5.424 24.945-14.387 31.3a17.106 17.106 0 0 1-6.572 3.032 16.574 16.574 0 0 1-1.909-6.644c-1.003-10.933 5.412-24.946 14.376-31.3z" fill="#407BFF"/>
            <path d="M166.059 43.864a7.248 7.248 0 0 1 2.102-4.639l6.729-6.801a4.289 4.289 0 0 0 1.208-3.926l-1.704-8.203a1.643 1.643 0 0 0-.857-1.136l-9.544-4.663-.23-.108a1.655 1.655 0 0 0-1.679.253l-2.778 2.284 2.839-8.614a2.138 2.138 0 0 0-1.1-2.585l-9.531-4.663a2.005 2.005 0 0 0-.761-.242l-6.125-.773a2.875 2.875 0 0 0-2.332.75 2.73 2.73 0 0 0-.688.953l-4.543 10.341a5.23 5.23 0 0 1-2.077 2.416l-.327-.845a1.522 1.522 0 0 0-.845-.882l-9.375-4.566-.302-.158a1.583 1.583 0 0 0-1.727.363l-8.034 8.118a5.001 5.001 0 0 0-1.208 2.005 5.17 5.17 0 0 0-.157 2.199l1.208 7.393a3.709 3.709 0 0 1-.555 2.622l-4.567 7.127c-.251.41-.584.764-.978 1.04a3.793 3.793 0 0 1-2.211.712h-5.207a3.455 3.455 0 0 0-.93.12 3.624 3.624 0 0 0-2.416 2.224L92.67 54.483c-.359.91.013 1.944.87 2.416l6.8 3.322c.074.3.098.61.073.918l-.773 7.043c-.045.45-.16.89-.338 1.305a4.687 4.687 0 0 1-1.015 1.57l-6.982 7.249c-.483.5-.84 1.11-1.04 1.775a4.289 4.289 0 0 0-.084 2.211l1.97 8.94c.09.404.369.74.748.906l9.483 4.65c.469.26 1.048.208 1.462-.132l3.08-2.537-2.585 8.928a2.09 2.09 0 0 0-.084.604 2.042 2.042 0 0 0 1.208 1.8l9.23 4.494c.282.203.61.336.954.386l5.34.665a3.346 3.346 0 0 0 3.479-1.958l4.554-10.135a5.267 5.267 0 0 1 2.199-2.416l.241.664c.156.457.512.817.967.979l9.374 4.59a1.63 1.63 0 0 0 1.764-.265l8.154-7.478a4.035 4.035 0 0 0 1.28-3.624l-1.207-8.167a5.726 5.726 0 0 1 .87-3.962l3.732-5.775a5.23 5.23 0 0 1 4.398-2.416h4.965c1.246.001 2.36-.776 2.79-1.945l4.506-12.153a2.416 2.416 0 0 0-1.063-2.984h-.06l-.181-.096-6.258-3.045a3.02 3.02 0 0 1-.073-.809l.64-6.137zm-29.984-5.847a16.466 16.466 0 0 1 6.692-2.947 17.517 17.517 0 0 1 1.8 6.56c1.015 10.872-5.424 24.945-14.387 31.3a17.106 17.106 0 0 1-6.572 3.032 16.574 16.574 0 0 1-1.909-6.644c-1.003-10.933 5.412-24.946 14.376-31.3z" fill="#000" opacity=".3"/>
            <path d="M110.162 74.38 99.833 84.864l-9.531-4.916c.2-.667.556-1.276 1.039-1.776l6.982-7.249c.44-.45.786-.984 1.015-1.57l10.824 5.025zM117.664 43.562l-.205 1.208h-8.952L99.7 39.745c.304-.083.617-.123.93-.121h5.207c.794 0 1.567-.25 2.211-.713l9.616 4.651zM133.816 12.769l-4.035 3.974-7.14 7.031-9.459-5.219a5.001 5.001 0 0 1 1.208-2.005l8.034-8.118a1.583 1.583 0 0 1 1.727-.362l.302.157 9.363 4.542zM161.045 5.714h-9.398L142.284.773a2.875 2.875 0 0 1 2.332-.75l6.125.774c.267.029.526.111.76.242l9.544 4.675z" fill="#000" opacity=".2"/>
            <path d="m155.259 39.225 6.729-6.801a4.289 4.289 0 0 0 1.208-3.926l-1.704-8.203a1.68 1.68 0 0 0-2.706-.966l-6.994 5.75a1.885 1.885 0 0 1-2.537-.145l-2.005-2.09a4.94 4.94 0 0 1-1.208-4.977l3.153-9.568a2.15 2.15 0 0 0-1.764-2.778l-6.125-.774a2.887 2.887 0 0 0-3.02 1.704l-4.53 10.353a5.388 5.388 0 0 1-2.84 2.79l-4.07 1.728a1.933 1.933 0 0 1-2.55-1.087l-2.548-6.584a1.619 1.619 0 0 0-2.658-.556l-8.022 8.13a4.917 4.917 0 0 0-1.365 4.216l1.136 7.394a3.77 3.77 0 0 1-.544 2.621l-4.566 7.128a3.817 3.817 0 0 1-3.201 1.751H97.32a3.624 3.624 0 0 0-3.37 2.26L89.36 59.133a1.957 1.957 0 0 0 1.208 2.537l4.832 1.45a2.489 2.489 0 0 1 1.752 2.645l-.773 7.043a4.832 4.832 0 0 1-1.353 2.875l-6.983 7.188a4.397 4.397 0 0 0-1.124 3.987l1.97 8.94a1.305 1.305 0 0 0 2.102.724l6.861-5.654a2.658 2.658 0 0 1 3.757.375l1.74 2.126a4.083 4.083 0 0 1 .761 3.733l-3.032 10.51a2.042 2.042 0 0 0 1.703 2.597l5.34.665a3.346 3.346 0 0 0 3.479-1.957l4.554-10.136a5.28 5.28 0 0 1 2.561-2.633l3.975-1.885a2.416 2.416 0 0 1 3.382 1.413l2.115 6.04a1.607 1.607 0 0 0 2.609.665l8.154-7.478a4.035 4.035 0 0 0 1.28-3.624l-1.207-8.166a5.726 5.726 0 0 1 .87-3.963l3.732-5.774a5.23 5.23 0 0 1 4.398-2.416h4.965c1.246 0 2.36-.776 2.79-1.945l4.506-12.153a2.416 2.416 0 0 0-1.667-3.25l-4.107-1.1a2.525 2.525 0 0 1-1.848-2.609l.447-6.185a7.248 7.248 0 0 1 2.15-4.494zm-28.39 38.404c-8.963 6.355-17.057 2.634-18.12-8.311-1.063-10.945 5.412-24.946 14.376-31.3 8.964-6.355 17.057-2.634 18.12 8.31 1.064 10.945-5.412 24.947-14.375 31.301z" fill="url(#Y)" transform="translate(12.902)"/>
        </g>
        <g>
            <path d="m353.754 305.42-4.905-3.287-8.686 22.627-9.266 5.014-2.198-3.178 11.065-22.409-4.904-3.298c-.435.218-.87.435-1.293.689-10.196 5.87-18.471 20.162-18.483 31.928 0 5.449 1.752 9.411 4.663 11.489l.495.326 3.902 2.573 1.33.906-.134 102.926c-6.173 6.995-10.437 16.732-10.45 25.176 0 4.434 1.209 7.877 3.166 10.124l4.916 3.298-.942-13.663 4.724-12.31 1.776-.955 7.49-4.059 4.76 6.898-5.195 13.083-3.48 8.94 4.917 3.298 4.132-10.426c6.318-7.018 10.715-16.912 10.727-25.477a17.106 17.106 0 0 0-1.776-7.986l1.824-.278-4.614-3.08a9.374 9.374 0 0 0-6.04-1.812l.132-104.847c6.258-7.007 10.607-16.913 10.62-25.369 0-.713 0-1.377-.098-2.03l1.825-4.832z" fill="#407BFF"/>
            <path d="m96.834 144.93.133-104.847c6.27-7.019 10.62-16.852 10.631-25.369 0-4.433-1.208-7.864-3.177-10.123l-8.686 22.638-9.241 5.026-4.772-6.91L90.444 3.37c-.423.218-.858.435-1.28.69C78.966 9.93 70.68 24.22 70.667 35.987c0 8.456 4.228 13.288 10.401 13.18l-.132 105.028c-6.174 7.006-10.438 16.743-10.45 25.188 0 4.433 1.208 7.864 3.165 10.123l8.686-22.627 9.254-5.025 4.771 6.91-8.758 21.95c.423-.217.846-.435 1.28-.689 10.196-5.87 18.472-20.162 18.484-31.928.048-8.517-4.277-13.373-10.535-13.168z" fill="url(#Z)" transform="translate(249.333 300.84)"/>
            <path d="m351.905 447.353-4.614-3.08a8.734 8.734 0 0 0-1.148-.725v2.21a9.435 9.435 0 0 1 5.762 1.595z" fill="#407BFF"/>
            <path d="m351.905 447.353-4.614-3.08a8.734 8.734 0 0 0-1.148-.725v2.21a9.435 9.435 0 0 1 5.762 1.595z" fill="#000" opacity=".4"/>
            <path fill="#407BFF" d="m341.105 481.13 4.59-11.549-4.77-6.91-1.922 1.04 1.776 2.572-5.194 13.084-3.528 8.89 4.917 3.299 4.131-10.426z"/>
            <path d="m320.254 345.321 3.902 2.573h.073c-2.646-2.162-4.24-5.98-4.228-11.138 0-11.766 8.299-26.058 18.495-31.929.423-.253.858-.47 1.28-.688l-4.904-3.298c-.435.217-.87.435-1.293.688-10.196 5.871-18.47 20.163-18.483 31.93 0 5.447 1.752 9.41 4.663 11.488l.495.374zM348.849 302.121l-8.686 22.627 4.905 3.298 8.686-22.627z" fill="#000" opacity=".2"/>
            <path fill="#000" opacity=".4" d="m340.163 324.748 4.905 3.298-9.242 5.013-2.996-4.324zM330.402 349.984a9.556 9.556 0 0 1-5.001-1.208h.084l-.133 102.926 4.917 3.286.133-105.004z"/>
            <path d="M314.903 476.902c0 4.434 1.208 7.877 3.165 10.124l4.917 3.298c-2.006-2.26-3.178-5.69-3.166-10.124 0-8.456 4.277-18.181 10.45-25.188l-4.917-3.286c-6.173 6.995-10.437 16.732-10.45 25.176z" fill="#000" opacity=".2"/>
            <path fill="#000" opacity=".4" d="m340.78 466.283 4.916 3.298-4.772-6.91-1.92 1.04z"/>
            <path fill="#000" opacity=".2" d="m332.057 488.258 4.917 3.298 8.722-21.975-4.917-3.298z"/>
            <path d="M314.057 491.157s-4.578-3.914-6.354-4.107c-1.776-.194-4.832 2.863-2.26 8.154.725 1.462 3.625 3.056 5.497 5.871 1.873 2.815 3.492 4.941 6.306 4.555 2.815-.387 3.19-1.982 3.008-3.818a42.548 42.548 0 0 0-1.014-4.99l-5.183-5.665z" fill="#37474F"/>
            <path d="M317.403 504.784c-2.899.399-4.614-1.788-6.499-4.687-1.885-2.9-4.929-4.543-5.678-6.04a11.271 11.271 0 0 1-.725-1.885 9.483 9.483 0 0 0 .943 3.056c.724 1.462 3.624 3.057 5.496 5.871 1.873 2.815 3.492 4.941 6.306 4.555 2.163-.302 2.875-1.305 3.02-2.585a3.225 3.225 0 0 1-2.863 1.715z" fill="#263238"/>
            <path d="M311.568 496.195a.471.471 0 0 1-.217 0 .46.46 0 0 1-.181-.604 7.115 7.115 0 0 1 4.3-3.37.447.447 0 1 1 .206.857 6.379 6.379 0 0 0-3.72 2.936.447.447 0 0 1-.388.18zM309.901 494.624a.41.41 0 0 1-.205-.06.435.435 0 0 1-.181-.604 7.164 7.164 0 0 1 4.3-3.37.46.46 0 0 1 .532.338.447.447 0 0 1-.338.531 6.294 6.294 0 0 0-3.709 2.924.46.46 0 0 1-.399.241zM307.944 493.042a.46.46 0 0 1-.205 0 .447.447 0 0 1-.181-.604 7.164 7.164 0 0 1 4.3-3.37.447.447 0 1 1 .194.869 6.342 6.342 0 0 0-3.709 2.924.447.447 0 0 1-.399.18z" fill="#EBEBEB"/>
            <path d="M289.703 503.999s-6.125-1.981-7.95-1.438c-1.823.544-3.623 4.832 1.112 8.976 1.329 1.148 4.832 1.51 7.853 3.54 3.02 2.03 5.472 3.443 8.093 1.896 2.622-1.546 2.417-3.298 1.945-5.219a238.44 238.44 0 0 0-1.075-4.228L289.703 504z" fill="#37474F"/>
            <path d="M298.618 516.08c-2.706 1.582-5.279.132-8.347-1.958-3.069-2.09-6.73-2.416-8.094-3.624a12.781 12.781 0 0 1-1.498-1.57 10.377 10.377 0 0 0 2.186 2.633c1.329 1.148 4.832 1.51 7.853 3.54 3.02 2.03 5.472 3.443 8.093 1.896 2.018-1.208 2.308-2.416 1.921-3.78-.036.978-.555 1.956-2.114 2.862z" fill="#263238"/>
            <path d="M288.241 509.665a.435.435 0 0 1-.399-.484 7.623 7.623 0 0 1 2.84-5.086.46.46 0 0 1 .627.11.435.435 0 0 1-.108.615 6.838 6.838 0 0 0-2.477 4.446.447.447 0 0 1-.483.399zM290.778 510.486a.447.447 0 0 1-.399-.483 7.623 7.623 0 0 1 2.851-5.074.435.435 0 0 1 .616.097.46.46 0 0 1-.096.628 6.729 6.729 0 0 0-2.416 4.433.46.46 0 0 1-.556.399zM285.91 508.807a.447.447 0 0 1-.4-.483 7.623 7.623 0 0 1 2.852-5.074.447.447 0 0 1 .628.108.46.46 0 0 1-.109.617 6.765 6.765 0 0 0-2.476 4.433.447.447 0 0 1-.496.399z" fill="#EBEBEB"/>
            <path d="m83.775 82.655 4.833 5.074 8.456-8.348v-8.77s3.624 4.518 3.624 9.084c0 4.567-1.208 5.388-2.56 8.034-1.354 2.645-6.718 13.288-10.402 10.98a129.54 129.54 0 0 1-10.873-8.697l6.922-7.357z" fill="url(#aa)" transform="translate(249.333 300.84)"/>
            <path d="M68.349 67.095s3.032 0 6.801 4.41c3.77 4.409 10.1 11.476 10.1 11.476A9.664 9.664 0 0 1 78 92.259l-8.819-7.575-.833-17.589z" fill="url(#ab)" transform="translate(249.333 300.84)"/>
            <path d="M317.681 367.936s3.032 0 6.802 4.41c3.769 4.409 10.099 11.476 10.099 11.476a9.664 9.664 0 0 1-7.248 9.278l-8.82-7.575-.833-17.59z" fill="#FFF" opacity=".4"/>
            <path d="M70.197 191.524c.544-6.04 1.74-15.583 2.235-20.03.674-5.63.511-11.329-.483-16.912a13.808 13.808 0 0 1-.194-3.986c1.208-12.08 1.994-31.688 1.33-36L56.11 118.22s2.078 27.483 2.984 36.628c.906 9.145 4.349 36.676 4.349 36.676a6.149 6.149 0 0 0 6.753 0z" fill="url(#ac)" transform="translate(249.333 300.84)"/>
            <path d="M317.09 498.563a3.201 3.201 0 0 0 2.15-1.74c0-.954.108-2.561.29-4.494a6.149 6.149 0 0 1-6.766.072l.604 5.11a4.373 4.373 0 0 0 3.721 1.052z" fill="#FFA8A7"/>
            <path d="M51.11 202.155c.688-9.193 2.03-27 2.198-29.79.13-3.093-.065-6.19-.58-9.242a14.134 14.134 0 0 1 0-4.99l7.454-41.375-20.537-.302-1.34 43.357a11.21 11.21 0 0 0 .06 1.68l4.349 40.397s4.3 3.563 8.396.265z" fill="url(#ad)" transform="translate(249.333 300.84)"/>
            <path d="M297.072 510.583a3.878 3.878 0 0 0 3.008-2.114l.423-5.473c-4.096 3.298-8.336-.266-8.336-.266l.653 6.04s.906 2.115 4.252 1.813z" fill="#FFA8A7"/>
            <path d="m298.51 370.702-4.833 1.655-5.206 24.572.253 21.83s3.721 2.96 18.23 2.96c8.154 0 13.457-3.07 15.463-6.343l-1.305-13.131s1.329-12.999 1.329-19.426c0-6.427.29-11.682-4.736-14.871l-4.47.362-14.726 2.392z" fill="#407BFF"/>
            <path d="m298.51 370.702-4.833 1.655-5.206 24.572.253 21.83s3.721 2.96 18.23 2.96c8.154 0 13.457-3.07 15.463-6.343l-1.305-13.131s1.329-12.999 1.329-19.426c0-6.427.29-11.682-4.736-14.871l-4.47.362-14.726 2.392z" fill="#FFF" opacity=".2"/>
            <path d="m293.254 349.55-2.416 4.832a.544.544 0 0 0 .314.76l2.876.955-.774-6.548z" fill="#F28F8F"/>
            <path d="M47.28 40.663s-3.624 1.981-3.624 13.289c0 6.245.435 10.232 3.624 9.978 3.19-.254 12.54-1.413 12.54-1.413V40.663H47.28z" fill="url(#ae)" transform="translate(249.333 300.84)"/>
            <path d="M296.613 364.82c1.147-.085 3.032-.29 5.013-.52v-1.208a26.215 26.215 0 0 1-5.557 1.679c.18.034.361.05.544.048z" fill="#F28F8F"/>
            <path fill="url(#af)" d="M51.738 61.816v7.127h9.749V58.93z" transform="translate(249.333 300.84)"/>
            <path d="M301.07 367.066c2.028.703 4.182.962 6.319.761 2.826-.495 3.43-2.21 3.43-2.21s.919-.06 2.417 2.693a7.164 7.164 0 0 1-5.702 3.625 22.023 22.023 0 0 1-9-1.28s1.34-3.927 2.537-3.589z" fill="#407BFF"/>
            <path d="M301.07 367.066c2.028.703 4.182.962 6.319.761 2.826-.495 3.43-2.21 3.43-2.21s.919-.06 2.417 2.693a7.164 7.164 0 0 1-5.702 3.625 22.023 22.023 0 0 1-9-1.28s1.34-3.927 2.537-3.589z" fill="#FFF" opacity=".4"/>
            <path d="m253.497 403.55-3.877-2.417a.604.604 0 0 1 0-1.027l17.057-10.002a1.413 1.413 0 0 1 1.462 0l21.262 13.373a1.111 1.111 0 0 1 0 1.909l-17.541 9.664a1.667 1.667 0 0 1-1.74-.085l-16.623-11.416z" fill="#37474F"/>
            <path d="m253.497 402.631-3.877-2.416a.604.604 0 0 1 0-1.027l17.057-10.002a1.438 1.438 0 0 1 1.462 0l21.262 13.385a1.111 1.111 0 0 1 0 1.908l-17.541 9.665a1.643 1.643 0 0 1-1.74-.097l-16.623-11.416z" fill="#E0E0E0"/>
            <path fill="#E0E0E0" d="M249.342 398.053v1.582h2.694z"/>
            <path d="m253.497 401.133-3.877-2.476a.592.592 0 0 1 0-1.015l17.057-10.003a1.413 1.413 0 0 1 1.462 0l21.262 13.385a1.111 1.111 0 0 1 0 1.91l-17.541 9.664a1.643 1.643 0 0 1-1.74-.085l-16.623-11.38z" fill="#FFF"/>
            <path d="M256.385 398.222a.435.435 0 0 1-.387-.218.423.423 0 0 1 .157-.604l11.634-6.825c.21-.12.478-.05.604.157a.46.46 0 0 1-.157.616l-11.634 6.79a.374.374 0 0 1-.217.084zM259.236 400.082a.46.46 0 0 1-.442-.56.435.435 0 0 1 .212-.273l11.634-6.814a.423.423 0 0 1 .604.157c.12.21.05.479-.157.604l-11.634 6.826a.495.495 0 0 1-.217.06zM262.038 401.93a.435.435 0 0 1-.386-.217.447.447 0 0 1 .157-.616l11.633-6.813a.423.423 0 0 1 .604.157c.12.21.05.478-.157.604l-11.633 6.825a.495.495 0 0 1-.218.06zM264.938 403.779a.435.435 0 0 1-.387-.218.447.447 0 0 1 .157-.604l11.634-6.825c.21-.12.478-.05.604.157a.46.46 0 0 1-.157.616l-11.634 6.813a.374.374 0 0 1-.217.06zM267.789 405.64a.447.447 0 0 1-.23-.834l11.634-6.814a.423.423 0 0 1 .604.157.435.435 0 0 1-.157.604l-11.634 6.826a.447.447 0 0 1-.217.06z" fill="#407BFF"/>
            <path d="m34.547 92.356-2.512 8.734s-3.999 1.208-8.457 2.657a50.23 50.23 0 0 1-8.36 1.994 28.498 28.498 0 0 1-2.198-3.032c-.7-1.209-1.293-2.996-1.848-2.417-.556.58-1.378 2.513 0 5.485a5.726 5.726 0 0 1-3.02-.399 47.114 47.114 0 0 1-4.023-2.633s-1.063 2.875 0 4.53c1.063 1.655 4.204 4.047 11.27 4.047 7.068 0 23.34-1.377 24.802-3.866 1.462-2.488 4.132-14.23 4.132-14.23l-9.786-.87z" fill="url(#ag)" transform="translate(249.333 300.84)"/>
            <path d="M44.345 71.517s4.675 1.896 4.24 8.988c-.435 7.09-4.24 16.67-4.24 16.67s-7.128 0-11.284-4.445l4.18-15.366a7.248 7.248 0 0 1 4.361-4.833c.761-.314 1.668-.604 2.743-1.014z" fill="url(#ah)" transform="translate(249.333 300.84)"/>
            <path d="M293.677 372.357s4.675 1.897 4.24 8.988c-.434 7.092-4.24 16.671-4.24 16.671s-7.127 0-11.283-4.445l4.18-15.367a7.248 7.248 0 0 1 4.361-4.832c.761-.314 1.667-.604 2.742-1.015z" fill="#FFF" opacity=".4"/>
            <path d="M45.879 33.97s-3.854-.507-4.832 2.15c-.616 1.656 1.353 2.936 1.353 2.936s-2.489 2.344 1.208 3.069a2.416 2.416 0 0 0 2.996 2.754s-.423 2.525 2.827 3.407c0 0-1.643 4.373 1.437 4.433h2.912l-1.208 3.359a9.435 9.435 0 0 0 8.89 5.206 43.997 43.997 0 0 1 2.514-4.59c.797-1.04 4.965-6.367 4.965-10.595 0-4.228-1.631-6.729-3.878-7.248a9.664 9.664 0 0 0-3.226-3.854c-2.27-1.534-7.043-2.9-9.737-1.027 0 0-2.416-3.128-4.047-3.128-1.63 0-2.174 1.667-2.174 3.128z" fill="url(#ai)" transform="translate(249.333 300.84)"/>
            <path d="M300.2 353.56s-.277-4.433 3.456-4.433 2.85 7.792-1.728 7.792l-1.727-3.359z" fill="#FFA8A7"/>
        </g>
    </g>
</svg>
