<svg width="80" height="72" xmlns="http://www.w3.org/2000/svg">
    <g fill="none" fill-rule="evenodd">
        <circle fill="#FFC288" cx="40" cy="36" r="36"/>
        <g fill-rule="nonzero">
            <path d="M65.245 24.548H13.66l-2.742-7.657A1.344 1.344 0 0 0 9.651 16H1.345C.602 16 0 16.602 0 17.345V33.63C0 39.799 5 44.8 11.17 44.8h63.333A5.497 5.497 0 0 0 80 39.303c0-8.149-6.606-14.755-14.755-14.755z" fill="#B3DAFE"/>
            <path d="M45.42 24.548H13.66l-2.743-7.657A1.344 1.344 0 0 0 9.651 16H1.345C.602 16 0 16.602 0 17.345V33.63C0 39.799 5 44.8 11.17 44.8h7.23l4.894-3.351h11.379l10.746-16.9z" fill="#0182FC"/>
            <path d="M65.245 24.548H59.77c8.149 0 14.755 6.606 14.755 14.755a5.497 5.497 0 0 1-5.497 5.497h5.475A5.497 5.497 0 0 0 80 39.303c0-8.149-6.606-14.755-14.755-14.755zM23.294 41.449H43.14L9.863 56.556c-.188.086-.392.13-.599.13H4.685c-1.107 0-1.55-1.43-.636-2.056l19.245-13.181z" fill="#8AC9FE"/>
            <path d="M36.75 41.449 3.897 56.365c.193.193.461.32.79.32h4.578c.207 0 .41-.043.599-.129L43.139 41.45H36.75z" fill="#60B7FF"/>
            <path d="M76.063 29.27h-8.04a3.523 3.523 0 0 0 0 7.047h11.675a14.714 14.714 0 0 0-3.635-7.046z" fill="#26A6FE"/>
            <path d="M76.063 29.27h-5.475a14.715 14.715 0 0 1 3.634 7.047h5.476a14.714 14.714 0 0 0-3.635-7.046z" fill="#0593FC"/>
            <g fill="#8AC9FE">
                <path d="M12.523 30.015c-.474 0-.883.274-1.08.672a3.804 3.804 0 0 0-1.54-.324 3.832 3.832 0 0 0-3.828 3.828 3.832 3.832 0 0 0 3.828 3.827c.547 0 1.068-.116 1.54-.324a1.206 1.206 0 0 0 2.288-.534v-5.938c0-.667-.54-1.207-1.208-1.207zm-2.62 5.59a1.415 1.415 0 0 1 0-2.827c.78 0 1.413.634 1.413 1.413s-.634 1.413-1.413 1.413zM21.994 27.221c-.666 0-1.207.54-1.207 1.207v2.045a4.11 4.11 0 0 0-1.72-.376 4.14 4.14 0 0 0-4.135 4.135 4.14 4.14 0 0 0 4.135 4.135 4.11 4.11 0 0 0 1.956-.493 1.205 1.205 0 0 0 2.179-.714v-8.732c0-.666-.54-1.207-1.208-1.207zm-2.927 8.732c-.949 0-1.72-.772-1.72-1.721 0-.949.771-1.72 1.72-1.72.948 0 1.72.771 1.72 1.72s-.772 1.72-1.72 1.72zM28.558 33.104a29.938 29.938 0 0 1-1.36-.544l.012-.011c.762-.675 1.556.38 1.556.38.309.398.999.558 1.483.181a1.208 1.208 0 0 0 .055-1.86l-.334-.292c-.158-.133-1.596-1.282-3.399-.738-.983.296-1.68 1.079-1.818 2.042-.16 1.114.499 2.077 1.204 2.391.035.016.85.378 1.766.716.29.107.416.222.45.27-.03.072-.195.25-.537.25-.659 0-1.033-.355-1.131-.464a1.208 1.208 0 0 0-1.787-.003c-.429.467-.399 1.2.034 1.664.723.775 1.771 1.218 2.884 1.218 1.458 0 2.686-.948 2.919-2.254.17-.957-.25-2.302-1.997-2.946z"/>
            </g>
        </g>
    </g>
</svg>
