<svg width="80" height="80" xmlns="http://www.w3.org/2000/svg">
    <g fill-rule="nonzero" fill="none">
        <path d="M59.837 10.407H0v66.341A3.252 3.252 0 0 0 3.252 80h53.333a3.252 3.252 0 0 0 3.252-3.252V10.407z" fill="#F9F6F9"/>
        <path d="M54.634 10.407v66.341A3.252 3.252 0 0 1 51.382 80h5.203a3.252 3.252 0 0 0 3.252-3.252V10.407h-5.203z" fill="#DDDAEC"/>
        <path d="M56.585 0H3.252A3.252 3.252 0 0 0 0 3.252v7.155h59.837V3.252A3.252 3.252 0 0 0 56.585 0z" fill="#CBAFEA"/>
        <path d="M56.585 0h-5.203a3.252 3.252 0 0 1 3.252 3.252v7.155h5.203V3.252A3.252 3.252 0 0 0 56.585 0z" fill="#BC95E2"/>
        <path d="M4.97 36.927v-18.57c0-.888.72-1.609 1.609-1.609h46.68c.889 0 1.61.72 1.61 1.61v18.569c0 .89-.721 1.61-1.61 1.61H6.579a1.61 1.61 0 0 1-1.61-1.61z" fill="#B3E59F"/>
        <circle fill="#B3E59F" cx="54.634" cy="5.203" r="1.301"/>
        <circle fill="#FFE07D" cx="49.431" cy="5.203" r="1.301"/>
        <circle fill="#DD636E" cx="44.228" cy="5.203" r="1.301"/>
        <path d="M26.342 45.597H15.285a1.207 1.207 0 1 1 0-2.414h11.057a1.207 1.207 0 1 1 0 2.414zM26.342 51.451H5.528a1.207 1.207 0 1 1 0-2.414h20.813a1.207 1.207 0 1 1 0 2.414zM5.528 57.305a1.207 1.207 0 1 1 0-2.415h20.813a1.207 1.207 0 1 1 0 2.415H5.528zM26.342 63.158H5.528a1.207 1.207 0 1 1 0-2.414h20.813a1.207 1.207 0 1 1 0 2.414zM26.342 69.012H5.528a1.207 1.207 0 1 1 0-2.414h20.813a1.207 1.207 0 1 1 0 2.414zM26.342 74.866H5.528a1.207 1.207 0 1 1 0-2.415h20.813a1.207 1.207 0 1 1 0 2.415zM40.65 74.866h-7.154a1.207 1.207 0 1 1 0-2.415h7.154a1.207 1.207 0 1 1 0 2.415zM42.748 69.012h-9.252a1.207 1.207 0 1 1 0-2.414h9.252a1.207 1.207 0 1 1 0 2.414zM46.163 63.158H33.495a1.207 1.207 0 1 1 0-2.414h12.666a1.207 1.207 0 1 1 0 2.414zM33.496 57.305a1.207 1.207 0 1 1 0-2.415h16.081a1.207 1.207 0 1 1 0 2.415H33.496zM52.992 51.451H33.496a1.207 1.207 0 1 1 0-2.414h19.496a1.207 1.207 0 1 1 0 2.414zM55.919 45.597H33.496a1.207 1.207 0 1 1 0-2.414h22.423a1.207 1.207 0 1 1 0 2.414z" fill="#B1E4F9"/>
        <g>
            <path d="M40.26 80a1.207 1.207 0 0 1-1.044-1.811l2.109-3.654a1.207 1.207 0 1 1 2.09 1.207l-2.109 3.654c-.223.387-.629.604-1.046.604z" fill="#407093"/>
            <path d="m77.287 25.067-9.012-5.203 2.276-3.943a3.252 3.252 0 0 1 4.443-1.19l3.38 1.951a3.252 3.252 0 0 1 1.19 4.443l-2.277 3.942z" fill="#DF75A5"/>
            <path d="m78.373 16.682-3.098-1.789a3.252 3.252 0 0 1 1.19 4.443l-2.276 3.943 3.098 1.788 2.277-3.943a3.252 3.252 0 0 0-1.19-4.442z" fill="#DD5CA2"/>
            <path d="m47.793 74.102-4.626 2.396a1.626 1.626 0 0 1-2.372-1.37l-.238-5.203a6.505 6.505 0 0 1 .865-3.55L65.673 24.37l9.013 5.203L50.434 71.58a6.504 6.504 0 0 1-2.641 2.523z" fill="#FFE07D"/>
            <path d="M71.588 27.785 47.336 69.79a6.505 6.505 0 0 1-2.641 2.523l-3.935 2.038.035.777a1.626 1.626 0 0 0 2.372 1.37l4.626-2.396a6.504 6.504 0 0 0 2.641-2.524l24.252-42.005-3.098-1.788z" fill="#FFD064"/>
            <path d="m74.967 29.736-9.575-5.528a1.3 1.3 0 0 1-.476-1.777l1.3-2.253a1.3 1.3 0 0 1 1.777-.476l9.576 5.528a1.3 1.3 0 0 1 .476 1.777l-1.3 2.253a1.3 1.3 0 0 1-1.778.476z" fill="#4A80AA"/>
        </g>
    </g>
</svg>
