<svg width="80" height="80" xmlns="http://www.w3.org/2000/svg">
    <g fill-rule="nonzero" fill="none">
        <path d="M74.41 40c0 22.091-12.319 35.091-34.41 35.091-12.077 0-22.904-.443-30.238-8.905A39.846 39.846 0 0 1 0 40C0 17.909 17.909 0 40 0c13.499 0 25.435 6.686 32.68 16.928 4.61 6.52 1.73 14.48 1.73 23.072z" fill="#FFC288"/>
        <path d="M80 21.01V40c0 21.605-17.131 39.21-38.55 39.973-.481.018-1.609-6.008-2.095-6.008-5.639 0-10.363 4.868-15.23 2.76a40.112 40.112 0 0 1-14.363-10.54h6.155A4.083 4.083 0 0 0 20 62.103V54.44a4.083 4.083 0 0 1 4.083-4.085h11.834A4.083 4.083 0 0 0 40 46.273v-8.678a4.083 4.083 0 0 1 4.083-4.082h11.834A4.083 4.083 0 0 0 60 29.428v-8.417a4.083 4.083 0 0 1 4.083-4.083h11.834A4.083 4.083 0 0 1 80 21.011z" fill="#EDEDED"/>
        <g fill="#DDDAEC">
            <path d="M20.283 66.186h-4.366A4.083 4.083 0 0 0 20 62.102V54.44a4.083 4.083 0 0 1 4.083-4.085h4.365a4.083 4.083 0 0 0-4.082 4.085v7.66a4.083 4.083 0 0 1-4.083 4.085zM44.083 33.513h4.365a4.083 4.083 0 0 0-4.082 4.082v8.678a4.083 4.083 0 0 1-4.083 4.083h-4.366A4.083 4.083 0 0 0 40 46.273v-8.678a4.083 4.083 0 0 1 4.083-4.082zM68.448 16.928a4.083 4.083 0 0 0-4.082 4.083v8.417a4.083 4.083 0 0 1-4.083 4.085h-4.366A4.083 4.083 0 0 0 60 29.428v-8.417a4.083 4.083 0 0 1 4.083-4.083h4.365z"/>
        </g>
        <path d="M71.078 59.712c0 3.31-4 4.966-6.339 2.627l-2.827-2.826-20.462 20.46a39.853 39.853 0 0 1-17.325-3.248l27.5-27.5-2.827-2.828a3.91 3.91 0 0 1-.41-.48c-1.705-2.365-.057-5.858 3.035-5.858h15.941a3.709 3.709 0 0 1 3.713 3.713l.001 15.94z" fill="#DD636E"/>
        <g transform="translate(3.859)">
            <path d="M7.283 12.936a5.195 5.195 0 1 0 0 10.39M8.751 23.776a5.195 5.195 0 1 0 0 10.391" fill="#2B4D66"/>
            <path d="M31.687 28.473H3.325a3.325 3.325 0 0 1 0-6.65h28.362a3.325 3.325 0 0 1 0 6.65z" fill="#FFCBBE"/>
            <path d="M3.325 26.568c-.784 0-1.42-.637-1.42-1.42 0-.783.637-1.42 1.42-1.42h28.362c.783 0 1.42.637 1.42 1.42 0 .783-.637 1.42-1.42 1.42H3.325z" fill="#EAAC9D"/>
            <path d="M31.767 10.885h-3.993v13.27a1.996 1.996 0 1 0 3.993 0v-13.27z" fill="#365E7D"/>
            <path d="M18.05 44.757c-7.082 0-12.823-5.741-12.823-12.824v-7.778C5.227 17.072 10.968 4.8 18.05 4.8c7.083 0 12.824 5.741 12.824 12.824v14.31c0 7.082-5.741 12.823-12.824 12.823z" fill="#FFDDCE"/>
            <path d="M21.762 44.21c-1.174.356-2.42.547-3.71.547h-.002c-7.082 0-12.823-5.742-12.823-12.824v-7.778C5.227 17.073 10.968 4.8 18.05 4.8h.002c1.29 0 2.536.19 3.71.546-5.273 1.59-9.112 6.486-9.112 12.278v14.31c0 5.79 3.84 10.686 9.112 12.277z" fill="#FFCBBE"/>
            <path d="M14.73 25.216c-.9 0-1.63-.73-1.63-1.629v-3.392a1.628 1.628 0 1 1 3.258 0v3.392c0 .9-.73 1.629-1.629 1.629zM24.771 25.216c-.9 0-1.628-.73-1.628-1.629v-3.392a1.628 1.628 0 1 1 3.257 0v3.392c0 .9-.73 1.629-1.629 1.629z" fill="#2B4D66"/>
            <path d="M21.378 28.54h-3.256V11.647a1.628 1.628 0 1 1 3.256 0V28.54z" fill="#FFCBBE"/>
            <path d="M19.104 35.902a5.55 5.55 0 0 1-5.544-5.544.955.955 0 1 1 1.909 0 3.64 3.64 0 0 0 3.636 3.635.955.955 0 1 1 0 1.91z" fill="#EAAC9D"/>
            <path d="M9.219 10.885H5.227v13.27a1.996 1.996 0 0 0 3.992 0v-13.27z" fill="#2B4D66"/>
            <path d="M21.7 26.15h-2.623a1.824 1.824 0 1 0 0 3.65H21.7a1.824 1.824 0 1 0 0-3.65z" fill="#FFCBBE"/>
            <circle fill="#365E7D" cx="9.206" cy="7.467" r="7.105"/>
            <path d="M11.753 14.101a7.107 7.107 0 1 1 0-13.268 7.107 7.107 0 0 0 0 13.268z" fill="#2B4D66"/>
            <path d="M39.044 0H22.497a7.125 7.125 0 1 0 0 14.25h4.742c6.52 0 11.805-5.285 11.805-11.805V0z" fill="#365E7D"/>
            <path d="M21.82 12.163a7.097 7.097 0 0 0 5.039 2.088h-4.363a7.097 7.097 0 0 1-5.038-2.088A7.124 7.124 0 0 1 22.496 0h4.363a7.125 7.125 0 0 0-5.038 12.163z" fill="#2B4D66"/>
        </g>
    </g>
</svg>
