<svg width="80" height="80" xmlns="http://www.w3.org/2000/svg">
    <g fill-rule="nonzero" fill="none">
        <g fill="#50758D">
            <path d="M54.244 32.274a1.207 1.207 0 0 1-.994-1.891L71.28 4.145a1.207 1.207 0 0 1 1.99 1.368L55.24 31.75c-.233.34-.611.524-.996.524z"/>
            <path d="M54.245 32.274c-.264 0-.529-.086-.75-.262L35.465 17.686a1.207 1.207 0 1 1 1.502-1.89L54.997 30.12a1.207 1.207 0 0 1-.752 2.153z"/>
            <path d="M18.029 32.274a1.207 1.207 0 0 1-.748-2.156l18.19-14.326a1.207 1.207 0 0 1 1.493 1.897L18.775 32.015a1.202 1.202 0 0 1-.746.259z"/>
        </g>
        <circle fill="#93DDB7" cx="72.274" cy="4.829" r="4.829"/>
        <circle fill="#2EDFFC" cx="54.245" cy="31.066" r="4.829"/>
        <circle fill="#FFC682" cx="36.217" cy="16.74" r="4.829"/>
        <circle fill="#FD646F" cx="18.028" cy="31.066" r="4.829"/>
        <path d="M21.132 34.764a4.823 4.823 0 0 1-7.293-1.297c-.679-1.174-.822-2.797-.336-4.088a4.828 4.828 0 0 1 3.307-2.985 4.962 4.962 0 0 0 4.322 8.37z" fill="#FC4755"/>
        <path d="M39.32 20.438a4.823 4.823 0 0 1-7.293-1.297c-.678-1.174-.82-2.797-.334-4.087a4.828 4.828 0 0 1 3.306-2.986 4.962 4.962 0 0 0 4.322 8.37z" fill="#FFAC5C"/>
        <path d="M57.349 34.764a4.823 4.823 0 0 1-7.293-1.297c-.678-1.174-.821-2.797-.335-4.088a4.828 4.828 0 0 1 3.306-2.985 4.962 4.962 0 0 0 4.322 8.37z" fill="#27BDF3"/>
        <path d="M75.377 8.526a4.823 4.823 0 0 1-7.293-1.297c-.678-1.173-.821-2.796-.335-4.087A4.828 4.828 0 0 1 71.055.156a4.962 4.962 0 0 0 4.322 8.37z" fill="#5ED297"/>
        <path d="M41.288 74.366H78.39c.89 0 1.61.72 1.61 1.61v2.414c0 .89-.72 1.61-1.61 1.61H2.414c-.666 0-1.27-.27-1.706-.708A2.401 2.401 0 0 1 0 77.586V1.61C0 .72.72 0 1.61 0h2.414c.89 0 1.61.72 1.61 1.61v72.756H41.288z" fill="#50758D"/>
        <path d="M4.829 80H2.414c-.666 0-1.27-.27-1.706-.708A2.401 2.401 0 0 1 0 77.586V1.61C0 .72.721 0 1.61 0h2.414a1.61 1.61 0 0 0-1.61 1.61v75.976c0 .666.27 1.27.709 1.706.436.438 1.04.708 1.706.708z" fill="#2B597F"/>
        <path d="M20.765 68.25h-4.83a1.61 1.61 0 0 1-1.609-1.61V47.324c0-.89.72-1.61 1.61-1.61h4.829c.889 0 1.61.72 1.61 1.61V66.64c0 .889-.721 1.61-1.61 1.61z" fill="#FD646F"/>
        <path d="M38.632 68.25h-4.83a1.61 1.61 0 0 1-1.609-1.61V32.998c0-.889.72-1.61 1.61-1.61h4.829c.889 0 1.61.721 1.61 1.61V66.64c0 .889-.721 1.61-1.61 1.61z" fill="#FFC682"/>
        <path d="M56.66 68.25h-4.829a1.61 1.61 0 0 1-1.61-1.61V47.324c0-.89.721-1.61 1.61-1.61h4.829c.889 0 1.61.72 1.61 1.61V66.64c0 .889-.721 1.61-1.61 1.61z" fill="#2EDFFC"/>
        <path d="M74.688 68.25H69.86a1.61 1.61 0 0 1-1.61-1.61V21.087c0-.89.721-1.61 1.61-1.61h4.83c.888 0 1.609.72 1.609 1.61V66.64c0 .889-.72 1.61-1.61 1.61z" fill="#93DDB7"/>
        <path d="M19.155 68.25h-3.22a1.61 1.61 0 0 1-1.609-1.61V47.324c0-.889.721-1.61 1.61-1.61h3.219a1.61 1.61 0 0 0-1.61 1.61V66.64c0 .888.721 1.61 1.61 1.61z" fill="#FC4755"/>
        <path d="M37.022 68.25h-3.22a1.61 1.61 0 0 1-1.609-1.61V32.998c0-.889.721-1.61 1.61-1.61h3.22a1.61 1.61 0 0 0-1.61 1.61V66.64c0 .888.72 1.61 1.61 1.61z" fill="#FFAC5C"/>
        <path d="M55.05 68.25h-3.219a1.61 1.61 0 0 1-1.61-1.61V47.324c0-.889.721-1.61 1.61-1.61h3.22a1.61 1.61 0 0 0-1.61 1.61V66.64c0 .888.72 1.61 1.61 1.61z" fill="#27BDF3"/>
        <path d="M73.078 68.25H69.86a1.61 1.61 0 0 1-1.61-1.61V21.087c0-.889.722-1.61 1.61-1.61h3.22a1.61 1.61 0 0 0-1.61 1.61V66.64c0 .888.72 1.61 1.61 1.61z" fill="#5ED297"/>
    </g>
</svg>
