<svg width="99" height="99" xmlns="http://www.w3.org/2000/svg">
    <g fill="none" fill-rule="evenodd">
        <circle fill="#F2F2F2" cx="49.5" cy="49.5" r="49.5"/>
        <g opacity=".8" fill-rule="nonzero">
            <path d="M41.766 52.354a8.802 8.802 0 0 0 5.172 1.67h16.53v8.015l10.478-8.015h4.52c4.873 0 8.823-3.938 8.823-8.796V13.796C87.29 8.938 83.34 5 78.466 5H46.938c-4.873 0-8.823 3.938-8.823 8.796v38.558h3.65z" fill="#C6C6C6"/>
            <path d="m55.904 41.13.91.737a8.1 8.1 0 0 0 5.095 1.804h12.91a2.154 2.154 0 0 0 2.15-2.258c-.054-1.158.003-11.706.003-12.895 0-1.19-.964-2.154-2.153-2.154l-8.755-.026 1.072-2.539a9.185 9.185 0 0 0-.487-8.13c-.77-1.19-2.64-.752-2.676.711a9.343 9.343 0 0 1-2.338 6.182l-5.582 6.316h-2.035v12.253h1.886z" fill="#2F5BEA"/>
            <path d="M55.032 43.073h-5.894a.706.706 0 0 1-.705-.705V27.342c0-.39.315-.705.705-.705h5.894c.39 0 .706.316.706.705v15.026c0 .39-.316.705-.706.705z" fill="#2F5BEA"/>
            <path d="M41.778 68.106V36.383c0-3.83-3.115-6.936-6.958-6.936H9.958C6.115 29.447 3 32.552 3 36.383V61.17c0 3.83 3.115 6.936 6.958 6.936h13.658v6.38l8.263-6.38h9.9z" fill="#3BC3FF"/>
            <path d="M31.507 50.815h-5l.547-3.314h4.453c1.752 0 1.752-2.716 0-2.716h-4.004l.748-4.523c.286-1.729-2.394-2.172-2.68-.443l-.82 4.966h-3.277l.748-4.523c.286-1.729-2.394-2.172-2.68-.443l-.821 4.966h-5.45c-1.752 0-1.752 2.716 0 2.716h5l-.547 3.314h-4.453c-1.752 0-1.752 2.716 0 2.716h4.004l-.748 4.523c-.283 1.71 2.394 2.174 2.68.443l.82-4.966h3.277l-.748 4.523c-.282 1.71 2.394 2.174 2.68.443l.821-4.966h5.45c1.752 0 1.752-2.716 0-2.716zm-7.754 0h-3.276l.548-3.314h3.276l-.548 3.314z" fill="#F7F3F1"/>
            <path d="M55.237 63.038H37.594c-2.727 0-4.938 2.204-4.938 4.922v17.59c0 2.719 2.21 4.922 4.938 4.922h9.692V95l5.864-4.527h2.087c2.727 0 4.938-2.204 4.938-4.923V67.96c0-2.718-2.21-4.922-4.938-4.922z" fill="#F96655"/>
            <path d="M46.415 82.732c4.246-2.25 6.446-4.166 6.446-7.133 0-4.092-5.013-5.115-6.446-2.046-1.637-3.172-6.445-2.046-6.445 2.046 0 2.967 2.2 4.882 6.445 7.133z" fill="#F7F3F1"/>
        </g>
    </g>
</svg>
