<svg width="99" height="99" xmlns="http://www.w3.org/2000/svg">
    <g fill-rule="nonzero" fill="none">
        <path d="M98.987 49.493c0 27.335-22.159 49.494-49.494 49.494C22.16 98.987 0 76.828 0 49.493 0 22.16 22.159 0 49.493 0c27.335 0 49.494 22.159 49.494 49.493z" fill="#BC98E6"/>
        <path d="M98.987 49.493c0 5.037-.753 9.897-2.152 14.475a49.217 49.217 0 0 1-3.818 9.108 49.524 49.524 0 0 1-5.617 8.238c-.112.134-.224.267-.338.398-9.075 10.576-22.54 17.275-37.569 17.275-15.027 0-28.493-6.699-37.566-17.275a49.14 49.14 0 0 1-5.955-8.636A49.289 49.289 0 0 1 0 49.493c0-8.935 2.368-17.317 6.511-24.553 8.53 14.9 24.585 24.94 42.982 24.94 18.398 0 34.454-10.04 42.982-24.94 4.143 7.236 6.512 15.618 6.512 24.553z" fill="#9A65D9"/>
        <path d="M93.044 73.022a49.543 49.543 0 0 1-10.139 12.983c-8.804 8.062-20.534 12.982-33.412 12.982-12.877 0-24.607-4.92-33.412-12.982A49.533 49.533 0 0 1 5.943 73.022h87.101z" fill="#5541B6"/>
        <g>
            <path d="M65.213 62.757h-4.491a4.491 4.491 0 0 0-4.492 4.49v11.529a6.745 6.745 0 0 1-6.737 6.737 6.745 6.745 0 0 1-6.737-6.737V67.248c0-2.48-2.01-4.491-4.491-4.491h-4.491a4.491 4.491 0 0 0-4.492 4.49v10.63c0 10.55 7.694 19.989 18.193 21.011.68.066 1.354.099 2.018.099 10.362-.002 18.927-7.836 20.08-17.894.086-.763.131-1.537.131-2.317V67.248a4.491 4.491 0 0 0-4.49-4.491z" fill="#EFB8A0"/>
            <path d="M65.213 62.757h-4.491a4.491 4.491 0 0 0-4.492 4.49v11.529a6.745 6.745 0 0 1-6.737 6.737 6.745 6.745 0 0 1-6.737-6.737V67.248c0-2.48-2.01-4.491-4.491-4.491h2.237a4.491 4.491 0 0 0-4.492 4.49v10.63c0 10.55 4.948 19.39 11.465 21.011.663.165 1.353.099 2.018.099 10.362-.002 18.927-7.836 20.08-17.894.086-.763.131-1.537.131-2.317V67.248a4.49 4.49 0 0 0-4.49-4.491z" fill="#E48B90"/>
            <path d="M69.704 67.248v11.528c0 .78-.044 1.554-.131 2.317-1.153 10.058-9.718 17.892-20.08 17.894V85.513a6.745 6.745 0 0 0 6.737-6.737V67.248c0-2.48 2.011-4.491 4.492-4.491h4.491c2.48 0 4.491 2.01 4.491 4.49z" fill="#E05352"/>
            <path fill="#FBF5EB" d="M42.756 67.248H29.282V53.774h13.474z"/>
            <path fill="#DCE0EF" d="M69.704 67.248H56.23V53.774h13.474v13.474z"/>
            <path d="M49.493 35.808a6.744 6.744 0 0 1-6.737-6.737 6.744 6.744 0 0 1 6.737-6.737 6.744 6.744 0 0 1 6.737 6.737 6.745 6.745 0 0 1-6.737 6.737z" fill="#FBF5EB"/>
            <path d="M49.493 35.808c-3.715 0-3.59-6.737-3.59-6.737s-.125-6.737 3.59-6.737a6.744 6.744 0 0 1 6.737 6.737 6.745 6.745 0 0 1-6.737 6.737z" fill="#F6DBCB"/>
            <path d="M60.722 49.282H38.265v-2.245c0-6.191 5.037-11.229 11.228-11.229s11.229 5.038 11.229 11.229v2.245z" fill="#D1EFE4"/>
            <path d="M60.722 49.282H43.407v-2.245c0-6.191 1.709-11.229 6.086-11.229 6.191 0 11.229 5.038 11.229 11.229v2.245z" fill="#ACE3CE"/>
            <path fill="#DCE0EF" d="m65.207 37.999.04-4.492 8.983.081-.04 4.492zM63.69 45.582l1.936-4.055 8.112 3.871-1.935 4.056zM65.761 29.922 63.9 25.837l7.986-3.503 1.862 4.086z"/>
            <path fill="#FBF5EB" d="m24.781 33.579 8.983-.081.04 4.491-8.982.081zM25.323 45.43l8.112-3.872 1.935 4.055-8.112 3.872zM33.225 29.922 25.24 26.42l1.862-4.086 7.985 3.503z"/>
            <path d="M60.722 49.282v-2.245c0-6.191-5.038-11.229-11.229-11.229v13.474h11.229z" fill="#98BED0"/>
            <path d="M56.23 29.071a6.744 6.744 0 0 0-6.737-6.737v13.474a6.744 6.744 0 0 0 6.737-6.737z" fill="#ECBEA6"/>
        </g>
        <g fill="#FFF">
            <path d="M84.98 70.851h-.295a2.364 2.364 0 0 1-2.363-2.363v-.295h-1.685v.295a2.365 2.365 0 0 1-2.364 2.363h-.295v1.685h.295a2.364 2.364 0 0 1 2.364 2.364v.295h1.685V74.9a2.363 2.363 0 0 1 2.363-2.364h.295v-1.685zM90.57 50.676h-.294a2.364 2.364 0 0 1-2.363-2.364v-.294h-1.685v.294a2.365 2.365 0 0 1-2.364 2.364h-.295v1.685h.295a2.364 2.364 0 0 1 2.364 2.364v.295h1.685v-.295a2.363 2.363 0 0 1 2.363-2.364h.295v-1.685zM13.805 72.536h.294a2.363 2.363 0 0 1 2.364 2.364v.295h1.685V74.9a2.364 2.364 0 0 1 2.364-2.364h.295v-1.685h-.295a2.365 2.365 0 0 1-2.364-2.363v-.295h-1.685v.295A2.364 2.364 0 0 1 14.1 70.85h-.294v1.685zM8.214 52.36h.295a2.363 2.363 0 0 1 2.363 2.365v.295h1.685v-.295a2.364 2.364 0 0 1 2.364-2.364h.295v-1.685h-.295a2.365 2.365 0 0 1-2.364-2.364v-.294h-1.685v.294a2.364 2.364 0 0 1-2.363 2.364h-.295v1.685zM42.76 11.157h-.294a2.364 2.364 0 0 1-2.363-2.364v-.295h-1.685v.295a2.365 2.365 0 0 1-2.364 2.364h-.295v1.685h.295a2.364 2.364 0 0 1 2.364 2.363v.296h1.685v-.296a2.363 2.363 0 0 1 2.363-2.363h.295v-1.685zM63.536 11.157h-.295a2.364 2.364 0 0 1-2.364-2.364v-.295h-1.685v.295a2.365 2.365 0 0 1-2.364 2.364h-.295v1.685h.295a2.364 2.364 0 0 1 2.364 2.363v.296h1.685v-.296a2.363 2.363 0 0 1 2.364-2.363h.295v-1.685z"/>
        </g>
    </g>
</svg>
