<svg width="80" height="80" xmlns="http://www.w3.org/2000/svg">
    <g fill-rule="nonzero" fill="none">
        <g fill="#384656">
            <path d="M40 6.393a1.21 1.21 0 0 0-1.21 1.21v9.547a1.21 1.21 0 1 0 2.42 0V7.603A1.21 1.21 0 0 0 40 6.393zM40 61.64a1.21 1.21 0 0 0-1.21 1.21v9.547a1.21 1.21 0 1 0 2.42 0V62.85A1.21 1.21 0 0 0 40 61.64zM56.259 24.95c.31 0 .62-.117.855-.354l8.821-8.82a1.21 1.21 0 0 0-1.71-1.711l-8.822 8.82a1.21 1.21 0 0 0 .856 2.066zM57.431 55.72a1.21 1.21 0 0 0-1.71 1.711l8.329 8.33a1.206 1.206 0 0 0 1.71 0 1.21 1.21 0 0 0 0-1.71l-8.329-8.33zM15.776 14.065a1.21 1.21 0 0 0-1.711 1.71l8.82 8.822a1.206 1.206 0 0 0 1.712 0 1.21 1.21 0 0 0 0-1.711l-8.821-8.821zM22.569 55.72l-8.741 8.741a1.21 1.21 0 0 0 1.71 1.711l8.742-8.74a1.21 1.21 0 0 0-1.711-1.712zM72.397 38.79H62.85a1.21 1.21 0 1 0 0 2.42h9.547a1.21 1.21 0 1 0 0-2.42zM18.36 40a1.21 1.21 0 0 0-1.21-1.21H7.603a1.21 1.21 0 1 0 0 2.42h9.547A1.21 1.21 0 0 0 18.36 40z"/>
        </g>
        <path d="M4.527 43.03c1.993 0 4.288-1.82 4.288-4.482a4.528 4.528 0 0 0-8.576 0c0 2.758 2.296 4.482 4.288 4.482z" fill="#E7A561"/>
        <path d="M4.074 14.202a8.22 8.22 0 0 0 11.625 0c1.234-1.234 2.277-3.434 2.277-5.767a8.22 8.22 0 0 0-16.178 0c0 2.62 1.042 4.533 2.276 5.767z" fill="#FFE07D"/>
        <path d="M40 7.557c1.992 0 4.288-2.338 4.288-4.482a4.528 4.528 0 0 0-8.576 0c0 2.737 2.296 4.482 4.288 4.482z" fill="#B3E59F"/>
        <path d="M64.301 14.202a8.22 8.22 0 0 0 11.624 0c1.235-1.234 2.278-3.527 2.278-5.767a8.22 8.22 0 0 0-16.178 0c0 2.61 1.042 4.533 2.276 5.767z" fill="#A2DAFD"/>
        <path d="M75.473 43.03c1.992 0 4.288-1.82 4.288-4.482a4.528 4.528 0 0 0-8.576 0c0 3.367 2.295 4.482 4.288 4.482z" fill="#B3E59F"/>
        <path d="M64.301 74.429a8.22 8.22 0 0 0 11.624 0c1.235-1.235 2.278-3.638 2.278-5.767a8.22 8.22 0 0 0-16.178 0c0 2.44 1.042 4.532 2.276 5.767z" fill="#FFE07D"/>
        <path d="M35.712 74.021c0 2.59 2.296 4.482 4.288 4.482 1.992 0 4.288-1.954 4.288-4.482a4.528 4.528 0 0 0-8.576 0z" fill="#E7A561"/>
        <path d="M4.074 74.429a8.22 8.22 0 0 0 11.625 0c1.234-1.235 2.277-3.555 2.277-5.767a8.22 8.22 0 0 0-16.178 0c0 2.605 1.042 4.532 2.276 5.767z" fill="#DE5974"/>
        <circle fill="#6E9FF0" cx="40" cy="40" r="24.301"/>
        <path d="M57.183 54.28c-9.49 9.49-24.876 9.49-34.367 0a24.208 24.208 0 0 1-7.072-15.732c-.399 6.694 1.958 13.521 7.072 18.636 9.49 9.49 24.877 9.49 34.367 0 5.115-5.115 7.471-11.942 7.073-18.636a24.208 24.208 0 0 1-7.073 15.732z" fill="#5B90DC"/>
        <path fill="#E5ECF7" d="m46.21 27.109-13.588 5.643-1.406 3.777 1.406 3.777 6.823 4.24 6.764 1.404 1.406-9.42z"/>
        <path fill="#B9CBEA" d="m32.622 43.21 13.587 5.643 1.406-1.636-1.406-1.267-13.587-5.644-1.406 1.406z"/>
        <path d="M27.782 41.712h3.572l1.268-1.406v-7.554h-4.84c-1.35 0-2.444 1.008-2.444 2.252v3.05c0 1.244.284 3.658 2.444 3.658z" fill="#DE5974"/>
        <path d="M27.565 46.112v5.803a2.529 2.529 0 0 0 5.057 0v-5.803l-2.529-1.406-2.528 1.406z" fill="#384656"/>
        <path fill="#2F3B48" d="M27.565 43.21v2.902h5.057V43.21l-2.529-1.406z"/>
        <path d="M25.338 38.054v2.904c0 1.243 1.095 2.251 2.444 2.251h4.84v-2.903h-4.84c-1.35 0-2.444-1.008-2.444-2.252z" fill="#C7495D"/>
        <path d="M56.565 36.53a5.532 5.532 0 0 0-4.866-4.058l-1.406 4.057 1.406 4.057 2.76.384s2.106-2.17 2.106-4.44z" fill="#FFE07D"/>
        <path d="m51.7 40.586-1.407 1.4 1.406 1.503a5.529 5.529 0 0 0 4.866-6.96 5.532 5.532 0 0 1-4.866 4.057z" fill="#FFD064"/>
        <path d="M46.21 46.056c0 1.516.299 4.15 2.744 4.15 2.445 0 2.745-2.634 2.745-4.15V27.003a2.745 2.745 0 0 0-5.49 0v19.053z" fill="#DE5974"/>
        <path d="M48.954 48.8a2.745 2.745 0 0 1-2.745-2.744v2.903a2.745 2.745 0 1 0 5.49 0v-2.903a2.745 2.745 0 0 1-2.745 2.745zM15.699 73.022a8.22 8.22 0 0 1-13.902-4.36 8.22 8.22 0 1 0 16.178 0 8.181 8.181 0 0 1-2.276 4.36z" fill="#C7495D"/>
        <path d="M40 77.097a4.528 4.528 0 0 1-4.288-3.076 4.527 4.527 0 1 0 8.576 0A4.528 4.528 0 0 1 40 77.097z" fill="#E49542"/>
        <path d="M75.925 73.022a8.22 8.22 0 0 1-13.9-4.36 8.22 8.22 0 1 0 16.178 0 8.18 8.18 0 0 1-2.278 4.36z" fill="#FFD064"/>
        <path d="M4.527 41.624A4.528 4.528 0 0 1 .24 38.548a4.527 4.527 0 1 0 8.576 0 4.528 4.528 0 0 1-4.288 3.076z" fill="#E49542"/>
        <path d="M75.473 41.624a4.528 4.528 0 0 1-4.288-3.076 4.527 4.527 0 1 0 8.576 0 4.528 4.528 0 0 1-4.288 3.076z" fill="#95D6A4"/>
        <path d="M75.925 12.796a8.22 8.22 0 0 1-13.9-4.361 8.22 8.22 0 1 0 16.178 0 8.18 8.18 0 0 1-2.278 4.36z" fill="#83C8EA"/>
        <path d="M40 6.151a4.528 4.528 0 0 1-4.288-3.076 4.527 4.527 0 1 0 8.576 0A4.528 4.528 0 0 1 40 6.151z" fill="#95D6A4"/>
        <path d="M15.699 12.796A8.22 8.22 0 0 1 1.797 8.435a8.22 8.22 0 1 0 16.178 0 8.181 8.181 0 0 1-2.276 4.36z" fill="#FFD064"/>
    </g>
</svg>
